<svg xmlns="http://www.w3.org/2000/svg" width="70" height="70" viewBox="0 0 70 70">
  <g id="Grupo_1101939" data-name="Grupo 1101939" transform="translate(-450.051 -1619)">
    <circle id="Elipse_11629" data-name="Elipse 11629" cx="35" cy="35" r="35" transform="translate(450.051 1619)" fill="#afc7cb"/>
    <g id="Grupo_1101938" data-name="Grupo 1101938" transform="translate(460.967 1631)">
      <path id="Trazado_874972" data-name="Trazado 874972" d="M202.173,191.766a.669.669,0,0,0,.669-.669V189.26a.669.669,0,0,0-1.339,0V191.1A.669.669,0,0,0,202.173,191.766Z" transform="translate(-182.533 -171.76)" fill="#36737d"/>
      <path id="Trazado_874973" data-name="Trazado 874973" d="M181.283,236.159a4.869,4.869,0,0,0,2.132.464,5.366,5.366,0,0,0,2.117-.439.669.669,0,0,0-.525-1.231,3.83,3.83,0,0,1-3.1.023.669.669,0,0,0-.624,1.184Z" transform="translate(-163.793 -213.934)" fill="#36737d"/>
      <path id="Trazado_874974" data-name="Trazado 874974" d="M46.132,26.639a1.905,1.905,0,0,0-1.963-.326,4.894,4.894,0,0,0-1.947,1.235,5.4,5.4,0,0,0-.955,1.278.669.669,0,1,0,1.185.623,4.049,4.049,0,0,1,.717-.955,3.6,3.6,0,0,1,1.393-.9c.332-.1.556-.075.624-.007.161.161.041,1.066-.909,2.017a3.977,3.977,0,0,1-1.018.749.669.669,0,0,0-.367.677,53.619,53.619,0,0,1,.195,12.522.918.918,0,0,1-.915.8H29.523a64.27,64.27,0,0,1,.069-13.431.669.669,0,0,0-.339-.645,4.122,4.122,0,0,1-.881-.677c-.95-.95-1.07-1.856-.909-2.017s1.066-.041,2.017.909a4.047,4.047,0,0,1,.717.955.669.669,0,0,0,.711.347,34.779,34.779,0,0,1,7.8-.348.669.669,0,0,0,.083-1.336,37.17,37.17,0,0,0-7.659.289,5.632,5.632,0,0,0-.7-.854c-1.374-1.374-3.055-1.764-3.91-.909-.735.735-.549,2.079.388,3.314H25.033v-.539a1.467,1.467,0,0,0-1.465-1.465h-.859V27.1a6.228,6.228,0,0,0,5.523-5.645H29.8a1.985,1.985,0,0,0,1.983-1.983V16.16A1.985,1.985,0,0,0,29.8,14.177H28.256V12.363h3.893a2.021,2.021,0,1,0,0-4.041H28.113L26.5,1.692a2.216,2.216,0,0,0-2.85-1.58L19.64,1.438,15.631.112a2.216,2.216,0,0,0-2.85,1.58l-.993,4.08a.669.669,0,0,0,1.3.317l.993-4.08a.877.877,0,0,1,1.128-.626l4.219,1.4a.669.669,0,0,0,.421,0l4.219-1.4a.877.877,0,0,1,1.128.626l1.537,6.314H7.131a2.021,2.021,0,0,0,0,4.041h3.893v1.814H9.478A1.985,1.985,0,0,0,7.495,16.16v3.31a1.985,1.985,0,0,0,1.983,1.983h1.57A6.228,6.228,0,0,0,16.571,27.1v.85h-.859a1.467,1.467,0,0,0-1.465,1.465v.539H12.624l-.27-.748a1.9,1.9,0,0,0-3.1-.731,1.9,1.9,0,0,0-3.181,1.74,6.859,6.859,0,0,0-4.986,6.6v6.694A2.188,2.188,0,0,0,3.27,45.693h38.9a2.257,2.257,0,0,0,2.245-1.984,54.2,54.2,0,0,0-.144-12.394,5.574,5.574,0,0,0,.952-.766c1.374-1.374,1.765-3.055.909-3.91ZM23.568,29.287a.127.127,0,0,1,.127.127v1.1l-1.34,4.041-1.742-1.621L22.5,31.1c.016-.016.032-.032.046-.049a.669.669,0,0,0,.158-.432V29.287ZM29.8,15.516a.645.645,0,0,1,.644.644v3.31a.645.645,0,0,1-.644.644H28.256v-4.6ZM6.449,10.343a.683.683,0,0,1,.682-.682H32.149a.682.682,0,1,1,0,1.364H7.131a.683.683,0,0,1-.682-.682ZM8.834,19.47V16.16a.645.645,0,0,1,.644-.644h1.546v4.6H9.478a.645.645,0,0,1-.644-.644Zm3.529,1.447V12.364H26.917v8.553a4.884,4.884,0,0,1-4.878,4.878.669.669,0,0,0-.669.669v3.874l-1.73,1.674-1.73-1.674V26.464a.669.669,0,0,0-.669-.669,4.884,4.884,0,0,1-4.878-4.878Zm3.223,8.5a.127.127,0,0,1,.127-.127h.859v1.335a.669.669,0,0,0,.158.432c.014.017.03.034.046.049l1.892,1.831-1.742,1.621-1.34-4.041v-1.1Zm-1.153,1.878,1.25,3.769a1.289,1.289,0,0,0,2.09.535l1.2-1.115v2.485a.669.669,0,0,0,1.339,0V34.48l1.2,1.115a1.289,1.289,0,0,0,2.09-.535l1.25-3.769h3.368a64.564,64.564,0,0,0-.038,13.063H17.829L13.108,31.291h1.325ZM2.423,43.507V36.813A5.5,5.5,0,0,1,6.5,31.481l.772,2.136V44.354H3.27A.848.848,0,0,1,2.423,43.507Zm6.191-6.185,2.541,7.032H8.614ZM7.562,30.473l0-.012-.151-.417a.565.565,0,0,1,.531-.757.567.567,0,0,1,.532.373l5.31,14.694h-1.2ZM15.2,44.354l-5.171-14.31a.565.565,0,0,1,.531-.757.567.567,0,0,1,.531.373l5.31,14.694Z" transform="translate(0 0)" fill="#36737d"/>
      <path id="Trazado_874975" data-name="Trazado 874975" d="M355.115,381.391l-1.582,1.582a3.076,3.076,0,1,0,4.35,4.35l1.582-1.582a3.076,3.076,0,0,0-4.35-4.35Zm-.636,2.529,1.582-1.582a1.74,1.74,0,0,1,1.888-.378l-3.849,3.849A1.74,1.74,0,0,1,354.479,383.92Zm4.039.874-1.582,1.582a1.74,1.74,0,0,1-1.889.379l3.85-3.85A1.74,1.74,0,0,1,358.518,384.794Z" transform="translate(-320.175 -346.534)" fill="#36737d"/>
    </g>
  </g>
</svg>
