<svg xmlns="http://www.w3.org/2000/svg" width="118" height="118" viewBox="0 0 118 118">
  <g id="Grupo_1102798" data-name="Grupo 1102798" transform="translate(-1161 -1346.758)">
    <g id="Grupo_1102158" data-name="Grupo 1102158" transform="translate(892.219 -3076.238)">
      <path id="Trazado_874186" data-name="Trazado 874186" d="M45,0A45,45,0,1,1,0,45,45,45,0,0,1,45,0Z" transform="translate(282.781 4437)" fill="#f8953e"/>
      <g id="Grupo_1102713" data-name="Grupo 1102713" transform="translate(302.14 4456.423)">
        <path id="Trazado_875743" data-name="Trazado 875743" d="M292,206.9a.9.9,0,1,0,.9-.9A.9.9,0,0,0,292,206.9Z" transform="translate(-265.774 -187.498)" fill="#fff"/>
        <path id="Trazado_875744" data-name="Trazado 875744" d="M2.694,45.985H32.513a2.7,2.7,0,0,0,2.694-2.694V8.083a2.7,2.7,0,0,0-2.694-2.694H28.022v-.9a.9.9,0,0,0-.9-.9H22.686a5.391,5.391,0,0,0-10.164,0H8.083a.9.9,0,0,0-.9.9v.9H2.694A2.7,2.7,0,0,0,0,8.083V43.291A2.7,2.7,0,0,0,2.694,45.985Zm6.287-40.6H13.2a.9.9,0,0,0,.88-.72,3.594,3.594,0,0,1,7.041,0,.9.9,0,0,0,.88.72h4.221v1.8H8.982ZM1.8,8.083a.9.9,0,0,1,.9-.9H7.185v.9a.9.9,0,0,0,.9.9H27.124a.9.9,0,0,0,.9-.9v-.9h4.491a.9.9,0,0,1,.9.9V43.291a.9.9,0,0,1-.9.9H2.694a.9.9,0,0,1-.9-.9Z" fill="#fff"/>
        <path id="Trazado_875745" data-name="Trazado 875745" d="M62.059,171.126a.9.9,0,0,0,1.27,0l3.593-3.593a.9.9,0,1,0-1.27-1.27l-2.957,2.958-1.161-1.161a.9.9,0,1,0-1.27,1.27Z" transform="translate(-54.61 -151.091)" fill="#fff"/>
        <path id="Trazado_875746" data-name="Trazado 875746" d="M62.059,271.126a.9.9,0,0,0,1.27,0l3.593-3.593a.9.9,0,1,0-1.27-1.27l-2.957,2.958-1.161-1.161a.9.9,0,1,0-1.27,1.27Z" transform="translate(-54.61 -242.109)" fill="#fff"/>
        <path id="Trazado_875747" data-name="Trazado 875747" d="M62.694,366a2.694,2.694,0,1,0,2.694,2.694A2.7,2.7,0,0,0,62.694,366Zm0,3.593a.9.9,0,1,1,.9-.9A.9.9,0,0,1,62.694,369.593Z" transform="translate(-54.611 -333.128)" fill="#fff"/>
        <path id="Trazado_875748" data-name="Trazado 875748" d="M186.9,167.8h11.317a.9.9,0,0,0,0-1.8H186.9a.9.9,0,0,0,0,1.8Z" transform="translate(-169.294 -151.091)" fill="#fff"/>
        <path id="Trazado_875749" data-name="Trazado 875749" d="M186.9,207.8h5.928a.9.9,0,0,0,0-1.8H186.9a.9.9,0,1,0,0,1.8Z" transform="translate(-169.294 -187.498)" fill="#fff"/>
        <path id="Trazado_875750" data-name="Trazado 875750" d="M186.9,267.8h11.317a.9.9,0,1,0,0-1.8H186.9a.9.9,0,1,0,0,1.8Z" transform="translate(-169.294 -242.109)" fill="#fff"/>
        <path id="Trazado_875751" data-name="Trazado 875751" d="M186.9,307.8h7.724a.9.9,0,1,0,0-1.8H186.9a.9.9,0,1,0,0,1.8Z" transform="translate(-169.294 -278.517)" fill="#fff"/>
        <path id="Trazado_875752" data-name="Trazado 875752" d="M186.9,367.8h11.317a.9.9,0,1,0,0-1.8H186.9a.9.9,0,1,0,0,1.8Z" transform="translate(-169.294 -333.128)" fill="#fff"/>
        <path id="Trazado_875753" data-name="Trazado 875753" d="M186.9,407.8h7.724a.9.9,0,1,0,0-1.8H186.9a.9.9,0,1,0,0,1.8Z" transform="translate(-169.294 -369.535)" fill="#fff"/>
        <path id="Trazado_875754" data-name="Trazado 875754" d="M438.2,65.3l-1.771-4.72a.9.9,0,0,0-.841-.583h0a.9.9,0,0,0-.841.583l-1.772,4.725a15.429,15.429,0,0,0-.979,5.4V97.9a2.7,2.7,0,0,0,2.694,2.694h1.8a2.7,2.7,0,0,0,2.694-2.694V70.711A15.439,15.439,0,0,0,438.2,65.3ZM433.8,70.711a13.637,13.637,0,0,1,.111-1.73h3.37a13.6,13.6,0,0,1,.112,1.73V92.872H433.8V70.711Zm1.8-7.255.931,2.481c.153.409.286.826.4,1.248h-2.659c.113-.422.246-.839.4-1.247Zm.9,35.344h-1.8a.9.9,0,0,1-.9-.9V94.669h3.593V97.9A.9.9,0,0,1,436.491,98.8Z" transform="translate(-393.2 -54.611)" fill="#fff"/>
      </g>
    </g>
    <g id="Trazado_876302" data-name="Trazado 876302" transform="translate(1165 1350.758)" fill="none" stroke-linecap="round">
      <path d="M55,0A55,55,0,1,1,0,55,55,55,0,0,1,55,0Z" stroke="none"/>
      <path d="M 55 0 C 24.62434387207031 0 0 24.62434387207031 0 55 C 0 85.37567138671875 24.62434387207031 110 55 110 C 85.37567138671875 110 110 85.37567138671875 110 55 C 110 24.62434387207031 85.37567138671875 0 55 0 M 55 -4 C 62.96318054199219 -4 70.6903076171875 -2.439491271972656 77.96669006347656 0.6381607055664062 C 81.46354675292969 2.117202758789062 84.83596801757812 3.947639465332031 87.99025726318359 6.078651428222656 C 91.11354827880859 8.188705444335938 94.05043792724609 10.61181640625 96.71930694580078 13.28070831298828 C 99.38818359375 15.9495849609375 101.8113098144531 18.88645172119141 103.9213638305664 22.00974273681641 C 106.052360534668 25.16405487060547 107.8827972412109 28.53645324707031 109.3618545532227 32.03330993652344 C 112.4394912719727 39.30970764160156 114 47.03681945800781 114 55 C 114 62.96318054199219 112.4394912719727 70.6903076171875 109.3618545532227 77.96669006347656 C 107.8827972412109 81.46354675292969 106.052360534668 84.83596801757812 103.9213638305664 87.99025726318359 C 101.8113098144531 91.11354827880859 99.38818359375 94.05043792724609 96.71930694580078 96.71930694580078 C 94.05043792724609 99.38818359375 91.11354827880859 101.8113098144531 87.99025726318359 103.9213638305664 C 84.83596801757812 106.052360534668 81.46354675292969 107.8827972412109 77.96669006347656 109.3618545532227 C 70.6903076171875 112.4394912719727 62.96318054199219 114 55 114 C 47.03681945800781 114 39.30970764160156 112.4394912719727 32.03330993652344 109.3618545532227 C 28.53645324707031 107.8827972412109 25.16405487060547 106.052360534668 22.00974273681641 103.9213638305664 C 18.88645172119141 101.8113098144531 15.9495849609375 99.38818359375 13.28070831298828 96.71930694580078 C 10.61181640625 94.05043792724609 8.188705444335938 91.11354827880859 6.078651428222656 87.99025726318359 C 3.947639465332031 84.83596801757812 2.117202758789062 81.46354675292969 0.6381607055664062 77.96669006347656 C -2.439491271972656 70.6903076171875 -4 62.96318054199219 -4 55 C -4 47.03681945800781 -2.439491271972656 39.30970764160156 0.6381607055664062 32.03330993652344 C 2.117202758789062 28.53645324707031 3.947639465332031 25.16405487060547 6.078636169433594 22.00974273681641 C 8.188705444335938 18.88645172119141 10.61181640625 15.9495849609375 13.28070831298828 13.28070831298828 C 15.9495849609375 10.61181640625 18.88645172119141 8.188705444335938 22.00974273681641 6.078636169433594 C 25.16405487060547 3.947639465332031 28.53645324707031 2.117202758789062 32.03330993652344 0.6381607055664062 C 39.30970764160156 -2.439491271972656 47.03681945800781 -4 55 -4 Z" stroke="none" fill="#f8953e"/>
    </g>
  </g>
</svg>
