<svg xmlns="http://www.w3.org/2000/svg" xmlns:xlink="http://www.w3.org/1999/xlink" width="190" height="91" viewBox="0 0 190 91">
  <defs>
    <clipPath id="clip-path">
      <rect id="Rectángulo_402292" data-name="Rectángulo 402292" width="42" height="70" fill="#9de1ba" stroke="#707070" stroke-width="1"/>
    </clipPath>
    <filter id="Trazado_874970" x="-44.032" y="0.113" width="94.406" height="94.406" filterUnits="userSpaceOnUse">
      <feOffset dy="16" input="SourceAlpha"/>
      <feGaussianBlur stdDeviation="9" result="blur"/>
      <feFlood flood-opacity="0.161"/>
      <feComposite operator="in" in2="blur"/>
      <feComposite in="SourceGraphic"/>
    </filter>
    <clipPath id="clip-path-2">
      <rect id="Rectángulo_402133" data-name="Rectángulo 402133" width="30.091" height="29.986" fill="#ebc54a"/>
    </clipPath>
  </defs>
  <g id="Grupo_1102160" data-name="Grupo 1102160" transform="translate(-1230 -1498)">
    <rect id="Rectángulo_402288" data-name="Rectángulo 402288" width="190" height="91" rx="10" transform="translate(1230 1498)" fill="#d7e3e5"/>
    <g id="Enmascarar_grupo_1098767" data-name="Enmascarar grupo 1098767" transform="translate(1230.051 1509)" clip-path="url(#clip-path)">
      <g transform="matrix(1, 0, 0, 1, -0.05, -11)" filter="url(#Trazado_874970)">
        <path id="Trazado_874970-2" data-name="Trazado 874970" d="M20.2,0A20.2,20.2,0,1,1,0,20.2,20.2,20.2,0,0,1,20.2,0Z" transform="translate(-17.03 11.11)" fill="#f8953e"/>
      </g>
    </g>
    <g id="Grupo_1101935" data-name="Grupo 1101935" transform="translate(1381.102 1549.014)">
      <g id="Grupo_1099488" data-name="Grupo 1099488" clip-path="url(#clip-path-2)">
        <path id="Trazado_873339" data-name="Trazado 873339" d="M30.077,14.852c.067-.421-.089-.545-.524-.543-3.6.018-7.209.01-10.814.01h-.507c3.3-1.615,6.606-3.133,9.906-4.653.907-.418.9-.416.4-1.3-.111-.2-.2-.23-.4-.133-.477.234-.963.448-1.447.669l-8.041,3.679-.131-.131h0c.639-.646,1.275-1.3,1.917-1.938q2.676-2.675,5.361-5.34c.246-.242.32-.418.011-.641a.917.917,0,0,1-.22-.216c-.272-.4-.487-.306-.8,0q-3.754,3.78-7.539,7.53c-.134.134-.275.261-.487.462a1.922,1.922,0,0,1,.036-.322Q18.7,6.906,20.587,1.826c.252-.679.234-.644-.43-.945-.45-.2-.59-.08-.746.349-1.137,3.14-2.3,6.271-3.462,9.4-.061.163-.067.369-.275.5,0-.677,0-1.324,0-1.971Q15.665,4.58,15.655,0H14.419a.776.776,0,0,0-.135.585c0,3.653,0,7.306,0,10.919C12.756,8.174,11.18,4.825,9.63,1.465,9.411.991,9.263.98,8.613,1.272c-.532.239-.606.366-.388.856.789,1.77,1.623,3.52,2.434,5.281.593,1.288,1.2,2.571,1.8,3.879C10.087,8.916,7.74,6.559,5.379,4.216c-.409-.405-.611-.373-1.076.1-.444.447-.46.594-.036,1.02Q8.1,9.182,11.956,13.024,8.618,11.8,5.285,10.579c-1.177-.429-2.348-.874-3.528-1.293-.275-.1-.557-.206-.791.1-.525.7-.394,1.138.416,1.43,2.7.972,5.38,1.974,8.074,2.951a7.651,7.651,0,0,0,1.232.437,4.338,4.338,0,0,0-.473-.029q-4.788,0-9.576,0A.85.85,0,0,0,0,14.316v1.339H11.834a.667.667,0,0,1-.3.229q-4.8,2.214-9.609,4.428c-.842.388-.829.385-.429,1.217.123.256.229.332.5.191.393-.207.8-.382,1.209-.567l8.218-3.759.131.132L4.488,24.59c-.541.541-.513.516-.015,1.078.324.365.5.284.8-.02,1.822-1.843,3.667-3.664,5.5-5.5.81-.811,1.608-1.634,2.429-2.469a.374.374,0,0,1-.007.411q-.647,1.761-1.3,3.522c-.837,2.266-1.669,4.535-2.519,6.8-.125.333-.088.51.278.576a.826.826,0,0,1,.289.105c.418.264.56.069.706-.332q1.712-4.711,3.466-9.406c.062-.167.07-.381.281-.514v9.986c0,.137,0,.275,0,.412.016.848-.12.686.735.744.492.034.551-.162.547-.583-.018-2.283-.009-4.566-.009-6.849V18.144a6.889,6.889,0,0,1,.691,1.243c1.4,3.017,2.8,6.031,4.189,9.054.159.347.307.454.631.224a.88.88,0,0,1,.281-.125c.422-.111.444-.31.262-.7-1.438-3.055-2.852-6.122-4.267-9.188-.054-.116-.183-.231-.08-.476.382.4.715.771,1.067,1.122,2.137,2.135,4.283,4.262,6.413,6.4.265.266.451.331.685,0a.818.818,0,0,1,.183-.181c.349-.254.375-.453.028-.79-1.807-1.761-3.584-3.553-5.369-5.336-.884-.883-1.763-1.771-2.734-2.747.278.091.438.139.594.2q2.656.97,5.31,1.943,2.317.849,4.633,1.7c.745.273.727.263,1.026-.464.15-.365.1-.522-.294-.661-2.276-.811-4.542-1.649-6.811-2.48q-1.58-.578-3.158-1.162l.016-.076h.552c3.364,0,6.729,0,10.093.007.347,0,.52-.071.462-.447a1.185,1.185,0,0,1,0-.36" fill="#ebc54a"/>
      </g>
    </g>
    <g id="Grupo_1102716" data-name="Grupo 1102716" transform="translate(1284.766 1503.83)">
      <path id="Trazado_875755" data-name="Trazado 875755" d="M2.1,49.488a1.271,1.271,0,0,0,1,1.143l4.434.957a20.1,20.1,0,0,0,.6,2.229L4.775,56.857a1.272,1.272,0,0,0-.294,1.49,25.441,25.441,0,0,0,2.031,3.543,1.272,1.272,0,0,0,1.436.487l4.309-1.388A20.386,20.386,0,0,0,13.9,62.631L12.511,66.94A1.272,1.272,0,0,0,13,68.377a25.442,25.442,0,0,0,3.543,2.031,1.273,1.273,0,0,0,1.49-.294l3.041-3.356a20.482,20.482,0,0,0,2.23.6l.957,4.434a1.274,1.274,0,0,0,1.141,1c.677.053,1.355.1,2.046.1s1.369-.048,2.046-.1a1.271,1.271,0,0,0,1.143-1l.957-4.434a20.122,20.122,0,0,0,2.23-.6l3.041,3.356a1.271,1.271,0,0,0,1.49.294A25.569,25.569,0,0,0,41.9,68.377a1.272,1.272,0,0,0,.487-1.436L41,62.631a20.58,20.58,0,0,0,1.641-1.64l4.309,1.388a1.27,1.27,0,0,0,1.436-.487,25.442,25.442,0,0,0,2.031-3.543,1.272,1.272,0,0,0-.294-1.49l-3.356-3.041a20.481,20.481,0,0,0,.6-2.23l4.434-.957a1.274,1.274,0,0,0,1-1.141c.052-.678.1-1.356.1-2.047s-.048-1.369-.1-2.046a1.271,1.271,0,0,0-1-1.143L47.357,43.3a20.122,20.122,0,0,0-.6-2.23l3.356-3.041a1.272,1.272,0,0,0,.294-1.49,25.569,25.569,0,0,0-2.031-3.543,1.27,1.27,0,0,0-1.436-.487l-4.309,1.388a20.386,20.386,0,0,0-1.641-1.641l1.388-4.309a1.272,1.272,0,0,0-.487-1.436,25.441,25.441,0,0,0-3.543-2.031,1.27,1.27,0,0,0-1.49.294l-3.041,3.356a20.484,20.484,0,0,0-2.23-.6L30.633,23.1a1.274,1.274,0,0,0-1.141-1,25.859,25.859,0,0,0-4.093,0,1.271,1.271,0,0,0-1.143,1L23.3,27.53a20.1,20.1,0,0,0-2.229.6L18.03,24.769a1.271,1.271,0,0,0-1.49-.294A25.441,25.441,0,0,0,13,26.506a1.272,1.272,0,0,0-.487,1.436L13.9,32.252a20.386,20.386,0,0,0-1.641,1.641L7.948,32.505a1.269,1.269,0,0,0-1.436.487,25.441,25.441,0,0,0-2.031,3.543,1.272,1.272,0,0,0,.294,1.49l3.356,3.041a20.483,20.483,0,0,0-.6,2.23L3.1,44.254a1.274,1.274,0,0,0-1,1.141c-.053.678-.1,1.356-.1,2.047s.048,1.369.1,2.046Zm2.47-2.948L8.9,45.6a1.273,1.273,0,0,0,.987-1.039,17.737,17.737,0,0,1,.915-3.424,1.271,1.271,0,0,0-.336-1.393L7.2,36.787c.285-.546.583-1.069.891-1.564l4.194,1.351a1.277,1.277,0,0,0,1.375-.4,17.889,17.889,0,0,1,2.517-2.517,1.271,1.271,0,0,0,.4-1.375l-1.351-4.194q.742-.464,1.564-.891l2.962,3.27a1.274,1.274,0,0,0,1.394.336,17.651,17.651,0,0,1,3.423-.915,1.273,1.273,0,0,0,1.039-.987l.934-4.328a16.757,16.757,0,0,1,1.805,0l.935,4.328a1.273,1.273,0,0,0,1.039.987,17.737,17.737,0,0,1,3.424.915,1.27,1.27,0,0,0,1.393-.336L38.1,27.195c.546.285,1.069.583,1.564.891l-1.351,4.194a1.274,1.274,0,0,0,.4,1.375,17.889,17.889,0,0,1,2.517,2.517,1.268,1.268,0,0,0,1.375.4L46.8,35.224q.464.742.891,1.562l-3.27,2.962a1.272,1.272,0,0,0-.336,1.394A17.651,17.651,0,0,1,45,44.565a1.273,1.273,0,0,0,.987,1.039l4.328.934c.017.3.028.6.028.9s-.01.6-.027.9l-4.328.935a1.273,1.273,0,0,0-.987,1.039,17.737,17.737,0,0,1-.915,3.424,1.271,1.271,0,0,0,.336,1.393L47.7,58.1c-.285.546-.583,1.069-.891,1.564L42.611,58.31a1.267,1.267,0,0,0-1.375.4,17.957,17.957,0,0,1-2.517,2.517,1.272,1.272,0,0,0-.4,1.374L39.666,66.8q-.742.464-1.562.891l-2.962-3.27a1.277,1.277,0,0,0-1.394-.336A17.652,17.652,0,0,1,30.324,65a1.273,1.273,0,0,0-1.039.987l-.934,4.328a16.757,16.757,0,0,1-1.805,0l-.935-4.328A1.273,1.273,0,0,0,24.571,65a17.737,17.737,0,0,1-3.424-.915,1.269,1.269,0,0,0-1.393.336l-2.962,3.269c-.546-.285-1.069-.583-1.564-.891L16.579,62.6a1.274,1.274,0,0,0-.4-1.375,17.889,17.889,0,0,1-2.517-2.517,1.271,1.271,0,0,0-1.375-.4L8.089,59.659Q7.626,58.917,7.2,58.1l3.27-2.962a1.272,1.272,0,0,0,.336-1.394,17.651,17.651,0,0,1-.915-3.423A1.273,1.273,0,0,0,8.9,49.277l-4.331-.931c-.015-.3-.027-.6-.027-.9S4.555,46.838,4.571,46.54Z" transform="translate(0 5.45)" fill="#36737d"/>
      <path id="Trazado_875756" data-name="Trazado 875756" d="M60.542,20.111a1.271,1.271,0,0,0,.882-1.067,14.963,14.963,0,0,0,.112-1.776,15.221,15.221,0,0,0-.111-1.776,1.271,1.271,0,0,0-.882-1.067l-3.528-1.108q-.158-.433-.351-.85l1.71-3.276a1.275,1.275,0,0,0-.13-1.378,15.4,15.4,0,0,0-2.518-2.518,1.275,1.275,0,0,0-1.378-.131L51.07,6.873q-.416-.191-.85-.35L49.111,2.995a1.271,1.271,0,0,0-1.067-.882,14.075,14.075,0,0,0-3.554,0,1.271,1.271,0,0,0-1.067.882L42.315,6.523q-.433.158-.85.351l-3.276-1.71a1.278,1.278,0,0,0-1.378.13,15.4,15.4,0,0,0-2.518,2.518,1.273,1.273,0,0,0-.131,1.378l1.709,3.276q-.191.416-.35.85l-3.528,1.108a1.271,1.271,0,0,0-.882,1.067,14.305,14.305,0,0,0,0,3.552,1.271,1.271,0,0,0,.882,1.067l3.528,1.108q.158.433.351.85l-1.71,3.276a1.275,1.275,0,0,0,.13,1.378,15.4,15.4,0,0,0,2.518,2.518,1.275,1.275,0,0,0,1.378.131l3.276-1.709q.416.191.85.35l1.108,3.528a1.271,1.271,0,0,0,1.067.882,15.038,15.038,0,0,0,1.779.112,15.222,15.222,0,0,0,1.776-.111,1.271,1.271,0,0,0,1.067-.882l1.108-3.528q.433-.158.85-.351l3.276,1.71a1.273,1.273,0,0,0,1.378-.13,15.4,15.4,0,0,0,2.518-2.518,1.273,1.273,0,0,0,.131-1.378l-1.71-3.276q.193-.416.351-.85Zm-4.911-1.125a1.276,1.276,0,0,0-.837.849,8.962,8.962,0,0,1-.679,1.646,1.269,1.269,0,0,0-.008,1.191l1.615,3.094a12.983,12.983,0,0,1-.954.954l-3.094-1.615a1.273,1.273,0,0,0-1.191.008,8.962,8.962,0,0,1-1.646.679,1.276,1.276,0,0,0-.849.837l-1.048,3.339a10.719,10.719,0,0,1-1.341,0l-1.048-3.339a1.276,1.276,0,0,0-.849-.837,8.841,8.841,0,0,1-1.645-.679,1.271,1.271,0,0,0-1.192-.008l-3.094,1.615a12.984,12.984,0,0,1-.954-.954l1.615-3.094a1.273,1.273,0,0,0-.008-1.191,8.962,8.962,0,0,1-.679-1.646,1.276,1.276,0,0,0-.837-.849l-3.339-1.048c-.015-.233-.022-.455-.022-.671s.006-.438.022-.671L36.9,15.549a1.276,1.276,0,0,0,.837-.849,8.841,8.841,0,0,1,.679-1.645,1.271,1.271,0,0,0,.008-1.192L36.814,8.769a12.984,12.984,0,0,1,.954-.954l3.094,1.615a1.276,1.276,0,0,0,1.191-.008A8.962,8.962,0,0,1,43.7,8.742a1.276,1.276,0,0,0,.849-.837L45.6,4.566a10.718,10.718,0,0,1,1.341,0L47.987,7.9a1.276,1.276,0,0,0,.849.837,8.841,8.841,0,0,1,1.645.679,1.271,1.271,0,0,0,1.192.008l3.094-1.615a12.984,12.984,0,0,1,.954.954l-1.615,3.094a1.273,1.273,0,0,0,.008,1.191,8.962,8.962,0,0,1,.679,1.646,1.276,1.276,0,0,0,.837.849L58.969,16.6c.015.233.022.455.022.671s-.006.438-.022.671Z" transform="translate(7.897 0)" fill="#36737d"/>
      <path id="Trazado_875757" data-name="Trazado 875757" d="M66.507,37.133l-2.186-.776a10.313,10.313,0,0,0-.429-1.039l.994-2.093a1.267,1.267,0,0,0-.148-1.328,12.8,12.8,0,0,0-2.187-2.188,1.273,1.273,0,0,0-1.33-.148l-2.094.994a10.162,10.162,0,0,0-1.038-.427l-.777-2.186a1.275,1.275,0,0,0-1.046-.837,11.724,11.724,0,0,0-3.088,0,1.271,1.271,0,0,0-1.046.837l-.776,2.186a10.312,10.312,0,0,0-1.039.429l-2.093-.994a1.273,1.273,0,0,0-1.328.148A12.8,12.8,0,0,0,44.707,31.9a1.274,1.274,0,0,0-.148,1.33l.994,2.094a10.162,10.162,0,0,0-.427,1.038l-2.186.777a1.275,1.275,0,0,0-.837,1.046,12.465,12.465,0,0,0-.1,1.542,12.753,12.753,0,0,0,.1,1.543,1.271,1.271,0,0,0,.837,1.046l2.186.776a10.312,10.312,0,0,0,.429,1.039l-.994,2.093a1.267,1.267,0,0,0,.148,1.328,12.8,12.8,0,0,0,2.187,2.188,1.275,1.275,0,0,0,1.33.148l2.094-.994a10.162,10.162,0,0,0,1.038.427l.777,2.186a1.275,1.275,0,0,0,1.046.837,12.289,12.289,0,0,0,1.543.1,12.753,12.753,0,0,0,1.543-.1,1.271,1.271,0,0,0,1.046-.837l.776-2.186a10.311,10.311,0,0,0,1.039-.429l2.093.994a1.264,1.264,0,0,0,1.328-.148,12.8,12.8,0,0,0,2.188-2.187,1.274,1.274,0,0,0,.148-1.33l-.994-2.094a10.162,10.162,0,0,0,.427-1.038l2.186-.777a1.275,1.275,0,0,0,.837-1.046,12.288,12.288,0,0,0,.1-1.543,12.752,12.752,0,0,0-.1-1.543,1.273,1.273,0,0,0-.837-1.047Zm-1.618,3.055-2.017.716a1.272,1.272,0,0,0-.8.859,7.571,7.571,0,0,1-.706,1.714,1.275,1.275,0,0,0-.042,1.172l.914,1.925q-.317.347-.663.663l-1.925-.914a1.276,1.276,0,0,0-1.172.042,7.575,7.575,0,0,1-1.713.706,1.277,1.277,0,0,0-.86.8l-.716,2.017a8.7,8.7,0,0,1-.929,0l-.716-2.017a1.272,1.272,0,0,0-.859-.8,7.571,7.571,0,0,1-1.714-.706,1.283,1.283,0,0,0-1.172-.042l-1.925.914q-.347-.317-.663-.663l.914-1.925a1.272,1.272,0,0,0-.042-1.172,7.575,7.575,0,0,1-.706-1.713,1.277,1.277,0,0,0-.8-.86l-2.017-.716c-.01-.154-.015-.308-.015-.464s.005-.312.013-.464l2.017-.718a1.268,1.268,0,0,0,.8-.859,7.608,7.608,0,0,1,.707-1.714,1.275,1.275,0,0,0,.042-1.172l-.914-1.925q.317-.347.663-.663l1.925.914a1.268,1.268,0,0,0,1.172-.042,7.575,7.575,0,0,1,1.713-.706,1.277,1.277,0,0,0,.86-.8l.716-2.017a8.7,8.7,0,0,1,.929,0l.716,2.017a1.272,1.272,0,0,0,.859.8,7.571,7.571,0,0,1,1.714.706,1.268,1.268,0,0,0,1.172.042l1.925-.914q.347.317.663.663L61.321,34.8a1.271,1.271,0,0,0,.042,1.172,7.575,7.575,0,0,1,.706,1.713,1.277,1.277,0,0,0,.8.86l2.017.716c.01.155.015.309.015.466s-.005.31-.013.464Z" transform="translate(10.893 6.808)" fill="#36737d"/>
      <path id="Trazado_875758" data-name="Trazado 875758" d="M25,58.991A14,14,0,1,0,11,45,14.012,14.012,0,0,0,25,58.991Zm0-25.446A11.451,11.451,0,1,1,13.545,45,11.465,11.465,0,0,1,25,33.545Z" transform="translate(2.451 7.897)" fill="#36737d"/>
      <path id="Trazado_875759" data-name="Trazado 875759" d="M2.022,28.645l1.954,1.63A30.474,30.474,0,0,1,27.44,19.282c.648,0,1.294.037,1.94.078l-1.567,1.567,1.8,1.8,3.817-3.817a1.271,1.271,0,0,0,0-1.8l-3.817-3.817-1.8,1.8,1.729,1.729c-.7-.045-1.4-.084-2.1-.084A33.013,33.013,0,0,0,2.022,28.645Z" transform="translate(0.006 3.075)" fill="#36737d"/>
      <path id="Trazado_875760" data-name="Trazado 875760" d="M44.362,9a6.362,6.362,0,1,0,6.362,6.362A6.369,6.369,0,0,0,44.362,9Zm0,10.179a3.817,3.817,0,1,1,3.817-3.817A3.822,3.822,0,0,1,44.362,19.179Z" transform="translate(9.803 1.906)" fill="#36737d"/>
      <path id="Trazado_875761" data-name="Trazado 875761" d="M53.089,33a5.089,5.089,0,1,0,5.089,5.089A5.094,5.094,0,0,0,53.089,33Zm0,7.634a2.545,2.545,0,1,1,2.545-2.545A2.547,2.547,0,0,1,53.089,40.634Z" transform="translate(12.527 8.442)" fill="#36737d"/>
      <path id="Trazado_875762" data-name="Trazado 875762" d="M63.15,5.3,56.789,4.025a1.269,1.269,0,0,0-1.5,1l-1.272,6.362,2.5.5L57.2,8.459a19.091,19.091,0,0,1,1.884,8.264A18.881,18.881,0,0,1,54.9,28.651l1.986,1.592a21.646,21.646,0,0,0,2.51-23.1l3.257.651Z" transform="translate(14.166 0.544)" fill="#36737d"/>
    </g>
  </g>
</svg>
