<svg id="Grupo_1102784" data-name="Grupo 1102784" xmlns="http://www.w3.org/2000/svg" xmlns:xlink="http://www.w3.org/1999/xlink" width="275" height="239.597" viewBox="0 0 275 239.597">
  <defs>
    <clipPath id="clip-path">
      <rect id="Rectángulo_402695" data-name="Rectángulo 402695" width="275" height="239.597" fill="none"/>
    </clipPath>
  </defs>
  <g id="Grupo_1102785" data-name="Grupo 1102785">
    <g id="Grupo_1102784-2" data-name="Grupo 1102784" clip-path="url(#clip-path)">
      <rect id="Rectángulo_402347" data-name="Rectángulo 402347" width="71.796" height="163.932" rx="35.898" transform="translate(4.877 1.817)" fill="#f9d0ab"/>
      <path id="Trazado_876066" data-name="Trazado 876066" d="M429.236,61.021A22.061,22.061,0,0,0,396.359,41.79a22.071,22.071,0,0,0-21.422-16.772c-.468,0-.932.02-1.393.048a24.463,24.463,0,0,0-29.235-13.154,22.064,22.064,0,1,0-21.9,32.1c-.051.643-.084,1.29-.084,1.946a24.461,24.461,0,0,0,30.8,23.621A22.068,22.068,0,0,0,383.26,86.63a17.862,17.862,0,0,0,32.963-5.487,22.064,22.064,0,0,0,13.014-20.122" transform="translate(-154.236)" fill="#ffa200"/>
      <path id="Trazado_876067" data-name="Trazado 876067" d="M137.546,200.011a29.4,29.4,0,0,1-7.146,7.753,25.9,25.9,0,0,1-9.558,4.519,23.371,23.371,0,0,1-10.6.032,25.942,25.942,0,0,1-9.578-4.516,36.018,36.018,0,0,1-7.379-7.523c-.523-.705-1.021-1.427-1.5-2.158l-1.394-2.172q-1.4-2.121-3-4.1a43.162,43.162,0,0,0-15.776-12.38,32.3,32.3,0,0,0-9.647-2.632,25.227,25.227,0,0,0-9.852.845,21.885,21.885,0,0,0-8.539,4.826A26.465,26.465,0,0,0,37.73,190.5a42.42,42.42,0,0,0-3.955,19.575,52.2,52.2,0,0,0,4.454,19.612A57.9,57.9,0,0,0,49.5,246.4c1.171,1.219,2.381,2.4,3.647,3.526s2.59,2.2,3.9,3.291q3.995,3.209,8.19,6.157A152.8,152.8,0,0,0,101.6,278.03a170.646,170.646,0,0,0,39.92,8.886c1.7.188,3.4.312,5.106.457,1.706.106,3.409.241,5.118.3q5.123.262,10.235.169a155.162,155.162,0,0,0,20.382-1.682,126.451,126.451,0,0,0,19.872-4.566,87.146,87.146,0,0,0,9.464-3.647,58.415,58.415,0,0,0,8.776-4.888,34.682,34.682,0,0,0,7.326-6.558,19.938,19.938,0,0,0,4.212-8.467,16.923,16.923,0,0,0,.332-4.686,13.4,13.4,0,0,0-1.024-4.457,13.181,13.181,0,0,0-6.292-6.422,28.781,28.781,0,0,0-9.3-2.736,55.815,55.815,0,0,0-10-.379,94.831,94.831,0,0,0-19.975,3.253A111.557,111.557,0,0,0,166.7,249.6a91.206,91.206,0,0,0-8.89,4.845c-2.883,1.786-5.717,3.7-8.532,5.645-5.629,3.906-11.187,7.969-16.788,11.989s-11.232,8.021-16.964,11.894c-11.463,7.732-23.306,15.047-35.973,20.915a129.2,129.2,0,0,1-19.662,7.337,79.8,79.8,0,0,1-20.958,3.061,55.708,55.708,0,0,1-21.017-3.919,54.27,54.27,0,0,1-9.532-5A61.893,61.893,0,0,1,0,299.7l3.159-3.323a57.338,57.338,0,0,0,7.73,6.213,49.792,49.792,0,0,0,8.714,4.624A51.261,51.261,0,0,0,38.942,310.9a75.456,75.456,0,0,0,19.823-2.811,124.965,124.965,0,0,0,19.043-7.008c12.376-5.66,24.095-12.809,35.491-20.42,5.7-3.813,11.321-7.76,16.927-11.749s11.191-8.025,16.9-11.946c2.856-1.958,5.743-3.884,8.725-5.712a95.113,95.113,0,0,1,9.267-4.994,115.279,115.279,0,0,1,19.718-7.133,98.361,98.361,0,0,1,20.75-3.271,59.269,59.269,0,0,1,10.621.458,32.115,32.115,0,0,1,10.405,3.144,18.662,18.662,0,0,1,4.568,3.336,15.754,15.754,0,0,1,1.843,2.23,15.439,15.439,0,0,1,1.381,2.554,16.74,16.74,0,0,1,1.261,5.564,20.189,20.189,0,0,1-.423,5.583,23.2,23.2,0,0,1-4.926,9.842,37.871,37.871,0,0,1-8.04,7.146A61.631,61.631,0,0,1,213,280.828a90.474,90.474,0,0,1-9.823,3.733,129.573,129.573,0,0,1-20.381,4.583,158.019,158.019,0,0,1-20.78,1.615c-3.473.045-6.957-.027-10.419-.221-1.733-.072-3.463-.217-5.193-.333-1.728-.155-3.458-.289-5.181-.488a173.377,173.377,0,0,1-40.512-9.221,155.308,155.308,0,0,1-36.863-19.14q-4.247-3.014-8.293-6.3c-1.33-1.115-2.674-2.206-3.978-3.386s-2.552-2.4-3.761-3.671a60.19,60.19,0,0,1-11.628-17.428,54.368,54.368,0,0,1-4.542-20.455A44.468,44.468,0,0,1,35.911,189.6a28.424,28.424,0,0,1,6.33-8.556,23.85,23.85,0,0,1,9.32-5.21,27.138,27.138,0,0,1,10.6-.865,34.169,34.169,0,0,1,10.193,2.83,44.929,44.929,0,0,1,16.38,12.964q1.645,2.048,3.081,4.249L93.2,197.19c.463.707.941,1.4,1.441,2.085a34.348,34.348,0,0,0,7,7.206,24.327,24.327,0,0,0,8.96,4.275,21.786,21.786,0,0,0,9.882.01,24.361,24.361,0,0,0,9.006-4.217,27.893,27.893,0,0,0,6.811-7.329Z" transform="translate(0 -89.074)" fill="#fff"/>
      <path id="Trazado_876068" data-name="Trazado 876068" d="M172.13,100.387A11.388,11.388,0,0,0,160.191,92.9c-5.085.543-12.05,1.438-19.772,2.859s-14.552,3.067-19.5,4.371a11.384,11.384,0,0,0-8.487,11.244,61.9,61.9,0,0,0,.906,9.718,61.9,61.9,0,0,0,2.615,9.4,11.388,11.388,0,0,0,11.939,7.485c2.23-.238,4.823-.544,7.682-.933a2.517,2.517,0,0,1,2.855,2.577l-.421,12.207a.981.981,0,0,0,1.812.553L150.115,135.9a3.872,3.872,0,0,1,2.5-1.742c5.679-1.164,10.684-2.388,14.541-3.405a11.387,11.387,0,0,0,8.49-11.247,61.824,61.824,0,0,0-.906-9.717,61.838,61.838,0,0,0-2.614-9.4" transform="translate(-57.297 -47.311)" fill="#fc5353"/>
      <path id="Trazado_876069" data-name="Trazado 876069" d="M141.9,140.833a3.258,3.258,0,1,1-3.795-2.614,3.258,3.258,0,0,1,3.795,2.614" transform="translate(-69.02 -70.41)" fill="#f5e7c6"/>
      <path id="Trazado_876070" data-name="Trazado 876070" d="M165.043,136.572a3.258,3.258,0,1,1-3.795-2.614,3.258,3.258,0,0,1,3.795,2.614" transform="translate(-80.814 -68.238)" fill="#f5e7c6"/>
      <path id="Trazado_876071" data-name="Trazado 876071" d="M188.186,132.311a3.258,3.258,0,1,1-3.795-2.614,3.258,3.258,0,0,1,3.795,2.614" transform="translate(-92.608 -66.067)" fill="#f5e7c6"/>
      <path id="Trazado_876072" data-name="Trazado 876072" d="M211.33,128.05a3.258,3.258,0,1,1-3.795-2.614,3.258,3.258,0,0,1,3.795,2.614" transform="translate(-104.402 -63.895)" fill="#f5e7c6"/>
      <path id="Trazado_876073" data-name="Trazado 876073" d="M114.129,232.911l5.636,11.489,10.063-7.906a2.559,2.559,0,0,1,4.139,1.993l.093,12.8,12.5-2.757a2.558,2.558,0,0,1,2.864,3.592l-5.469,11.57,12.455,2.938a2.558,2.558,0,0,1,1.022,4.479l-9.947,8.051,9.947,8.051a2.558,2.558,0,0,1-1.022,4.479l-12.455,2.938,5.469,11.57a2.558,2.558,0,0,1-2.864,3.592l-12.5-2.757-.093,12.8a2.559,2.559,0,0,1-4.139,1.993l-10.063-7.907L114.129,325.4a2.558,2.558,0,0,1-4.594,0L103.9,313.912l-10.062,7.907a2.559,2.559,0,0,1-4.139-1.993l-.093-12.8-12.5,2.757a2.558,2.558,0,0,1-2.864-3.592l5.469-11.57-12.455-2.938a2.558,2.558,0,0,1-1.022-4.479l9.947-8.051-9.947-8.051a2.558,2.558,0,0,1,1.022-4.479l12.455-2.938-5.469-11.57a2.558,2.558,0,0,1,2.864-3.592l12.5,2.757.093-12.8a2.558,2.558,0,0,1,4.139-1.993L103.9,244.4l5.636-11.489a2.558,2.558,0,0,1,4.594,0" transform="translate(-33.27 -117.964)" fill="#ff830f"/>
      <path id="Trazado_876074" data-name="Trazado 876074" d="M186.951,463.607h-5.468l-2.734-10.022h5.468Z" transform="translate(-91.092 -231.151)" fill="#2f4bd4"/>
      <path id="Trazado_876075" data-name="Trazado 876075" d="M188.059,467.67h-5.468l.85,3.115h5.468Z" transform="translate(-93.05 -238.329)" fill="#22379c"/>
      <path id="Trazado_876076" data-name="Trazado 876076" d="M188.743,484.13H129.712v-1.244a2.561,2.561,0,0,1,2.561-2.561h53.909a2.561,2.561,0,0,1,2.561,2.561Z" transform="translate(-66.103 -244.779)" fill="#2f4bd4"/>
      <path id="Trazado_876077" data-name="Trazado 876077" d="M189.49,475.238H168.6l.529-1.1a6.674,6.674,0,0,1,6.02-3.791h7.79a6.673,6.673,0,0,1,6.019,3.791Z" transform="translate(-85.922 -239.691)" fill="#2f4bd4"/>
      <path id="Trazado_876078" data-name="Trazado 876078" d="M189.027,478.358H169.066l-.462.966H189.49Z" transform="translate(-85.922 -243.776)" fill="#22379c"/>
      <path id="Trazado_876079" data-name="Trazado 876079" d="M184.217,453.584h-5.468l.959,3.515c.54-.053,1.082-.126,1.626-.224a20.257,20.257,0,0,0,3.515-.975Z" transform="translate(-91.092 -231.151)" fill="#22379c"/>
      <path id="Trazado_876080" data-name="Trazado 876080" d="M137.485,280.457a29.09,29.09,0,0,0-6.845,2.12,8.983,8.983,0,0,0-5.09,9.784l5.17,28.474,27.295-4.955-5.17-28.475a8.983,8.983,0,0,0-8.206-7.37,29.089,29.089,0,0,0-7.153.421" transform="translate(-63.907 -142.677)" fill="#fff"/>
      <path id="Trazado_876081" data-name="Trazado 876081" d="M157.8,280.823a.534.534,0,1,0,.621.43.534.534,0,0,0-.621-.43" transform="translate(-80.195 -143.106)" fill="#e6c77f"/>
      <path id="Trazado_876082" data-name="Trazado 876082" d="M168.645,340.532a.534.534,0,1,0,.621.43.534.534,0,0,0-.621-.43" transform="translate(-85.72 -173.534)" fill="#e6c77f"/>
      <path id="Trazado_876083" data-name="Trazado 876083" d="M170.194,349.062a.534.534,0,1,0,.621.43.534.534,0,0,0-.621-.43" transform="translate(-86.509 -177.881)" fill="#e6c77f"/>
      <path id="Trazado_876084" data-name="Trazado 876084" d="M162.787,293.134a.534.534,0,1,0,.621.43.534.534,0,0,0-.621-.43" transform="translate(-82.734 -149.38)" fill="#e6c77f"/>
      <path id="Trazado_876085" data-name="Trazado 876085" d="M161.238,284.6a.534.534,0,1,0,.621.43.534.534,0,0,0-.621-.43" transform="translate(-81.945 -145.033)" fill="#e6c77f"/>
      <path id="Trazado_876086" data-name="Trazado 876086" d="M160.9,297.882a.534.534,0,1,0,.621.43.534.534,0,0,0-.621-.43" transform="translate(-81.773 -151.799)" fill="#e6c77f"/>
      <path id="Trazado_876087" data-name="Trazado 876087" d="M164.336,301.664a.534.534,0,1,0,.621.43.534.534,0,0,0-.621-.43" transform="translate(-83.524 -153.727)" fill="#e6c77f"/>
      <path id="Trazado_876088" data-name="Trazado 876088" d="M159.353,289.352a.534.534,0,1,0,.62.43.534.534,0,0,0-.62-.43" transform="translate(-80.984 -147.452)" fill="#e6c77f"/>
      <path id="Trazado_876089" data-name="Trazado 876089" d="M165.547,323.472a.534.534,0,1,0,.621.43.534.534,0,0,0-.621-.43" transform="translate(-84.141 -164.84)" fill="#e6c77f"/>
      <path id="Trazado_876090" data-name="Trazado 876090" d="M164,314.942a.534.534,0,1,0,.621.43.534.534,0,0,0-.621-.43" transform="translate(-83.352 -160.493)" fill="#e6c77f"/>
      <path id="Trazado_876091" data-name="Trazado 876091" d="M162.45,306.412a.534.534,0,1,0,.621.43.534.534,0,0,0-.621-.43" transform="translate(-82.562 -156.146)" fill="#e6c77f"/>
      <path id="Trazado_876092" data-name="Trazado 876092" d="M167.1,332a.534.534,0,1,0,.621.43.534.534,0,0,0-.621-.43" transform="translate(-84.93 -169.187)" fill="#e6c77f"/>
      <path id="Trazado_876093" data-name="Trazado 876093" d="M166.222,296.916a.534.534,0,1,0,.621.43.534.534,0,0,0-.621-.43" transform="translate(-84.485 -151.307)" fill="#e6c77f"/>
      <path id="Trazado_876094" data-name="Trazado 876094" d="M164.673,288.386a.534.534,0,1,0,.621.43.534.534,0,0,0-.621-.43" transform="translate(-83.695 -146.96)" fill="#e6c77f"/>
      <path id="Trazado_876095" data-name="Trazado 876095" d="M165.884,310.194a.534.534,0,1,0,.621.43.534.534,0,0,0-.621-.43" transform="translate(-84.312 -158.074)" fill="#e6c77f"/>
      <path id="Trazado_876096" data-name="Trazado 876096" d="M163.549,280.071c-.208-.014-.423-.014-.634-.023a.533.533,0,1,0,.83.341.527.527,0,0,0-.2-.318" transform="translate(-82.906 -142.715)" fill="#e6c77f"/>
      <path id="Trazado_876097" data-name="Trazado 876097" d="M167.77,305.446a.534.534,0,1,0,.621.43.534.534,0,0,0-.621-.43" transform="translate(-85.274 -155.654)" fill="#e6c77f"/>
      <path id="Trazado_876098" data-name="Trazado 876098" d="M169.319,313.976a.534.534,0,1,0,.621.43.534.534,0,0,0-.621-.43" transform="translate(-86.063 -160.001)" fill="#e6c77f"/>
      <path id="Trazado_876099" data-name="Trazado 876099" d="M167.433,318.724a.534.534,0,1,0,.621.43.534.534,0,0,0-.621-.43" transform="translate(-85.102 -162.421)" fill="#e6c77f"/>
      <path id="Trazado_876100" data-name="Trazado 876100" d="M168.982,327.254a.534.534,0,1,0,.621.43.534.534,0,0,0-.621-.43" transform="translate(-85.891 -166.768)" fill="#e6c77f"/>
      <path id="Trazado_876101" data-name="Trazado 876101" d="M170.531,335.784a.534.534,0,1,0,.621.43.534.534,0,0,0-.621-.43" transform="translate(-86.681 -171.114)" fill="#e6c77f"/>
      <path id="Trazado_876102" data-name="Trazado 876102" d="M172.08,344.314a.534.534,0,1,0,.62.43.534.534,0,0,0-.62-.43" transform="translate(-87.47 -175.461)" fill="#e6c77f"/>
      <path id="Trazado_876103" data-name="Trazado 876103" d="M173.628,352.844a.534.534,0,1,0,.621.43.534.534,0,0,0-.621-.43" transform="translate(-88.259 -179.808)" fill="#e6c77f"/>
      <path id="Trazado_876104" data-name="Trazado 876104" d="M158.678,315.908a.534.534,0,1,0,.621.43.534.534,0,0,0-.621-.43" transform="translate(-80.64 -160.985)" fill="#e6c77f"/>
      <path id="Trazado_876105" data-name="Trazado 876105" d="M155.581,298.848a.534.534,0,1,0,.621.43.534.534,0,0,0-.621-.43" transform="translate(-79.062 -152.292)" fill="#e6c77f"/>
      <path id="Trazado_876106" data-name="Trazado 876106" d="M157.13,307.378a.534.534,0,1,0,.621.43.534.534,0,0,0-.621-.43" transform="translate(-79.851 -156.638)" fill="#e6c77f"/>
      <path id="Trazado_876107" data-name="Trazado 876107" d="M158.341,329.186a.534.534,0,1,0,.621.43.534.534,0,0,0-.621-.43" transform="translate(-80.469 -167.752)" fill="#e6c77f"/>
      <path id="Trazado_876108" data-name="Trazado 876108" d="M161.776,332.968a.534.534,0,1,0,.621.43.534.534,0,0,0-.621-.43" transform="translate(-82.219 -169.679)" fill="#e6c77f"/>
      <path id="Trazado_876109" data-name="Trazado 876109" d="M160.227,324.438a.534.534,0,1,0,.621.43.534.534,0,0,0-.621-.43" transform="translate(-81.43 -165.332)" fill="#e6c77f"/>
      <path id="Trazado_876110" data-name="Trazado 876110" d="M154.032,290.318a.534.534,0,1,0,.621.43.534.534,0,0,0-.621-.43" transform="translate(-78.273 -147.945)" fill="#e6c77f"/>
      <path id="Trazado_876111" data-name="Trazado 876111" d="M162.987,354.776a.534.534,0,1,0,.621.43.534.534,0,0,0-.621-.43" transform="translate(-82.836 -180.793)" fill="#e6c77f"/>
      <path id="Trazado_876112" data-name="Trazado 876112" d="M152.483,281.789a.534.534,0,1,0,.621.43.534.534,0,0,0-.621-.43" transform="translate(-77.483 -143.598)" fill="#e6c77f"/>
      <path id="Trazado_876113" data-name="Trazado 876113" d="M159.89,337.716a.534.534,0,1,0,.621.43.534.534,0,0,0-.621-.43" transform="translate(-81.258 -172.099)" fill="#e6c77f"/>
      <path id="Trazado_876114" data-name="Trazado 876114" d="M150.167,287.158a.534.534,0,1,0,.43-.621.534.534,0,0,0-.43.621" transform="translate(-76.522 -146.018)" fill="#e6c77f"/>
      <path id="Trazado_876115" data-name="Trazado 876115" d="M161.439,346.246a.534.534,0,1,0,.621.43.534.534,0,0,0-.621-.43" transform="translate(-82.047 -176.446)" fill="#e6c77f"/>
      <path id="Trazado_876116" data-name="Trazado 876116" d="M165.21,336.75a.534.534,0,1,0,.621.43.534.534,0,0,0-.621-.43" transform="translate(-83.969 -171.607)" fill="#e6c77f"/>
      <path id="Trazado_876117" data-name="Trazado 876117" d="M162.113,319.69a.534.534,0,1,0,.621.43.534.534,0,0,0-.621-.43" transform="translate(-82.391 -162.913)" fill="#e6c77f"/>
      <path id="Trazado_876118" data-name="Trazado 876118" d="M163.662,328.22a.534.534,0,1,0,.621.43.534.534,0,0,0-.621-.43" transform="translate(-83.18 -167.26)" fill="#e6c77f"/>
      <path id="Trazado_876119" data-name="Trazado 876119" d="M166.759,345.28a.534.534,0,1,0,.621.43.534.534,0,0,0-.621-.43" transform="translate(-84.758 -175.954)" fill="#e6c77f"/>
      <path id="Trazado_876120" data-name="Trazado 876120" d="M168.308,353.81a.534.534,0,1,0,.621.43.534.534,0,0,0-.621-.43" transform="translate(-85.548 -180.301)" fill="#e6c77f"/>
      <path id="Trazado_876121" data-name="Trazado 876121" d="M164.873,350.028a.534.534,0,1,0,.621.43.534.534,0,0,0-.621-.43" transform="translate(-83.797 -178.373)" fill="#e6c77f"/>
      <path id="Trazado_876122" data-name="Trazado 876122" d="M160.564,311.16a.534.534,0,1,0,.621.43.534.534,0,0,0-.621-.43" transform="translate(-81.601 -158.566)" fill="#e6c77f"/>
      <path id="Trazado_876123" data-name="Trazado 876123" d="M159.015,302.63a.534.534,0,1,0,.621.43.534.534,0,0,0-.621-.43" transform="translate(-80.812 -154.219)" fill="#e6c77f"/>
      <path id="Trazado_876124" data-name="Trazado 876124" d="M155.918,285.57a.534.534,0,1,0,.621.43.534.534,0,0,0-.621-.43" transform="translate(-79.234 -145.525)" fill="#e6c77f"/>
      <path id="Trazado_876125" data-name="Trazado 876125" d="M163.325,341.5a.534.534,0,1,0,.621.43.534.534,0,0,0-.621-.43" transform="translate(-83.008 -174.026)" fill="#e6c77f"/>
      <path id="Trazado_876126" data-name="Trazado 876126" d="M157.467,294.1a.534.534,0,1,0,.621.43.534.534,0,0,0-.621-.43" transform="translate(-80.023 -149.872)" fill="#e6c77f"/>
      <path id="Trazado_876127" data-name="Trazado 876127" d="M182.72,342.382a.534.534,0,1,0,.621.43.534.534,0,0,0-.621-.43" transform="translate(-92.892 -174.477)" fill="#e6c77f"/>
      <path id="Trazado_876128" data-name="Trazado 876128" d="M175.314,286.454a.534.534,0,1,0,.62.43.534.534,0,0,0-.62-.43" transform="translate(-89.118 -145.975)" fill="#e6c77f"/>
      <path id="Trazado_876129" data-name="Trazado 876129" d="M178.411,303.514a.534.534,0,1,0,.621.43.534.534,0,0,0-.621-.43" transform="translate(-90.696 -154.669)" fill="#e6c77f"/>
      <path id="Trazado_876130" data-name="Trazado 876130" d="M183.057,329.1a.534.534,0,1,0,.621.43.534.534,0,0,0-.621-.43" transform="translate(-93.064 -167.71)" fill="#e6c77f"/>
      <path id="Trazado_876131" data-name="Trazado 876131" d="M179.96,312.044a.534.534,0,1,0,.621.43.534.534,0,0,0-.621-.43" transform="translate(-91.486 -159.016)" fill="#e6c77f"/>
      <path id="Trazado_876132" data-name="Trazado 876132" d="M181.508,320.574a.534.534,0,1,0,.621.43.533.533,0,0,0-.621-.43" transform="translate(-92.275 -163.363)" fill="#e6c77f"/>
      <path id="Trazado_876133" data-name="Trazado 876133" d="M176.862,294.984a.534.534,0,1,0,.621.43.534.534,0,0,0-.621-.43" transform="translate(-89.907 -150.322)" fill="#e6c77f"/>
      <path id="Trazado_876134" data-name="Trazado 876134" d="M176.525,308.262a.534.534,0,1,0,.621.43.534.534,0,0,0-.621-.43" transform="translate(-89.735 -157.089)" fill="#e6c77f"/>
      <path id="Trazado_876135" data-name="Trazado 876135" d="M184.269,350.912a.534.534,0,1,0,.621.43.534.534,0,0,0-.621-.43" transform="translate(-93.682 -178.824)" fill="#e6c77f"/>
      <path id="Trazado_876136" data-name="Trazado 876136" d="M178.074,316.792a.534.534,0,1,0,.621.43.534.534,0,0,0-.621-.43" transform="translate(-90.525 -161.436)" fill="#e6c77f"/>
      <path id="Trazado_876137" data-name="Trazado 876137" d="M179.623,325.322a.534.534,0,1,0,.621.43.534.534,0,0,0-.621-.43" transform="translate(-91.314 -165.783)" fill="#e6c77f"/>
      <path id="Trazado_876138" data-name="Trazado 876138" d="M181.171,333.852a.534.534,0,1,0,.621.43.534.534,0,0,0-.621-.43" transform="translate(-92.103 -170.13)" fill="#e6c77f"/>
      <path id="Trazado_876139" data-name="Trazado 876139" d="M186.492,332.886a.534.534,0,1,0,.621.43.534.534,0,0,0-.621-.43" transform="translate(-94.815 -169.638)" fill="#e6c77f"/>
      <path id="Trazado_876140" data-name="Trazado 876140" d="M189.589,349.946a.534.534,0,1,0,.621.43.534.534,0,0,0-.621-.43" transform="translate(-96.393 -178.332)" fill="#e6c77f"/>
      <path id="Trazado_876141" data-name="Trazado 876141" d="M188.041,341.416a.534.534,0,1,0,.62.43.534.534,0,0,0-.62-.43" transform="translate(-95.604 -173.985)" fill="#e6c77f"/>
      <path id="Trazado_876142" data-name="Trazado 876142" d="M129.508,291.452a.534.534,0,0,0-.191-1.051.524.524,0,0,0-.216.1c-.055.071-.113.139-.166.21a.52.52,0,0,0-.049.314.534.534,0,0,0,.621.43" transform="translate(-65.679 -147.987)" fill="#e6c77f"/>
      <path id="Trazado_876143" data-name="Trazado 876143" d="M174.976,299.732a.534.534,0,1,0,.621.43.534.534,0,0,0-.621-.43" transform="translate(-88.946 -152.742)" fill="#e6c77f"/>
      <path id="Trazado_876144" data-name="Trazado 876144" d="M170.868,322.506a.534.534,0,1,0,.621.43.534.534,0,0,0-.621-.43" transform="translate(-86.852 -164.348)" fill="#e6c77f"/>
      <path id="Trazado_876145" data-name="Trazado 876145" d="M184.943,324.356a.534.534,0,1,0,.621.43.534.534,0,0,0-.621-.43" transform="translate(-94.025 -165.291)" fill="#e6c77f"/>
      <path id="Trazado_876146" data-name="Trazado 876146" d="M186.155,346.164a.534.534,0,1,0,.621.43.534.534,0,0,0-.621-.43" transform="translate(-94.643 -176.404)" fill="#e6c77f"/>
      <path id="Trazado_876147" data-name="Trazado 876147" d="M184.606,337.634a.534.534,0,1,0,.621.43.534.534,0,0,0-.621-.43" transform="translate(-93.853 -172.057)" fill="#e6c77f"/>
      <path id="Trazado_876148" data-name="Trazado 876148" d="M181.845,307.3a.534.534,0,1,0,.621.43.534.534,0,0,0-.621-.43" transform="translate(-92.446 -156.597)" fill="#e6c77f"/>
      <path id="Trazado_876149" data-name="Trazado 876149" d="M183.394,315.826a.534.534,0,1,0,.621.43.534.534,0,0,0-.621-.43" transform="translate(-93.236 -160.944)" fill="#e6c77f"/>
      <path id="Trazado_876150" data-name="Trazado 876150" d="M171.879,282.673a.534.534,0,1,0,.621.43.52.52,0,0,0-.156-.277c-.075-.049-.153-.093-.229-.139a.522.522,0,0,0-.236-.015" transform="translate(-87.368 -144.049)" fill="#e6c77f"/>
      <path id="Trazado_876151" data-name="Trazado 876151" d="M172.754,317.758a.534.534,0,1,0,.621.43.534.534,0,0,0-.621-.43" transform="translate(-87.814 -161.928)" fill="#e6c77f"/>
      <path id="Trazado_876152" data-name="Trazado 876152" d="M171.2,309.228a.534.534,0,1,0,.621.43.534.534,0,0,0-.621-.43" transform="translate(-87.024 -157.581)" fill="#e6c77f"/>
      <path id="Trazado_876153" data-name="Trazado 876153" d="M175.851,334.818a.534.534,0,1,0,.621.43.534.534,0,0,0-.621-.43" transform="translate(-89.392 -170.622)" fill="#e6c77f"/>
      <path id="Trazado_876154" data-name="Trazado 876154" d="M169.656,300.7a.534.534,0,1,0,.621.43.534.534,0,0,0-.621-.43" transform="translate(-86.235 -153.234)" fill="#e6c77f"/>
      <path id="Trazado_876155" data-name="Trazado 876155" d="M178.949,351.878a.534.534,0,1,0,.621.43.534.534,0,0,0-.621-.43" transform="translate(-90.971 -179.316)" fill="#e6c77f"/>
      <path id="Trazado_876156" data-name="Trazado 876156" d="M174.3,326.288a.534.534,0,1,0,.621.43.534.534,0,0,0-.621-.43" transform="translate(-88.602 -166.275)" fill="#e6c77f"/>
      <path id="Trazado_876157" data-name="Trazado 876157" d="M168.107,292.168a.534.534,0,1,0,.621.43.534.534,0,0,0-.621-.43" transform="translate(-85.445 -148.887)" fill="#e6c77f"/>
      <path id="Trazado_876158" data-name="Trazado 876158" d="M172.417,331.036a.534.534,0,1,0,.621.43.534.534,0,0,0-.621-.43" transform="translate(-87.642 -168.695)" fill="#e6c77f"/>
      <path id="Trazado_876159" data-name="Trazado 876159" d="M175.514,348.1a.534.534,0,1,0,.621.43.534.534,0,0,0-.621-.43" transform="translate(-89.22 -177.389)" fill="#e6c77f"/>
      <path id="Trazado_876160" data-name="Trazado 876160" d="M166.559,283.638a.534.534,0,1,0,.621.43.534.534,0,0,0-.621-.43" transform="translate(-84.656 -144.54)" fill="#e6c77f"/>
      <path id="Trazado_876161" data-name="Trazado 876161" d="M173.965,339.566a.534.534,0,1,0,.621.43.534.534,0,0,0-.621-.43" transform="translate(-88.431 -173.042)" fill="#e6c77f"/>
      <path id="Trazado_876162" data-name="Trazado 876162" d="M168.82,280.907c-.143-.049-.289-.089-.434-.131a.524.524,0,0,0,.434.131" transform="translate(-85.811 -143.086)" fill="#e6c77f"/>
      <path id="Trazado_876163" data-name="Trazado 876163" d="M177.737,330.07a.534.534,0,1,0,.621.43.534.534,0,0,0-.621-.43" transform="translate(-90.353 -168.203)" fill="#e6c77f"/>
      <path id="Trazado_876164" data-name="Trazado 876164" d="M176.188,321.54a.534.534,0,1,0,.621.43.534.534,0,0,0-.621-.43" transform="translate(-89.564 -163.856)" fill="#e6c77f"/>
      <path id="Trazado_876165" data-name="Trazado 876165" d="M179.286,338.6a.534.534,0,1,0,.621.43.534.534,0,0,0-.621-.43" transform="translate(-91.142 -172.55)" fill="#e6c77f"/>
      <path id="Trazado_876166" data-name="Trazado 876166" d="M180.834,347.13a.534.534,0,1,0,.621.43.534.534,0,0,0-.621-.43" transform="translate(-91.931 -176.897)" fill="#e6c77f"/>
      <path id="Trazado_876167" data-name="Trazado 876167" d="M177.4,343.348a.534.534,0,1,0,.621.43.534.534,0,0,0-.621-.43" transform="translate(-90.181 -174.969)" fill="#e6c77f"/>
      <path id="Trazado_876168" data-name="Trazado 876168" d="M174.639,313.01a.534.534,0,1,0,.621.43.534.534,0,0,0-.621-.43" transform="translate(-88.774 -159.509)" fill="#e6c77f"/>
      <path id="Trazado_876169" data-name="Trazado 876169" d="M173.428,291.2a.534.534,0,1,0,.621.43.534.534,0,0,0-.621-.43" transform="translate(-88.157 -148.395)" fill="#e6c77f"/>
      <path id="Trazado_876170" data-name="Trazado 876170" d="M169.993,287.42a.534.534,0,1,0,.621.43.534.534,0,0,0-.621-.43" transform="translate(-86.406 -146.468)" fill="#e6c77f"/>
      <path id="Trazado_876171" data-name="Trazado 876171" d="M171.542,295.95a.534.534,0,1,0,.621.43.534.534,0,0,0-.621-.43" transform="translate(-87.196 -150.815)" fill="#e6c77f"/>
      <path id="Trazado_876172" data-name="Trazado 876172" d="M173.091,304.48a.534.534,0,1,0,.621.43.534.534,0,0,0-.621-.43" transform="translate(-87.985 -155.162)" fill="#e6c77f"/>
      <path id="Trazado_876173" data-name="Trazado 876173" d="M141.169,310.276a.534.534,0,1,0,.621.43.534.534,0,0,0-.621-.43" transform="translate(-71.717 -158.115)" fill="#e6c77f"/>
      <path id="Trazado_876174" data-name="Trazado 876174" d="M135.848,311.242a.534.534,0,1,0,.621.43.534.534,0,0,0-.621-.43" transform="translate(-69.006 -158.608)" fill="#e6c77f"/>
      <path id="Trazado_876175" data-name="Trazado 876175" d="M134.3,302.712a.534.534,0,1,0,.621.43.534.534,0,0,0-.621-.43" transform="translate(-68.216 -154.261)" fill="#e6c77f"/>
      <path id="Trazado_876176" data-name="Trazado 876176" d="M137.4,319.772a.534.534,0,1,0,.621.43.534.534,0,0,0-.621-.43" transform="translate(-69.795 -162.955)" fill="#e6c77f"/>
      <path id="Trazado_876177" data-name="Trazado 876177" d="M138.946,328.3a.534.534,0,1,0,.621.43.534.534,0,0,0-.621-.43" transform="translate(-70.585 -167.302)" fill="#e6c77f"/>
      <path id="Trazado_876178" data-name="Trazado 876178" d="M140.494,336.832a.534.534,0,1,0,.62.43.534.534,0,0,0-.62-.43" transform="translate(-71.374 -171.649)" fill="#e6c77f"/>
      <path id="Trazado_876179" data-name="Trazado 876179" d="M137.06,333.05a.534.534,0,1,0,.621.43.534.534,0,0,0-.621-.43" transform="translate(-69.623 -169.721)" fill="#e6c77f"/>
      <path id="Trazado_876180" data-name="Trazado 876180" d="M141.706,358.64a.534.534,0,1,0,.621.43.534.534,0,0,0-.621-.43" transform="translate(-71.991 -182.762)" fill="#e6c77f"/>
      <path id="Trazado_876181" data-name="Trazado 876181" d="M138.609,341.58a.534.534,0,1,0,.621.43.534.534,0,0,0-.621-.43" transform="translate(-70.413 -174.068)" fill="#e6c77f"/>
      <path id="Trazado_876182" data-name="Trazado 876182" d="M132.751,294.182a.534.534,0,1,0,.621.43.534.534,0,0,0-.621-.43" transform="translate(-67.428 -149.914)" fill="#e6c77f"/>
      <path id="Trazado_876183" data-name="Trazado 876183" d="M140.157,350.11a.534.534,0,1,0,.621.43.534.534,0,0,0-.621-.43" transform="translate(-71.202 -178.415)" fill="#e6c77f"/>
      <path id="Trazado_876184" data-name="Trazado 876184" d="M139.62,301.746a.534.534,0,1,0,.621.43.534.534,0,0,0-.621-.43" transform="translate(-70.928 -153.768)" fill="#e6c77f"/>
      <path id="Trazado_876185" data-name="Trazado 876185" d="M132.424,287.237c-.122.09-.244.179-.361.276a.524.524,0,0,0,.361-.276" transform="translate(-67.301 -146.379)" fill="#e6c77f"/>
      <path id="Trazado_876186" data-name="Trazado 876186" d="M147.026,357.674a.534.534,0,1,0,.621.43.534.534,0,0,0-.621-.43" transform="translate(-74.702 -182.27)" fill="#e6c77f"/>
      <path id="Trazado_876187" data-name="Trazado 876187" d="M143.929,340.614a.534.534,0,1,0,.621.43.534.534,0,0,0-.621-.43" transform="translate(-73.124 -173.576)" fill="#e6c77f"/>
      <path id="Trazado_876188" data-name="Trazado 876188" d="M142.38,332.084a.534.534,0,1,0,.621.43.534.534,0,0,0-.621-.43" transform="translate(-72.335 -169.229)" fill="#e6c77f"/>
      <path id="Trazado_876189" data-name="Trazado 876189" d="M145.478,349.144a.534.534,0,1,0,.621.43.534.534,0,0,0-.621-.43" transform="translate(-73.913 -177.923)" fill="#e6c77f"/>
      <path id="Trazado_876190" data-name="Trazado 876190" d="M138.071,293.216a.534.534,0,1,0,.621.43.534.534,0,0,0-.621-.43" transform="translate(-70.139 -149.421)" fill="#e6c77f"/>
      <path id="Trazado_876191" data-name="Trazado 876191" d="M140.832,323.554a.534.534,0,1,0,.62.43.534.534,0,0,0-.62-.43" transform="translate(-71.545 -164.882)" fill="#e6c77f"/>
      <path id="Trazado_876192" data-name="Trazado 876192" d="M134.637,289.434a.534.534,0,1,0,.621.43.534.534,0,0,0-.621-.43" transform="translate(-68.389 -147.494)" fill="#e6c77f"/>
      <path id="Trazado_876193" data-name="Trazado 876193" d="M136.185,297.964a.534.534,0,1,0,.621.43.534.534,0,0,0-.621-.43" transform="translate(-69.178 -151.841)" fill="#e6c77f"/>
      <path id="Trazado_876194" data-name="Trazado 876194" d="M137.734,306.494a.534.534,0,1,0,.621.43.534.534,0,0,0-.621-.43" transform="translate(-69.967 -156.188)" fill="#e6c77f"/>
      <path id="Trazado_876195" data-name="Trazado 876195" d="M139.283,315.024a.534.534,0,1,0,.621.43.534.534,0,0,0-.621-.43" transform="translate(-70.756 -160.535)" fill="#e6c77f"/>
      <path id="Trazado_876196" data-name="Trazado 876196" d="M142.043,345.362a.534.534,0,1,0,.621.43.534.534,0,0,0-.621-.43" transform="translate(-72.163 -175.996)" fill="#e6c77f"/>
      <path id="Trazado_876197" data-name="Trazado 876197" d="M143.592,353.892a.534.534,0,1,0,.621.43.534.534,0,0,0-.621-.43" transform="translate(-72.952 -180.342)" fill="#e6c77f"/>
      <path id="Trazado_876198" data-name="Trazado 876198" d="M134.837,351.076a.534.534,0,1,0,.621.43.534.534,0,0,0-.621-.43" transform="translate(-68.491 -178.907)" fill="#e6c77f"/>
      <path id="Trazado_876199" data-name="Trazado 876199" d="M127.43,295.148a.534.534,0,1,0,.621.43.534.534,0,0,0-.621-.43" transform="translate(-64.716 -150.406)" fill="#e6c77f"/>
      <path id="Trazado_876200" data-name="Trazado 876200" d="M131.74,334.016a.534.534,0,1,0,.621.43.534.534,0,0,0-.621-.43" transform="translate(-66.912 -170.213)" fill="#e6c77f"/>
      <path id="Trazado_876201" data-name="Trazado 876201" d="M125.895,300.948a.534.534,0,1,0-.191-1.051.52.52,0,0,0-.244.124q-.037.379-.042.762a.525.525,0,0,0,.477.166" transform="translate(-63.914 -152.826)" fill="#e6c77f"/>
      <path id="Trazado_876202" data-name="Trazado 876202" d="M133.288,342.546a.534.534,0,1,0,.621.43.534.534,0,0,0-.621-.43" transform="translate(-67.701 -174.56)" fill="#e6c77f"/>
      <path id="Trazado_876203" data-name="Trazado 876203" d="M135.511,324.52a.534.534,0,1,0,.621.43.534.534,0,0,0-.621-.43" transform="translate(-68.834 -165.374)" fill="#e6c77f"/>
      <path id="Trazado_876204" data-name="Trazado 876204" d="M178.748,290.238a.534.534,0,1,0,.191,1.051.526.526,0,0,0,.388-.322q-.14-.358-.307-.7a.518.518,0,0,0-.272-.03" transform="translate(-90.868 -147.905)" fill="#e6c77f"/>
      <path id="Trazado_876205" data-name="Trazado 876205" d="M180.3,298.766a.534.534,0,1,0,.621.43.534.534,0,0,0-.621-.43" transform="translate(-91.658 -152.25)" fill="#e6c77f"/>
      <path id="Trazado_876206" data-name="Trazado 876206" d="M128.642,316.956a.534.534,0,1,0,.621.43.534.534,0,0,0-.621-.43" transform="translate(-65.334 -161.52)" fill="#e6c77f"/>
      <path id="Trazado_876207" data-name="Trazado 876207" d="M127.093,308.426a.534.534,0,1,0,.621.43.534.534,0,0,0-.621-.43" transform="translate(-64.544 -157.173)" fill="#e6c77f"/>
      <path id="Trazado_876208" data-name="Trazado 876208" d="M136.577,360.657a.534.534,0,1,0-.621-.43.534.534,0,0,0,.621.43" transform="translate(-69.28 -183.254)" fill="#e6c77f"/>
      <path id="Trazado_876209" data-name="Trazado 876209" d="M130.191,325.486a.534.534,0,1,0,.621.43.534.534,0,0,0-.621-.43" transform="translate(-66.123 -165.866)" fill="#e6c77f"/>
      <path id="Trazado_876210" data-name="Trazado 876210" d="M130.865,298.93a.534.534,0,1,0,.621.43.534.534,0,0,0-.621-.43" transform="translate(-66.466 -152.333)" fill="#e6c77f"/>
      <path id="Trazado_876211" data-name="Trazado 876211" d="M136.723,346.328a.534.534,0,1,0,.621.43.534.534,0,0,0-.621-.43" transform="translate(-69.452 -176.488)" fill="#e6c77f"/>
      <path id="Trazado_876212" data-name="Trazado 876212" d="M133.963,315.99a.534.534,0,1,0,.62.43.534.534,0,0,0-.62-.43" transform="translate(-68.045 -161.027)" fill="#e6c77f"/>
      <path id="Trazado_876213" data-name="Trazado 876213" d="M132.414,307.46a.534.534,0,1,0,.621.43.534.534,0,0,0-.621-.43" transform="translate(-67.256 -156.68)" fill="#e6c77f"/>
      <path id="Trazado_876214" data-name="Trazado 876214" d="M138.272,354.858a.534.534,0,1,0,.621.43.534.534,0,0,0-.621-.43" transform="translate(-70.241 -180.835)" fill="#e6c77f"/>
      <path id="Trazado_876215" data-name="Trazado 876215" d="M135.174,337.8a.534.534,0,1,0,.621.43.534.534,0,0,0-.621-.43" transform="translate(-68.662 -172.141)" fill="#e6c77f"/>
      <path id="Trazado_876216" data-name="Trazado 876216" d="M128.979,303.678a.534.534,0,1,0,.621.43.534.534,0,0,0-.621-.43" transform="translate(-65.505 -154.753)" fill="#e6c77f"/>
      <path id="Trazado_876217" data-name="Trazado 876217" d="M132.077,320.738a.534.534,0,1,0,.621.43.534.534,0,0,0-.621-.43" transform="translate(-67.084 -163.447)" fill="#e6c77f"/>
      <path id="Trazado_876218" data-name="Trazado 876218" d="M130.528,312.208a.534.534,0,1,0,.621.43.534.534,0,0,0-.621-.43" transform="translate(-66.295 -159.1)" fill="#e6c77f"/>
      <path id="Trazado_876219" data-name="Trazado 876219" d="M133.625,329.268a.534.534,0,1,0,.621.43.534.534,0,0,0-.621-.43" transform="translate(-67.873 -167.794)" fill="#e6c77f"/>
      <path id="Trazado_876220" data-name="Trazado 876220" d="M152.146,295.066a.534.534,0,1,0,.621.43.534.534,0,0,0-.621-.43" transform="translate(-77.311 -150.364)" fill="#e6c77f"/>
      <path id="Trazado_876221" data-name="Trazado 876221" d="M154.57,338.682a.534.534,0,1,0,.621.43.534.534,0,0,0-.621-.43" transform="translate(-78.547 -172.591)" fill="#e6c77f"/>
      <path id="Trazado_876222" data-name="Trazado 876222" d="M157.667,355.742a.534.534,0,1,0,.621.43.534.534,0,0,0-.621-.43" transform="translate(-80.125 -181.285)" fill="#e6c77f"/>
      <path id="Trazado_876223" data-name="Trazado 876223" d="M156.118,347.212a.534.534,0,1,0,.621.43.534.534,0,0,0-.621-.43" transform="translate(-79.336 -176.938)" fill="#e6c77f"/>
      <path id="Trazado_876224" data-name="Trazado 876224" d="M147.163,282.755a.534.534,0,1,0,.621.43.534.534,0,0,0-.621-.43" transform="translate(-74.772 -144.09)" fill="#e6c77f"/>
      <path id="Trazado_876225" data-name="Trazado 876225" d="M153.021,330.152a.534.534,0,1,0,.621.43.534.534,0,0,0-.621-.43" transform="translate(-77.757 -168.244)" fill="#e6c77f"/>
      <path id="Trazado_876226" data-name="Trazado 876226" d="M145.277,287.5a.534.534,0,1,0,.621.43.534.534,0,0,0-.621-.43" transform="translate(-73.811 -146.509)" fill="#e6c77f"/>
      <path id="Trazado_876227" data-name="Trazado 876227" d="M146.826,296.032a.534.534,0,1,0,.621.43.534.534,0,0,0-.621-.43" transform="translate(-74.6 -150.856)" fill="#e6c77f"/>
      <path id="Trazado_876228" data-name="Trazado 876228" d="M148.712,291.284a.534.534,0,1,0,.621.43.534.534,0,0,0-.621-.43" transform="translate(-75.561 -148.437)" fill="#e6c77f"/>
      <path id="Trazado_876229" data-name="Trazado 876229" d="M149.924,313.092a.534.534,0,1,0,.62.43.534.534,0,0,0-.62-.43" transform="translate(-76.179 -159.55)" fill="#e6c77f"/>
      <path id="Trazado_876230" data-name="Trazado 876230" d="M151.472,321.622a.534.534,0,1,0,.621.43.534.534,0,0,0-.621-.43" transform="translate(-76.968 -163.897)" fill="#e6c77f"/>
      <path id="Trazado_876231" data-name="Trazado 876231" d="M148.375,304.562a.534.534,0,1,0,.621.43.534.534,0,0,0-.621-.43" transform="translate(-75.39 -155.203)" fill="#e6c77f"/>
      <path id="Trazado_876232" data-name="Trazado 876232" d="M155.244,312.126a.534.534,0,1,0,.621.43.534.534,0,0,0-.621-.43" transform="translate(-78.89 -159.058)" fill="#e6c77f"/>
      <path id="Trazado_876233" data-name="Trazado 876233" d="M159.553,350.994a.534.534,0,1,0,.621.43.534.534,0,0,0-.621-.43" transform="translate(-81.086 -178.866)" fill="#e6c77f"/>
      <path id="Trazado_876234" data-name="Trazado 876234" d="M156.793,320.656a.534.534,0,1,0,.621.43.534.534,0,0,0-.621-.43" transform="translate(-79.68 -163.405)" fill="#e6c77f"/>
      <path id="Trazado_876235" data-name="Trazado 876235" d="M158,342.464a.534.534,0,1,0,.621.43.534.534,0,0,0-.621-.43" transform="translate(-80.297 -174.519)" fill="#e6c77f"/>
      <path id="Trazado_876236" data-name="Trazado 876236" d="M142.717,318.806a.534.534,0,1,0,.621.43.534.534,0,0,0-.621-.43" transform="translate(-72.506 -162.462)" fill="#e6c77f"/>
      <path id="Trazado_876237" data-name="Trazado 876237" d="M152.684,343.43a.534.534,0,1,0,.621.43.534.534,0,0,0-.621-.43" transform="translate(-77.586 -175.011)" fill="#e6c77f"/>
      <path id="Trazado_876238" data-name="Trazado 876238" d="M156.455,333.934a.534.534,0,1,0,.621.43.534.534,0,0,0-.621-.43" transform="translate(-79.507 -170.172)" fill="#e6c77f"/>
      <path id="Trazado_876239" data-name="Trazado 876239" d="M151.809,308.344a.534.534,0,1,0,.621.43.534.534,0,0,0-.621-.43" transform="translate(-77.14 -157.131)" fill="#e6c77f"/>
      <path id="Trazado_876240" data-name="Trazado 876240" d="M153.358,316.874a.534.534,0,1,0,.621.43.534.534,0,0,0-.621-.43" transform="translate(-77.929 -161.478)" fill="#e6c77f"/>
      <path id="Trazado_876241" data-name="Trazado 876241" d="M150.261,299.814a.534.534,0,1,0,.621.43.534.534,0,0,0-.621-.43" transform="translate(-76.351 -152.784)" fill="#e6c77f"/>
      <path id="Trazado_876242" data-name="Trazado 876242" d="M154.907,325.4a.534.534,0,1,0,.621.43.534.534,0,0,0-.621-.43" transform="translate(-78.718 -165.825)" fill="#e6c77f"/>
      <path id="Trazado_876243" data-name="Trazado 876243" d="M153.695,303.6a.534.534,0,1,0,.621.43.534.534,0,0,0-.621-.43" transform="translate(-78.101 -154.711)" fill="#e6c77f"/>
      <path id="Trazado_876244" data-name="Trazado 876244" d="M143.054,305.528a.534.534,0,1,0,.621.43.534.534,0,0,0-.621-.43" transform="translate(-72.678 -155.696)" fill="#e6c77f"/>
      <path id="Trazado_876245" data-name="Trazado 876245" d="M141.506,297a.534.534,0,1,0,.621.43.534.534,0,0,0-.621-.43" transform="translate(-71.889 -151.349)" fill="#e6c77f"/>
      <path id="Trazado_876246" data-name="Trazado 876246" d="M147.7,331.118a.534.534,0,1,0,.621.43.534.534,0,0,0-.621-.43" transform="translate(-75.046 -168.737)" fill="#e6c77f"/>
      <path id="Trazado_876247" data-name="Trazado 876247" d="M144.6,314.058a.534.534,0,1,0,.621.43.534.534,0,0,0-.621-.43" transform="translate(-73.467 -160.043)" fill="#e6c77f"/>
      <path id="Trazado_876248" data-name="Trazado 876248" d="M146.152,322.588a.534.534,0,1,0,.621.43.534.534,0,0,0-.621-.43" transform="translate(-74.257 -164.39)" fill="#e6c77f"/>
      <path id="Trazado_876249" data-name="Trazado 876249" d="M139.957,288.468a.534.534,0,1,0,.621.43.534.534,0,0,0-.621-.43" transform="translate(-71.1 -147.002)" fill="#e6c77f"/>
      <path id="Trazado_876250" data-name="Trazado 876250" d="M144.266,327.336a.534.534,0,1,0,.621.43.534.534,0,0,0-.621-.43" transform="translate(-73.296 -166.809)" fill="#e6c77f"/>
      <path id="Trazado_876251" data-name="Trazado 876251" d="M145.815,335.866a.534.534,0,1,0,.621.43.534.534,0,0,0-.621-.43" transform="translate(-74.085 -171.156)" fill="#e6c77f"/>
      <path id="Trazado_876252" data-name="Trazado 876252" d="M147.364,344.4a.534.534,0,1,0,.62.43.534.534,0,0,0-.62-.43" transform="translate(-74.874 -175.503)" fill="#e6c77f"/>
      <path id="Trazado_876253" data-name="Trazado 876253" d="M154.233,351.96a.534.534,0,1,0,.621.43.534.534,0,0,0-.621-.43" transform="translate(-78.375 -179.358)" fill="#e6c77f"/>
      <path id="Trazado_876254" data-name="Trazado 876254" d="M148.912,352.926a.534.534,0,1,0,.621.43.534.534,0,0,0-.621-.43" transform="translate(-75.663 -179.85)" fill="#e6c77f"/>
      <path id="Trazado_876255" data-name="Trazado 876255" d="M136.093,285.328a.534.534,0,1,0,.657-.611c-.194.082-.395.158-.585.244a.527.527,0,0,0-.072.366" transform="translate(-69.35 -145.095)" fill="#e6c77f"/>
      <path id="Trazado_876256" data-name="Trazado 876256" d="M144.94,300.78a.534.534,0,1,0,.621.43.534.534,0,0,0-.621-.43" transform="translate(-73.639 -153.276)" fill="#e6c77f"/>
      <path id="Trazado_876257" data-name="Trazado 876257" d="M146.489,309.31a.534.534,0,1,0,.621.43.534.534,0,0,0-.621-.43" transform="translate(-74.429 -157.623)" fill="#e6c77f"/>
      <path id="Trazado_876258" data-name="Trazado 876258" d="M148.038,317.84a.534.534,0,1,0,.621.43.534.534,0,0,0-.621-.43" transform="translate(-75.218 -161.97)" fill="#e6c77f"/>
      <path id="Trazado_876259" data-name="Trazado 876259" d="M149.586,326.37a.534.534,0,1,0,.621.43.534.534,0,0,0-.621-.43" transform="translate(-76.007 -166.317)" fill="#e6c77f"/>
      <path id="Trazado_876260" data-name="Trazado 876260" d="M151.135,334.9a.534.534,0,1,0,.621.43.534.534,0,0,0-.621-.43" transform="translate(-76.796 -170.664)" fill="#e6c77f"/>
      <path id="Trazado_876261" data-name="Trazado 876261" d="M152.347,356.708a.534.534,0,1,0,.621.43.534.534,0,0,0-.621-.43" transform="translate(-77.414 -181.778)" fill="#e6c77f"/>
      <path id="Trazado_876262" data-name="Trazado 876262" d="M143.392,292.25a.534.534,0,1,0,.62.43.534.534,0,0,0-.62-.43" transform="translate(-72.85 -148.929)" fill="#e6c77f"/>
      <path id="Trazado_876263" data-name="Trazado 876263" d="M150.8,348.178a.534.534,0,1,0,.621.43.534.534,0,0,0-.621-.43" transform="translate(-76.625 -177.431)" fill="#e6c77f"/>
      <path id="Trazado_876264" data-name="Trazado 876264" d="M149.249,339.648a.534.534,0,1,0,.621.43.534.534,0,0,0-.621-.43" transform="translate(-75.835 -173.084)" fill="#e6c77f"/>
      <path id="Trazado_876265" data-name="Trazado 876265" d="M141.843,283.72a.534.534,0,1,0,.621.43.534.534,0,0,0-.621-.43" transform="translate(-72.061 -144.582)" fill="#e6c77f"/>
      <path id="Trazado_876266" data-name="Trazado 876266" d="M166.454,373.574l-41.882,7.6a1.162,1.162,0,0,1-1.35-.936l-.695-3.827a1.161,1.161,0,0,1,.935-1.35l41.882-7.6a1.161,1.161,0,0,1,1.35.936l.695,3.827a1.162,1.162,0,0,1-.935,1.351" transform="translate(-62.432 -187.252)" fill="#22379c"/>
      <path id="Trazado_876267" data-name="Trazado 876267" d="M156.783,392.953h0a13.746,13.746,0,0,1-15.98-11.069l-2.46-13.552,27.048-4.911,2.46,13.552a13.745,13.745,0,0,1-11.069,15.98" transform="translate(-70.501 -185.203)" fill="#2f4bd4"/>
      <path id="Trazado_876268" data-name="Trazado 876268" d="M163.928,359.555l-27.123,4.924a.9.9,0,0,1-1.041-.721l-.831-4.58a.9.9,0,0,1,.721-1.041l27.122-4.924a.9.9,0,0,1,1.041.721l.832,4.58a.9.9,0,0,1-.721,1.041" transform="translate(-68.756 -179.993)" fill="#22379c"/>
      <rect id="Rectángulo_402694" data-name="Rectángulo 402694" width="29.357" height="0.933" transform="matrix(0.984, -0.179, 0.179, 0.984, 66.51, 181.016)" fill="#2f4bd4"/>
      <path id="Trazado_876269" data-name="Trazado 876269" d="M150.329,411.141a20.1,20.1,0,0,1-19.74-16.488l-3.849-21.2a1.112,1.112,0,0,1,.9-1.294l2.158-.392a1.113,1.113,0,0,1,1.294.9l3.849,21.2a15.654,15.654,0,0,0,30.8-5.593l-3.85-21.2a1.113,1.113,0,0,1,.9-1.294l2.157-.392a1.113,1.113,0,0,1,1.294.9l3.781,20.823a20.568,20.568,0,0,1-3.174,15.381,19.942,19.942,0,0,1-12.921,8.33,20.147,20.147,0,0,1-3.595.325" transform="translate(-64.579 -186.195)" fill="#2f4bd4"/>
      <path id="Trazado_876270" data-name="Trazado 876270" d="M363.379,158.435l-4.013-1.756a.731.731,0,0,1-.377-.963l7.4-16.9.271-.323a44.4,44.4,0,0,0,7.539-13.118c7.388-19.82-.59-36.533-21.89-45.852s-38.989-3.838-48.532,15.039A44.393,44.393,0,0,0,299.253,109l-.053.417-7.4,16.9a.731.731,0,0,1-.963.377l-4.013-1.756a.731.731,0,0,1-.377-.963l7.061-16.138a50.353,50.353,0,0,1,5.045-15.915C309.522,70.236,330.49,63.6,354.646,74.168s33.51,30.475,25.023,53.246A50.342,50.342,0,0,1,371.4,141.92l-7.062,16.138a.731.731,0,0,1-.963.377" transform="translate(-145.947 -35.283)" fill="#2f4bd4"/>
      <path id="Trazado_876271" data-name="Trazado 876271" d="M281.947,163.97l-1.35-.591a6.372,6.372,0,0,1-3.284-8.393l.9-2.061a6.372,6.372,0,0,1,8.393-3.284l1.35.591Z" transform="translate(-141.048 -75.986)" fill="#22379c"/>
      <path id="Trazado_876272" data-name="Trazado 876272" d="M445.98,234.563l1.35.591a6.372,6.372,0,0,0,8.393-3.284l.9-2.061a6.372,6.372,0,0,0-3.284-8.393l-1.35-.59Z" transform="translate(-227.276 -112.535)" fill="#22379c"/>
      <path id="Trazado_876273" data-name="Trazado 876273" d="M369.549,74.17C347.2,64.393,327.592,69.344,316.1,87.305a2.922,2.922,0,1,0,4.927,3.141c9.941-15.513,26.523-19.526,46.183-10.923s27.965,23.5,23.318,41.334a2.921,2.921,0,1,0,5.65,1.487c5.391-20.632-4.282-38.4-26.626-48.173" transform="translate(-160.85 -35.284)" fill="#22379c"/>
      <path id="Trazado_876274" data-name="Trazado 876274" d="M278.542,207.511l-3.865-1.691,10.812-19.448,3.865,1.691Z" transform="translate(-139.978 -94.977)" fill="#2f4bd4"/>
      <path id="Trazado_876275" data-name="Trazado 876275" d="M308.34,170.225a7.056,7.056,0,0,1-8.926,4.463l-7.478-2.493c-4.561-1.521,10.834-47.7,15.4-46.182l7.478,2.493a7.056,7.056,0,0,1,4.463,8.926Z" transform="translate(-148.348 -64.199)" fill="#22379c"/>
      <path id="Trazado_876276" data-name="Trazado 876276" d="M322.534,130.83l-.881-.294-15.4,46.182.881.293a7.056,7.056,0,0,0,8.926-4.463L327,139.755a7.056,7.056,0,0,0-4.463-8.926" transform="translate(-156.072 -66.522)" fill="#2f4bd4"/>
      <path id="Trazado_876277" data-name="Trazado 876277" d="M391.509,209.889a7.056,7.056,0,0,0,2.78,9.584l6.906,3.8c4.212,2.318,27.685-40.33,23.473-42.648l-6.906-3.8a7.056,7.056,0,0,0-9.584,2.78Z" transform="translate(-199.071 -89.666)" fill="#22379c"/>
      <path id="Trazado_876278" data-name="Trazado 876278" d="M417.761,176.826l.813.448L395.1,219.921l-.814-.448a7.056,7.056,0,0,1-2.78-9.584l16.668-30.284a7.056,7.056,0,0,1,9.584-2.78" transform="translate(-199.071 -89.666)" fill="#2f4bd4"/>
      <path id="Trazado_876279" data-name="Trazado 876279" d="M477.177,223.336l9.272-2" transform="translate(-243.174 -112.796)" fill="none" stroke="#117545" stroke-linecap="round" stroke-linejoin="round" stroke-width="4.574"/>
      <path id="Trazado_876280" data-name="Trazado 876280" d="M477.2,239.926l9.28,1.964" transform="translate(-243.188 -122.269)" fill="none" stroke="#117545" stroke-linecap="round" stroke-linejoin="round" stroke-width="4.574"/>
      <path id="Trazado_876281" data-name="Trazado 876281" d="M471.473,252.945l7.715,5.519" transform="translate(-240.267 -128.903)" fill="none" stroke="#117545" stroke-linecap="round" stroke-linejoin="round" stroke-width="4.574"/>
      <path id="Trazado_876282" data-name="Trazado 876282" d="M460.749,262.722l4.787,8.189" transform="translate(-234.802 -133.886)" fill="none" stroke="#117545" stroke-linecap="round" stroke-linejoin="round" stroke-width="4.574"/>
      <path id="Trazado_876283" data-name="Trazado 876283" d="M73.621,107.736a5.063,5.063,0,0,1-.576-2.312,7.019,7.019,0,0,1,.437-2.609,11.1,11.1,0,0,1,2.2-3.693,12.293,12.293,0,0,1,3.025-2.487,8.735,8.735,0,0,1,2.83-1.106l.03.011.792,1.485-.176.483a7.289,7.289,0,0,0-2.129,1.48,7.56,7.56,0,0,0-1.814,2.962,4.007,4.007,0,0,0-.289,1.638,6.758,6.758,0,0,0,.323,1.553,6.312,6.312,0,0,1,.274,1.313,3.011,3.011,0,0,1-.212,1.239,2.279,2.279,0,0,1-1.267,1.367,2.479,2.479,0,0,1-1.911.039,2.805,2.805,0,0,1-1.537-1.363m8.69,3.165a5.063,5.063,0,0,1-.576-2.312,7.012,7.012,0,0,1,.438-2.609,11.1,11.1,0,0,1,2.2-3.693A12.315,12.315,0,0,1,87.4,99.8a8.724,8.724,0,0,1,2.829-1.105l.03.011.792,1.485-.176.483A7.472,7.472,0,0,0,86.9,105.1a4.008,4.008,0,0,0-.289,1.638,6.761,6.761,0,0,0,.323,1.553,6.32,6.32,0,0,1,.274,1.313A3.013,3.013,0,0,1,87,110.848a2.307,2.307,0,0,1-1.251,1.373,2.425,2.425,0,0,1-1.9.044,2.805,2.805,0,0,1-1.537-1.363" transform="translate(-37.223 -48.683)" fill="#e6c77f"/>
      <path id="Trazado_876284" data-name="Trazado 876284" d="M237.8,87.28l-.254-.467a7.878,7.878,0,0,0,.249-2.744,8.24,8.24,0,0,0-1.07-3.5,3.9,3.9,0,0,0-1.017-1.281,6.357,6.357,0,0,0-1.371-.749,7.406,7.406,0,0,1-1.22-.68,2.921,2.921,0,0,1-.829-1,2.359,2.359,0,0,1-.192-1.919,2.569,2.569,0,0,1,1.279-1.508,2.941,2.941,0,0,1,2.1-.272,5.111,5.111,0,0,1,2.179,1.123A7.272,7.272,0,0,1,239.38,76.4a11.621,11.621,0,0,1,1.363,4.25,12.69,12.69,0,0,1-.137,4.063,8.459,8.459,0,0,1-1.1,2.921l-.029.016Zm8.379-4.551-.254-.467a7.889,7.889,0,0,0,.249-2.744,8.247,8.247,0,0,0-1.07-3.5,3.91,3.91,0,0,0-1.017-1.281,6.357,6.357,0,0,0-1.371-.749,7.4,7.4,0,0,1-1.22-.68,2.927,2.927,0,0,1-.83-1,2.361,2.361,0,0,1-.191-1.919,2.526,2.526,0,0,1,1.25-1.492,3,3,0,0,1,2.117-.28,5.034,5.034,0,0,1,2.193,1.115,7.279,7.279,0,0,1,1.722,2.127,11.62,11.62,0,0,1,1.363,4.25,12.69,12.69,0,0,1-.137,4.063,8.459,8.459,0,0,1-1.1,2.921l-.029.016Z" transform="translate(-118.218 -34.926)" fill="#e6c77f"/>
      <path id="Trazado_876285" data-name="Trazado 876285" d="M476.671,334.615c-1.095-3.082-4.241-3.877-6.8-1.837l-1.377,1.1-.465-1.7c-.863-3.155-3.873-4.368-6.574-2.524A4.292,4.292,0,0,0,460,335.066l3.979,8.276a1.885,1.885,0,0,0,2.589.844l8.093-4.339a4.293,4.293,0,0,0,2.012-5.231" transform="translate(-234.204 -167.553)" fill="#fc5353"/>
      <line id="Línea_595" data-name="Línea 595" x2="224.675" transform="translate(23.094 239.352)" fill="none" stroke="#2f4bd4" stroke-miterlimit="10" stroke-width="1"/>
      <path id="Trazado_876286" data-name="Trazado 876286" d="M271.079,252.22l3,4.243,4.181-3.082-.881,5.119,5.136.777-4.243,3,3.082,4.181-5.119-.881-.777,5.136-3-4.243-4.181,3.082.881-5.119-5.136-.777,4.243-3-3.082-4.181,5.119.881Z" transform="translate(-134.548 -128.534)" fill="#ffa200"/>
      <path id="Trazado_876287" data-name="Trazado 876287" d="M367.244,182.024l-.068,5.194,5.194-.038L368.65,190.8l3.7,3.646-5.194-.068.038,5.194-3.625-3.721-3.646,3.7.068-5.194-5.194.038,3.721-3.625-3.7-3.646,5.194.068L359.973,182l3.625,3.721Z" transform="translate(-180.808 -92.751)" fill="#ffa200"/>
      <path id="Trazado_876288" data-name="Trazado 876288" d="M67.571,190.028l-.068,5.194,5.194-.038-3.721,3.625,3.7,3.646-5.194-.068.038,5.194L63.9,203.86l-3.646,3.7.068-5.194-5.194.038,3.721-3.625-3.7-3.646,5.194.068-.038-5.194,3.625,3.721Z" transform="translate(-28.091 -96.829)" fill="#fc5353"/>
      <path id="Trazado_876289" data-name="Trazado 876289" d="M349.606,257.389a4.445,4.445,0,1,1-4.445-4.445,4.445,4.445,0,0,1,4.445,4.445" transform="translate(-173.633 -128.903)" fill="#117545"/>
      <path id="Trazado_876290" data-name="Trazado 876290" d="M166.043,59.584a4.445,4.445,0,1,1-4.445-4.445,4.445,4.445,0,0,1,4.445,4.445" transform="translate(-80.087 -28.099)" fill="#ff830f"/>
      <path id="Trazado_876291" data-name="Trazado 876291" d="M497.918,457.833a4.445,4.445,0,1,1-4.445-4.445,4.445,4.445,0,0,1,4.445,4.445" transform="translate(-249.214 -231.051)" fill="#ffa200"/>
    </g>
  </g>
</svg>
