<svg xmlns="http://www.w3.org/2000/svg" width="70" height="70" viewBox="0 0 70 70">
  <g id="Grupo_1101951" data-name="Grupo 1101951" transform="translate(-450.051 -1619)">
    <circle id="Elipse_11629" data-name="Elipse 11629" cx="35" cy="35" r="35" transform="translate(450.051 1619)" fill="#afc7cb"/>
    <g id="Grupo_1101965" data-name="Grupo 1101965" transform="translate(461.643 1605.488)">
      <g id="Grupo_1101958" data-name="Grupo 1101958" transform="translate(0 27.632)">
        <g id="Grupo_1101957" data-name="Grupo 1101957" transform="translate(0)">
          <path id="Trazado_875001" data-name="Trazado 875001" d="M44.967,43.948l-1.553-2.562-1.553-5.362h0a.916.916,0,0,0-.066-.17L37.75,28.122a.912.912,0,0,0-.808-.49H33.265a.908.908,0,0,0-.908.972c0,.025,0,.051,0,.076v6.237L29.9,37.6a16.542,16.542,0,0,1-4.414,3.437.912.912,0,1,0,.862,1.607,18.36,18.36,0,0,0,4.9-3.815l2.7-2.958H34.6v3.137l-2.145,3.551A19.018,19.018,0,0,1,13.3,51.531l-3.314-.508a8.892,8.892,0,0,0-.918-.091,16.088,16.088,0,0,1-4.613-4.242l1.022-1.327A.912.912,0,1,0,4.03,44.249l-.653.848c-.527-.855-.96-1.672-1.335-2.388l1.068-1,1.906.692a.911.911,0,0,0,.464.042,6.148,6.148,0,0,1,3.126.281l2.766,1A18.277,18.277,0,0,0,19.1,44.776a.912.912,0,1,0-.144-1.818,16.472,16.472,0,0,1-6.966-.944l-2.766-1a7.976,7.976,0,0,0-3.81-.4l-2.213-.8a.912.912,0,0,0-.935.192L.288,41.854a.912.912,0,0,0-.182,1.092q.116.22.242.461a23.09,23.09,0,0,0,5.958,7.822c-.215.058-.427.122-.637.2l-2.683-.411a.911.911,0,0,0-.88.371L.3,53.9a.912.912,0,0,0,.034,1.106,21.23,21.23,0,0,0,5.945,5.025l-1.167,2.3a.912.912,0,0,0,.2,1.088,21.137,21.137,0,0,0,4.1,2.9.905.905,0,0,0,.151.081,21.093,21.093,0,0,0,4.118,1.666l.826.236a28.412,28.412,0,0,0,19.207-1.317A25.027,25.027,0,0,0,44.392,58.1l.234-.346A12.84,12.84,0,0,0,44.967,43.948ZM41.373,40.9l-2.521.114V37.19H40.3ZM36.39,29.456l3.089,5.91H38.454l-3.573-5.91Zm.638,7.076v1.293h-.6V35.536ZM34.6,32.642v1.409h-.426V31.815l.433.716A.926.926,0,0,0,34.6,32.642ZM6.194,57.845l.527-1.051a.912.912,0,1,0-1.631-.817l-.395.788a19.326,19.326,0,0,1-2.5-2.378L3.262,52.9l2.361.362a.913.913,0,0,0,.464-.05,7.132,7.132,0,0,1,3.621-.387l3.314.508a20.842,20.842,0,0,0,21-9.827l2.33-3.858h.68v2.136L35.182,46.26A19.019,19.019,0,0,1,17.6,58.024H14.248a8.96,8.96,0,0,0-4.205,1.05H8.381A19.212,19.212,0,0,1,6.194,57.845Zm36.921-1.112-.234.346a23.206,23.206,0,0,1-9.894,8.244,26.587,26.587,0,0,1-17.972,1.233l-.826-.236a19.236,19.236,0,0,1-3.143-1.207l.428-1.24a.912.912,0,1,0-1.724-.6l-.327.948a19.3,19.3,0,0,1-2.361-1.7l.826-1.63h2.389a.912.912,0,0,0,.451-.119,7.132,7.132,0,0,1,3.52-.931H17.6A20.842,20.842,0,0,0,36.868,46.955l1.694-4.1,3.511-.159,1.335,2.2A11.011,11.011,0,0,1,43.114,56.733Z" transform="translate(0 -27.632)" fill="#36737d"/>
        </g>
      </g>
      <g id="Grupo_1101960" data-name="Grupo 1101960" transform="translate(21.893 42.231)">
        <g id="Grupo_1101959" data-name="Grupo 1101959" transform="translate(0 0)">
          <path id="Trazado_875002" data-name="Trazado 875002" d="M241.238,187.939a.92.92,0,0,0-1.145-.605h0a.912.912,0,1,0,1.15.6Z" transform="translate(-239.437 -187.295)" fill="#36737d"/>
        </g>
      </g>
      <g id="Grupo_1101962" data-name="Grupo 1101962" transform="translate(39.653 54.634)">
        <g id="Grupo_1101961" data-name="Grupo 1101961" transform="translate(0 0)">
          <path id="Trazado_875003" data-name="Trazado 875003" d="M435.147,323.109a.912.912,0,0,0-1.266.245l-.048.07a.912.912,0,1,0,1.507,1.027l.052-.076A.912.912,0,0,0,435.147,323.109Z" transform="translate(-433.675 -322.953)" fill="#36737d"/>
        </g>
      </g>
      <g id="Grupo_1101964" data-name="Grupo 1101964" transform="translate(22.042 57.611)">
        <g id="Grupo_1101963" data-name="Grupo 1101963">
          <path id="Trazado_875004" data-name="Trazado 875004" d="M257.836,355.771a.912.912,0,0,0-1.289,0,19.581,19.581,0,0,1-6,4.106,22.786,22.786,0,0,1-8.588,1.929.912.912,0,0,0,.025,1.823h.026a24.6,24.6,0,0,0,9.272-2.083,21.4,21.4,0,0,0,6.556-4.487A.912.912,0,0,0,257.836,355.771Z" transform="translate(-241.072 -355.504)" fill="#36737d"/>
        </g>
      </g>
    </g>
  </g>
</svg>
