<svg xmlns="http://www.w3.org/2000/svg" width="70" height="70" viewBox="0 0 70 70">
  <g id="Grupo_1101952" data-name="Grupo 1101952" transform="translate(-450.051 -1619)">
    <circle id="Elipse_11629" data-name="Elipse 11629" cx="35" cy="35" r="35" transform="translate(450.051 1619)" fill="#afc7cb"/>
    <g id="Grupo_1101967" data-name="Grupo 1101967" transform="translate(465.69 1634.662)">
      <path id="Trazado_875010" data-name="Trazado 875010" d="M19.567,21.793a12.045,12.045,0,0,0,3.571-4.451c1.742-.091,2.519-2.261,2.729-3.7a5.233,5.233,0,0,0,6.048.279A5.133,5.133,0,0,0,34.05,8.267a4.8,4.8,0,0,0,3.838-.3,1.917,1.917,0,0,0,.539-2.606A1.892,1.892,0,0,0,36.7,2.75a1.891,1.891,0,0,0-2.611-.537,4.831,4.831,0,0,0-1.795,3.4,5.149,5.149,0,0,0-8.348,3.6A12.134,12.134,0,1,0,1.658,18.206,12.009,12.009,0,0,0,8.983,23.9a12.132,12.132,0,0,0,3.2.431,11.965,11.965,0,0,0,4.508-.884l8.18,14.391a1.661,1.661,0,0,0,2.882-1.649Zm3.884-5.7c-.882.578-1-.761-1.66-.761-.575,0-1.532-.35-.916-1.161a.566.566,0,0,0-.069-.761A.791.791,0,0,1,20.9,12.23a3.948,3.948,0,0,1,3.925.283c-.01.6-.132,2.761-1.373,3.576ZM33.5,5.337A3.432,3.432,0,0,1,34.714,3.16a.756.756,0,0,1,1.044.214.738.738,0,0,1,.081.167.566.566,0,0,0,.67.364.809.809,0,0,1,.81.315.747.747,0,0,1-.029.862c-.277.364.006.622.191.9a.747.747,0,0,1-.214,1.036c-1.243.816-3.291.07-3.841-.156l-.085-.128A7.611,7.611,0,0,1,33.5,5.337ZM25.147,8.818a4.011,4.011,0,0,1,3.928-3.2,4.022,4.022,0,0,1,3.363,1.8,4,4,0,0,1-1.145,5.545,4.03,4.03,0,0,1-5.566-1.143A3.968,3.968,0,0,1,25.147,8.818ZM9.281,22.806a10.883,10.883,0,0,1-6.639-5.159A11.077,11.077,0,0,1,6.75,2.6a10.972,10.972,0,0,1,16.338,8.182,4.15,4.15,0,0,0-2.811.5,1.917,1.917,0,0,0-.539,2.606,1.881,1.881,0,0,0,.163,1.765,1.906,1.906,0,0,0,1.561.845c.022.033.044.064.067.095a9.754,9.754,0,0,1-10.4,3.606A7.71,7.71,0,0,1,5.742,10.72a.567.567,0,0,0-1.093-.3,8.843,8.843,0,0,0,6.181,10.872A10.867,10.867,0,0,0,20.7,19.121a10.992,10.992,0,0,1-3.076,2.613,10.882,10.882,0,0,1-8.34,1.072ZM26.566,37.472a.521.521,0,0,1-.714-.195L17.72,22.969c.156-.081.312-.164.465-.253s.3-.178.449-.271l8.13,14.3a.533.533,0,0,1-.2.724Z" transform="translate(-0.042 0)" fill="#36737d"/>
      <path id="Trazado_875011" data-name="Trazado 875011" d="M76.857,71.124a.567.567,0,0,0,.8-.088,6.042,6.042,0,0,1,6.3-2.059,4.731,4.731,0,0,1,3.3,5.817,3.676,3.676,0,0,1-4.5,2.586,2.827,2.827,0,0,1-1.972-3.473A2.29,2.29,0,0,1,81.92,72.5a1.8,1.8,0,0,1,1.457-.118,1.278,1.278,0,0,1,.963,1.03,1.035,1.035,0,0,1-.446.96c-.169.1-.787.135-.824-.167a.566.566,0,0,0,.381-1.067,1.1,1.1,0,0,0-1.38.517,1.21,1.21,0,0,0,.431,1.568,1.778,1.778,0,0,0,1.966.125,2.158,2.158,0,0,0,1-2.042,2.375,2.375,0,0,0-1.706-1.991A2.926,2.926,0,0,0,81.4,71.5a3.4,3.4,0,0,0-1.7,2.115,3.961,3.961,0,0,0,2.766,4.864,4.766,4.766,0,0,0,1.257.169,4.819,4.819,0,0,0,4.636-3.55,5.863,5.863,0,0,0-4.1-7.208,7.175,7.175,0,0,0-7.487,2.443A.567.567,0,0,0,76.857,71.124Z" transform="translate(-70.832 -62.523)" fill="#36737d"/>
      <path id="Trazado_875012" data-name="Trazado 875012" d="M350.564,253.45a5.17,5.17,0,0,0,1.424-5.884.566.566,0,0,0-1.048.431,4.03,4.03,0,0,1-2.178,5.247h0a4,4,0,0,1-5.225-2.178,4.013,4.013,0,0,1,5.854-4.927.566.566,0,0,0,.607-.956,5.137,5.137,0,0,0-3.149-.784,4.859,4.859,0,0,0,.435-3.828,7.525,7.525,0,0,0-4.22-1.2,7.593,7.593,0,0,0-2.149,3.833,4.83,4.83,0,0,0,3,2.408,5.17,5.17,0,0,0-1.424,5.884,5.141,5.141,0,0,0,4.745,3.187c.132,0,.264-.007.4-.017a4.857,4.857,0,0,0-.434,3.825,4.117,4.117,0,0,0,4.22,1.2,7.593,7.593,0,0,0,2.149-3.833A4.83,4.83,0,0,0,350.564,253.45Zm-8.6-10.676a.756.756,0,0,1,.409-.984.742.742,0,0,1,.179-.048.566.566,0,0,0,.484-.589.756.756,0,0,1,.463-.735.746.746,0,0,1,.841.192.567.567,0,0,0,.76.076.745.745,0,0,1,1.138.314c.565,1.375-.556,3.244-.882,3.742l-.141.058C344.627,244.679,342.524,244.148,341.96,242.775Zm10.146,14.5a.74.74,0,0,1-.179.048.566.566,0,0,0-.484.589.756.756,0,0,1-.463.735.747.747,0,0,1-.841-.193.567.567,0,0,0-.76-.076.745.745,0,0,1-1.138-.314c-.565-1.375.556-3.244.882-3.741l.141-.058c.583.123,2.686.654,3.25,2.027A.756.756,0,0,1,352.105,257.273Z" transform="translate(-315.008 -221.16)" fill="#36737d"/>
      <path id="Trazado_875013" data-name="Trazado 875013" d="M20.287,349.976a1.917,1.917,0,0,0-1.029-2.457,4.828,4.828,0,0,0-3.815.448A5.133,5.133,0,0,0,6.4,344.272a4.831,4.831,0,0,0-2.411-2.992,1.886,1.886,0,0,0-2.455,1.034h0a1.885,1.885,0,0,0-1.184,2.9h0a1.875,1.875,0,0,0,.006,1.442c.785,1.876,3.448,1.251,4.838.568a5.144,5.144,0,0,0,3.178,5.139,5.2,5.2,0,0,0,5.867-1.445,4.831,4.831,0,0,0,2.411,2.992,1.93,1.93,0,0,0,2.455-1.034,1.885,1.885,0,0,0,1.184-2.9h0ZM1.8,346.622a.8.8,0,0,1-.316-1.142.567.567,0,0,0-.079-.758.758.758,0,0,1,.536-1.312.567.567,0,0,0,.587-.486.8.8,0,0,1,1.026-.594c1.372.561,1.909,2.67,2.032,3.251A3.955,3.955,0,0,1,1.8,346.622Zm8.5,4.988a4.007,4.007,0,0,1-3.693-5.53,4.024,4.024,0,0,1,3.721-2.5,4.007,4.007,0,0,1,3.693,5.53A4.024,4.024,0,0,1,10.3,351.61Zm9.116-.3a.753.753,0,0,1-.731.467.565.565,0,0,0-.587.486.8.8,0,0,1-1.026.594c-1.372-.561-1.909-2.67-2.032-3.251a3.965,3.965,0,0,1,3.786-1.042.8.8,0,0,1,.316,1.142.567.567,0,0,0,.079.758.807.807,0,0,1,.195.845Z" transform="translate(0 -315.373)" fill="#36737d"/>
    </g>
  </g>
</svg>
