<svg xmlns="http://www.w3.org/2000/svg" width="70" height="70" viewBox="0 0 70 70">
  <g id="Grupo_1101953" data-name="Grupo 1101953" transform="translate(-450.051 -1619)">
    <circle id="Elipse_11629" data-name="Elipse 11629" cx="35" cy="35" r="35" transform="translate(450.051 1619)" fill="#afc7cb"/>
    <g id="Grupo_1101968" data-name="Grupo 1101968" transform="translate(467.037 1628.914)">
      <path id="Trazado_875015" data-name="Trazado 875015" d="M153.739,204.112a.735.735,0,1,0-1.242-.786,2.993,2.993,0,0,1-4.6,0,.735.735,0,0,0-1.242.786,4.441,4.441,0,0,0,7.081,0Zm0,0" transform="translate(-132.184 -183.093)" fill="#36737d"/>
      <path id="Trazado_875018" data-name="Trazado 875018" d="M106.083,464.935H120a.735.735,0,1,0,0-1.47H106.083a.735.735,0,1,0,0,1.47Zm0,0" transform="translate(-95.025 -418.049)" fill="#36737d"/>
      <path id="Trazado_875019" data-name="Trazado 875019" d="M32.48,31.141a32.042,32.042,0,0,0-5.272-2.108c-.018-.007-.036-.013-.055-.019-.962-.287-3.275-.792-3.343-.8a1.642,1.642,0,0,1-1.343-1.617v-.838a11.845,11.845,0,0,0,1.348-.89,8.733,8.733,0,0,0,3.665-7.034l0-.42a2.938,2.938,0,0,0,1.378-.341V27.21a.735.735,0,1,0,1.47,0V9.24A9.24,9.24,0,0,0,20.251.038L18.629.186a6.8,6.8,0,0,1-1.229,0L15.778.038A9.24,9.24,0,0,0,5.7,9.24V27.21a.735.735,0,1,0,1.47,0V17.072a2.938,2.938,0,0,0,1.378.341l0,.417a8.735,8.735,0,0,0,3.665,7.036,11.846,11.846,0,0,0,1.348.89v.838a1.642,1.642,0,0,1-1.342,1.617c-.181.033-2.891.656-3.852.961l-.036.012a32.027,32.027,0,0,0-4.782,1.958A6.452,6.452,0,0,0,0,36.923V48.21a1.965,1.965,0,0,0,1.963,1.963h32.1a1.965,1.965,0,0,0,1.963-1.963V36.923a6.453,6.453,0,0,0-3.548-5.782Zm-6.272-.869v5.136H24.791V29.914c.477.108.95.228,1.417.358Zm-14,2.129a17.145,17.145,0,0,0,5.651.89,17.393,17.393,0,0,0,5.459-.825v2.941H12.211ZM27.487,15.943l.014-3.667a1.358,1.358,0,0,1,1.358,1.342V14.6a1.37,1.37,0,0,1-1.372,1.342ZM9.7,3.5a7.786,7.786,0,0,1,5.944-2l1.621.148a8.278,8.278,0,0,0,1.5,0L20.384,1.5A7.77,7.77,0,0,1,28.859,9.24v1.907a2.839,2.839,0,0,0-1.353-.341l0-.32a.736.736,0,0,0-.68-.736,14.641,14.641,0,0,1-8.052-3.675,1.109,1.109,0,0,0-1.524,0A14.724,14.724,0,0,1,9.2,9.751a.735.735,0,0,0-.68.736v.32a2.839,2.839,0,0,0-1.352.341V9.24A7.787,7.787,0,0,1,9.7,3.5ZM8.541,15.943A1.37,1.37,0,0,1,7.169,14.6v-.983a1.358,1.358,0,0,1,1.358-1.342Zm1.477,1.884-.026-6.7a16.071,16.071,0,0,0,8.022-3.758,16.071,16.071,0,0,0,8.021,3.758l-.026,6.7A7.312,7.312,0,0,1,22.922,23.7a9.51,9.51,0,0,1-4.908,1.99,9.51,9.51,0,0,1-4.908-1.99,7.313,7.313,0,0,1-3.088-5.871Zm2.467,11.829a3.112,3.112,0,0,0,2.547-3.063v-.129A8.913,8.913,0,0,0,18,27.158h.032A8.917,8.917,0,0,0,21,26.464v.129a3.113,3.113,0,0,0,2.324,3.013v1.3a15.339,15.339,0,0,1-5.459.918,15.286,15.286,0,0,1-5.651-1V29.708l.274-.052Zm-1.744,5.752H9.324V30.415c.466-.139.94-.267,1.417-.384ZM5.954,45.962a.735.735,0,0,0-.735.735V48.7H1.962a.493.493,0,0,1-.493-.493V36.923a4.991,4.991,0,0,1,2.744-4.471,30.582,30.582,0,0,1,3.64-1.558v6.425C7.854,38.111,7,38.95,6.2,39.4a1.915,1.915,0,0,0-.979,1.672v2.208a.735.735,0,0,0,1.47,0V41.067a.444.444,0,0,1,.225-.389,5.783,5.783,0,0,0,1.55-1.263,3.274,3.274,0,0,0,.86-2.1v-.441H26.208v.441a3.274,3.274,0,0,0,.86,2.1,5.789,5.789,0,0,0,1.55,1.263.444.444,0,0,1,.225.389V48.7H6.689v-2a.735.735,0,0,0-.735-.735Zm28.6,2.247a.493.493,0,0,1-.493.493H30.313V41.067a1.916,1.916,0,0,0-.979-1.672c-.8-.445-1.656-1.284-1.656-2.076V30.724a30.556,30.556,0,0,1,4.137,1.728,4.991,4.991,0,0,1,2.744,4.471Zm0,0" fill="#36737d"/>
    </g>
  </g>
</svg>
