<svg xmlns="http://www.w3.org/2000/svg" xmlns:xlink="http://www.w3.org/1999/xlink" width="190" height="91" viewBox="0 0 190 91">
  <defs>
    <clipPath id="clip-path">
      <rect id="Rectángulo_402292" data-name="Rectángulo 402292" width="42" height="70" fill="#9de1ba" stroke="#707070" stroke-width="1"/>
    </clipPath>
    <filter id="Trazado_874970" x="-44.032" y="0.113" width="94.406" height="94.406" filterUnits="userSpaceOnUse">
      <feOffset dy="16" input="SourceAlpha"/>
      <feGaussianBlur stdDeviation="9" result="blur"/>
      <feFlood flood-opacity="0.161"/>
      <feComposite operator="in" in2="blur"/>
      <feComposite in="SourceGraphic"/>
    </filter>
    <clipPath id="clip-path-2">
      <rect id="Rectángulo_402133" data-name="Rectángulo 402133" width="30.091" height="29.986" fill="#ebc54a"/>
    </clipPath>
  </defs>
  <g id="Grupo_1102820" data-name="Grupo 1102820" transform="translate(-1230 -1498)">
    <rect id="Rectángulo_402288" data-name="Rectángulo 402288" width="190" height="91" rx="10" transform="translate(1230 1498)" fill="#d7e3e5"/>
    <g id="outline" transform="translate(1273.051 1471)">
      <path id="Trazado_874964" data-name="Trazado 874964" d="M84.4,266.4a4.758,4.758,0,0,0-3.153,1.453L75.668,271.2H71.2a1.2,1.2,0,0,0-1.2,1.2v2.4H67.417l-1.033-6.2a1.2,1.2,0,1,0-2.367.395l.967,5.8H61.441l-.875-6.125a3.6,3.6,0,0,0-1.954-2.71l-3.675-1.838A1.2,1.2,0,0,0,54.4,264H49.6a1.2,1.2,0,0,0-.537.127l-3.675,1.837a3.6,3.6,0,0,0-1.953,2.711l-.876,6.125H39.016l.967-5.8a1.2,1.2,0,1,0-2.367-.395l-1.033,6.2H34v-2.4a1.2,1.2,0,0,0-1.2-1.2H28.332l-5.579-3.347A4.758,4.758,0,0,0,19.6,266.4,3.6,3.6,0,0,0,16,270v14.4a1.2,1.2,0,0,0,.82,1.139l.38.127V294H16v2.4H88V294H86.8V283.3l.473-.2A1.2,1.2,0,0,0,88,282V270a3.6,3.6,0,0,0-3.6-3.6ZM73.6,289.031,76.36,294H73.6Zm0-11.831h3.6a1.2,1.2,0,0,0,.537-.127l3.063-1.532v2.193l-7.2,4.5ZM45.81,269.016a1.2,1.2,0,0,1,.652-.9l3.421-1.711h4.234l3.422,1.711a1.2,1.2,0,0,1,.652.9l.826,5.785H56.8V270a1.2,1.2,0,0,0-1.2-1.2H48.4a1.2,1.2,0,0,0-1.2,1.2v4.8H44.983ZM54.4,274.8H49.6v-3.6h4.8Zm16.8,2.4v2.4H32.8v-2.4Zm-12,5.006V282h7.2v12H55.759l.98-7.843,1.406-1.406A3.576,3.576,0,0,0,59.2,282.206Zm-13.345,2.546,1.406,1.406.98,7.843H37.6V282h7.2v.206A3.576,3.576,0,0,0,45.855,284.752ZM30.4,287.023l-1.25-4.168a1.2,1.2,0,0,0-.532-.684L23.2,278.92v-3.379l3.063,1.532a1.2,1.2,0,0,0,.537.127h3.6Zm-10.8-.559,3.82,1.273L25.21,294H19.6ZM27.705,294l-2.152-7.53a1.2,1.2,0,0,0-.774-.809l-6.38-2.126V270a1.2,1.2,0,0,1,1.2-1.2,2.54,2.54,0,0,1,1.506.8,1.187,1.187,0,0,0,.277.228l6,3.6A1.2,1.2,0,0,0,28,273.6h3.6v1.2H27.083l-4.546-2.273A1.2,1.2,0,0,0,20.8,273.6v6a1.2,1.2,0,0,0,.582,1.029l5.6,3.361,3,10.01Zm5.095,0V282h2.4v12Zm17.859,0-1.069-8.549a1.2,1.2,0,0,0-.342-.7l-1.7-1.7a1.193,1.193,0,0,1-.352-.849V282h9.6v.206a1.193,1.193,0,0,1-.352.849l-1.7,1.7a1.2,1.2,0,0,0-.342.7L53.341,294ZM68.8,294V282h2.4v12Zm10.306,0L74,284.814l8.633-5.4A1.2,1.2,0,0,0,83.2,278.4v-4.8a1.2,1.2,0,0,0-1.737-1.073L76.917,274.8H72.4v-1.2H76a1.2,1.2,0,0,0,.618-.171l6-3.6a1.187,1.187,0,0,0,.277-.228,2.526,2.526,0,0,1,1.506-.8,1.2,1.2,0,0,1,1.2,1.2v11.209L77.927,284.5a1.2,1.2,0,0,0-.691,1.394L79.263,294Zm5.294,0H81.737l-1.925-7.7,4.588-1.966Z" transform="translate(0 -190.4)" fill="#36737d"/>
      <path id="Trazado_874965" data-name="Trazado 874965" d="M266.4,54.194V58a1.2,1.2,0,0,0,1.866,1l4.194-2.8a3.6,3.6,0,0,0,3.54,3h4.437l6.9,4.6a1.2,1.2,0,0,0,1.866-1V58.994a3.606,3.606,0,0,0,2.4-3.394V48.4a3.6,3.6,0,0,0-3.6-3.6h-4.8V43.6a3.6,3.6,0,0,0-3.6-3.6h-12a3.6,3.6,0,0,0-3.6,3.6v7.2A3.606,3.606,0,0,0,266.4,54.194ZM288,47.2a1.2,1.2,0,0,1,1.2,1.2v7.2a1.2,1.2,0,0,1-1.2,1.2,1.2,1.2,0,0,0-1.2,1.2v2.558L281.466,57a1.2,1.2,0,0,0-.666-.2H276a1.2,1.2,0,0,1-1.2-1.2v-.958l.363-.242H279.6a3.6,3.6,0,0,0,3.6-3.6V47.2ZM274.8,52V48.4a1.2,1.2,0,0,1,1.2-1.2h4.8v3.6a1.2,1.2,0,0,1-1.2,1.2Zm-8.4-8.4a1.2,1.2,0,0,1,1.2-1.2h12a1.2,1.2,0,0,1,1.2,1.2v1.2H276a3.6,3.6,0,0,0-3.6,3.6v4.958l-3.6,2.4V53.2a1.2,1.2,0,0,0-1.2-1.2,1.2,1.2,0,0,1-1.2-1.2Z" transform="translate(-210.8)" fill="#36737d"/>
      <path id="Trazado_874966" data-name="Trazado 874966" d="M35.6,78.4V82a1.2,1.2,0,0,0,1.866,1l6.9-4.6H50a3.6,3.6,0,0,0,3.6-3.6V67.6A3.6,3.6,0,0,0,50,64H35.6A3.6,3.6,0,0,0,32,67.6v7.2A3.6,3.6,0,0,0,35.6,78.4ZM34.4,67.6a1.2,1.2,0,0,1,1.2-1.2H50a1.2,1.2,0,0,1,1.2,1.2v7.2A1.2,1.2,0,0,1,50,76H44a1.2,1.2,0,0,0-.666.2L38,79.758V77.2A1.2,1.2,0,0,0,36.8,76H35.6a1.2,1.2,0,0,1-1.2-1.2Z" transform="translate(-13.6 -20.4)" fill="#36737d"/>
      <rect id="Rectángulo_402289" data-name="Rectángulo 402289" width="3" height="2" transform="translate(23 50)" fill="#36737d"/>
      <rect id="Rectángulo_402290" data-name="Rectángulo 402290" width="2" height="2" transform="translate(28 50)" fill="#36737d"/>
      <rect id="Rectángulo_402291" data-name="Rectángulo 402291" width="2" height="2" transform="translate(33 50)" fill="#36737d"/>
      <path id="Trazado_874967" data-name="Trazado 874967" d="M228.8,201.6a4.8,4.8,0,1,0-4.8-4.8A4.8,4.8,0,0,0,228.8,201.6Zm0-7.2a2.4,2.4,0,1,1-2.4,2.4A2.4,2.4,0,0,1,228.8,194.4Z" transform="translate(-176.8 -129.2)" fill="#36737d"/>
      <path id="Trazado_874968" data-name="Trazado 874968" d="M432,212.8a4.8,4.8,0,1,0,4.8-4.8,4.8,4.8,0,0,0-4.8,4.8Zm4.8-2.4a2.4,2.4,0,1,1-2.4,2.4A2.4,2.4,0,0,1,436.8,210.4Z" transform="translate(-353.6 -142.8)" fill="#36737d"/>
      <path id="Trazado_874969" data-name="Trazado 874969" d="M20.8,217.6a4.8,4.8,0,1,0-4.8-4.8A4.8,4.8,0,0,0,20.8,217.6Zm0-7.2a2.4,2.4,0,1,1-2.4,2.4A2.4,2.4,0,0,1,20.8,210.4Z" transform="translate(0 -142.8)" fill="#36737d"/>
    </g>
    <g id="Enmascarar_grupo_1098767" data-name="Enmascarar grupo 1098767" transform="translate(1230.051 1509)" clip-path="url(#clip-path)">
      <g transform="matrix(1, 0, 0, 1, -0.05, -11)" filter="url(#Trazado_874970)">
        <path id="Trazado_874970-2" data-name="Trazado 874970" d="M20.2,0A20.2,20.2,0,1,1,0,20.2,20.2,20.2,0,0,1,20.2,0Z" transform="translate(-17.03 11.11)" fill="#f8953e"/>
      </g>
    </g>
    <g id="Grupo_1101935" data-name="Grupo 1101935" transform="translate(1381.102 1549.014)">
      <g id="Grupo_1099488" data-name="Grupo 1099488" clip-path="url(#clip-path-2)">
        <path id="Trazado_873339" data-name="Trazado 873339" d="M30.077,14.852c.067-.421-.089-.545-.524-.543-3.6.018-7.209.01-10.814.01h-.507c3.3-1.615,6.606-3.133,9.906-4.653.907-.418.9-.416.4-1.3-.111-.2-.2-.23-.4-.133-.477.234-.963.448-1.447.669l-8.041,3.679-.131-.131h0c.639-.646,1.275-1.3,1.917-1.938q2.676-2.675,5.361-5.34c.246-.242.32-.418.011-.641a.917.917,0,0,1-.22-.216c-.272-.4-.487-.306-.8,0q-3.754,3.78-7.539,7.53c-.134.134-.275.261-.487.462a1.922,1.922,0,0,1,.036-.322Q18.7,6.906,20.587,1.826c.252-.679.234-.644-.43-.945-.45-.2-.59-.08-.746.349-1.137,3.14-2.3,6.271-3.462,9.4-.061.163-.067.369-.275.5,0-.677,0-1.324,0-1.971Q15.665,4.58,15.655,0H14.419a.776.776,0,0,0-.135.585c0,3.653,0,7.306,0,10.919C12.756,8.174,11.18,4.825,9.63,1.465,9.411.991,9.263.98,8.613,1.272c-.532.239-.606.366-.388.856.789,1.77,1.623,3.52,2.434,5.281.593,1.288,1.2,2.571,1.8,3.879C10.087,8.916,7.74,6.559,5.379,4.216c-.409-.405-.611-.373-1.076.1-.444.447-.46.594-.036,1.02Q8.1,9.182,11.956,13.024,8.618,11.8,5.285,10.579c-1.177-.429-2.348-.874-3.528-1.293-.275-.1-.557-.206-.791.1-.525.7-.394,1.138.416,1.43,2.7.972,5.38,1.974,8.074,2.951a7.651,7.651,0,0,0,1.232.437,4.338,4.338,0,0,0-.473-.029q-4.788,0-9.576,0A.85.85,0,0,0,0,14.316v1.339H11.834a.667.667,0,0,1-.3.229q-4.8,2.214-9.609,4.428c-.842.388-.829.385-.429,1.217.123.256.229.332.5.191.393-.207.8-.382,1.209-.567l8.218-3.759.131.132L4.488,24.59c-.541.541-.513.516-.015,1.078.324.365.5.284.8-.02,1.822-1.843,3.667-3.664,5.5-5.5.81-.811,1.608-1.634,2.429-2.469a.374.374,0,0,1-.007.411q-.647,1.761-1.3,3.522c-.837,2.266-1.669,4.535-2.519,6.8-.125.333-.088.51.278.576a.826.826,0,0,1,.289.105c.418.264.56.069.706-.332q1.712-4.711,3.466-9.406c.062-.167.07-.381.281-.514v9.986c0,.137,0,.275,0,.412.016.848-.12.686.735.744.492.034.551-.162.547-.583-.018-2.283-.009-4.566-.009-6.849V18.144a6.889,6.889,0,0,1,.691,1.243c1.4,3.017,2.8,6.031,4.189,9.054.159.347.307.454.631.224a.88.88,0,0,1,.281-.125c.422-.111.444-.31.262-.7-1.438-3.055-2.852-6.122-4.267-9.188-.054-.116-.183-.231-.08-.476.382.4.715.771,1.067,1.122,2.137,2.135,4.283,4.262,6.413,6.4.265.266.451.331.685,0a.818.818,0,0,1,.183-.181c.349-.254.375-.453.028-.79-1.807-1.761-3.584-3.553-5.369-5.336-.884-.883-1.763-1.771-2.734-2.747.278.091.438.139.594.2q2.656.97,5.31,1.943,2.317.849,4.633,1.7c.745.273.727.263,1.026-.464.15-.365.1-.522-.294-.661-2.276-.811-4.542-1.649-6.811-2.48q-1.58-.578-3.158-1.162l.016-.076h.552c3.364,0,6.729,0,10.093.007.347,0,.52-.071.462-.447a1.185,1.185,0,0,1,0-.36" fill="#ebc54a"/>
      </g>
    </g>
  </g>
</svg>
