<svg xmlns="http://www.w3.org/2000/svg" width="100" height="100" viewBox="0 0 100 100">
  <g id="Grupo_1102153" data-name="Grupo 1102153" transform="translate(0.064)">
    <rect id="Rectángulo_402249" data-name="Rectángulo 402249" width="100" height="100" rx="10" transform="translate(-0.064)" fill="#ebc54a"/>
    <g id="Grupo_1102144" data-name="Grupo 1102144" transform="translate(12.566 9.671)">
      <path id="Trazado_875307" data-name="Trazado 875307" d="M4,81.833H79.847v29.18H4Z" transform="translate(-4 -30.11)" fill="#d68751"/>
      <path id="Trazado_875308" data-name="Trazado 875308" d="M73.834,25.635a6.591,6.591,0,0,1-4.747,6.371,1.262,1.262,0,0,0-.91,1.4,4.932,4.932,0,0,1,.07.809A5.1,5.1,0,0,1,63.222,39.4a4.994,4.994,0,0,1-4.159-2.269,1.256,1.256,0,0,0-1.707-.386c-.12.07-.253.164-.4.265a3.113,3.113,0,0,1-2.712.7,4.965,4.965,0,0,1,1.239-3.615c2.541-2.806,6.959-3.546,7-3.552a1.267,1.267,0,1,0-.392-2.5c-.215.038-5.341.879-8.489,4.361a7.532,7.532,0,0,0-1.877,5.657l1.251,15.144H45.013l1.074-15.271a7.467,7.467,0,0,0-1.4-4.955c-2.851-3.868-7.856-4.886-8.071-4.924a1.262,1.262,0,0,0-.48,2.478c.038.013,4.241.866,6.517,3.95a4.915,4.915,0,0,1,.916,3.274v.019a5.757,5.757,0,0,1-3.818-1.024,1.256,1.256,0,0,0-1.707.386A4.977,4.977,0,0,1,33.882,39.4a5.108,5.108,0,0,1-5.025-5.177,5.751,5.751,0,0,1,.07-.809,1.256,1.256,0,0,0-.91-1.4A6.63,6.63,0,0,1,29.66,19.024a.283.283,0,0,0,.07.006,1.27,1.27,0,0,0,1.258-1.157,6.456,6.456,0,0,1,6.39-6,6.32,6.32,0,0,1,1.8.272A1.27,1.27,0,0,0,40.8,11.073a7.788,7.788,0,0,1,15.511,0,1.269,1.269,0,0,0,.563.91,1.253,1.253,0,0,0,1.056.158,6.363,6.363,0,0,1,1.808-.272,6.465,6.465,0,0,1,6.39,6,1.265,1.265,0,0,0,1.258,1.157.215.215,0,0,0,.063-.006,6.528,6.528,0,0,1,6.39,6.611Z" transform="translate(-11.09 -1.472)" fill="#98e07e"/>
      <path id="Trazado_875309" data-name="Trazado 875309" d="M22.834,66.756,22.55,65a4.671,4.671,0,0,0-1.909-3.078,4.949,4.949,0,0,0-3.761-.847l-1.827.31a1.261,1.261,0,0,0-1.043,1.441l.284,1.757A4.671,4.671,0,0,0,16.2,67.66a4.941,4.941,0,0,0,2.889.923,5.084,5.084,0,0,0,.872-.076l1.827-.31a1.261,1.261,0,0,0,1.043-1.441Zm-3.293-.74a2.472,2.472,0,0,1-1.865-.411,2.164,2.164,0,0,1-.885-1.422l-.082-.518.594-.1a2.472,2.472,0,0,1,1.865.411,2.164,2.164,0,0,1,.885,1.422l.082.518Z" transform="translate(-7.678 -22.443)" fill="#2d4356"/>
      <path id="Trazado_875310" data-name="Trazado 875310" d="M21.716,67.388l-.594.1a2.472,2.472,0,0,1-1.865-.411,2.164,2.164,0,0,1-.885-1.422l-.082-.518.594-.1a2.472,2.472,0,0,1,1.865.411,2.164,2.164,0,0,1,.885,1.422Z" transform="translate(-9.258 -23.915)" fill="#98e07e"/>
      <path id="Trazado_875311" data-name="Trazado 875311" d="M102.792,64.384l-1.827-.31a4.949,4.949,0,0,0-3.761.847A4.671,4.671,0,0,0,95.3,68l-.284,1.757A1.261,1.261,0,0,0,96.054,71.2l1.827.31a5.084,5.084,0,0,0,.872.076,4.941,4.941,0,0,0,2.889-.923,4.671,4.671,0,0,0,1.909-3.078l.284-1.757a1.261,1.261,0,0,0-1.043-1.441Zm-1.738,2.8a2.164,2.164,0,0,1-.885,1.422,2.472,2.472,0,0,1-1.865.411l-.594-.1.082-.518a2.164,2.164,0,0,1,.885-1.422,2.472,2.472,0,0,1,1.865-.411l.594.1Z" transform="translate(-37.481 -23.547)" fill="#2d4356"/>
      <path id="Trazado_875312" data-name="Trazado 875312" d="M102.716,68.138l-.082.518a2.164,2.164,0,0,1-.885,1.422,2.472,2.472,0,0,1-1.865.411l-.594-.1.082-.518a2.164,2.164,0,0,1,.885-1.422,2.472,2.472,0,0,1,1.865-.411Z" transform="translate(-39.061 -25.019)" fill="#98e07e"/>
      <g id="Grupo_1102143" data-name="Grupo 1102143">
        <path id="Trazado_875313" data-name="Trazado 875313" d="M79.847,51.829a1.268,1.268,0,0,1-1.264,1.264H48.535l.171,2.029v.1a6.157,6.157,0,0,0,5.12,6.08l.114.019c4.456.638,6.118,1.959,8.558,4.936a5.67,5.67,0,0,1,5.512-1.624,1.266,1.266,0,1,1-.676,2.44A3.111,3.111,0,0,0,64.2,68.142a10.145,10.145,0,0,0,7.262,2.648,1.264,1.264,0,1,1,0,2.528,12.624,12.624,0,0,1-10.467-4.9c-1.852-2.313-2.889-3.464-5.158-4.127-.215.872-.373,2.244.386,2.655a6.122,6.122,0,0,1,3.16,4.241,4.968,4.968,0,0,1-1.359,4.254,1.263,1.263,0,0,1-1.852-1.719,2.451,2.451,0,0,0,.721-2.124,3.616,3.616,0,0,0-1.865-2.427c-2.079-1.119-2.111-3.577-1.681-5.385a8.718,8.718,0,0,1-7.168-8.507l-.291-3.558L44.635,36.577a7.532,7.532,0,0,1,1.877-5.657C49.66,27.438,54.786,26.6,55,26.559a1.267,1.267,0,1,1,.392,2.5c-.044.006-4.462.746-7,3.552a4.965,4.965,0,0,0-1.239,3.615,3.113,3.113,0,0,0,2.712-.7c.152-.1.284-.2.4-.265a1.256,1.256,0,0,1,1.707.386,4.994,4.994,0,0,0,4.159,2.269,5.1,5.1,0,0,0,5.025-5.177,4.931,4.931,0,0,0-.07-.809,1.262,1.262,0,0,1,.91-1.4,6.63,6.63,0,0,0-1.643-12.982.215.215,0,0,1-.063.006A1.265,1.265,0,0,1,59.033,16.4a6.465,6.465,0,0,0-6.39-6,6.363,6.363,0,0,0-1.808.272,1.253,1.253,0,0,1-1.056-.158,1.269,1.269,0,0,1-.563-.91,7.788,7.788,0,0,0-15.511,0,1.27,1.27,0,0,1-1.618,1.068,6.32,6.32,0,0,0-1.8-.272,6.456,6.456,0,0,0-6.39,6,1.27,1.27,0,0,1-1.258,1.157.283.283,0,0,1-.07-.006,6.63,6.63,0,0,0-1.643,12.982,1.256,1.256,0,0,1,.91,1.4,5.751,5.751,0,0,0-.07.809,5.108,5.108,0,0,0,5.025,5.177,4.977,4.977,0,0,0,4.159-2.269,1.256,1.256,0,0,1,1.707-.386,5.757,5.757,0,0,0,3.818,1.024v-.019A4.915,4.915,0,0,0,35.559,33c-2.275-3.084-6.479-3.938-6.517-3.95a1.262,1.262,0,0,1,.48-2.478c.215.038,5.221,1.056,8.071,4.924A7.467,7.467,0,0,1,39,36.451L37.923,51.721l-.253,3.546a8.7,8.7,0,0,1-7.168,8.52c.43,1.808.4,4.266-1.681,5.385A3.617,3.617,0,0,0,26.956,71.6a2.451,2.451,0,0,0,.721,2.124,1.263,1.263,0,0,1-1.852,1.719,4.968,4.968,0,0,1-1.359-4.254,6.122,6.122,0,0,1,3.16-4.241c.758-.411.594-1.789.386-2.655-2.269.664-3.306,1.814-5.158,4.127a12.624,12.624,0,0,1-10.467,4.9,1.264,1.264,0,1,1,0-2.528,10.158,10.158,0,0,0,7.262-2.642,3.091,3.091,0,0,0-3.129-1.081,1.264,1.264,0,1,1-.683-2.433,5.684,5.684,0,0,1,5.518,1.624c2.44-2.977,4.1-4.3,8.552-4.936l.114-.019a6.157,6.157,0,0,0,5.12-6.08.417.417,0,0,1,.006-.088l.139-2.042H5.264a1.264,1.264,0,0,1,0-2.528H35.47l.822-11.7a7.529,7.529,0,0,1-3.95-.891,7.481,7.481,0,0,1-5.549,2.478,7.639,7.639,0,0,1-7.553-7.7.89.89,0,0,1,.006-.126A9.172,9.172,0,0,1,21.54,15.094a8.931,8.931,0,0,1,8.748-7.224,7.912,7.912,0,0,1,1.157.082,10.287,10.287,0,0,1,20.036,0,8,8,0,0,1,1.163-.082,8.942,8.942,0,0,1,8.748,7.224,9.174,9.174,0,0,1,2.294,17.527v.126a7.639,7.639,0,0,1-7.553,7.7,7.492,7.492,0,0,1-5.486-2.408,5.312,5.312,0,0,1-3.287.784l.967,11.737H78.583a1.268,1.268,0,0,1,1.264,1.264Z" transform="translate(-4 0)" fill="#2d4356"/>
        <path id="Trazado_875314" data-name="Trazado 875314" d="M14.346,93.085c-1.619,2.025-.959,5.212-.879,5.569a1.264,1.264,0,0,0,2.467-.554c-.132-.6-.345-2.526.389-3.44a1.713,1.713,0,0,1,1.511-.572c.651,0,1.261.014,1.836.027,3.374.077,6.038.137,9.08-2.857a5.839,5.839,0,0,1,5.622-1.548,1.264,1.264,0,0,0,.781-2.4,8.368,8.368,0,0,0-8.177,2.15,7,7,0,0,1-5.76,2.154,6.51,6.51,0,0,0-4.89-3.939,1.264,1.264,0,1,0-.586,2.459,4.64,4.64,0,0,1,2.54,1.434c-.15,0-.294,0-.448,0a4.237,4.237,0,0,0-3.489,1.525Z" transform="translate(-7.409 -32.01)" fill="#2d4356"/>
        <path id="Trazado_875315" data-name="Trazado 875315" d="M47,105.5c.188-.141.384-.287.585-.445A5.207,5.207,0,0,0,49.3,99.977a1.264,1.264,0,1,0-2.462.575,2.678,2.678,0,0,1-.812,2.509c-.186.146-.367.281-.541.411-1.911,1.429-3.1,2.657-2.2,6.555.152.663.3,1.229.434,1.729-1.514-.147-4.363-.058-6.135,2.282-1.19,1.57-3.019.547-3.367.331a1.264,1.264,0,0,0-1.364,2.128,6.07,6.07,0,0,0,3.121.832,4.287,4.287,0,0,0,3.625-1.765c1.331-1.757,4.051-1.293,4.481-1.206a3.041,3.041,0,0,1-.675.795,1.264,1.264,0,0,0,1.749,1.825c2.056-1.97,1.687-3.343,1.076-5.616-.144-.534-.311-1.156-.481-1.9-.593-2.586-.127-2.934,1.253-3.966Z" transform="translate(-14.403 -36.426)" fill="#2d4356"/>
        <path id="Trazado_875316" data-name="Trazado 875316" d="M99.771,99.609a1.262,1.262,0,0,0,1.511-.955c.081-.356.74-3.543-.879-5.569a4.237,4.237,0,0,0-3.489-1.525c-.154,0-.3,0-.448,0a4.642,4.642,0,0,1,2.541-1.434,1.264,1.264,0,1,0-.586-2.459,6.51,6.51,0,0,0-4.89,3.938,7,7,0,0,1-5.76-2.154,8.367,8.367,0,0,0-8.177-2.15,1.264,1.264,0,1,0,.78,2.405A5.837,5.837,0,0,1,86,91.259c3.043,2.994,5.706,2.934,9.08,2.857.576-.013,1.185-.027,1.836-.027a1.713,1.713,0,0,1,1.511.572c.735.914.522,2.838.39,3.437a1.264,1.264,0,0,0,.955,1.511Z" transform="translate(-31.493 -32.01)" fill="#2d4356"/>
        <path id="Trazado_875317" data-name="Trazado 875317" d="M85.612,114.749a1.333,1.333,0,0,0-1.746-.582c-.085.054-2.112,1.657-3.367,0a6.845,6.845,0,0,0-6.135-2.413c.134-.5.282-1.067.434-1.729.893-3.9-.292-5.127-2.2-6.555-.174-.13-.355-.265-.541-.411a2.338,2.338,0,0,1-.618-2.414,1.264,1.264,0,1,0-2.407-.775,4.759,4.759,0,0,0,1.467,5.18c.2.157.4.3.585.445,1.38,1.032,1.846,1.38,1.253,3.966-.17.743-.338,1.365-.481,1.9-.611,2.274-.98,3.646,1.076,5.616a1.264,1.264,0,1,0,1.749-1.825,3.04,3.04,0,0,1-.675-.795c.427-.086,3.149-.552,4.481,1.206a4.286,4.286,0,0,0,3.625,1.765,6.071,6.071,0,0,0,3.121-.832,1.264,1.264,0,0,0,.382-1.746Z" transform="translate(-27.835 -36.423)" fill="#2d4356"/>
        <path id="Trazado_875318" data-name="Trazado 875318" d="M65.312,109.306a4.761,4.761,0,0,0-1.669-3.028,1.254,1.254,0,0,0-1.763.19,1.269,1.269,0,0,0,.171,1.776,2.217,2.217,0,0,1,.746,1.3,1.626,1.626,0,0,1-.493,1.176c-3.489,4-1.586,6.333-.923,6.953a2.825,2.825,0,0,1,.394.444,1.237,1.237,0,0,0,.907.5,1.257,1.257,0,0,0,1.161-1.959,5.353,5.353,0,0,0-.735-.836c-.771-.721.063-2.25,1.1-3.445a4.053,4.053,0,0,0,1.106-3.072Z" transform="translate(-24.702 -39.002)" fill="#2d4356"/>
        <path id="Trazado_875319" data-name="Trazado 875319" d="M63.264,40.849a1.264,1.264,0,0,0,1.264-1.264V33.264a1.264,1.264,0,0,0-2.528,0v6.321a1.264,1.264,0,0,0,1.264,1.264Z" transform="translate(-25.341 -11.774)" fill="#2d4356"/>
      </g>
      <path id="Trazado_875320" data-name="Trazado 875320" d="M73.834,25.635a4.614,4.614,0,0,1-.032.594,6.509,6.509,0,0,0-6.358-5.941.214.214,0,0,1-.063.006,1.265,1.265,0,0,1-1.258-1.157,6.465,6.465,0,0,0-6.39-6,6.363,6.363,0,0,0-1.808.272,1.253,1.253,0,0,1-1.056-.158,1.269,1.269,0,0,1-.563-.91,7.788,7.788,0,0,0-15.511,0A1.27,1.27,0,0,1,39.179,13.4a6.32,6.32,0,0,0-1.8-.272,6.456,6.456,0,0,0-6.39,6,1.27,1.27,0,0,1-1.258,1.157.283.283,0,0,1-.07-.006A6.509,6.509,0,0,0,23.3,26.229a4.62,4.62,0,0,1-.032-.594,6.528,6.528,0,0,1,6.39-6.611.283.283,0,0,0,.07.006,1.27,1.27,0,0,0,1.258-1.157,6.456,6.456,0,0,1,6.39-6,6.32,6.32,0,0,1,1.8.272A1.27,1.27,0,0,0,40.8,11.073a7.788,7.788,0,0,1,15.511,0,1.269,1.269,0,0,0,.563.91,1.253,1.253,0,0,0,1.056.158,6.363,6.363,0,0,1,1.808-.272,6.465,6.465,0,0,1,6.39,6,1.265,1.265,0,0,0,1.258,1.157.215.215,0,0,0,.063-.006,6.528,6.528,0,0,1,6.39,6.611Z" transform="translate(-11.09 -1.472)" fill="#cbe0c3" opacity="0.6"/>
      <path id="Trazado_875321" data-name="Trazado 875321" d="M86.271,51.457a5.1,5.1,0,0,1-5.025,5.177,4.994,4.994,0,0,1-4.159-2.269,1.256,1.256,0,0,0-1.707-.386c-.12.07-.253.164-.4.265a3.113,3.113,0,0,1-2.712.7,4.856,4.856,0,0,1,.088-1.251,3.116,3.116,0,0,0,2.623-.708c.152-.1.284-.2.4-.265a1.256,1.256,0,0,1,1.707.386,4.994,4.994,0,0,0,4.159,2.269,5.084,5.084,0,0,0,4.987-4.519,5.473,5.473,0,0,1,.038.607Z" transform="translate(-29.114 -18.71)" fill="#528440" opacity="0.3"/>
      <path id="Trazado_875322" data-name="Trazado 875322" d="M46.818,54.984V55A5.757,5.757,0,0,1,43,53.979a1.256,1.256,0,0,0-1.707.386,4.977,4.977,0,0,1-4.159,2.269,5.108,5.108,0,0,1-5.025-5.177,5.474,5.474,0,0,1,.038-.607,5.089,5.089,0,0,0,4.987,4.519A4.977,4.977,0,0,0,41.294,53.1,1.256,1.256,0,0,1,43,52.715a5.823,5.823,0,0,0,3.761,1.03A5.381,5.381,0,0,1,46.818,54.984Z" transform="translate(-14.343 -18.71)" fill="#528440" opacity="0.3"/>
      <path id="Trazado_875323" data-name="Trazado 875323" d="M28.927,44.354c-.032.24-.057.442-.063.638a1.245,1.245,0,0,0-.847-.777,6.591,6.591,0,0,1-4.747-6.371c0-.228.013-.449.032-.664a6.569,6.569,0,0,0,4.715,5.771A1.256,1.256,0,0,1,28.927,44.354Z" transform="translate(-11.09 -13.68)" fill="#528440" opacity="0.3"/>
      <path id="Trazado_875324" data-name="Trazado 875324" d="M99.969,37.844a6.591,6.591,0,0,1-4.747,6.371,1.263,1.263,0,0,0-.847.79,5.237,5.237,0,0,0-.063-.651,1.262,1.262,0,0,1,.91-1.4,6.569,6.569,0,0,0,4.715-5.771c.019.215.032.436.032.664Z" transform="translate(-37.224 -13.68)" fill="#528440" opacity="0.3"/>
    </g>
  </g>
</svg>
