<svg xmlns="http://www.w3.org/2000/svg" width="70" height="70" viewBox="0 0 70 70">
  <g id="Grupo_1101954" data-name="Grupo 1101954" transform="translate(-450.051 -1619)">
    <circle id="Elipse_11629" data-name="Elipse 11629" cx="35" cy="35" r="35" transform="translate(450.051 1619)" fill="#afc7cb"/>
    <g id="Grupo_1101969" data-name="Grupo 1101969" transform="translate(464.975 1633.924)">
      <path id="Trazado_875020" data-name="Trazado 875020" d="M37.306,30.537H34.142a2.458,2.458,0,0,0-2.374-1.846V24.368A3.045,3.045,0,0,0,33.614,25a3.08,3.08,0,0,0,3.077-3.077,2.911,2.911,0,0,0-.059-.58,3.058,3.058,0,0,0,.3-4.744,3.024,3.024,0,0,0-.428-3.5,2.964,2.964,0,0,0,.183-1.024,3.081,3.081,0,0,0-2.717-3.056,3.064,3.064,0,0,0-5.642,0,3.081,3.081,0,0,0-2.717,3.056A2.964,2.964,0,0,0,25.8,13.1a3.048,3.048,0,0,0-.671,1.229,3.973,3.973,0,0,0-2.589-1.022,4.172,4.172,0,0,0-3.093,1.511,3.614,3.614,0,0,0-1.034-2.2l-1.772-1.772h2.822V9.606a1.822,1.822,0,0,0-.769-1.473A16.177,16.177,0,0,1,13.5,1.913a1.568,1.568,0,0,0-2.849,0A16.158,16.158,0,0,1,5.46,8.134a1.823,1.823,0,0,0-.768,1.473v1.239H7.514L5.743,12.617a3.611,3.611,0,0,0-1.05,2.536v.615H7.514L5.743,17.54a3.611,3.611,0,0,0-1.05,2.536v.615h6.769v2.461A3.081,3.081,0,0,0,8.405,25.87a3.071,3.071,0,0,0-1.253,4.667,1.848,1.848,0,0,0-1.844,1.846A.616.616,0,0,1,4.692,33H2.846a1.846,1.846,0,0,0,0,3.692h3.19a1.825,1.825,0,0,0-.113.615,1.848,1.848,0,0,0,1.846,1.846h24a1.846,1.846,0,1,0,0-3.692H29.922a.615.615,0,0,1,0-1.231h7.384a1.846,1.846,0,0,0,0-3.692Zm-4.486,0H24.565a1.226,1.226,0,0,1,.647-.54l.427-.149-.015-.452a.372.372,0,0,0-.01-.089,1.838,1.838,0,0,1,3.446-.9l.146.259.294.046a1.224,1.224,0,0,1,.988.89l.181.668.642-.258a1.236,1.236,0,0,1,1.509.525Zm-9.667-3.751a4.917,4.917,0,0,0,3.35-2.716A3.088,3.088,0,0,0,28.691,25a3.045,3.045,0,0,0,1.846-.631v3.441a2.427,2.427,0,0,0-.556-.247,3.068,3.068,0,0,0-5.584,1.46,2.467,2.467,0,0,0-1.163,1.516h-.081Zm3.772-13.062.4-.322-.246-.45a1.83,1.83,0,0,1,1.573-2.724l.6.031.123-.484a1.836,1.836,0,0,1,3.562,0l.123.484.5-.021c.033,0,.065,0,.057-.008a1.848,1.848,0,0,1,1.846,1.846,1.823,1.823,0,0,1-.233.875l-.246.45.4.322a1.809,1.809,0,0,1,.248,2.615l-.471.554.625.372a1.83,1.83,0,0,1-.141,3.235l-.506.245.2.526a1.843,1.843,0,1,1-3.567.65V20.293l2.327-2.909-.962-.769-1.365,1.706V12.076H30.537V15.86l-1.365-1.706-.962.769,2.327,2.909v4.091a1.843,1.843,0,0,1-3.484.842,8.931,8.931,0,0,0,.407-2.689,8.319,8.319,0,0,0-1.231-4.462v-.461a1.833,1.833,0,0,1,.695-1.428Zm-4.387.813c2.036,0,3.692,2.484,3.692,5.538,0,2.739-1.333,5.013-3.077,5.455V20.908L25.48,18l-.962-.769-1.365,1.706V17H21.922v4.736l-1.334-2-1.024.682,2.358,3.538v1.577c-1.743-.441-3.077-2.716-3.077-5.455,0-3.054,1.656-5.538,3.692-5.538Zm-3.794,1.231a7.5,7.5,0,0,0-.66,1.444l-1.445-1.444ZM6.613,18.41l2.642-2.642h.976V14.538H6.006a2.375,2.375,0,0,1,.607-1.05l2.642-2.642h.976V9.615H5.923V9.606a.582.582,0,0,1,.254-.473,17.394,17.394,0,0,0,5.587-6.695.348.348,0,0,1,.624,0,17.4,17.4,0,0,0,5.587,6.695.582.582,0,0,1,.255.473l-4.308.009v1.231H14.9l2.642,2.642a2.364,2.364,0,0,1,.607,1.05H13.923v1.231H14.9L17.54,18.41a2.35,2.35,0,0,1,.191.217c-.043.272-.075.55-.094.833H6.006A2.37,2.37,0,0,1,6.613,18.41Zm6.079,2.281h4.946c.209,3.164,2.007,5.7,4.285,6.1v3.751H19.451A3.067,3.067,0,0,0,17,25.614a2.906,2.906,0,0,0-.58.059,3.041,3.041,0,0,0-2.5-1.29H13.91a3.084,3.084,0,0,0-1.218-.964ZM9.16,26.91l.484-.123-.021-.5a.188.188,0,0,0-.007-.059h0a1.838,1.838,0,0,1,3.447-.9l.259.359.417-.058a1.5,1.5,0,0,1,.185-.018,1.828,1.828,0,0,1,1.655,1.048l.245.508.527-.2a1.842,1.842,0,0,1,1.869,3.106l-.356.462H8.826l-.431-.462A1.84,1.84,0,0,1,9.16,26.91ZM37.306,33H29.922a1.848,1.848,0,0,0-1.846,1.846,1.825,1.825,0,0,0,.113.615H26.845v1.231h4.923a.615.615,0,1,1,0,1.231h-24a.615.615,0,0,1,0-1.231h3.692V35.46H2.846a.615.615,0,0,1,0-1.231H4.692a1.848,1.848,0,0,0,1.846-1.846.616.616,0,0,1,.615-.615H37.306a.615.615,0,1,1,0,1.231Z" fill="#36737d"/>
      <path id="Trazado_875021" data-name="Trazado 875021" d="M21.692,54.538A1.54,1.54,0,0,0,20.154,53H18v1.231h2.154a.309.309,0,0,1,.308.308A1.54,1.54,0,0,0,22,56.077h2.154V54.846H22A.309.309,0,0,1,21.692,54.538Z" transform="translate(-6.539 -20.001)" fill="#36737d"/>
    </g>
  </g>
</svg>
