<svg xmlns="http://www.w3.org/2000/svg" width="85" height="85" viewBox="0 0 85 85">
  <g id="Grupo_1101979" data-name="Grupo 1101979" transform="translate(-1197.051 -1504)">
    <rect id="Rectángulo_402288" data-name="Rectángulo 402288" width="85" height="85" rx="10" transform="translate(1197.051 1504)" fill="#d7e3e5"/>
    <g id="Grupo_1102826" data-name="Grupo 1102826" transform="translate(1208.152 1514.865)">
      <path id="Trazado_876306" data-name="Trazado 876306" d="M48.8,46.327c-2.565-1.1-5.545.126-6.441.55l-2.442-.9a39.484,39.484,0,0,0,8.593-5.075c2.927-2.283-.7-6.932-3.635-4.643a34.629,34.629,0,0,1-12.467,6.146,13.688,13.688,0,0,1,3.886-2.859,2.841,2.841,0,0,0,1.431-3.48l3.7-2.553a10.818,10.818,0,0,0,2.916.428,6.4,6.4,0,0,0,3.369-.855c2.776-1.7,3.28-5.7,3.3-5.864a.92.92,0,0,0-.6-.972c-.16-.059-3.947-1.416-6.723.288-2.254,1.383-3.01,4.275-3.225,5.4l-1.435.989-.2-1.295a5.863,5.863,0,0,0,1.554-4.1c-.241-2.39-2.711-3.993-2.816-4.06a.92.92,0,0,0-1.132.112c-.09.086-2.193,2.137-1.951,4.53a6.078,6.078,0,0,0,2.537,3.865l.326,2.105-.678.467a2.818,2.818,0,0,0-3.038-.272,18.4,18.4,0,0,0-8.909,9.278c-.93.045-1.871.059-2.805.042a.92.92,0,0,0-.033,1.839c1.177.022,2.367,0,3.534-.078a.92.92,0,0,0,.8-.6,16.452,16.452,0,0,1,8.236-8.843,1.11,1.11,0,0,1,1,1.975,14.98,14.98,0,0,0-6.1,5.471q-.424,1.313.954,1.385A36.563,36.563,0,0,0,46,37.714c1.067-.832,2.476.881,1.373,1.741a38.048,38.048,0,0,1-10.245,5.658.922.922,0,0,0-.231.085,41.154,41.154,0,0,1-7.226,1.888,44.749,44.749,0,0,1-19.386-1.1.919.919,0,0,0-1.076.481A67.878,67.878,0,0,0,4.047,60.407a1.115,1.115,0,0,1-2.177-.456A74.606,74.606,0,0,1,12.5,36.285a72.328,72.328,0,0,1,9.568-11.55.92.92,0,0,0,.277-.624c.093-2.467.792-10.967,5.882-16.769C29.144,6.3,30.822,7.751,29.9,8.8c-2.969,3.384-4.273,7.885-4.844,11.064a.927.927,0,0,0,1.487.876c1.064-.868,2.127-1.684,3.158-2.425A66.834,66.834,0,0,1,49.631,8.575.92.92,0,0,0,49.1,6.813,70.945,70.945,0,0,0,41,9.784l.213-1.059a5.876,5.876,0,0,0,2.874-3.313c.6-2.328-1.167-4.68-1.243-4.779a.92.92,0,0,0-1.1-.284c-.114.05-2.8,1.253-3.394,3.582a6.065,6.065,0,0,0,1.048,4.5l-.464,2.3a67.268,67.268,0,0,0-10.3,6.086q-.6.429-1.2.888a19.414,19.414,0,0,1,3.86-7.7c2.437-2.778-1.981-6.688-4.442-3.882a25.934,25.934,0,0,0-5.376,11.06l-2.781-2.463c.046-1.172-.046-4.111-1.91-5.948-2.318-2.282-6.323-1.819-6.492-1.8a.92.92,0,0,0-.8.809c-.019.169-.444,4.164,1.876,6.449a8.042,8.042,0,0,0,6.072,1.833l3.605,3.192a36.069,36.069,0,0,0-.513,4.409,74.254,74.254,0,0,0-9.552,11.589A76.648,76.648,0,0,0,.07,59.572c-.77,3.65,5,4.885,5.776,1.219a65.646,65.646,0,0,1,4.689-12.831,46.576,46.576,0,0,0,19.442.941,43.008,43.008,0,0,0,7.364-1.906l4.489,1.649c.422,1.166,1.585,3.734,3.918,4.733a5.843,5.843,0,0,0,2.313.446A10.342,10.342,0,0,0,52.452,52.7a.92.92,0,0,0,.453-1.048c-.044-.164-1.111-4.036-4.107-5.32ZM37.2,25.518a3.83,3.83,0,0,1,1.355,2.208,3.791,3.791,0,0,1-.882,2.419,3.772,3.772,0,0,1-1.356-2.206A3.792,3.792,0,0,1,37.2,25.518Zm7.455,2.591a6.133,6.133,0,0,1,4.379-.34,6.178,6.178,0,0,1-2.283,3.754,6.137,6.137,0,0,1-4.382.34,6.134,6.134,0,0,1,2.286-3.753ZM40.128,4.387a3.8,3.8,0,0,1,1.666-1.97A3.819,3.819,0,0,1,42.3,4.953a3.8,3.8,0,0,1-1.666,1.97A3.819,3.819,0,0,1,40.128,4.387ZM11.282,8.773H11.3a6.194,6.194,0,0,1,4.187,1.317,6.079,6.079,0,0,1,1.368,4.158,6.141,6.141,0,0,1-4.2-1.32,6.077,6.077,0,0,1-1.368-4.156Zm35.19,42.913a6.1,6.1,0,0,1-2.8-3.371,6.223,6.223,0,0,1,4.4-.3,6.1,6.1,0,0,1,2.8,3.373A6.181,6.181,0,0,1,46.472,51.686Z" transform="translate(0 0)" fill="#36737d"/>
      <path id="Trazado_876307" data-name="Trazado 876307" d="M141.866,54.51c-.034-.222-.873-5.464-4.595-7.568-3.121-1.765-7.111-.667-8.438-.219l-2.844-1.415a68.914,68.914,0,0,1,12.093-3.22c3.641-.63,2.672-6.443-1.009-5.805-1.015.176-2.037.373-3.036.586a.92.92,0,0,0,.385,1.8c.976-.209,1.973-.4,2.966-.573a1.108,1.108,0,0,1,.381,2.18,69.771,69.771,0,0,0-14.56,4.139,67.633,67.633,0,0,0-32.97,29.878.92.92,0,0,0,.576,1.339,44.207,44.207,0,0,0,4.356.882.921.921,0,0,0,.274-1.819c-1-.151-2.008-.34-3-.562a65.67,65.67,0,0,1,31.233-27.919l4.227,2.1c.283,1.342,1.371,5.352,4.512,7.128,2.625,1.484,6.171,1.153,8.883.057A.92.92,0,0,0,141.866,54.51Zm-8.542-.667c-2.21-1.25-3.175-4.128-3.52-5.5,1.36-.405,4.347-1.056,6.561.2s3.175,4.13,3.52,5.5c-1.356.407-4.337,1.06-6.562-.2Z" transform="translate(-79.08 -31.553)" fill="#36737d"/>
    </g>
  </g>
</svg>
