<svg xmlns="http://www.w3.org/2000/svg" xmlns:xlink="http://www.w3.org/1999/xlink" width="190.098" height="353.13" viewBox="0 0 190.098 353.13">
  <defs>
    <radialGradient id="radial-gradient" cx="-0.112" cy="0.335" r="0.962" gradientTransform="translate(-0.046) scale(1.093 1)" gradientUnits="objectBoundingBox">
      <stop offset="0.04" stop-color="#f3f8fb"/>
      <stop offset="0.57" stop-color="#dfeef0"/>
      <stop offset="0.78" stop-color="#ecfcff"/>
      <stop offset="1" stop-color="#a6bbbe"/>
    </radialGradient>
    <linearGradient id="linear-gradient" x1="0.953" y1="-0.066" x2="0.286" y2="1.087" gradientUnits="objectBoundingBox">
      <stop offset="0" stop-color="#e43e4f"/>
      <stop offset="0.53" stop-color="#941919"/>
      <stop offset="1" stop-color="#e43e4f"/>
    </linearGradient>
    <linearGradient id="linear-gradient-2" x1="1.372" y1="-1.116" x2="-0.523" y2="1.985" gradientUnits="objectBoundingBox">
      <stop offset="0" stop-color="#c54331"/>
      <stop offset="0.53" stop-color="#c40000"/>
      <stop offset="1" stop-color="#c54331"/>
    </linearGradient>
    <linearGradient id="linear-gradient-3" x1="2.688" y1="-2.968" x2="-1.452" y2="3.976" xlink:href="#linear-gradient-2"/>
    <linearGradient id="linear-gradient-4" x1="0.938" y1="-0.409" x2="-0.083" y2="1.287" xlink:href="#linear-gradient-2"/>
    <linearGradient id="linear-gradient-5" x1="1.428" y1="-0.762" x2="-0.198" y2="1.82" xlink:href="#linear-gradient-2"/>
    <linearGradient id="linear-gradient-6" x1="1.123" y1="-0.278" x2="0.11" y2="1.326" xlink:href="#linear-gradient-2"/>
    <linearGradient id="linear-gradient-7" x1="-0.009" y1="0.306" x2="1.094" y2="0.726" gradientUnits="objectBoundingBox">
      <stop offset="0" stop-color="#f58c86"/>
      <stop offset="0.23" stop-color="#eb6168"/>
      <stop offset="0.44" stop-color="#e43e4f"/>
      <stop offset="0.61" stop-color="#e43e4f"/>
      <stop offset="0.69" stop-color="#e23a4a"/>
      <stop offset="0.78" stop-color="#dc2f3c"/>
      <stop offset="0.88" stop-color="#d31e26"/>
      <stop offset="0.98" stop-color="#c60507"/>
      <stop offset="1" stop-color="#c40000"/>
    </linearGradient>
    <linearGradient id="linear-gradient-8" x1="0.773" y1="-0.137" x2="0.088" y2="1.029" xlink:href="#linear-gradient-2"/>
    <linearGradient id="linear-gradient-9" x1="0.1" y1="0.347" x2="0.881" y2="0.645" xlink:href="#linear-gradient-7"/>
    <linearGradient id="linear-gradient-10" x1="1.091" y1="0.077" x2="0.252" y2="1.015" gradientUnits="objectBoundingBox">
      <stop offset="0" stop-color="#e43e4f"/>
      <stop offset="0.34" stop-color="#c40000"/>
      <stop offset="0.38" stop-color="#c60507"/>
      <stop offset="0.55" stop-color="#d31e26"/>
      <stop offset="0.71" stop-color="#dc2f3c"/>
      <stop offset="0.86" stop-color="#e23a4a"/>
      <stop offset="1" stop-color="#e43e4f"/>
    </linearGradient>
    <linearGradient id="linear-gradient-11" x1="-1.666" y1="-0.31" x2="3.589" y2="1.665" xlink:href="#linear-gradient-7"/>
    <linearGradient id="linear-gradient-12" x1="-0.287" y1="0.201" x2="1.549" y2="0.899" xlink:href="#linear-gradient-7"/>
    <linearGradient id="linear-gradient-13" x1="0.207" y1="-0.047" x2="0.868" y2="0.984" gradientUnits="objectBoundingBox">
      <stop offset="0" stop-color="#e43e4f"/>
      <stop offset="0.14" stop-color="#f58c86"/>
      <stop offset="0.38" stop-color="#eb6168"/>
      <stop offset="0.61" stop-color="#e43e4f"/>
      <stop offset="0.69" stop-color="#e23a4a"/>
      <stop offset="0.78" stop-color="#dc2f3c"/>
      <stop offset="0.88" stop-color="#d31e26"/>
      <stop offset="0.98" stop-color="#c60507"/>
      <stop offset="1" stop-color="#c40000"/>
    </linearGradient>
    <linearGradient id="linear-gradient-14" x1="0" y1="0.5" x2="1" y2="0.5" xlink:href="#linear-gradient-2"/>
    <linearGradient id="linear-gradient-15" x1="0.446" y1="0.954" x2="0.833" y2="0.285" gradientUnits="objectBoundingBox">
      <stop offset="0" stop-color="#f6d952"/>
      <stop offset="0.06" stop-color="#f2c744"/>
      <stop offset="0.16" stop-color="#edaf32"/>
      <stop offset="0.25" stop-color="#eaa127"/>
      <stop offset="0.32" stop-color="#e99d24"/>
      <stop offset="0.53" stop-color="#e99f25"/>
      <stop offset="0.67" stop-color="#eca82b"/>
      <stop offset="0.79" stop-color="#f0b735"/>
      <stop offset="0.9" stop-color="#f7cd44"/>
      <stop offset="1" stop-color="#ffe856"/>
    </linearGradient>
    <linearGradient id="linear-gradient-16" x1="0.394" y1="0.031" x2="-0.143" y2="0.909" gradientUnits="objectBoundingBox">
      <stop offset="0" stop-color="#f6d952"/>
      <stop offset="0.51" stop-color="#f4cc45"/>
      <stop offset="1" stop-color="#f4c841"/>
    </linearGradient>
    <radialGradient id="radial-gradient-2" cx="0.352" cy="0.602" r="0.694" gradientTransform="translate(-0.115) scale(1.231 1)" gradientUnits="objectBoundingBox">
      <stop offset="0" stop-color="#efab26"/>
      <stop offset="0.52" stop-color="#df8b26"/>
      <stop offset="0.6" stop-color="#d9831d"/>
      <stop offset="0.84" stop-color="#c96e07"/>
      <stop offset="1" stop-color="#c46700"/>
    </radialGradient>
    <clipPath id="clip-path">
      <path id="Trazado_875168" data-name="Trazado 875168" d="M663.993,533.66,654.565,517.3a.521.521,0,0,0-.125-.154.9.9,0,0,0-.905,0,7.391,7.391,0,0,0-2.086,1.466,31.649,31.649,0,0,0-6.795,8.663c-.284.552-1.319,2.357-.621,2.905a.538.538,0,0,0,.208.1l19.031,4.369a.663.663,0,0,0,.722-.979Z" transform="translate(-643.795 -517.016)" fill="none"/>
    </clipPath>
    <radialGradient id="radial-gradient-3" cx="0.52" cy="0.118" r="1.708" gradientTransform="translate(11.01 212.272) scale(0.294 0.289)" gradientUnits="objectBoundingBox">
      <stop offset="0.21" stop-color="#f4c841"/>
      <stop offset="0.69" stop-color="#f6d246"/>
      <stop offset="0.7" stop-color="#f6d44c"/>
      <stop offset="0.75" stop-color="#f9e36c"/>
      <stop offset="0.81" stop-color="#fbee85"/>
      <stop offset="0.87" stop-color="#fdf697"/>
      <stop offset="0.93" stop-color="#fefba2"/>
      <stop offset="1" stop-color="#fffda6"/>
    </radialGradient>
    <linearGradient id="linear-gradient-17" x1="0.501" y1="0.479" x2="0.458" y2="0.549" gradientUnits="objectBoundingBox">
      <stop offset="0.06" stop-color="#efab26"/>
      <stop offset="0.15" stop-color="#eca525"/>
      <stop offset="0.28" stop-color="#e49424"/>
      <stop offset="0.36" stop-color="#dd8523"/>
      <stop offset="0.45" stop-color="#de8723"/>
      <stop offset="0.51" stop-color="#e29023"/>
      <stop offset="0.56" stop-color="#e9a025"/>
      <stop offset="0.59" stop-color="#efab26"/>
    </linearGradient>
    <linearGradient id="linear-gradient-18" x1="0.53" y1="-0.334" x2="0.48" y2="1.024" gradientUnits="objectBoundingBox">
      <stop offset="0" stop-color="#f6d952"/>
      <stop offset="0.12" stop-color="#fce354"/>
      <stop offset="0.25" stop-color="#ffe856"/>
      <stop offset="0.29" stop-color="#fcde4f"/>
      <stop offset="0.47" stop-color="#f1ba37"/>
      <stop offset="0.62" stop-color="#eba429"/>
      <stop offset="0.71" stop-color="#e99d24"/>
    </linearGradient>
    <linearGradient id="linear-gradient-19" x1="0.488" y1="-0.05" x2="0.545" y2="0.98" gradientUnits="objectBoundingBox">
      <stop offset="0.09" stop-color="#e43e4f"/>
      <stop offset="0.3" stop-color="#f58c86"/>
      <stop offset="0.44" stop-color="#eb6168"/>
      <stop offset="0.57" stop-color="#e43e4f"/>
      <stop offset="0.64" stop-color="#e23a4a"/>
      <stop offset="0.71" stop-color="#dc2f3c"/>
      <stop offset="0.79" stop-color="#d31e26"/>
      <stop offset="0.87" stop-color="#c60507"/>
      <stop offset="0.88" stop-color="#c40000"/>
    </linearGradient>
    <linearGradient id="linear-gradient-20" x1="0.777" y1="-0.129" x2="0.4" y2="0.831" gradientUnits="objectBoundingBox">
      <stop offset="0" stop-color="#e43e4f"/>
      <stop offset="0.09" stop-color="#dc303d"/>
      <stop offset="0.42" stop-color="#c40000"/>
      <stop offset="0.78" stop-color="#d92833"/>
      <stop offset="0.95" stop-color="#e43e4f"/>
    </linearGradient>
    <clipPath id="clip-path-2">
      <rect id="Rectángulo_402320" data-name="Rectángulo 402320" width="50.239" height="26.602" fill="#ebac74"/>
    </clipPath>
    <clipPath id="clip-path-3">
      <rect id="Rectángulo_402323" data-name="Rectángulo 402323" width="67.2" height="64.133" fill="#2b5c64"/>
    </clipPath>
  </defs>
  <g id="Grupo_1102080" data-name="Grupo 1102080" transform="translate(-1229.902 -2527)">
    <rect id="Rectángulo_402346" data-name="Rectángulo 402346" width="109.541" height="332.758" rx="54.771" transform="translate(1310.459 2527)" fill="#759fa6"/>
    <rect id="Rectángulo_402347" data-name="Rectángulo 402347" width="105.098" height="240.431" rx="52.549" transform="translate(1229.902 2576.895)" fill="#f9d0ab"/>
    <g id="_lt_Layer_gt_" data-name="&amp;lt;Layer&amp;gt;" transform="translate(1250.254 2613.361)">
      <g id="Grupo_1102077" data-name="Grupo 1102077" transform="translate(-0.001 0.002)">
        <g id="Grupo_1102071" data-name="Grupo 1102071" transform="translate(21.337 0)">
          <path id="Trazado_875150" data-name="Trazado 875150" d="M385.1,28.644a41.652,41.652,0,0,1,19.577,5.292,38.937,38.937,0,0,1,14.49,14.616,50.822,50.822,0,0,1,6.37,23.319,74.214,74.214,0,0,1-5.265,29.641,91.945,91.945,0,0,1-17.385,28.274,85.222,85.222,0,0,1-24.368,19,61.858,61.858,0,0,1-25.651,7.094,42.64,42.64,0,0,1-22.254-4.965,38.622,38.622,0,0,1-14.7-14.192,48.7,48.7,0,0,1-6.328-18.8,66.191,66.191,0,0,1,.719-20.726,83.548,83.548,0,0,1,7.115-21.169,92.886,92.886,0,0,1,12.392-19.04,89.815,89.815,0,0,1,15.928-14.867,75.584,75.584,0,0,1,18.683-10A56.32,56.32,0,0,1,385.1,28.645Z" transform="translate(-304.417 -26.215)" fill="url(#radial-gradient)"/>
          <path id="Trazado_875151" data-name="Trazado 875151" d="M631.018,247.805c-.793-11.98-5.151-22.717-11.672-32.478-.547-.819-2.583-3.921-3.134-4.737,13.64,20.191,7.7,50.618-3.5,70.4a98.94,98.94,0,0,1-8.631,12.8c-10.913,13.731-25.985,25.281-43.02,30.116-9.94,2.821-23.033,2.176-35.156-2.9,22.67,11.9,54.824,9.278,73.869-7.1,17.479-15.027,30.43-35.994,31.33-59.528q.087-2.263.017-4.528-.032-1-.1-1.995c0-.015,0-.031,0-.046Z" transform="translate(-502.991 -192.872)" fill="url(#linear-gradient)"/>
          <path id="Trazado_875152" data-name="Trazado 875152" d="M680.047,459.9c-11.626-10.6-29.241,3.416-33.7,14.63-3.155,7.928-3.689,19.2,4.7,24.365.083.05.166.1.249.15l.013.008.014.008.013.008.013.008,1.466.848c-7.643-4.415-7.838-13.773-5.349-21.3,3.19-9.643,11.261-18.827,21.682-20.548a15.553,15.553,0,0,1,12.157,2.96q-.627-.569-1.252-1.141Z" transform="translate(-611.354 -417.759)" fill="url(#linear-gradient-2)"/>
          <path id="Trazado_875153" data-name="Trazado 875153" d="M819.949,621.481a9.909,9.909,0,0,0-3.927-6.371c1.832,1.631,2.42,4.447,2.205,6.747a14.36,14.36,0,0,1-5.469,9.474c-2.713,2.092-6.69,2.914-9.759,1.39,3.625,1.8,6.722,3,10.525.618a14.378,14.378,0,0,0,6.29-9.392,10.134,10.134,0,0,0,.134-2.468Z" transform="translate(-756.777 -563.358)" fill="url(#linear-gradient-3)"/>
          <path id="Trazado_875154" data-name="Trazado 875154" d="M536.912,266.344a24.072,24.072,0,0,0-3.367-3.057c-6.568-4.91-15.117-5.881-22.968-4.193-12.088,2.6-22.582,10.757-29.828,20.557a60.085,60.085,0,0,0-9.92,21.089,38.219,38.219,0,0,0,.66,21.817c2.486,6.949,7.7,13.057,14.536,15.83-5.735-2.587-9.993-7.863-12.209-13.752a39.885,39.885,0,0,1-1.465-21.218q.337-1.737.812-3.494c5.342-19.757,23.391-39.581,45.039-40.1,7.406-.178,15.122,2.591,20.167,8.116l-1.456-1.6Z" transform="translate(-451.392 -236.593)" fill="url(#linear-gradient-4)"/>
          <path id="Trazado_875155" data-name="Trazado 875155" d="M746.793,463.025a24.219,24.219,0,0,0-6.78-13.865,20.206,20.206,0,0,1,5.369,11.014c2.753,17.333-11.634,37.053-28.772,40.584a19.719,19.719,0,0,1-12.8-1.479,24.2,24.2,0,0,0,13.907,2.249,29.233,29.233,0,0,0,12.827-5.321,41.408,41.408,0,0,0,15.71-23.235A27,27,0,0,0,746.793,463.025Z" transform="translate(-665.932 -411.37)" fill="url(#linear-gradient-5)"/>
          <path id="Trazado_875156" data-name="Trazado 875156" d="M701.356,337.364a37.4,37.4,0,0,0-9.07-22.564,34.86,34.86,0,0,1,7.647,21.024c.841,23.972-14.942,47.66-35.5,58.026-9.815,4.95-21.983,7.107-32.394,2.688,20.791,8.823,43.494-3.533,56.183-20.19,8.4-11.024,13.915-24.969,13.132-38.985Z" transform="translate(-600.2 -288.315)" fill="url(#linear-gradient-6)"/>
          <path id="Trazado_875157" data-name="Trazado 875157" d="M472.814,192.732a29.732,29.732,0,0,1,14.24,4.752A28.967,28.967,0,0,1,497,208.928a38.956,38.956,0,0,1,3.8,17.24,56.481,56.481,0,0,1-4.318,21.159,69.062,69.062,0,0,1-12.411,19.984A64.336,64.336,0,0,1,466.93,281.1a47.4,47.4,0,0,1-18.369,5.831,32.348,32.348,0,0,1-16.54-2.659,28,28,0,0,1-11.5-9.749,34.558,34.558,0,0,1-5.375-13.78,47.777,47.777,0,0,1,.109-15.774,61.741,61.741,0,0,1,5.29-16.458,69.58,69.58,0,0,1,9.638-14.883,66.92,66.92,0,0,1,12.486-11.471,55.278,55.278,0,0,1,14.5-7.392,40.215,40.215,0,0,1,15.648-2.034ZM434.9,277.8a28.317,28.317,0,0,0,14.324,1.97,41.583,41.583,0,0,0,15.688-5.218,56.06,56.06,0,0,0,14.543-11.834,60.041,60.041,0,0,0,10.587-16.987,49.374,49.374,0,0,0,3.858-18.049,34.221,34.221,0,0,0-3-14.9,24.661,24.661,0,0,0-20.561-14.5,34.292,34.292,0,0,0-13.649,1.562,47.548,47.548,0,0,0-12.774,6.381,58.015,58.015,0,0,0-11.048,10.084,60.45,60.45,0,0,0-8.5,13.154,53.38,53.38,0,0,0-4.577,14.514,40.929,40.929,0,0,0,.063,13.791,29.441,29.441,0,0,0,4.893,11.866A24.1,24.1,0,0,0,434.9,277.8Z" transform="translate(-401.003 -176.416)" fill="url(#linear-gradient-7)"/>
          <path id="Trazado_875158" data-name="Trazado 875158" d="M407.379,79.128a36.639,36.639,0,0,0-5.834-6.18c-12.578-10.526-30.223-10.4-44.835-4.669-22,8.626-39.024,28.612-46.754,50.705-7.651,21.865-5.043,51.719,18.86,61.98-2.61-1.044-5.717-3.981-7.791-5.893a35.235,35.235,0,0,1-5.764-7.11,46.108,46.108,0,0,1-6.451-17.448c-1.681-10.742-.047-22.183,3.653-32.359,7.6-20.887,24.193-39.681,45.013-48.036a52.829,52.829,0,0,1,25.236-3.667c9.934,1.095,19.948,6.361,25.977,14.431l-1.312-1.755Z" transform="translate(-301.706 -58.979)" fill="url(#linear-gradient-8)"/>
          <path id="Trazado_875159" data-name="Trazado 875159" d="M332.679.015A43.91,43.91,0,0,1,353.23,5.35,40.778,40.778,0,0,1,368.6,20.487a52.891,52.891,0,0,1,6.91,24.409,77.327,77.327,0,0,1-5.392,31.23A95.988,95.988,0,0,1,351.8,105.971a88.9,88.9,0,0,1-25.744,19.947,64.376,64.376,0,0,1-27.009,7.265,44.481,44.481,0,0,1-23.274-5.462,40.634,40.634,0,0,1-15.23-15.041,51.359,51.359,0,0,1-6.456-19.7,69.563,69.563,0,0,1,.851-21.584,87.448,87.448,0,0,1,7.438-21.968A97.06,97.06,0,0,1,275.23,29.69a93.844,93.844,0,0,1,16.5-15.447A79.294,79.294,0,0,1,311.128,3.776,59.338,59.338,0,0,1,332.679.015ZM278.752,121.026a40.408,40.408,0,0,0,21.014,4.4,58.793,58.793,0,0,0,24.024-6.861,80.753,80.753,0,0,0,22.731-17.845,87.019,87.019,0,0,0,16.272-26.4,70.43,70.43,0,0,0,5.091-27.741,48.287,48.287,0,0,0-5.749-22,36.735,36.735,0,0,0-13.452-13.964,38.965,38.965,0,0,0-18.4-5.219,52.725,52.725,0,0,0-19.6,3.137,71.141,71.141,0,0,0-17.8,9.437A84.849,84.849,0,0,0,277.665,32.12,87.9,87.9,0,0,0,265.85,50.292a78.842,78.842,0,0,0-6.722,20.183,62.12,62.12,0,0,0-.569,19.672,45.5,45.5,0,0,0,6.154,17.7,36.238,36.238,0,0,0,14.037,13.182Z" transform="translate(-253.603 -0.002)" fill="url(#linear-gradient-9)"/>
          <path id="Trazado_875160" data-name="Trazado 875160" d="M703.317,237.5c-.947-9.209-5.229-19.4-10.9-26.9,10.125,14.629,9.4,32.78,4.779,49.427a93.232,93.232,0,0,1-12.7,27.217,96.526,96.526,0,0,1-14.066,16.452q-.974.907-1.975,1.787a87,87,0,0,1-15.371,10.872,78.514,78.514,0,0,1-18.459,7.209c-6.06,1.555-12.371,2.533-18.631,1.855a38.694,38.694,0,0,1-4.791-.793c-.43-.1-1.683-.378-2.1-.507a67,67,0,0,0,8.52,2.515,52.2,52.2,0,0,0,18.66.132,63.713,63.713,0,0,0,17.238-5.366,83.458,83.458,0,0,0,23.043-16.341,94.678,94.678,0,0,0,16.383-21.674,86.266,86.266,0,0,0,9.838-28.157,69.358,69.358,0,0,0,.534-17.73Z" transform="translate(-579.191 -192.881)" fill="url(#linear-gradient-10)"/>
          <path id="Trazado_875161" data-name="Trazado 875161" d="M771.056,614.713a5.44,5.44,0,0,0,.735.674c2.327,1.768,5.711,1.354,8.3,0a13.962,13.962,0,0,0,7.163-9.756c.531-2.962-.167-6.446-2.7-8.068-6.461-4.13-13.954,4.173-15.052,9.969C769.03,610.024,769.392,612.88,771.056,614.713Z" transform="translate(-725.922 -546.27)" fill="url(#linear-gradient-11)"/>
          <path id="Trazado_875162" data-name="Trazado 875162" d="M622.023,391.678a17.258,17.258,0,0,1,8.328,3.456,17.717,17.717,0,0,1,5.417,7.273,24.444,24.444,0,0,1,1.7,10.291,34.911,34.911,0,0,1-2.823,12.162,41.978,41.978,0,0,1-7.133,11.368,39.388,39.388,0,0,1-9.7,8.063,29.6,29.6,0,0,1-10.594,3.833,20.151,20.151,0,0,1-9.937-.927,16.612,16.612,0,0,1-7.319-5.3,19.815,19.815,0,0,1-3.74-8.13,27.747,27.747,0,0,1-.28-9.75,36.9,36.9,0,0,1,3.162-10.447,42.185,42.185,0,0,1,6.121-9.513,40.354,40.354,0,0,1,8.01-7.21,32.549,32.549,0,0,1,9.181-4.388,23.1,23.1,0,0,1,9.607-.788Zm-21.951,49.258a15.987,15.987,0,0,0,7.766.56,23.463,23.463,0,0,0,8.174-3.071c8.383-4.977,14.693-14.512,15.193-24.351a19.412,19.412,0,0,0-1.19-8.026,13.977,13.977,0,0,0-4.094-5.784,13.379,13.379,0,0,0-6.448-2.861,17.784,17.784,0,0,0-7.562.493,25.186,25.186,0,0,0-7.305,3.41,31.573,31.573,0,0,0-6.4,5.721,33.048,33.048,0,0,0-4.876,7.6,28.741,28.741,0,0,0-2.463,8.319,21.467,21.467,0,0,0,.319,7.692,15.28,15.28,0,0,0,3.063,6.311,12.977,12.977,0,0,0,5.826,3.993Z" transform="translate(-557.709 -358.541)" fill="url(#linear-gradient-12)"/>
        </g>
        <g id="Grupo_1102076" data-name="Grupo 1102076" transform="translate(0 0.417)">
          <path id="Trazado_875163" data-name="Trazado 875163" d="M128.5,7.078c-.118-.941-.5-1.71.382-2.108a1.859,1.859,0,0,0-2.03,2.171l1.987,11.622,1.641-.061q-.926-5.414-1.852-10.828c-.04-.236-.093-.51-.129-.8Z" transform="translate(-116.146 -4.969)" fill="url(#linear-gradient-13)"/>
          <path id="Trazado_875164" data-name="Trazado 875164" d="M137.268,4.963c.948-.07,2.495.695,4.759,3.037,4.632,4.786,16.8,21.783,15.191,24.529a1.428,1.428,0,0,1-.184.237L138.107,18.691,136.12,7.069c-.179-1.049.158-2.033,1.148-2.105Z" transform="translate(-124.625 -4.959)" fill="url(#linear-gradient-14)"/>
          <g id="Grupo_1102074" data-name="Grupo 1102074" transform="translate(3.676 6.149)">
            <path id="Trazado_875165" data-name="Trazado 875165" d="M668.833,536.7,659.4,520.34,649.08,533.314l19.031,4.369A.663.663,0,0,0,668.833,536.7Z" transform="translate(-598.146 -483.127)" fill="url(#linear-gradient-15)"/>
            <path id="Trazado_875166" data-name="Trazado 875166" d="M644.654,527.267c-.284.552-1.319,2.357-.621,2.905a.536.536,0,0,0,.208.1,1.272,1.272,0,0,0,.848-.218,15.964,15.964,0,0,0,3.688-3.136,38.188,38.188,0,0,0,4.7-6.314,8.614,8.614,0,0,0,1.13-2.561,1.144,1.144,0,0,0-.041-.746.523.523,0,0,0-.125-.154.9.9,0,0,0-.905,0,7.394,7.394,0,0,0-2.087,1.466,31.651,31.651,0,0,0-6.795,8.663Z" transform="translate(-593.306 -480.083)" fill="url(#linear-gradient-16)"/>
            <path id="Trazado_875167" data-name="Trazado 875167" d="M668.1,536.981a6.847,6.847,0,0,1-.886,1.778,29.878,29.878,0,0,1-2.926,4.064,21.287,21.287,0,0,1-1.725,1.933,7.681,7.681,0,0,1-1.963,1.493c-.279.125-.464.119-.553-.006s-.083-.367.025-.718a11.9,11.9,0,0,1,1.731-3.132,33.324,33.324,0,0,1,2.873-3.593,10.959,10.959,0,0,1,2.611-2.306c.3-.165.527-.208.649-.128.185.12.216.347.162.617Z" transform="translate(-608.139 -497.768)" fill="url(#radial-gradient-2)"/>
            <g id="Grupo_1102073" data-name="Grupo 1102073" transform="translate(50.489 36.933)" clip-path="url(#clip-path)">
              <g id="Grupo_1102072" data-name="Grupo 1102072" transform="translate(-5.96 -5.669)">
                <ellipse id="Elipse_11631" data-name="Elipse 11631" cx="12.476" cy="3.663" rx="12.476" ry="3.663" transform="matrix(0.622, -0.783, 0.783, 0.622, 0, 19.536)" fill="url(#radial-gradient-3)"/>
              </g>
            </g>
            <path id="Trazado_875169" data-name="Trazado 875169" d="M105.264,121.564c-.045.066-.094.128-.142.194-.231.31-.469.623-.714.928-.188.236-.379.467-.57.692-.051.062-.1.123-.157.183l-4.595-3.476-4.925-3.725-6.718-5.081-7.815-5.911-8.219-6.217-7.928-6L56.539,87.9l-5.262-3.98L48.39,81.739l-.34-.257.1-3.132,1.5,1.133,4.07,3.079,6.011,4.548,7.321,5.54,8,6.055,8.053,6.093,7.472,5.655,6.262,4.738,4.42,3.345,4,3.026Z" transform="translate(-47.684 -78.324)" fill="url(#linear-gradient-17)"/>
            <path id="Trazado_875170" data-name="Trazado 875170" d="M44.486,79.918c-.04.856-.247,1.419-.464,1.254a3.042,3.042,0,0,1-.321-1.848c.04-.856.247-1.419.464-1.254A3.042,3.042,0,0,1,44.486,79.918Z" transform="translate(-43.695 -78.042)" fill="url(#linear-gradient-18)"/>
          </g>
          <g id="Grupo_1102075" data-name="Grupo 1102075" transform="translate(0 14.292)">
            <path id="Trazado_875171" data-name="Trazado 875171" d="M.188,177.85a2.348,2.348,0,0,0,.163,2.11c1.777,3.657,6.054,5.509,9.638,6.866-.464-.176-.939-.373-1.408-.6-2.557-1.259-5.738-3.8-6.769-5.584a2.367,2.367,0,0,1-.246-2.216c.485-.925,1.694-1.042,2.614-1.253l3.253-.745,3.443-.789c.3-.069.729-.524,1.039-.595l-1.284-.21-6.25,1.433c-2.4.549-3.643.586-4.194,1.587Z" transform="translate(0.001 -174.83)" fill="url(#linear-gradient-19)"/>
            <path id="Trazado_875172" data-name="Trazado 875172" d="M21.364,177.32,40.69,192.093a3.4,3.4,0,0,1-2.622.955c-4.9-.1-15.027-2.383-19.975-4.523-6.541-2.83-10.121-8.134-6.05-9.068l9.323-2.137Z" transform="translate(-9.448 -177.111)" fill="url(#linear-gradient-20)"/>
          </g>
        </g>
      </g>
    </g>
    <g id="Grupo_1102078" data-name="Grupo 1102078" transform="translate(1405.602 2829.891) rotate(90)">
      <g id="Grupo_1101985" data-name="Grupo 1101985" clip-path="url(#clip-path-2)">
        <path id="Trazado_875037" data-name="Trazado 875037" d="M50.237,26.6C50.433,12.14,39.325.208,25.474,0S.2,11.4,0,25.858l13.092.194a12.3,12.3,0,0,1,12.2-12.38A12.334,12.334,0,0,1,37.145,26.408Z" transform="translate(0 0)" fill="#ebac74"/>
      </g>
    </g>
    <g id="Grupo_1102079" data-name="Grupo 1102079" transform="translate(1243.259 2785.259)">
      <g id="Grupo_1101987" data-name="Grupo 1101987" clip-path="url(#clip-path-3)">
        <path id="Trazado_875038" data-name="Trazado 875038" d="M67.167,31.764c.149-.9-.2-1.166-1.171-1.161-8.05.039-16.1.022-24.15.022H40.713c7.38-3.453,14.752-6.7,22.122-9.952,2.025-.893,2-.89.9-2.787-.247-.426-.443-.492-.883-.285-1.065.5-2.152.959-3.23,1.432L41.67,26.9l-.292-.28h0c1.427-1.382,2.847-2.77,4.282-4.144q5.975-5.721,11.972-11.421c.549-.518.715-.894.024-1.371a2.009,2.009,0,0,1-.491-.461c-.608-.848-1.087-.654-1.776.01q-8.383,8.085-16.836,16.1c-.3.286-.615.559-1.089.988a3.944,3.944,0,0,1,.081-.688q4.211-10.869,8.43-21.734c.563-1.452.522-1.378-.961-2.02-1.006-.435-1.319-.172-1.666.747-2.54,6.716-5.137,13.413-7.732,20.11-.135.35-.15.79-.614,1.067,0-1.448,0-2.832,0-4.215Q34.983,9.8,34.96,0H32.2a1.606,1.606,0,0,0-.3,1.252c0,7.813,0,15.626,0,23.353C28.487,17.482,24.967,10.32,21.5,3.133c-.489-1.014-.819-1.038-2.271-.414-1.189.511-1.354.782-.866,1.831,1.763,3.786,3.625,7.529,5.436,11.295,1.325,2.756,2.678,5.5,4.021,8.3-5.3-5.073-10.539-10.115-15.812-15.126-.913-.867-1.364-.8-2.4.2-.992.956-1.027,1.271-.08,2.182Q18.1,19.639,26.7,27.855q-7.455-2.617-14.9-5.23c-2.628-.918-5.243-1.869-7.879-2.765-.613-.208-1.244-.442-1.767.223-1.172,1.489-.88,2.433.928,3.058C9.1,25.22,15.1,27.364,21.115,29.452a17.592,17.592,0,0,0,2.751.934,10.11,10.11,0,0,0-1.057-.062q-10.693,0-21.386.006A1.967,1.967,0,0,0,0,30.618v2.864H26.428a1.487,1.487,0,0,1-.676.489q-10.73,4.734-21.46,9.47c-1.88.83-1.851.824-.958,2.6.275.547.512.709,1.106.409.878-.443,1.795-.817,2.7-1.213q9.175-4.022,18.352-8.041l.294.281L10.022,52.592C8.814,53.75,8.876,53.7,9.988,54.9c.724.782,1.12.608,1.792-.043,4.07-3.941,8.19-7.836,12.281-11.757,1.81-1.734,3.592-3.5,5.423-5.28a.773.773,0,0,1-.016.878q-1.444,3.767-2.893,7.532c-1.869,4.847-3.727,9.7-5.625,14.535-.28.713-.2,1.092.62,1.233a1.9,1.9,0,0,1,.645.225c.933.564,1.251.147,1.577-.711,2.548-6.717,5.144-13.417,7.74-20.117.139-.357.157-.814.627-1.1V61.652c0,.294,0,.588,0,.881.035,1.814-.268,1.467,1.642,1.592,1.1.072,1.23-.347,1.223-1.246C34.982,58,35,53.114,35,48.231V38.806a14.565,14.565,0,0,1,1.543,2.659c3.125,6.452,6.262,12.9,9.354,19.365.355.743.685.97,1.409.479a2.009,2.009,0,0,1,.628-.266c.942-.238.991-.663.584-1.491-3.212-6.534-6.369-13.093-9.53-19.651-.12-.248-.409-.495-.18-1.018.852.861,1.6,1.649,2.382,2.4,4.773,4.566,9.565,9.115,14.32,13.7.591.569,1.007.708,1.529.009a1.791,1.791,0,0,1,.408-.387c.78-.544.837-.968.063-1.691-4.035-3.767-8-7.6-11.989-11.413-1.974-1.889-3.937-3.787-6.106-5.875.621.2.978.3,1.327.419Q46.676,38.118,52.6,40.2q5.174,1.816,10.346,3.635c1.664.583,1.623.562,2.291-.993.336-.781.218-1.116-.656-1.414-5.082-1.734-10.143-3.527-15.209-5.3q-3.528-1.237-7.052-2.486l.036-.163h1.233c7.513,0,15.027-.01,22.54.015.774,0,1.161-.152,1.032-.957a2.428,2.428,0,0,1,0-.769" fill="#2b5c64"/>
      </g>
    </g>
  </g>
</svg>
