<svg xmlns="http://www.w3.org/2000/svg" width="70" height="70" viewBox="0 0 70 70">
  <g id="Grupo_1101947" data-name="Grupo 1101947" transform="translate(-450.051 -1619)">
    <circle id="Elipse_11629" data-name="Elipse 11629" cx="35" cy="35" r="35" transform="translate(450.051 1619)" fill="#afc7cb"/>
    <g id="Grupo_1101949" data-name="Grupo 1101949" transform="translate(461.336 1632.061)">
      <g id="Grupo_1101948" data-name="Grupo 1101948" transform="translate(1.942 0)">
        <path id="Trazado_874993" data-name="Trazado 874993" d="M198.243,247.3a2.7,2.7,0,0,0,1.922-.8.643.643,0,0,0-.909-.909,1.423,1.423,0,0,1-1.013.419h0a1.416,1.416,0,0,1-1.009-.419.643.643,0,0,0-.91.908,2.694,2.694,0,0,0,1.918.8Z" transform="translate(-179.493 -224.374)" fill="#36737d"/>
        <path id="Trazado_874994" data-name="Trazado 874994" d="M297.787,453.212h-1.511a.643.643,0,0,0,0,1.285h1.511a.643.643,0,0,0,0-1.285Z" transform="translate(-270.464 -414.372)" fill="#36737d"/>
        <path id="Trazado_874995" data-name="Trazado 874995" d="M115.345,453.212h-1.514a.643.643,0,1,0,0,1.285h1.514a.643.643,0,1,0,0-1.285Z" transform="translate(-103.655 -414.372)" fill="#36737d"/>
        <path id="Trazado_874996" data-name="Trazado 874996" d="M44.845,14.054a.643.643,0,0,0-.643.643v6.877a1.846,1.846,0,0,1-1.844,1.844H40.572V14.7a.643.643,0,1,0-1.285,0v8.722H37.5a1.845,1.845,0,0,1-1.842-1.844V14.7a.643.643,0,1,0-1.285,0v6.877A3.132,3.132,0,0,0,37.5,24.7h1.788v4.745H37.9a1.08,1.08,0,0,0-1.078,1.078v.778a15.948,15.948,0,0,0-5.4-3.109.637.637,0,0,0-.139-.052c-.993-.366-1.987-.671-2.919-.932l-.04-.011c-.762-.213-1.482-.4-2.122-.56l-.237-.061a.825.825,0,0,1-.108-.034s0-.008,0-.012V24.955A10.881,10.881,0,0,0,29.71,19.1a4.147,4.147,0,0,0,2.817-2.734,3.729,3.729,0,0,0-.418-2.973A5.294,5.294,0,0,0,34.9,11.257a1.365,1.365,0,0,0,.128-1.4c-.373-.637-1.241-.637-1.939-.637h-2.5l-1.7-5.984C28.336,1.27,26.916,0,25.277,0h-9.17c-1.64,0-3.059,1.27-3.616,3.235L10.8,9.218h-2.5c-.7,0-1.566,0-1.939.638a1.366,1.366,0,0,0,.128,1.4,5.293,5.293,0,0,0,2.793,2.138,3.728,3.728,0,0,0-.418,2.972A4.147,4.147,0,0,0,11.674,19.1a10.882,10.882,0,0,0,3.859,5.853v1.579s0,.009,0,.013a.82.82,0,0,1-.105.034l-.253.065c-.636.163-1.341.343-2.082.549a.641.641,0,0,0-.073.02c-.941.263-1.939.569-2.934.935a.636.636,0,0,0-.092.034,22.067,22.067,0,0,0-2.649,1.17c-3.166,1.68-4.852,3.881-5.013,6.543l-.382,6.33a1.6,1.6,0,0,0,.325,1.248,1.667,1.667,0,0,0,1.271.4H41.961A1.081,1.081,0,0,0,43.039,42.8V30.527a1.08,1.08,0,0,0-1.078-1.078H40.572V24.7h1.786a3.133,3.133,0,0,0,3.13-3.13V14.7A.643.643,0,0,0,44.845,14.054ZM28.8,28.679c.55.164,1.114.345,1.679.544V35.09L28.8,35.1Zm2.489-12.67a2.723,2.723,0,0,1-1.433,1.642V14.077q.523-.119.993-.254A2.468,2.468,0,0,1,31.293,16.009Zm-18.421-9.4h6.55a.643.643,0,0,0,0-1.285H13.236l.491-1.735c.4-1.4,1.33-2.3,2.38-2.3h9.17c1.049,0,1.984.9,2.38,2.3l.491,1.735H22.393a.643.643,0,1,0,0,1.285h6.119l.74,2.613H12.132ZM11.525,17.65a2.723,2.723,0,0,1-1.433-1.642,2.467,2.467,0,0,1,.44-2.186q.471.135.994.254ZM7.6,10.627c-.019-.033-.034-.062-.046-.088.228-.035,25.535-.035,25.535-.035a5.935,5.935,0,0,1,.737.034c-.013.026-.028.055-.046.088-.728,1.294-3.589,2.869-13.09,3.033C11.192,13.5,8.33,11.92,7.6,10.627ZM12.81,17.77v-3.44a53.311,53.311,0,0,0,7.871.614H20.7a53.325,53.325,0,0,0,7.871-.614v3.44c0,2.869-2.79,6.418-5.972,7.6a5.4,5.4,0,0,1-1.91.39,5.4,5.4,0,0,1-1.911-.391c-3.181-1.179-5.971-4.728-5.971-7.6Zm11.756,8.074v.69a3.874,3.874,0,1,1-7.748,0v-.69a9.473,9.473,0,0,0,1.516.727,6.138,6.138,0,0,0,4.716,0,9.49,9.49,0,0,0,1.516-.728ZM10.9,29.221c.563-.2,1.127-.378,1.679-.542v6.408H10.9ZM9.617,35.212a1.744,1.744,0,0,0-1.1,1.618v5.763H3.545a1.994,1.994,0,0,1-.313-.019,1.831,1.831,0,0,1,0-.271l.382-6.33c.133-2.214,1.55-4.008,4.332-5.485.536-.284,1.1-.541,1.67-.777v5.5Zm21.967,7.381H9.8V36.83a.458.458,0,0,1,.457-.457H18.92a.643.643,0,1,0,0-1.285H13.866V28.315c.574-.155,1.122-.3,1.626-.424l.207-.053a5.16,5.16,0,0,0,9.986,0l.194.05c.5.128,1.055.269,1.639.428V35.1l-5.36-.013a.643.643,0,0,0,0,1.285s0,.032,0,.032l8.963-.032h0a.46.46,0,0,1,.455.457v5.762Zm5.235,0H32.87V36.83a1.743,1.743,0,0,0-1.1-1.62v-5.5a11.325,11.325,0,0,1,5.051,3.546Zm4.935,0H38.1V40.026h3.65Zm0-3.852H38.1V36.685h3.65Zm0-8.006V35.4H38.1V30.734Z" transform="translate(-1.942 0)" fill="#36737d"/>
      </g>
    </g>
  </g>
</svg>
