<svg xmlns="http://www.w3.org/2000/svg" width="70" height="70" viewBox="0 0 70 70">
  <g id="Grupo_1101950" data-name="Grupo 1101950" transform="translate(-450.051 -1619)">
    <circle id="Elipse_11629" data-name="Elipse 11629" cx="35" cy="35" r="35" transform="translate(450.051 1619)" fill="#afc7cb"/>
    <g id="Grupo_1101956" data-name="Grupo 1101956" transform="translate(392.535 1629.265)">
      <g id="Grupo_1101955" data-name="Grupo 1101955" transform="translate(75.03 0)">
        <path id="Trazado_874997" data-name="Trazado 874997" d="M109.276,37.956a.725.725,0,0,0,.725-.725V34.926a6.588,6.588,0,0,0-4.885-6.358l-2.154-.575a6.787,6.787,0,0,0-3.549-5.243,8.565,8.565,0,0,0,1.692-4.535h.875a1.713,1.713,0,0,0,1.711-1.711V13.716a1.714,1.714,0,0,0-.02-.261h.81a2.43,2.43,0,0,0,1.729-.716l1.705-1.705a2.449,2.449,0,0,0,0-3.459,1.934,1.934,0,0,0-2.732,0h0a5.092,5.092,0,0,1-3.151,1.481l-2.008-6.917A2.979,2.979,0,0,0,97.178,0H95.529a2.958,2.958,0,0,0-1.994.771,1.509,1.509,0,0,1-2.038,0A2.958,2.958,0,0,0,89.5,0H87.853a2.979,2.979,0,0,0-2.847,2.138l-2,6.882a5.939,5.939,0,0,1-3.411-1.7,1.578,1.578,0,0,0-2.232,0l-.25.25a2.449,2.449,0,0,0,0,3.459l1.705,1.705a2.43,2.43,0,0,0,1.729.716h.811a1.714,1.714,0,0,0-.021.261V16.5a1.713,1.713,0,0,0,1.711,1.711h.875a8.569,8.569,0,0,0,1.814,4.693v3.583c0,.173.008.346.021.517l-5.846,1.559a6.588,6.588,0,0,0-4.885,6.358v2.3a.725.725,0,0,0,1.449,0v-2.3a5.137,5.137,0,0,1,3.794-4.954V48.021H76.479V40.615a.725.725,0,0,0-1.449,0v8.13a.725.725,0,0,0,.725.725h33.522a.725.725,0,0,0,.725-.725v-8.13a.725.725,0,1,0-1.449,0v7.405h-3.794V29.972a5.136,5.136,0,0,1,3.794,4.954v2.306a.725.725,0,0,0,.725.725Zm-7.886-7.911A5.287,5.287,0,0,1,99.352,27.8a6.725,6.725,0,0,0,.365-3.1A5.343,5.343,0,0,1,101.391,30.045ZM94.367,40.63v7.39h-3.7V40.63a.725.725,0,0,0-.111-.386l-3.268-5.188V30.723A6.548,6.548,0,0,0,89,32.171l2.794,1.636v5.666a.725.725,0,0,0,1.449,0V33.807l2.794-1.635a6.575,6.575,0,0,0,1.712-1.443v4.328l-3.268,5.188A.725.725,0,0,0,94.367,40.63ZM92.515,26.21a8.6,8.6,0,0,0,2.23-.293,6.758,6.758,0,0,0-.105,5.391l-2.125,1.244L89.729,30.92a5.149,5.149,0,0,1-2.54-4.429V24.361A8.57,8.57,0,0,0,92.515,26.21Zm5.4,1.3a5.286,5.286,0,0,1-2.172,2.54,5.339,5.339,0,0,1,2.4-5.874A5.287,5.287,0,0,1,97.915,27.505Zm4.327-13.79V16.5a.262.262,0,0,1-.261.261h-.853V13.454h.853a.262.262,0,0,1,.261.261ZM84.874,7.794h15.284l.373,1.284H84.5ZM86.4,2.542a1.522,1.522,0,0,1,1.455-1.093H89.5a1.512,1.512,0,0,1,1.019.394,2.953,2.953,0,0,0,3.988,0,1.512,1.512,0,0,1,1.019-.394h1.649a1.523,1.523,0,0,1,1.455,1.093l1.1,3.8H85.294Zm-6.553,9.171L78.14,10.008a1,1,0,0,1,0-1.409l.25-.25a.129.129,0,0,1,.182,0,7.385,7.385,0,0,0,5.257,2.177h17.726A6.537,6.537,0,0,0,106.208,8.6a.483.483,0,0,1,.682,0,1,1,0,0,1,0,1.409l-1.7,1.705a.99.99,0,0,1-.7.292H80.55a.99.99,0,0,1-.7-.292ZM82.789,16.5V13.716a.262.262,0,0,1,.261-.261H83.9v3.312H83.05A.262.262,0,0,1,82.789,16.5Zm2.563-3.05H99.678V17.6a7.163,7.163,0,0,1-14.326,0Zm-3.63,16.131,4.113-1.1v6.777a.725.725,0,0,0,.112.386l3.268,5.188v7.181H81.723ZM95.816,48.021V40.84l3.268-5.188a.725.725,0,0,0,.112-.386V30.113a6.762,6.762,0,0,0,2.334,1.624.725.725,0,0,0,.949-.388,6.748,6.748,0,0,0,.482-1.856l.348.093V48.021Z" transform="translate(-75.03 0)" fill="#36737d"/>
        <path id="Trazado_874998" data-name="Trazado 874998" d="M215.282,277.992a1.507,1.507,0,0,0,1.512-.007l.082-.048a.725.725,0,0,0-.734-1.25l-.081.048a.055.055,0,0,1-.055,0c-1.346-.776-2.784-1.958-2.784-2.949a.725.725,0,1,0-1.449,0C211.773,275.686,213.972,277.237,215.282,277.992Z" transform="translate(-198.561 -246.679)" fill="#36737d"/>
        <path id="Trazado_874999" data-name="Trazado 874999" d="M309.928,425.278H306.8a.725.725,0,1,0,0,1.449h3.123a.725.725,0,1,0,0-1.449Z" transform="translate(-283.756 -384.187)" fill="#36737d"/>
        <path id="Trazado_875000" data-name="Trazado 875000" d="M162.444,425.278h-3.123a.725.725,0,1,0,0,1.449h3.123a.725.725,0,1,0,0-1.449Z" transform="translate(-150.522 -384.187)" fill="#36737d"/>
      </g>
    </g>
  </g>
</svg>
