<svg xmlns="http://www.w3.org/2000/svg" xmlns:xlink="http://www.w3.org/1999/xlink" width="400" height="305.839" viewBox="0 0 400 305.839">
  <defs>
    <clipPath id="clip-path">
      <rect id="Rectángulo_402276" data-name="Rectángulo 402276" width="400" height="305.839" transform="translate(0 -16)" fill="none"/>
    </clipPath>
    <clipPath id="clip-path-2">
      <path id="Trazado_874748" data-name="Trazado 874748" d="M33.263,171.983a339.577,339.577,0,0,1,21.3,125.661c-.14,9.51-7.875,33.192-3.32,36.135,45.746,29.559,84.219,24.1,113.049,18.752,35.17-6.524,52-19.858,86.685-26.292,45.507-8.442,90.045,3.151,136.774,13.784,5.984-12.443,6.326-37.947,2.78-49.03s-8.8-21.781-12.172-32.9a102.735,102.735,0,0,1,7.477-77.273c-20.972-7.026-41.677-2.121-59.738,5.1s-34.635,16.78-53.167,23.188c-27.718,9.583-58.989,11.686-88.786,7.866s-58.179-13.382-83.86-26.113c-10.362-5.137-20.38-10.817-31.493-14.815a77.487,77.487,0,0,0-25.889-4.913,53.475,53.475,0,0,0-9.642.848" transform="translate(-33.263 -171.135)" fill="none"/>
    </clipPath>
    <clipPath id="clip-path-3">
      <rect id="Rectángulo_402270" data-name="Rectángulo 402270" width="400" height="289.839" fill="none"/>
    </clipPath>
    <clipPath id="clip-path-4">
      <rect id="Rectángulo_402266" data-name="Rectángulo 402266" width="10.066" height="7.681" fill="none"/>
    </clipPath>
    <clipPath id="clip-path-6">
      <rect id="Rectángulo_402268" data-name="Rectángulo 402268" width="9.925" height="7.309" fill="none"/>
    </clipPath>
    <clipPath id="clip-path-8">
      <path id="Trazado_874871" data-name="Trazado 874871" d="M614.831,316.511c-.987,7.6-.618,15.32-.248,22.983q.681,14.057,1.361,28.114a4.765,4.765,0,0,0,.475,2.232c.759,1.263,2.406,1.348,3.791,1.257a73.361,73.361,0,0,0,13.77-2.235,5.755,5.755,0,0,0,3.608-2.058c.946-1.45.667-3.419.347-5.162q-6.142-33.508-12.286-67.017c-7.391,6.728-9.833,14.287-10.819,21.885" transform="translate(-614.197 -294.626)" fill="none"/>
    </clipPath>
    <clipPath id="clip-path-10">
      <path id="Trazado_874915" data-name="Trazado 874915" d="M588.464,299.409c-2.221-.006-4.564-.439-6.576.585-2.813,1.434-3.89,5.105-4.621,8.387-5.234,23.49-7.791,47.572-10.337,71.583,11.886-4.047,25.193-2.752,37.98-1.388-.84-28.79-1.431-56.9-2.271-85.689-6.95,1.092-8.99,6.539-14.175,6.523" transform="translate(-566.931 -292.886)" fill="none"/>
    </clipPath>
    <clipPath id="clip-path-12">
      <rect id="Rectángulo_402272" data-name="Rectángulo 402272" width="10.341" height="7.615" fill="none"/>
    </clipPath>
  </defs>
  <g id="Grupo_1101937" data-name="Grupo 1101937" transform="translate(0 39.172)">
    <g id="Grupo_1101932" data-name="Grupo 1101932" transform="translate(0 -23.172)" clip-path="url(#clip-path)">
      <rect id="Rectángulo_402265" data-name="Rectángulo 402265" width="400" height="305.839" transform="translate(0 -16)" fill="#e6feff"/>
      <g id="Grupo_1101901" data-name="Grupo 1101901" transform="translate(17.74 99.203)">
        <g id="Grupo_1101900" data-name="Grupo 1101900" clip-path="url(#clip-path-2)">
          <path id="Trazado_874745" data-name="Trazado 874745" d="M379.253,198.883c-.643-.032-1.3-.052-1.947-.074a61.994,61.994,0,0,1,5.089-24.129,167.15,167.15,0,0,0-80.369,9.845c-25.33,9.952-45.605,20.934-73.091,25.989-23.315,4.287-49.46,5.142-71.394-2.52s-41.995-18.359-63.2-27.242-44.316-16.066-68.231-15.8c1.183,5.4,2.362,10.8,2.238,16.044-1.149-.3-2.3-.59-3.466-.872.093,8.155.186,19.6-1.042,27.426,32.024,7.782,61.835,20.394,92.505,31.136s63.122,19.764,96.578,19.673c58.863-.161,112.3-28.184,170.69-34.191l-4.357-25.283" transform="translate(-28.864 -168.533)" fill="#ffd900"/>
          <path id="Trazado_874746" data-name="Trazado 874746" d="M386.5,272.164c-2.106-4.632-1-9.775-1-14.723,0-5.039-1.858-10.806-7.524-12.965-3.267-1.245-7.079-.985-10.663-.6-47.243,5.07-90.1,27.032-137.611,30.071-34.052,2.179-68.664-.966-100.813-10.246S65.036,234.128,27.218,227.685c1.1,8.721,2.861,21.281,4.092,30.759q-2.525-.634-5.089-1.249a242.284,242.284,0,0,0,5.134,25.767c52.916,7.018,99.445,35.712,152.976,38.347,35.94,1.769,70.87-8.451,105.209-17.159s71.2-16.058,105.981-8.584c-1.068-8.15-2.964-17.307-9.021-23.4" transform="translate(-29.977 -194.904)" fill="#0074d0"/>
          <path id="Trazado_874747" data-name="Trazado 874747" d="M400.38,357.757c-.389-.187-.794-.355-1.189-.536l-2.182-28.561c-25.679-7.509-44.025-8.09-70.3-2.071-34.83,7.976-82.343,19.354-109.377,22.559-34.295,4.066-73.433-1.112-106.111-10.41s-43.387-17.346-77.462-22.465c-1.263,7.234,2.394,13.559.454,25.286.509.107,1.007.225,1.512.336,11.942,18.626.26,58.169,11.931,67.607,3.961,3.2,33.909,6.568,39.119,8.258,20.673,6.706,45.977,8.292,68.252,9.01,20.521.662,46.1,3.866,66.065,0,55.347-10.717,73.055-23.762,129.963-22.453,12.254.282,34.919,2.089,44.219,8.508-.357-11.691,2.748-43.53,5.112-55.069" transform="translate(-33.365 -232.14)" fill="#b30e19"/>
        </g>
      </g>
      <g id="Grupo_1101915" data-name="Grupo 1101915">
        <g id="Grupo_1101914" data-name="Grupo 1101914" clip-path="url(#clip-path-3)">
          <path id="Trazado_874749" data-name="Trazado 874749" d="M467.211,375.8c-9.454,8.379-19.994,10.782-29.034,14.408-.513.205-8.8,3.58-11.642,3.071-7.631-1.367-11.487-7.239-10.4-9.624,1.061-2.335,11.815-3.721,14.059-4.434,12.615-4.01,23-14.467,27.454-20.076,3.389,4.546,5.784,11.3,9.566,16.655" transform="translate(-194.11 -150.957)" fill="#deab8c"/>
          <path id="Trazado_874750" data-name="Trazado 874750" d="M417.536,390.849a10.45,10.45,0,0,1-7.114-2.235c-2.162-1.588-4.308-3.422-6.993-3.783a1.038,1.038,0,0,0-1.047.44c-.337.563.118,1.079.529,1.469l3.918,3.716c-1.957-.184-1.5.168-4.494.428-2.513.219-4.007.492-4.96,1.427a1,1,0,0,0,.573,1.675l5.1.879a10.534,10.534,0,0,0-4.846,2.014c-.438.331-.872.958-.494,1.37a1.1,1.1,0,0,0,.858.228l4.3-.1a10.163,10.163,0,0,0-4.409,2.129c-.347.289-.7.707-.566,1.143.165.521.863.6,1.407.572a26.77,26.77,0,0,0,4.634-.694,8.615,8.615,0,0,0-4.454,2.239,1.761,1.761,0,0,0-.7,1.457,1.385,1.385,0,0,0,1.052,1.01,3.988,3.988,0,0,0,1.524,0c5.888-.747,18.962-2.327,18.962-2.327s-.1-.913-.193-1.591a44.844,44.844,0,0,0-2.579-11.468" transform="translate(-185.311 -161.749)" fill="#deab8c"/>
          <path id="Trazado_874751" data-name="Trazado 874751" d="M496.736,310.563c-5.462,1.466-11.063,2.374-15.178,6.545-3.61,3.658-8.769,15.789-11.513,20.249-6.946,11.29-17.029,16.353-27.4,20.783l3.554,14.719c13.631-4.188,25.633-7.435,33.466-15.948,2.495-2.711,3.588-3.366,3.764-4.115,1.861-7.916,9.193-25.821,11.055-33.745.591-2.517,1.552-5.421,2.248-8.488" transform="translate(-206.57 -130.537)" fill="#8dbce3"/>
          <path id="Trazado_874752" data-name="Trazado 874752" d="M328.23,322.107c1-2.886,3.167-8.05,4.17-10.937.464-1.334,1.716-3.386,2.277-3.28.663.126.854.577.859,1.261s-.3,3.974-.232,4.821c1.6-2.515,3.8-6.884,6.221-8.606a2.6,2.6,0,0,1,1.086-.528.892.892,0,0,1,.984.491,1.442,1.442,0,0,1-.323,1.177l-3.257,5.167c2.121-1.561,4.491-3.551,6.288-4.1.982-.3,1.621.5,1.106,1.4a22.161,22.161,0,0,1-4.15,4.883c2.245-.756,4.2-2.395,6.177-3.059a1.216,1.216,0,0,1,1.453.685,1.272,1.272,0,0,1-.367,1.454c-1.675,1.458-3.565,3.442-5.24,4.9a17.025,17.025,0,0,1,6.687-1.686c.367-.027.829.475.919.831.161.637-.564,1.649-1.087,1.943-4.781,2.692-12.275,6.924-17.572,11.589-2.71-2.16-2.831-4.725-6-8.415" transform="translate(-153.174 -128.126)" fill="#deab8c"/>
          <path id="Trazado_874753" data-name="Trazado 874753" d="M280.534,319.224l7.444,9.984c-6.568,5.619-18.476,15.468-25.043,21.086-2.874,2.459-5.988,5.022-9.636,5.3-4.9.373-9.2-3.476-12.328-7.588s-7.509-9.257-10.355-12.684c0,0-6.6-30.961-6.281-31.556,7.412,0,14.469,8.888,18.468,14.516,3.707,5.216,6.359,9.022,10.693,13.222a2.07,2.07,0,0,0,2.325.424c6.068-2.806,16.918-8.595,24.712-12.7" transform="translate(-104.685 -127.68)" fill="#fff"/>
          <path id="Trazado_874754" data-name="Trazado 874754" d="M319.09,335.168l7.818,11.137" transform="translate(-148.909 -140.879)" fill="none" stroke="#000" stroke-linecap="round" stroke-linejoin="round" stroke-width="1"/>
          <path id="Trazado_874755" data-name="Trazado 874755" d="M341.242,187.962c-12.5-.52-25.164-1.024-37.362,1.98-3.327.819-6.891,2.126-8.7,5.272a10.58,10.58,0,0,0-.7,7.975,19.891,19.891,0,0,0,3.9,7.015c8.885,11,22.78,15.726,36.207,16.843,8.551.711,17.3.136,25.413-2.885a38.778,38.778,0,0,0,20.147-16.52c2.021-3.486,3.472-7.845,2.1-11.689-1.462-4.107-5.618-6.24-9.54-7.345-10.555-2.971-21.687-1.362-31.471-.647" transform="translate(-137.211 -78.55)"/>
          <path id="Trazado_874756" data-name="Trazado 874756" d="M386.53,251.987A47.814,47.814,0,0,1,385.873,262a15.127,15.127,0,0,1-4.57,8.517,16.269,16.269,0,0,1-6.554,3.026,46.972,46.972,0,0,1-20.973.647,15.867,15.867,0,0,1-5.654-2.028,14.4,14.4,0,0,1-5.216-6.986,45.333,45.333,0,0,1-2.14-8.831c-.44-2.566-.761-5.572.9-7.459,1.289-1.467,3.333-1.707,5.2-1.823,13.11-.812,26.315.2,39.67,4.929" transform="translate(-158.859 -103.738)" fill="#fff"/>
          <path id="Trazado_874757" data-name="Trazado 874757" d="M350.175,271.451c1.96,5.892,3.115,13.806-.158,19.031.863,9.76-17.44,14.728-5.548,26.5,1.314,1.3,11.55,4.573,13.037,5.72a6.513,6.513,0,0,0,6.828.278c2.153-1.091,14.906-3.307,16.348-5.29,5.7-7.834-1.443-15.534-1.24-25.34-4.853-5.643-5.176-9.926-3.243-18.405-6.624,3.415-16.71-.091-26.024-2.5" transform="translate(-158.872 -114.097)" fill="#b87e5a"/>
          <path id="Trazado_874758" data-name="Trazado 874758" d="M334.384,237.9a6.769,6.769,0,0,0-7.828,2.468,6.984,6.984,0,0,0,.49,8.132,8.113,8.113,0,0,0,8.028,2.536,36.809,36.809,0,0,1-.69-13.137" transform="translate(-151.889 -99.82)" fill="#b87e5a"/>
          <path id="Trazado_874759" data-name="Trazado 874759" d="M332.925,242.423a4.321,4.321,0,0,0-2.568,4.607" transform="translate(-154.139 -101.896)" fill="none" stroke="#000" stroke-linecap="round" stroke-linejoin="round" stroke-width="1"/>
          <path id="Trazado_874760" data-name="Trazado 874760" d="M331.989,244.784a10.767,10.767,0,0,0,.549,2.7,3.72,3.72,0,0,0,1.777,2.062" transform="translate(-154.928 -102.888)" fill="none" stroke="#000" stroke-linecap="round" stroke-linejoin="round" stroke-width="1"/>
          <path id="Trazado_874761" data-name="Trazado 874761" d="M420.172,236.4a6.771,6.771,0,0,1,7.862,2.359,6.983,6.983,0,0,1-.373,8.138,8.109,8.109,0,0,1-7.99,2.647,36.807,36.807,0,0,0,.5-13.145" transform="translate(-195.846 -99.177)" fill="#b87e5a"/>
          <path id="Trazado_874762" data-name="Trazado 874762" d="M429.253,240.28a4.324,4.324,0,0,1,2.634,4.571" transform="translate(-200.318 -100.995)" fill="none" stroke="#000" stroke-linecap="round" stroke-linejoin="round" stroke-width="1"/>
          <path id="Trazado_874763" data-name="Trazado 874763" d="M430.548,242.6a10.753,10.753,0,0,1-.51,2.708,3.717,3.717,0,0,1-1.747,2.086" transform="translate(-199.869 -101.97)" fill="none" stroke="#000" stroke-linecap="round" stroke-linejoin="round" stroke-width="1"/>
          <path id="Trazado_874764" data-name="Trazado 874764" d="M360.792,185.815c-3.7.2-12.654,1.9-17.276,6.473a27.369,27.369,0,0,0-6.469,12.78c-1.138,7.5-.7,18.682,1.478,25.962s7.225,13.883,14.21,17.19,15.885,2.927,22.053-1.678c6.813-5.085,9.277-14.085,9.427-22.461.15-8.345,1.71-12.731.333-20.96-1.389-8.3-6.4-18.245-23.757-17.306" transform="translate(-157.004 -78.076)" fill="#b87e5a"/>
          <path id="Trazado_874765" data-name="Trazado 874765" d="M345.347,227.435c-.239.111-.388-.012-.342-.281.313-1.825,2.477-3,4.369-4.07.865-.492,4.383-1.256,5.4-.97.538.151,1.454.728.846,1.594a5.7,5.7,0,0,1-1.469.686,29.435,29.435,0,0,0-8.8,3.042" transform="translate(-160.998 -93.333)" fill="#fff"/>
          <path id="Trazado_874766" data-name="Trazado 874766" d="M401.125,225.645c.243.1.387-.031.33-.3-.387-1.809-2.6-2.876-4.529-3.858-.884-.449-4.429-1.046-5.429-.712-.531.177-1.423.8-.781,1.634a5.661,5.661,0,0,0,1.5.614,29.252,29.252,0,0,1,8.914,2.619" transform="translate(-182.23 -92.757)" fill="#fff"/>
          <path id="Trazado_874767" data-name="Trazado 874767" d="M356.332,234.217a1.419,1.419,0,1,1,1.392,1.743,1.6,1.6,0,0,1-1.392-1.743" transform="translate(-166.288 -97.707)"/>
          <path id="Trazado_874768" data-name="Trazado 874768" d="M396.328,234.859a1.419,1.419,0,1,1,1.391,1.742,1.6,1.6,0,0,1-1.391-1.742" transform="translate(-184.953 -97.976)"/>
          <g id="Grupo_1101904" data-name="Grupo 1101904" transform="translate(210.873 139.906)" opacity="0.69">
            <g id="Grupo_1101903" data-name="Grupo 1101903">
              <g id="Grupo_1101902" data-name="Grupo 1101902" clip-path="url(#clip-path-4)">
                <path id="Trazado_874769" data-name="Trazado 874769" d="M395.387,245.226c-.016-2.121,2.226-3.856,5.005-3.875s5.045,1.685,5.06,3.806-2.226,3.855-5.005,3.875-5.045-1.685-5.06-3.806" transform="translate(-395.386 -241.351)" fill="#ab704b"/>
              </g>
            </g>
          </g>
          <g id="Grupo_1101907" data-name="Grupo 1101907" transform="translate(183.823 139.563)" opacity="0.69">
            <g id="Grupo_1101906" data-name="Grupo 1101906">
              <g id="Grupo_1101905" data-name="Grupo 1101905" clip-path="url(#clip-path-4)">
                <path id="Trazado_874770" data-name="Trazado 874770" d="M344.67,244.636c-.015-2.121,2.226-3.856,5.005-3.875s5.045,1.685,5.06,3.8-2.226,3.857-5.005,3.876-5.045-1.685-5.06-3.806" transform="translate(-344.669 -240.76)" fill="#ab704b"/>
              </g>
            </g>
          </g>
          <path id="Trazado_874771" data-name="Trazado 874771" d="M378.755,258.892c-.407,3.174-3.356,5.937-7.764,4.734a5.445,5.445,0,0,1-3.772-3.218" transform="translate(-171.369 -108.818)" fill="none" stroke="#000" stroke-linecap="round" stroke-linejoin="round" stroke-width="1"/>
          <path id="Trazado_874772" data-name="Trazado 874772" d="M390.005,254.115c4.761,4.193,5.745,12.39,3.867,16.355" transform="translate(-182.002 -106.81)" fill="none" stroke="#000" stroke-linecap="round" stroke-linejoin="round" stroke-width="1"/>
          <path id="Trazado_874773" data-name="Trazado 874773" d="M363.766,252.412c-4.761,4.193-5.745,12.389-3.867,16.355" transform="translate(-167.536 -106.095)" fill="none" stroke="#000" stroke-linecap="round" stroke-linejoin="round" stroke-width="1"/>
          <path id="Trazado_874774" data-name="Trazado 874774" d="M375.162,226.315a28.058,28.058,0,0,1,.252,6.35,1.3,1.3,0,0,1-.4,1.057,1.882,1.882,0,0,1-1.155.11,2.9,2.9,0,0,0-2.762,2.191,3.949,3.949,0,0,0,.987,3.5,6.956,6.956,0,0,0,3.249,1.92" transform="translate(-173.134 -95.125)" fill="none" stroke="#000" stroke-linecap="round" stroke-linejoin="round" stroke-width="1"/>
          <path id="Trazado_874775" data-name="Trazado 874775" d="M362.237,291.1c3.225,2.732,8.977,3.37,12.35,2.033" transform="translate(-169.044 -122.358)" fill="none" stroke="#000" stroke-linecap="round" stroke-linejoin="round" stroke-width="1"/>
          <path id="Trazado_874776" data-name="Trazado 874776" d="M419.323,210.562a49.017,49.017,0,0,1-1.532,22.609,1.463,1.463,0,0,1-.511.856.9.9,0,0,1-1.185-.515,3.311,3.311,0,0,1-.2-1.513,51.977,51.977,0,0,0-6.071-25.461,52.92,52.92,0,0,1,9.5,4.024" transform="translate(-191.252 -86.813)" fill="#fff"/>
          <path id="Trazado_874777" data-name="Trazado 874777" d="M345.633,205.611a29.972,29.972,0,0,0-6.561,23.189,4.479,4.479,0,0,1,.006,1.96c-.2.624-.83,1.142-1.4.916-.5-.2-.71-.832-.849-1.392a55.477,55.477,0,0,1-1.559-15.7,8.8,8.8,0,0,1,.939-4.184c1.692-2.8,5.71-2.832,9.426-4.791" transform="translate(-156.434 -86.423)" fill="#fff"/>
          <path id="Trazado_874778" data-name="Trazado 874778" d="M384.365,212.806a51.517,51.517,0,0,1-14.073-12.439,97.463,97.463,0,0,1-24.085,5.23.679.679,0,0,1-.646-.179c-.255-.358.185-.811.561-1.006,8.312-4.311,17.692-6.632,26.806-5.2a13.467,13.467,0,0,1,6.318,2.378c2.975,2.318,4.289,6.352,5.119,11.213" transform="translate(-161.226 -83.556)" fill="#fff"/>
          <path id="Trazado_874779" data-name="Trazado 874779" d="M383.224,177.79c.329-5.134-.487-9.77-4.2-12.4s-8.454-3.16-12.875-3.508c-3.878-.305-7.981-.476-11.428,1.48-4.813,2.731-7.034,8.779-8.871,14.333a199.33,199.33,0,0,1,37.376.093" transform="translate(-161.396 -67.965)"/>
          <path id="Trazado_874780" data-name="Trazado 874780" d="M374.6,208.333a46.375,46.375,0,0,0-30.586-13.9,43.133,43.133,0,0,0-31.378,11.624,50.166,50.166,0,0,1-12.43-7.008,5.154,5.154,0,0,1-2.3-3.1c-.248-1.711,1.02-3.217,2.282-4.275,5.676-4.757,13.081-6.405,20.245-6.646s14.319.783,21.486.725c11.329-.093,23.066-2.828,33.731,1.326,3.937,1.533,7.915,4.5,8.668,8.972a11.133,11.133,0,0,1-2.525,8.582c-1.882,2.339-4.417,3.942-7.193,3.708" transform="translate(-139.01 -77.666)"/>
          <path id="Trazado_874781" data-name="Trazado 874781" d="M270.165,315.342c-3.8.936-12.8,10.249-17.755,17.953-4.791,7.445-9.573,11.232-16.024,19.657a214,214,0,0,1-21.428-22.36c-2.019-2.523-5.909,1.547-8.616,7.367,3.208,7.64,7.712,12.755,13.609,23.012,3.253,5.658,16.655,16.676,21.52,13.495,4.732-3.094,11.441-6.5,13.9-10.667,8.966-15.167,18.5-30.1,18.214-42.868-.1-4.437-.1-6.408-3.422-5.589" transform="translate(-96.293 -132.469)" fill="#b87e5a"/>
          <path id="Trazado_874782" data-name="Trazado 874782" d="M206.862,331.9c-.6-3.68-.584-7.585-1.18-11.265-.276-1.7-1.26-4.386-1.858-4.326-.708.071-.974.6-1.085,1.445s-.3,4.931-.5,5.965c-1.273-3.3-2.88-8.955-5.13-11.382a2.56,2.56,0,0,0-1.045-.787.907.907,0,0,0-1.1.48,2.034,2.034,0,0,0,.154,1.49L197.7,320.3c-1.961-2.19-4.114-4.938-5.893-5.836-.973-.49-1.759.416-1.364,1.589A26.735,26.735,0,0,0,194,322.586c-2.212-1.214-3.994-3.479-5.937-4.546a1.237,1.237,0,0,0-1.613.661,1.773,1.773,0,0,0,.157,1.837c1.514,2.007,3.169,4.688,4.683,6.695a15.549,15.549,0,0,0-6.677-2.918c-.377-.079-.933.48-1.082.907a3.005,3.005,0,0,0,.829,2.53c4.547,3.917,8.324,8.133,12.87,12.051,3.145-2.318,5.778-3.754,9.631-7.9" transform="translate(-85.618 -130.936)" fill="#b87e5a"/>
          <path id="Trazado_874783" data-name="Trazado 874783" d="M262.675,380.355c1.354,2.06,2.58,7.259,3.124,10.54" transform="translate(-122.582 -159.872)" fill="none" stroke="#000" stroke-linecap="round" stroke-linejoin="round" stroke-width="1"/>
          <path id="Trazado_874784" data-name="Trazado 874784" d="M437.356,317.862c3.73,1.219,13.146,12.737,17.6,20.795,4.306,7.788,8.6,16.39,14.5,25.28,6.966-5.924,13.236-14.5,20.576-22.133,2.175-2.365,7.927,2.544,10.258,8.554-3.686,7.38-13.5,19.2-20.034,28.985-3.6,5.4-8.288,11.387-14.412,10.974-3.231-.217-6.169-2.314-8.233-5.027s-6.1-11.669-7.661-14.755c-7.981-15.8-17.53-31.894-16.431-44.607.381-4.418.568-9.133,3.832-8.066" transform="translate(-202.271 -133.541)" fill="#b87e5a"/>
          <path id="Trazado_874785" data-name="Trazado 874785" d="M538.879,349.864c1.252-3.385,2-7.066,3.254-10.452.579-1.565,1.984-3.959,2.509-3.82.621.164.756.7.691,1.509s-.7,4.686-.715,5.688c1.784-2.933,4.328-8.042,6.818-10.019a2.517,2.517,0,0,1,1.091-.6.767.767,0,0,1,.889.6,2.093,2.093,0,0,1-.428,1.382l-3.637,6.026c2.185-1.794,4.65-4.088,6.421-4.69.967-.329,1.5.633.912,1.685a27.953,27.953,0,0,1-4.46,5.67c2.22-.841,4.258-2.73,6.208-3.469.72-.273,1.206.406,1.317.843a1.819,1.819,0,0,1-.5,1.709c-1.749,1.683-3.755,3.982-5.5,5.666a14.54,14.54,0,0,1,6.555-1.834c.354-.023.743.58.792,1a3.132,3.132,0,0,1-1.237,2.269c-4.839,3.068-9.046,6.522-13.886,9.589-2.366-2.614-4.447-4.329-7.093-8.761" transform="translate(-251.477 -139.616)" fill="#b87e5a"/>
          <path id="Trazado_874786" data-name="Trazado 874786" d="M495.775,397.348a63.864,63.864,0,0,0-5.58,9.752" transform="translate(-228.758 -167.014)" fill="none" stroke="#000" stroke-linecap="round" stroke-linejoin="round" stroke-width="1"/>
          <path id="Trazado_874787" data-name="Trazado 874787" d="M349.92,303.736c-10.661,12.837-27.842-.964-27.953-1.2-13.567,2.92-17.5,6.124-18.333,6.641-5.163,3.2-5.3,5.821-6.694,21.154-2.174,23.993-5.567,47.952-16.894,86.673,2.291,1.046,111.023,18.153,106.87-2.52-3.838-19.1-14.748-74.116-14.87-76.606-1.291-26.186-7.658-29.211-9.757-30.892,0,0-11.847-3.875-12.369-3.246" transform="translate(-130.688 -127.161)" fill="#5e332a"/>
          <path id="Trazado_874788" data-name="Trazado 874788" d="M432.35,309.682c8.7,2.343,14.535,10.963,19.614,18.993,6.06,9.581,9.329,19.85,15.389,29.431-.644,1.584-5.612,17.553-6.555,27.858s-2.615,21.75-10.163,28.071c-11.732-33.316-18.644-68.63-18.285-104.353" transform="translate(-201.757 -130.166)" fill="#5e332a"/>
          <path id="Trazado_874789" data-name="Trazado 874789" d="M298.385,316.647c-8.644,7.671-14.839,15.651-21.5,25.381-1.79,2.614-3.572,5.527-3.557,8.786.013,2.944,1.492,5.613,2.245,8.441,1.606,6.035,3.315,16.451,2.121,24.53-1.577,10.666.466,10.285,4.934,21.584,8.849-31.37,14.4-59.728,15.758-88.722" transform="translate(-127.553 -133.094)" fill="#5e332a"/>
          <path id="Trazado_874790" data-name="Trazado 874790" d="M453.9,363.5c-.925,9.8,12.429,63.233,12.429,66.169" transform="translate(-211.797 -152.788)" fill="none" stroke="#000" stroke-linecap="round" stroke-linejoin="round" stroke-width="1"/>
          <path id="Trazado_874791" data-name="Trazado 874791" d="M303.953,343.992s-8.508,55.247-13.512,70.25" transform="translate(-135.539 -144.588)" fill="none" stroke="#000" stroke-linecap="round" stroke-linejoin="round" stroke-width="1"/>
          <path id="Trazado_874792" data-name="Trazado 874792" d="M132.53,480.475l2.964-5.633" transform="translate(-61.847 -199.587)" fill="none" stroke="#000" stroke-linecap="round" stroke-linejoin="round" stroke-width="1"/>
          <path id="Trazado_874793" data-name="Trazado 874793" d="M323.4,460.332l11.7-66.019" transform="translate(-150.92 -165.739)" fill="none" stroke="#000" stroke-linecap="round" stroke-linejoin="round" stroke-width="1"/>
          <path id="Trazado_874794" data-name="Trazado 874794" d="M427.895,470.49a352.623,352.623,0,0,1-4.727-65.193" transform="translate(-197.444 -170.356)" fill="none" stroke="#000" stroke-linecap="round" stroke-linejoin="round" stroke-width="1"/>
          <path id="Trazado_874795" data-name="Trazado 874795" d="M158.659,310.777c0,1.4,2.778,72.014,5.957,85.906-10.109,1.727-51.754,5.029-60.173-.01,1.825-18.19,6.434-66.172,5.283-86.374-5.264-6.154-29.4-30.183-35.626-39.864-4.8-8.419,4.57-20.509,13.01-12.265,15.683,19.154,25.4,27.407,29.891,25.563,3.329-1.369,6.035-.566,7.763-4.291a13.344,13.344,0,0,0,.035-7.354,35.685,35.685,0,0,0,19.225.319c-.723,1.747-.328,4.112-.054,6,.793,5.468,4.337,3.673,12.176,6.02" transform="translate(-33.97 -107.357)" fill="#deab8c"/>
          <path id="Trazado_874796" data-name="Trazado 874796" d="M62.509,242.207a6.549,6.549,0,0,1-8.339-3.7L32.21,190.229c3.67-3.293,6.476-3.65,10.146-6.943,7.079,13.4,12.237,22.142,20.219,34.928C64.39,221.121,71.22,232,70.4,234.635a11.492,11.492,0,0,1-7.894,7.572" transform="translate(-15.031 -77.039)" fill="#deab8c"/>
          <path id="Trazado_874797" data-name="Trazado 874797" d="M44.068,180.94c-.473-1.749-2.607-7.811-2.924-9.6s-.219-3.262-1.879-3.52a7.96,7.96,0,0,0-4.134.515c-1.42.873-2.9,2.1-3.09,3.859-.12,1.112-.4,3.159-.525,4.271-.407,3.774-1.169,7.3.429,8.313,3.85,2.443,11.433-2.012,12.123-3.836" transform="translate(-14.455 -70.509)" fill="#deab8c"/>
          <path id="Trazado_874798" data-name="Trazado 874798" d="M36.873,173.411c-1.376,1.6-1.321,4.1-.843,6.232s1.3,4.23,1.159,6.415c-.159,2.52-1.563,4.721-2.956,6.744q-2.323,3.374-4.8,6.623c.831-3.788-.551-7.679-1.748-11.348s-2.212-7.814-.719-11.354a6.774,6.774,0,0,1,9.9-3.312" transform="translate(-12.238 -72.441)" fill="#ffd900"/>
          <path id="Trazado_874799" data-name="Trazado 874799" d="M45.442,180.414c-2.168-6.447-.588-8.135-1.373-10.842-.1-.353-1.542-2.492-4.8-2.059-2.164.287-3.636,1.817-4.7,3.884-.575,1.117.439,2.48,1.547,2.048a13.585,13.585,0,0,1,1.33-.366c.822-.218,2.579-.961,2.782-.515a19.28,19.28,0,0,1,.518,3.054c.1,1.773.205,1.483.308,3.255a12.74,12.74,0,0,1,4.386,1.541" transform="translate(-16.055 -70.385)" fill="#deab8c"/>
          <path id="Trazado_874800" data-name="Trazado 874800" d="M41.238,167.745c-4.678-.417-6.116,1.4-7.191,3.916-.212.493-.462,1.75-.127,2.155a1.236,1.236,0,0,0,1.663.327c1.671-.719,3.519-1.313,4.582-1.849" transform="translate(-15.753 -70.482)" fill="none" stroke="#000" stroke-linecap="round" stroke-linejoin="round" stroke-width="1"/>
          <path id="Trazado_874801" data-name="Trazado 874801" d="M17.13,176.776a2.151,2.151,0,0,1,.723-3.055,34.411,34.411,0,0,1,7.89-3.651,1.759,1.759,0,0,1,2.1.355,1.4,1.4,0,0,1-.041,1.586c-.239.438-.126.663-.531.974a29.262,29.262,0,0,1-4.432,2.821,11.882,11.882,0,0,1-3.878,1.674,1.846,1.846,0,0,1-1.827-.7" transform="translate(-7.821 -71.41)" fill="#deab8c"/>
          <path id="Trazado_874802" data-name="Trazado 874802" d="M20.736,179.755c2.326-1.291,4.027-2.371,6.663-2.774,2.87-.439,2.845,1.5,2.6,1.664a41.685,41.685,0,0,1-5.653,3.407,5.689,5.689,0,0,1-2.213.635,2,2,0,0,1-1.881-.963,1.79,1.79,0,0,1,.49-1.967" transform="translate(-9.395 -74.362)" fill="#deab8c"/>
          <path id="Trazado_874803" data-name="Trazado 874803" d="M24.817,183.458a2.021,2.021,0,0,0-.536,2.56,1.738,1.738,0,0,0,1.58.579,5.235,5.235,0,0,0,1.664-.578c1.941-.931,4.074-1.616,4.7-2.58,2.205-3.375-.15-3.724-1.427-3.037-1.8.969-4.134,1.393-5.985,3.056" transform="translate(-11.204 -75.705)" fill="#deab8c"/>
          <path id="Trazado_874804" data-name="Trazado 874804" d="M27.3,188.366l5.65-2.759a2.655,2.655,0,0,1,2.2-.362,1.91,1.91,0,0,1,.824,2.194c-.241.94-4.251,3-5.65,3.56-1.053.42-2.615,1.544-3.379.021a3.051,3.051,0,0,1,.354-2.655" transform="translate(-12.494 -77.809)" fill="#deab8c"/>
          <path id="Trazado_874805" data-name="Trazado 874805" d="M29.279,170.1c.441-.134,1.063.476,1.191.954a1.7,1.7,0,0,1-.319,1.393,4.116,4.116,0,0,1-1.061.934,35.737,35.737,0,0,1-7.371,3.863" transform="translate(-10.136 -71.488)" fill="none" stroke="#000" stroke-linecap="round" stroke-linejoin="round" stroke-width="1"/>
          <path id="Trazado_874806" data-name="Trazado 874806" d="M29.539,177.224a3.366,3.366,0,0,1,1.679-.245A1.311,1.311,0,0,1,32.3,178.22c-.026.71-.7,1.149-1.3,1.448q-2.94,1.483-5.954,2.784" transform="translate(-11.688 -74.373)" fill="none" stroke="#000" stroke-linecap="round" stroke-linejoin="round" stroke-width="1"/>
          <path id="Trazado_874807" data-name="Trazado 874807" d="M33.4,180.136c.549-.133,2.045.383,1.8,1.643a2.792,2.792,0,0,1-1.413,1.923c-.506.268-1.377.625-1.894.867l-4.074,1.911" transform="translate(-12.985 -75.707)" fill="none" stroke="#000" stroke-linecap="round" stroke-linejoin="round" stroke-width="1"/>
          <path id="Trazado_874808" data-name="Trazado 874808" d="M38.229,186.09c.349-.409.565-.909,1.375-.686.426.117,1.367,1.094,1.122,1.747-.571,1.519-3.757,3.014-4.658,3.36" transform="translate(-16.832 -77.906)" fill="none" stroke="#000" stroke-linecap="round" stroke-linejoin="round" stroke-width="1"/>
          <path id="Trazado_874809" data-name="Trazado 874809" d="M96.072,253.552c-19.553-14.96-32.423-35.5-44.617-58.007l-7.817,8.463c-.685.742-3.013,2.676-3.013,2.676a26.086,26.086,0,0,1,1.75,3.739c9.818,29.791,27.886,56.432,51.559,74.3q-2.608,16.728-3.771,33.672c-.222,3.238-.249,7.732,2.1,9.74a12.66,12.66,0,0,0,5.052,1.988c17.574,3.377,34.566,4.429,52.395,5.286-.58-14.435-1.161-28.87-1.653-42.614q-1.021-13.777-3.1-27.427c-.3-1.956-.682-4.054-2.009-5.414a7.853,7.853,0,0,0-5.79-2.25c-2.237-.075-3.154-.451-6.562-2.067L121.2,270.466s-11.926-14.846-11.945-15.286c-2.67.854-3.28.737-6.182,1.465-1.731.434-5.278-1.773-7-3.094" transform="translate(-18.958 -82.192)" fill="#fff"/>
          <path id="Trazado_874810" data-name="Trazado 874810" d="M144.132,327.1q-1.2,6.294-2.77,12.5" transform="translate(-65.969 -137.486)" fill="none" stroke="#000" stroke-linecap="round" stroke-linejoin="round" stroke-width="1"/>
          <path id="Trazado_874811" data-name="Trazado 874811" d="M57.349,207.5a120.294,120.294,0,0,0-11.483,10.1" transform="translate(-21.404 -87.215)" fill="none" stroke="#000" stroke-linecap="round" stroke-linejoin="round" stroke-width="1"/>
          <path id="Trazado_874812" data-name="Trazado 874812" d="M238.638,341.484c.692,4.463,1.13,8.184,1.821,12.648" transform="translate(-111.364 -143.534)" fill="none" stroke="#000" stroke-linecap="round" stroke-linejoin="round" stroke-width="1"/>
          <path id="Trazado_874813" data-name="Trazado 874813" d="M186.91,314.582l1.708,7.193-4.632-5.371a7.415,7.415,0,0,1,2.924-1.822" transform="translate(-85.86 -132.226)" fill="#fff"/>
          <path id="Trazado_874814" data-name="Trazado 874814" d="M201.739,298.283c2.435.949,3.8,1.173,6.237,2.122l-10.6,14.428-3.618-6.437c2.647-2.956,5.129-6.226,7.986-10.114" transform="translate(-90.418 -125.375)" fill="#fff"/>
          <path id="Trazado_874815" data-name="Trazado 874815" d="M195.228,319.146a38.958,38.958,0,0,1-3.8,1.961q.662-2.944,1.325-5.888a26.794,26.794,0,0,0,2.475,3.927" transform="translate(-89.333 -132.494)" fill="#fff"/>
          <path id="Trazado_874816" data-name="Trazado 874816" d="M160.36,301.45c2.794,3.513,6.788,7.026,9.582,10.538l5.4-2.966" transform="translate(-74.835 -126.706)" fill="none" stroke="#000" stroke-linecap="round" stroke-linejoin="round" stroke-width="1"/>
          <path id="Trazado_874817" data-name="Trazado 874817" d="M183.125,317.077l3.581,4.863" transform="translate(-85.458 -133.275)" fill="none" stroke="#000" stroke-linecap="round" stroke-linejoin="round" stroke-width="1"/>
          <path id="Trazado_874818" data-name="Trazado 874818" d="M189.81,322.745c-1.711,9.24-1.791,18.732-1.864,28.156-.052,6.7.265,35.631.265,35.631" transform="translate(-87.705 -135.657)" fill="none" stroke="#000" stroke-linecap="round" stroke-linejoin="round" stroke-width="1"/>
          <path id="Trazado_874819" data-name="Trazado 874819" d="M194.12,310.325c1.1,1.277,3.2,3.486,4.174,4.879L208,302.691" transform="translate(-90.589 -127.228)" fill="none" stroke="#000" stroke-linecap="round" stroke-linejoin="round" stroke-width="1"/>
          <path id="Trazado_874820" data-name="Trazado 874820" d="M195.59,320.524c-5.036,21.11-2.257,43.277-2.257,65.075" transform="translate(-89.865 -134.724)" fill="none" stroke="#000" stroke-linecap="round" stroke-linejoin="round" stroke-width="1"/>
          <path id="Trazado_874821" data-name="Trazado 874821" d="M175.373,306.614l-10.619-11s-5.147,3.215-5.451,3.532l12.132,13.965c1.236-1.926,2.473-3.852,3.938-6.5" transform="translate(-74.341 -124.253)" fill="#fff"/>
          <path id="Trazado_874822" data-name="Trazado 874822" d="M160.014,429.867c-11.8-.246-24.226-4.777-25.463-5.238-3.148,39.7-3.692,37.562-3.692,47.964,23.086,5.852,38.96,4.6,60.957-.419,0-18-.1-41.7-.1-41.7s-13.522,1.959-25.811-.091a40.918,40.918,0,0,0-5.887-.517" transform="translate(-61.068 -178.481)" fill="#fff"/>
          <path id="Trazado_874823" data-name="Trazado 874823" d="M184.543,439.854c.092,4.538.131,19.262-.021,21.075-.123,1.456,1.892,1.672,2.718,1.48" transform="translate(-86.107 -184.881)" fill="none" stroke="#000" stroke-linecap="round" stroke-linejoin="round" stroke-width="1"/>
          <path id="Trazado_874824" data-name="Trazado 874824" d="M190.5,441.354c.153,11.356-.8,25.884-.65,37.24" transform="translate(-88.59 -185.511)" fill="none" stroke="#000" stroke-linecap="round" stroke-linejoin="round" stroke-width="1"/>
          <path id="Trazado_874825" data-name="Trazado 874825" d="M245.116,441.354c.153,11.356-.153,26.495,0,37.851" transform="translate(-114.367 -185.511)" fill="none" stroke="#000" stroke-linecap="round" stroke-linejoin="round" stroke-width="1"/>
          <path id="Trazado_874826" data-name="Trazado 874826" d="M134.565,431.823c-1.174,12.925-3.354,28.17-3.706,39.521" transform="translate(-61.068 -181.505)" fill="none" stroke="#000" stroke-linecap="round" stroke-linejoin="round" stroke-width="1"/>
          <path id="Trazado_874827" data-name="Trazado 874827" d="M136.568,428.8c14.967,5.181,30.91,5.723,46.611,6.222l9.261.294a2.708,2.708,0,0,0,1.877-.409c.786-.656.62-4.639-.37-4.584-2.824.158-38.539.629-55.381-5.087-.753-.256-1.86-1.436-2.345-.759-.9,1.249-.711,3.956.347,4.323" transform="translate(-63.303 -178.332)"/>
          <path id="Trazado_874828" data-name="Trazado 874828" d="M149.868,427.976q-.377,2.472-.753,4.943a.373.373,0,0,1-.113.26.308.308,0,0,1-.3-.025l-1.838-.832a13.837,13.837,0,0,0,.864-4.8c.532.1,1.063.2,2.138.457" transform="translate(-68.537 -179.696)" fill="#fff"/>
          <path id="Trazado_874829" data-name="Trazado 874829" d="M228.1,433.749c.165,1.85.33,4.13.495,5.98a.439.439,0,0,0,.1.3c.084.072.2.032.3-.011l1.879-.827a17.109,17.109,0,0,1-.613-5.4,9.649,9.649,0,0,0-2.159-.038" transform="translate(-106.449 -182.281)" fill="#fff"/>
          <path id="Trazado_874830" data-name="Trazado 874830" d="M190.375,310.608c3.6,1.134,10.093-4.488,13.39-8.643a9.7,9.7,0,0,0,1.783-3.513c.086-1.363-1.217-2.281-2.344-2.886-1.218-.655-2.705-1.3-3.864-.532a4.451,4.451,0,0,0-1.4,2.155c-1.793,4.456-6.154,7.379-7.566,13.419" transform="translate(-88.842 -123.862)" fill="#b30e19"/>
          <path id="Trazado_874831" data-name="Trazado 874831" d="M177.979,308.6c-2.175-5.516-4.9-8.314-9.252-12.012-1.331-1.133-2.846-2.2-4.537-2.233a3.3,3.3,0,0,0-3.379,3.244c.1,1.536,1.389,2.611,2.563,3.475,4.863,3.58,7.994,5.566,12.858,9.146a2.848,2.848,0,0,0,1.348.152c.292-.035.838-.657.4-1.772" transform="translate(-75.043 -123.724)" fill="#b30e19"/>
          <path id="Trazado_874832" data-name="Trazado 874832" d="M190.078,318.808a17.049,17.049,0,0,1,4.983,11.434,17.285,17.285,0,0,1-4.079,11.85c-.611-3.93-1.939-7.692-2.631-11.606s-.682-8.2,1.727-11.678" transform="translate(-87.712 -134.002)" fill="#b30e19"/>
          <path id="Trazado_874833" data-name="Trazado 874833" d="M183.816,316.69a15.764,15.764,0,0,0-8.4,8.76,17.761,17.761,0,0,0-.066,12.652c1.858-3.437,4.329-6.439,6.257-9.83s3.321-7.4,2.208-11.582" transform="translate(-81.302 -133.112)" fill="#b30e19"/>
          <path id="Trazado_874834" data-name="Trazado 874834" d="M151.241,187.962c-12.5-.52-25.164-1.024-37.362,1.98-3.327.819-6.891,2.126-8.7,5.272a10.578,10.578,0,0,0-.7,7.975,19.891,19.891,0,0,0,3.9,7.015c8.885,11,22.78,15.726,36.207,16.843,8.551.711,17.3.136,25.413-2.885a38.778,38.778,0,0,0,20.147-16.52c2.021-3.486,3.473-7.845,2.1-11.689-1.462-4.107-5.618-6.24-9.54-7.345-10.555-2.971-21.688-1.362-31.471-.647" transform="translate(-48.544 -78.55)" fill="#b87e5a"/>
          <path id="Trazado_874835" data-name="Trazado 874835" d="M229.794,235.12a6.81,6.81,0,0,1,7.718,2.349,6.46,6.46,0,0,1-.483,7.738,8.176,8.176,0,0,1-7.916,2.413,33.836,33.836,0,0,0,.681-12.5" transform="translate(-106.919 -98.659)" fill="#deab8c"/>
          <path id="Trazado_874836" data-name="Trazado 874836" d="M238.385,239.036a4.088,4.088,0,0,1,2.532,4.384" transform="translate(-111.246 -100.472)" fill="none" stroke="#000" stroke-linecap="round" stroke-linejoin="round" stroke-width="1"/>
          <path id="Trazado_874837" data-name="Trazado 874837" d="M239.567,241.282a9.913,9.913,0,0,1-.542,2.57,3.577,3.577,0,0,1-1.751,1.962" transform="translate(-110.728 -101.416)" fill="none" stroke="#000" stroke-linecap="round" stroke-linejoin="round" stroke-width="1"/>
          <path id="Trazado_874838" data-name="Trazado 874838" d="M145.3,233.694a6.819,6.819,0,0,0-7.753,2.245,6.459,6.459,0,0,0,.367,7.744,8.166,8.166,0,0,0,7.878,2.519,33.837,33.837,0,0,1-.493-12.508" transform="translate(-63.666 -98.047)" fill="#deab8c"/>
          <path id="Trazado_874839" data-name="Trazado 874839" d="M143.357,237a4.1,4.1,0,0,0-2.6,4.349" transform="translate(-65.666 -99.615)" fill="none" stroke="#000" stroke-linecap="round" stroke-linejoin="round" stroke-width="1"/>
          <path id="Trazado_874840" data-name="Trazado 874840" d="M142.448,239.2a9.906,9.906,0,0,0,.5,2.577,3.567,3.567,0,0,0,1.722,1.985" transform="translate(-66.476 -100.543)" fill="none" stroke="#000" stroke-linecap="round" stroke-linejoin="round" stroke-width="1"/>
          <path id="Trazado_874841" data-name="Trazado 874841" d="M170.042,185.556c3.646.191,12.477,1.812,17.033,6.16a25.72,25.72,0,0,1,6.379,12.16c1.123,7.139.693,17.778-1.457,24.7s-7.294,13.756-14.181,16.9a22.113,22.113,0,0,1-21.574-2.143c-6.717-4.839-9.147-13.4-9.3-21.373-.147-7.941-1.686-12.114-.329-19.944,1.37-7.9,6.311-17.362,23.425-16.467" transform="translate(-68.162 -77.969)" fill="#deab8c"/>
          <path id="Trazado_874842" data-name="Trazado 874842" d="M163.024,225.388a.22.22,0,0,1-.3-.321c1.73-1.964,3.091-2.278,5.082-2.971.91-.317,4.174-.574,5.123-.138.5.232,1.287.374.577,1.087a3.841,3.841,0,0,1-1.524.418c-3.313-1.406-6.546.493-8.962,1.925" transform="translate(-75.914 -93.197)"/>
          <path id="Trazado_874843" data-name="Trazado 874843" d="M219.316,224.15a.219.219,0,0,0,.276-.335c-1.842-1.872-3.22-2.115-5.247-2.7-.927-.27-4.2-.358-5.124.126-.489.257-1.263.441-.513,1.115a3.869,3.869,0,0,0,1.547.339c3.225-1.574,6.564.155,9.061,1.46" transform="translate(-97.251 -92.845)"/>
          <path id="Trazado_874844" data-name="Trazado 874844" d="M215.192,231.228a1.388,1.388,0,1,0-1.372,1.658,1.535,1.535,0,0,0,1.372-1.658" transform="translate(-99.154 -96.486)"/>
          <path id="Trazado_874845" data-name="Trazado 874845" d="M175.757,231.838a1.388,1.388,0,1,0-1.372,1.658,1.535,1.535,0,0,0,1.372-1.658" transform="translate(-80.751 -96.742)"/>
          <g id="Grupo_1101910" data-name="Grupo 1101910" transform="translate(85.576 137.972)" opacity="0.69">
            <g id="Grupo_1101909" data-name="Grupo 1101909">
              <g id="Grupo_1101908" data-name="Grupo 1101908" clip-path="url(#clip-path-6)">
                <path id="Trazado_874846" data-name="Trazado 874846" d="M170.38,241.7c.015-2.018-2.195-3.669-4.935-3.687s-4.974,1.6-4.99,3.621,2.195,3.669,4.935,3.688,4.974-1.6,4.989-3.621" transform="translate(-160.455 -238.015)" fill="#cf8d76"/>
              </g>
            </g>
          </g>
          <g id="Grupo_1101913" data-name="Grupo 1101913" transform="translate(112.246 137.646)" opacity="0.69">
            <g id="Grupo_1101912" data-name="Grupo 1101912">
              <g id="Grupo_1101911" data-name="Grupo 1101911" clip-path="url(#clip-path-6)">
                <path id="Trazado_874847" data-name="Trazado 874847" d="M220.386,241.141c.015-2.018-2.195-3.669-4.935-3.687s-4.974,1.6-4.99,3.621,2.195,3.669,4.935,3.688,4.974-1.6,4.989-3.621" transform="translate(-210.461 -237.453)" fill="#cf8d76"/>
              </g>
            </g>
          </g>
          <path id="Trazado_874848" data-name="Trazado 874848" d="M182.667,255.74a5.583,5.583,0,0,0,2.347,4.277,6.774,6.774,0,0,0,5.41.755,5.562,5.562,0,0,0,3.771-3.424" transform="translate(-85.245 -107.493)" fill="none" stroke="#000" stroke-linecap="round" stroke-linejoin="round" stroke-width="1"/>
          <path id="Trazado_874849" data-name="Trazado 874849" d="M195.134,223.708a25.729,25.729,0,0,0-.249,6.042,1.218,1.218,0,0,0,.393,1.006,1.923,1.923,0,0,0,1.139.1,2.836,2.836,0,0,1,2.723,2.085,3.668,3.668,0,0,1-.973,3.329,6.916,6.916,0,0,1-3.2,1.828" transform="translate(-90.913 -94.03)" fill="none" stroke="#000" stroke-linecap="round" stroke-linejoin="round" stroke-width="1"/>
          <path id="Trazado_874850" data-name="Trazado 874850" d="M191.116,255.262a21.647,21.647,0,0,1-.485,4.862,6.765,6.765,0,0,1-2.486,3.958,3.525,3.525,0,0,1-4.232-.048c-1.149-.982-.8-3.08-2.311-2.971a2.26,2.26,0,0,0-1.879,1.762,4.941,4.941,0,0,1-2.4,2.891,3.6,3.6,0,0,1-3-.31,6.809,6.809,0,0,1-2.449-4.067c-.38-3.332-.062-5.069-.485-7.055a.556.556,0,0,0-1.089-.041,48.979,48.979,0,0,0-1.66,12.51,10.71,10.71,0,0,0,1.591,6.058c1.311,2.086,1.781,2.134,4.086,2.506,4.755.768,10.6-.243,14.739-1.333a4.531,4.531,0,0,0,2.116-1.2,9.1,9.1,0,0,0,2.276-5.667,51.281,51.281,0,0,0-.325-11.772,3.3,3.3,0,0,0-.393-1.328.981.981,0,0,0-1.119-.483c-.405.161-.473.843-.494,1.726" transform="translate(-78.695 -106.547)"/>
          <path id="Trazado_874851" data-name="Trazado 874851" d="M195.847,248.385c2.714-.657,5.017-.687,6.862,1.023s2.2,3.792,2.089,7.1c-1.239-1.345-2.1-3.747-3.729-4.574a3.818,3.818,0,0,0-2.1-.285,6.615,6.615,0,0,1-4.177-.253c-1.108-.372-2.158-1.081-1.915-1.76s2.418-1.156,2.97-1.249" transform="translate(-89.993 -104.227)"/>
          <path id="Trazado_874852" data-name="Trazado 874852" d="M180.508,248.884c-2.845-.657-5.185-.583-7.193,1.023-3.587,2.868-1.391,4.9-.35,7.226.368-2.572.365-3.874,2.069-4.7a4.178,4.178,0,0,1,2.2-.285c1.442.133,3.116.634,4.378-.253.606-.426,1.486-1.358,1.23-2.038s-1.757-.878-2.335-.971" transform="translate(-79.959 -104.448)"/>
          <path id="Trazado_874853" data-name="Trazado 874853" d="M231.829,211.591c.465,4.246.925,8.755-.156,12.867-.147.556-.459,1.215-.99,1.188-.591-.03-.808-.846-.877-1.485a51.13,51.13,0,0,0-3.594-14.1c-.187-.45-.283-1.155.157-1.283a.737.737,0,0,1,.514.111,32.185,32.185,0,0,1,4.946,2.7" transform="translate(-105.493 -87.749)"/>
          <path id="Trazado_874854" data-name="Trazado 874854" d="M149.951,208.4a25.882,25.882,0,0,0-3.573,14.95c.032.481.037,1.059-.331,1.327-.557.406-1.221-.328-1.52-.981a19.518,19.518,0,0,1-1.752-8.036,8.093,8.093,0,0,1,.625-3.512c1.142-2.385,3.833-3.244,6.551-3.749" transform="translate(-66.629 -87.593)"/>
          <path id="Trazado_874855" data-name="Trazado 874855" d="M194.747,207.738c-2.907,1.676-6.511.595-9.433-1.049s-5.677-3.85-8.915-4.484c-3.921-.768-7.853.89-11.612,2.325s-7.933,2.667-11.647,1.1c6.634-2.411,13.491-4.345,20.483-4.567s16.6.527,21.125,6.673" transform="translate(-71.465 -84.498)"/>
          <path id="Trazado_874856" data-name="Trazado 874856" d="M193.224,177.79c.329-5.134-.487-9.77-4.2-12.4s-8.454-3.16-12.875-3.508c-3.878-.305-7.981-.476-11.428,1.48-4.813,2.731-7.034,8.779-8.871,14.333a199.33,199.33,0,0,1,37.376.093" transform="translate(-72.729 -67.965)" fill="#b87e5a"/>
          <path id="Trazado_874857" data-name="Trazado 874857" d="M184.6,208.333a46.375,46.375,0,0,0-30.586-13.9,43.134,43.134,0,0,0-31.378,11.624,50.166,50.166,0,0,1-12.43-7.008,5.154,5.154,0,0,1-2.3-3.1c-.248-1.711,1.02-3.217,2.282-4.275,5.676-4.757,13.081-6.405,20.245-6.646s14.319.783,21.486.725c11.329-.093,23.066-2.828,33.731,1.326,3.937,1.533,7.915,4.5,8.668,8.972a11.133,11.133,0,0,1-2.525,8.582c-1.882,2.339-4.417,3.942-7.193,3.708" transform="translate(-50.343 -77.666)" fill="#b87e5a"/>
          <path id="Trazado_874858" data-name="Trazado 874858" d="M157.383,184.985c5.283-.906,11.035.933,16.34,1.668,6.73.934,11.786-.977,20.274-1.889" transform="translate(-73.445 -77.65)" fill="none" stroke="#000" stroke-linecap="round" stroke-linejoin="round" stroke-width="1"/>
          <path id="Trazado_874859" data-name="Trazado 874859" d="M136.421,212.6c7.157-7.779,23.65-12.109,32.568-11.093a52.287,52.287,0,0,1,24.173,9.131" transform="translate(-63.663 -84.638)" fill="none" stroke="#000" stroke-linecap="round" stroke-linejoin="round" stroke-width="1"/>
          <path id="Trazado_874860" data-name="Trazado 874860" d="M568.75,303.643c-7.289-5.766-12.283-6.3-14.011-10.026a24.4,24.4,0,0,1-.134-9.985c-7.587,2.174-13.933,3.583-19.526,2.226a24.4,24.4,0,0,1,1.654,7.018c-.085,2.726-.394,4.008-1.667,5.219s-2.66,1.323-4.325,1.673c-12.332,2.6-13.022,45.85-16.108,81.223,10.108,1.727,19.506,4.226,29.077,5.186s19.641.252,28.06-4.787c-.172-17.815-.544-37.963-.544-52.44.1-14.491,1.162-22.426-2.477-25.305" transform="translate(-240.163 -119.217)" fill="#deab8c"/>
          <path id="Trazado_874861" data-name="Trazado 874861" d="M625.65,294.626q6.143,33.508,12.286,67.016c.319,1.743.6,3.713-.347,5.163a5.755,5.755,0,0,1-3.608,2.058,73.451,73.451,0,0,1-13.77,2.236c-1.386.091-3.032.006-3.791-1.257a4.765,4.765,0,0,1-.475-2.232l-1.36-28.114c-.371-7.663-.74-15.384.247-22.982s3.428-15.158,10.819-21.886" transform="translate(-286.625 -123.838)" fill="#ebebeb"/>
        </g>
      </g>
      <g id="Grupo_1101917" data-name="Grupo 1101917" transform="translate(327.572 170.788)">
        <g id="Grupo_1101916" data-name="Grupo 1101916" clip-path="url(#clip-path-8)">
          <path id="Trazado_874862" data-name="Trazado 874862" d="M640.048,337.628a331.208,331.208,0,0,1,6.69,50.326" transform="translate(-626.261 -312.701)" fill="none" stroke="#000" stroke-miterlimit="10" stroke-width="0.5"/>
          <path id="Trazado_874863" data-name="Trazado 874863" d="M635.787,344.947a369.923,369.923,0,0,1,5.422,47.2" transform="translate(-624.272 -315.777)" fill="none" stroke="#8c0811" stroke-miterlimit="10" stroke-width="1"/>
          <path id="Trazado_874864" data-name="Trazado 874864" d="M629.346,346.4c2.635,16.375,4.461,32.9,5.467,49.492" transform="translate(-621.267 -316.386)" fill="none" stroke="#000" stroke-miterlimit="10" stroke-width="0.5"/>
          <path id="Trazado_874865" data-name="Trazado 874865" d="M637.386,349.1a121.878,121.878,0,0,1-15.827,8.117" transform="translate(-617.633 -317.522)" fill="none" stroke="#8c0811" stroke-miterlimit="10" stroke-width="1"/>
          <path id="Trazado_874866" data-name="Trazado 874866" d="M640.789,358.518l-14.855,7.047" transform="translate(-619.674 -321.481)" fill="none" stroke="#000" stroke-miterlimit="10" stroke-width="0.5"/>
          <path id="Trazado_874867" data-name="Trazado 874867" d="M642,370.971l-16.1,7.076" transform="translate(-619.657 -326.716)" fill="none" stroke="#8c0811" stroke-miterlimit="10" stroke-width="1"/>
          <path id="Trazado_874868" data-name="Trazado 874868" d="M642.935,382.251l-16.9,5.768" transform="translate(-619.721 -331.457)" fill="none" stroke="#000" stroke-miterlimit="10" stroke-width="0.5"/>
          <path id="Trazado_874869" data-name="Trazado 874869" d="M644.569,393.919l-17.935,6.218" transform="translate(-620.001 -336.361)" fill="none" stroke="#8c0811" stroke-miterlimit="10" stroke-width="1"/>
          <path id="Trazado_874870" data-name="Trazado 874870" d="M647.752,405.6l-15.582,6.276" transform="translate(-622.585 -341.272)" fill="none" stroke="#000" stroke-miterlimit="10" stroke-width="0.5"/>
        </g>
      </g>
      <g id="Grupo_1101919" data-name="Grupo 1101919">
        <g id="Grupo_1101918" data-name="Grupo 1101918" clip-path="url(#clip-path-3)">
          <path id="Trazado_874872" data-name="Trazado 874872" d="M509.731,438.3a126.449,126.449,0,0,0,55.765-.107c.941,13.388,1.882,26.777,2.093,39.815-7.474.719-21.793.991-29.3,1.087-1.44-7.329-1.339-15.467-1.772-16.51-2.5,7.146-1.916,9.172-4.115,16.824l-32.286-1.6Z" transform="translate(-233.387 -184.181)"/>
          <path id="Trazado_874873" data-name="Trazado 874873" d="M569.641,308.487c8.286,25.36,6.006,86.222,3.731,87.2-4.923.582-13.4,1.187-20,1.36a112.258,112.258,0,0,1-39.9-6.026c-3.522-3.828,3.555-47.429,5.671-78.092,5.389-1.686,9.842-3.4,15.23-5.084.939,5.794,5.813,10.548,11.214,10.938s10.411-4.125,12.046-9.733a22.65,22.65,0,0,0,12-.561" transform="translate(-239.171 -129.393)" fill="#8dbce3"/>
          <path id="Trazado_874874" data-name="Trazado 874874" d="M660.217,249.352c2.007,1.2,7.517-11.158,11.426-23.681,2.051-6.571,4.007-14.848,5.593-21.569l-7.308-5.272c-1.4-1.013-4.747-2.908-4.615-2.108,1.65,9.97-3.439,19.658-6.391,27.315a116.443,116.443,0,0,1-9.81,18.376c-.728,1.041,1.737,1.347,11.106,6.939" transform="translate(-302.863 -82.606)" fill="#deab8c"/>
          <path id="Trazado_874875" data-name="Trazado 874875" d="M692.325,196.46l3.817-6.833c1.2-2.155,2.454-4.521,2.19-7.027a7.63,7.63,0,0,0-3.651-5.458,17.178,17.178,0,0,0-6.119-2.054,5.723,5.723,0,0,0-3.538.117,4.376,4.376,0,0,0-2.059,2.5,11.174,11.174,0,0,0-.547,3.375,33.788,33.788,0,0,0,.566,7.713,6.5,6.5,0,0,0,4.746,5.953,30.092,30.092,0,0,0,4.593,1.71" transform="translate(-318.449 -73.5)" fill="#deab8c"/>
          <path id="Trazado_874876" data-name="Trazado 874876" d="M687.156,182.544c4.886-.462,9.263,3.227,12.525,7.208s6.133,8.6,10.466,11.094a13.112,13.112,0,0,1-11.924,1.365c-3.942-1.349-7.358-4.1-10.359-7.193a14.44,14.44,0,0,1-3.732-5.546c-.687-2.19-.83-6.562,3.025-6.927" transform="translate(-319.084 -76.711)" fill="#ffd900"/>
          <path id="Trazado_874877" data-name="Trazado 874877" d="M698.457,182.448a18.934,18.934,0,0,0,1.243-4.716,3.3,3.3,0,0,0-.167-2.023,2.333,2.333,0,0,0-2.549-.908,8.2,8.2,0,0,0-.293-1.691,2.563,2.563,0,0,0-.927-1.359,1.336,1.336,0,0,0-1.547-.006c-.388-3.564-4.844-2.137-4.844-2.137s-4.456-4.939-5.694,1.613c-.789,4.175-.389,1.578-.489,5.839,1.5,2.491,3.255,1.878,4.094,1.2.131-.106-.272,2.378.784,2.716,1.178.377,2.693-1.514,2.664-1.436-.839,2.275.24,2.982.661,2.982,1.468,0,3.038-3.571,2.9-3.112-.055.189-.592,3.312,1,3.8.7.213,2.268-1.875,2.3-1.8.1.209.05.162.861,1.043" transform="translate(-318.815 -70.539)" fill="#deab8c"/>
          <path id="Trazado_874878" data-name="Trazado 874878" d="M701.026,181.234c-.687,1-1.287,2.829-2.252,3.505-.311.219-1.151.922-1.795.224a1.449,1.449,0,0,1-.287-1.253c.624-3.419,3.061-6.094,4.254-9.329" transform="translate(-325.108 -73.296)" fill="none" stroke="#000" stroke-linecap="round" stroke-linejoin="round" stroke-width="1"/>
          <path id="Trazado_874879" data-name="Trazado 874879" d="M694.4,170.882l-.444,1.577" transform="translate(-323.846 -71.826)" fill="none" stroke="#000" stroke-linecap="round" stroke-linejoin="round" stroke-width="1"/>
          <path id="Trazado_874880" data-name="Trazado 874880" d="M691.57,182.074a7.5,7.5,0,0,0-.469,2.889c-.138,1.5.732,2.3,1.414,2.032a6.44,6.44,0,0,0,2.088-2.436" transform="translate(-322.507 -76.53)" fill="none" stroke="#000" stroke-linecap="round" stroke-linejoin="round" stroke-width="1"/>
          <path id="Trazado_874881" data-name="Trazado 874881" d="M689.653,185.022c-.114.576-1.126,1.479-1.824,1.015" transform="translate(-320.987 -77.769)" fill="none" stroke="#000" stroke-linecap="round" stroke-linejoin="round" stroke-width="1"/>
          <path id="Trazado_874882" data-name="Trazado 874882" d="M708.018,184.791a11.565,11.565,0,0,1-1.839,2.931,2.03,2.03,0,0,1-1.542.857c-.573-.008-1.44-1.012-.947-3,.625-2.522,1.23-3.23,2.552-5.412" transform="translate(-328.321 -75.729)" fill="none" stroke="#000" stroke-linecap="round" stroke-linejoin="round" stroke-width="1"/>
          <path id="Trazado_874883" data-name="Trazado 874883" d="M686.594,173.691c-.767-1.652-4.363.845-6.36,2.685-.994.915-4.493,3.366-3,7.751a39.151,39.151,0,0,0,2.455,5.579c.315.6.721,1.249,1.347,1.358-1.783-14.435,9.971-13.77,5.557-17.374" transform="translate(-315.872 -72.779)" fill="#deab8c"/>
          <path id="Trazado_874884" data-name="Trazado 874884" d="M683.438,176.2c1.007-.821,2.694-2.959,4.221-2.857a4.115,4.115,0,0,1,2.927,1.091c1.387,1.843-2.328,3.654-2.62,3.836-1.45.907-3.131,4.386-4.064,7.594" transform="translate(-318.938 -72.857)" fill="none" stroke="#000" stroke-linecap="round" stroke-linejoin="round" stroke-width="1"/>
          <path id="Trazado_874885" data-name="Trazado 874885" d="M607.536,289.465c8.182-4.763,20.82-23.946,30.708-40.123,3.261,1.963,8.779,3.4,13.186,4.732-6.965,22.223-19.841,42.228-32.286,63.507-3.06-8.549-9.144-19.585-11.607-28.116" transform="translate(-283.517 -104.804)" fill="#8dbce3"/>
          <path id="Trazado_874886" data-name="Trazado 874886" d="M586.117,304.932c1.991-.689,6.456,3.23,6.456,3.23s-3.451,7.723-6.436,10.59c-1.949.656-4.949-2.061-7.016-1.347-.027-.452,5.9-9.837,7-12.473" transform="translate(-270.256 -128.136)" fill="#8dbce3"/>
          <path id="Trazado_874887" data-name="Trazado 874887" d="M550.292,303.4c2.476,5,5.171,10.933,7.549,13.025-1.966-.694-6.626,1.565-7.976,1.716.066-.57-3.653-6.247-5.8-10.59a37.625,37.625,0,0,1,6.23-4.152" transform="translate(-253.896 -127.526)" fill="#8dbce3"/>
          <path id="Trazado_874888" data-name="Trazado 874888" d="M544.087,311.2a85.723,85.723,0,0,0,8.714,15.087l5.365-6.016" transform="translate(-253.907 -130.804)" fill="none" stroke="#000" stroke-linecap="round" stroke-linejoin="round" stroke-width="1"/>
          <path id="Trazado_874889" data-name="Trazado 874889" d="M586.757,309.84l-7.166,18.029c-2.09-2.724-4.9-6.934-6.559-8.365-4.328,25.231-6.266,52.431-6.959,78.085" transform="translate(-264.167 -130.233)" fill="none" stroke="#000" stroke-linecap="round" stroke-linejoin="round" stroke-width="1"/>
          <path id="Trazado_874890" data-name="Trazado 874890" d="M565.3,326.826a385.193,385.193,0,0,0-7.049,77.356" transform="translate(-260.506 -137.372)" fill="none" stroke="#000" stroke-linecap="round" stroke-linejoin="round" stroke-width="1"/>
          <path id="Trazado_874891" data-name="Trazado 874891" d="M627.243,346.763a67.782,67.782,0,0,1,1.086,11.617" transform="translate(-292.713 -145.752)" fill="none" stroke="#000" stroke-linecap="round" stroke-linejoin="round" stroke-width="1"/>
          <path id="Trazado_874892" data-name="Trazado 874892" d="M522.663,349.784c-1.9,6.7-3.312,13.779-4.73,18.771" transform="translate(-241.702 -147.022)" fill="none" stroke="#000" stroke-linecap="round" stroke-linejoin="round" stroke-width="1"/>
          <path id="Trazado_874893" data-name="Trazado 874893" d="M602.639,292.886c.841,28.79,1.431,56.9,2.271,85.689-12.787-1.363-26.093-2.659-37.98,1.388,2.546-24.01,5.1-48.092,10.338-71.583.732-3.282,1.808-6.953,4.621-8.386,2.011-1.025,4.354-.592,6.576-.585,5.185.016,7.225-5.432,14.175-6.523" transform="translate(-264.567 -123.107)" fill="#fff"/>
        </g>
      </g>
      <g id="Grupo_1101921" data-name="Grupo 1101921" transform="translate(302.363 169.779)">
        <g id="Grupo_1101920" data-name="Grupo 1101920" clip-path="url(#clip-path-10)">
          <path id="Trazado_874894" data-name="Trazado 874894" d="M588.344,302.944A440.926,440.926,0,0,0,576.1,382.583" transform="translate(-571.21 -297.114)" fill="none" stroke="#000" stroke-miterlimit="10" stroke-width="0.5"/>
          <path id="Trazado_874895" data-name="Trazado 874895" d="M596.092,303a435.036,435.036,0,0,0-11.712,78.674" transform="translate(-575.074 -297.137)" fill="none" stroke="#b30e19" stroke-miterlimit="10" stroke-width="1"/>
          <path id="Trazado_874896" data-name="Trazado 874896" d="M605.064,301.545a502.9,502.9,0,0,0-10.42,79.306" transform="translate(-579.864 -296.526)" fill="none" stroke="#000" stroke-miterlimit="10" stroke-width="0.5"/>
          <path id="Trazado_874897" data-name="Trazado 874897" d="M613.422,296.425a704.914,704.914,0,0,0-8.821,82.943" transform="translate(-584.51 -294.374)" fill="none" stroke="#b30e19" stroke-miterlimit="10" stroke-width="1"/>
          <path id="Trazado_874898" data-name="Trazado 874898" d="M622.534,293.513a610.653,610.653,0,0,0-5.954,84.262" transform="translate(-590.101 -293.15)" fill="none" stroke="#000" stroke-miterlimit="10" stroke-width="0.5"/>
          <path id="Trazado_874899" data-name="Trazado 874899" d="M630.178,293.107q-2.046,42.117-2.188,84.308" transform="translate(-595.425 -292.979)" fill="none" stroke="#b30e19" stroke-miterlimit="10" stroke-width="1"/>
          <path id="Trazado_874900" data-name="Trazado 874900" d="M605.234,430a64.783,64.783,0,0,0-37.734,1.9" transform="translate(-567.197 -349.699)" fill="none" stroke="#000" stroke-miterlimit="10" stroke-width="0.5"/>
          <path id="Trazado_874901" data-name="Trazado 874901" d="M606.049,419.834a60.618,60.618,0,0,0-37.081,2.222" transform="translate(-567.882 -345.443)" fill="none" stroke="#b30e19" stroke-miterlimit="10" stroke-width="1"/>
          <path id="Trazado_874902" data-name="Trazado 874902" d="M605.014,411.756a69.908,69.908,0,0,0-37.961,2.057" transform="translate(-566.988 -342.133)" fill="none" stroke="#000" stroke-miterlimit="10" stroke-width="0.5"/>
          <path id="Trazado_874903" data-name="Trazado 874903" d="M568.42,404.762a89.036,89.036,0,0,1,38.27-2.541" transform="translate(-567.626 -338.417)" fill="none" stroke="#b30e19" stroke-miterlimit="10" stroke-width="1"/>
          <path id="Trazado_874904" data-name="Trazado 874904" d="M570.733,395.122a270.1,270.1,0,0,1,36.258-1.216" transform="translate(-568.705 -335.283)" fill="none" stroke="#000" stroke-miterlimit="10" stroke-width="0.5"/>
          <path id="Trazado_874905" data-name="Trazado 874905" d="M572.541,386.744a125.484,125.484,0,0,1,34.8-.659" transform="translate(-569.549 -331.679)" fill="none" stroke="#b30e19" stroke-miterlimit="10" stroke-width="1"/>
          <path id="Trazado_874906" data-name="Trazado 874906" d="M574.13,377.088a117.611,117.611,0,0,1,34.244.007" transform="translate(-570.291 -327.753)" fill="none" stroke="#000" stroke-miterlimit="10" stroke-width="0.5"/>
          <path id="Trazado_874907" data-name="Trazado 874907" d="M573.642,368.38q16.869-1.213,33.789-1.017" transform="translate(-570.063 -324.179)" fill="none" stroke="#b30e19" stroke-miterlimit="10" stroke-width="1"/>
          <path id="Trazado_874908" data-name="Trazado 874908" d="M575.614,359.85a175.931,175.931,0,0,1,32.131-.817" transform="translate(-570.983 -320.528)" fill="none" stroke="#000" stroke-miterlimit="10" stroke-width="0.5"/>
          <path id="Trazado_874909" data-name="Trazado 874909" d="M578.755,352.233A251.176,251.176,0,0,1,608.51,351" transform="translate(-572.449 -317.295)" fill="none" stroke="#b30e19" stroke-miterlimit="10" stroke-width="1"/>
          <path id="Trazado_874910" data-name="Trazado 874910" d="M580,342.612a209.725,209.725,0,0,1,30.075-.653" transform="translate(-573.029 -313.402)" fill="none" stroke="#000" stroke-miterlimit="10" stroke-width="0.5"/>
          <path id="Trazado_874911" data-name="Trazado 874911" d="M581.544,332.24a140.022,140.022,0,0,1,29.259-.726" transform="translate(-573.75 -308.935)" fill="none" stroke="#b30e19" stroke-miterlimit="10" stroke-width="1"/>
          <path id="Trazado_874912" data-name="Trazado 874912" d="M583.454,323.087a116.11,116.11,0,0,1,28.292-.8" transform="translate(-574.642 -305.029)" fill="none" stroke="#000" stroke-miterlimit="10" stroke-width="0.5"/>
          <path id="Trazado_874913" data-name="Trazado 874913" d="M585.9,313.025a125.727,125.727,0,0,1,27.006-1.95" transform="translate(-575.781 -300.497)" fill="none" stroke="#b30e19" stroke-miterlimit="10" stroke-width="1"/>
          <path id="Trazado_874914" data-name="Trazado 874914" d="M591.857,303.248a54.545,54.545,0,0,0,22.7-4.905" transform="translate(-578.563 -295.18)" fill="none" stroke="#000" stroke-miterlimit="10" stroke-width="0.5"/>
        </g>
      </g>
      <g id="Grupo_1101929" data-name="Grupo 1101929">
        <g id="Grupo_1101928" data-name="Grupo 1101928" clip-path="url(#clip-path-3)">
          <path id="Trazado_874916" data-name="Trazado 874916" d="M530.9,199.37c-12.5-.52-25.164-1.024-37.362,1.98-3.327.819-6.891,2.126-8.7,5.272a10.579,10.579,0,0,0-.7,7.975,19.89,19.89,0,0,0,3.9,7.015c8.885,11,22.78,15.726,36.207,16.843,8.552.711,17.3.136,25.413-2.885a38.778,38.778,0,0,0,20.147-16.52c2.021-3.486,3.473-7.845,2.1-11.689-1.462-4.107-5.618-6.24-9.54-7.344-10.555-2.971-21.688-1.362-31.472-.647" transform="translate(-225.719 -83.345)" fill="#945848"/>
          <path id="Trazado_874917" data-name="Trazado 874917" d="M521.646,242.419a7.1,7.1,0,0,0-8.042,2.447,6.732,6.732,0,0,0,.5,8.063,8.519,8.519,0,0,0,8.247,2.514,35.254,35.254,0,0,1-.709-13.024" transform="translate(-239.165 -101.72)" fill="#deab8c"/>
          <path id="Trazado_874918" data-name="Trazado 874918" d="M520.147,246.9a4.26,4.26,0,0,0-2.638,4.568" transform="translate(-241.476 -103.779)" fill="none" stroke="#000" stroke-linecap="round" stroke-linejoin="round" stroke-width="1"/>
          <path id="Trazado_874919" data-name="Trazado 874919" d="M519.186,249.242a10.344,10.344,0,0,0,.564,2.678,3.729,3.729,0,0,0,1.825,2.045" transform="translate(-242.287 -104.762)" fill="none" stroke="#000" stroke-linecap="round" stroke-linejoin="round" stroke-width="1"/>
          <path id="Trazado_874920" data-name="Trazado 874920" d="M609.779,240.934a7.1,7.1,0,0,1,8.077,2.34,6.729,6.729,0,0,1-.383,8.068,8.507,8.507,0,0,1-8.209,2.625,35.241,35.241,0,0,0,.515-13.032" transform="translate(-284.323 -101.083)" fill="#deab8c"/>
          <path id="Trazado_874921" data-name="Trazado 874921" d="M619.108,244.777a4.267,4.267,0,0,1,2.706,4.532" transform="translate(-288.917 -102.885)" fill="none" stroke="#000" stroke-linecap="round" stroke-linejoin="round" stroke-width="1"/>
          <path id="Trazado_874922" data-name="Trazado 874922" d="M620.439,247.076a10.351,10.351,0,0,1-.524,2.685,3.722,3.722,0,0,1-1.794,2.068" transform="translate(-288.456 -103.852)" fill="none" stroke="#000" stroke-linecap="round" stroke-linejoin="round" stroke-width="1"/>
          <path id="Trazado_874923" data-name="Trazado 874923" d="M548.776,190.777c-3.8.2-13,1.888-17.748,6.418a26.806,26.806,0,0,0-6.646,12.671c-1.17,7.438-.721,18.523,1.518,25.74a27.782,27.782,0,0,0,14.6,17.043c7.176,3.279,16.319,2.9,22.656-1.664,7-5.042,9.531-13.964,9.685-22.269.154-8.273,1.757-12.621.343-20.78-1.428-8.232-6.576-18.09-24.407-17.158" transform="translate(-244.419 -80.162)" fill="#deab8c"/>
          <path id="Trazado_874924" data-name="Trazado 874924" d="M531.29,232.117c-.239.125-.874-.74-.688-.929,1.919-1.951,4.021-2.348,6.134-2.963.966-.281,4.378-.373,5.338.132.51.268,1.45,1.038.668,1.741a6.564,6.564,0,0,1-1.745.063,18.26,18.26,0,0,0-9.708,1.956" transform="translate(-247.599 -95.832)"/>
          <path id="Trazado_874925" data-name="Trazado 874925" d="M591.736,232.117c.239.125.874-.74.688-.929-1.919-1.951-4.021-2.348-6.134-2.963-.966-.281-4.378-.373-5.338.132-.51.268-1.45,1.038-.668,1.741a6.565,6.565,0,0,0,1.745.063,18.261,18.261,0,0,1,9.708,1.956" transform="translate(-270.659 -95.832)"/>
          <path id="Trazado_874926" data-name="Trazado 874926" d="M544.2,238.767a1.446,1.446,0,1,1,1.429,1.727,1.6,1.6,0,0,1-1.429-1.727" transform="translate(-253.958 -99.625)"/>
          <path id="Trazado_874927" data-name="Trazado 874927" d="M585.283,239.4a1.446,1.446,0,1,1,1.429,1.727,1.6,1.6,0,0,1-1.429-1.727" transform="translate(-273.132 -99.893)"/>
          <g id="Grupo_1101924" data-name="Grupo 1101924" transform="translate(311.635 142.507)" opacity="0.69">
            <g id="Grupo_1101923" data-name="Grupo 1101923">
              <g id="Grupo_1101922" data-name="Grupo 1101922" clip-path="url(#clip-path-12)">
                <path id="Trazado_874928" data-name="Trazado 874928" d="M584.316,249.681c-.016-2.1,2.286-3.823,5.142-3.842s5.183,1.67,5.2,3.773-2.286,3.824-5.142,3.843-5.183-1.67-5.2-3.773" transform="translate(-584.316 -245.839)" fill="#c98d73"/>
              </g>
            </g>
          </g>
          <g id="Grupo_1101927" data-name="Grupo 1101927" transform="translate(283.847 142.168)" opacity="0.69">
            <g id="Grupo_1101926" data-name="Grupo 1101926">
              <g id="Grupo_1101925" data-name="Grupo 1101925" clip-path="url(#clip-path-12)">
                <path id="Trazado_874929" data-name="Trazado 874929" d="M532.214,249.1c-.016-2.1,2.286-3.823,5.141-3.842s5.183,1.67,5.2,3.773-2.286,3.824-5.142,3.843-5.183-1.67-5.2-3.773" transform="translate(-532.213 -245.253)" fill="#c98d73"/>
              </g>
            </g>
          </g>
          <path id="Trazado_874930" data-name="Trazado 874930" d="M568.008,262.414a6.389,6.389,0,0,1-1.769,4.371,4,4,0,0,1-4.094.759,5.044,5.044,0,0,1-2.862-3.513" transform="translate(-260.999 -110.299)" fill="none" stroke="#000" stroke-linecap="round" stroke-linejoin="round" stroke-width="1"/>
          <path id="Trazado_874931" data-name="Trazado 874931" d="M564.328,229.432a26.819,26.819,0,0,1,.259,6.3,1.267,1.267,0,0,1-.41,1.048,2,2,0,0,1-1.186.11,2.956,2.956,0,0,0-2.838,2.173,3.825,3.825,0,0,0,1.014,3.469,7.213,7.213,0,0,0,3.338,1.9" transform="translate(-261.358 -96.436)" fill="none" stroke="#000" stroke-linecap="round" stroke-linejoin="round" stroke-width="1"/>
          <path id="Trazado_874932" data-name="Trazado 874932" d="M545.508,292.659c4.542,4.567,11.7,5.292,15.907,4.331" transform="translate(-254.57 -123.011)" fill="none" stroke="#000" stroke-linecap="round" stroke-linejoin="round" stroke-width="1"/>
          <path id="Trazado_874933" data-name="Trazado 874933" d="M572.886,189.2c.329-5.134-.487-9.77-4.2-12.4s-8.454-3.16-12.875-3.508c-3.878-.305-7.981-.476-11.428,1.48-4.813,2.731-7.034,8.779-8.871,14.333a199.332,199.332,0,0,1,37.376.093" transform="translate(-249.905 -72.76)" fill="#945848"/>
          <path id="Trazado_874934" data-name="Trazado 874934" d="M536.084,191.611c7.919-1.057,17.324,3.2,32.708-.111,1.492-.321,3.528-.794,3.959-.162s1.388,3.912.43,4.171c-5.955,1.615-12.557,1.229-18.686.876-6.435-.369-12.846-2.3-19.243-1.442-.327-.576-.268-1.379.831-3.334" transform="translate(-249.703 -80.293)"/>
          <path id="Trazado_874935" data-name="Trazado 874935" d="M564.266,219.693a46.375,46.375,0,0,0-30.586-13.9A43.134,43.134,0,0,0,502.3,217.414a50.169,50.169,0,0,1-12.43-7.008,5.154,5.154,0,0,1-2.3-3.1c-.248-1.711,1.02-3.217,2.282-4.275,5.676-4.757,13.107-5.934,20.245-6.646,11.192-1.116,16.8,1.112,21.574,1.546,16.336,1.486,22.979-3.649,33.643.5,3.937,1.533,7.915,4.5,8.668,8.972a11.133,11.133,0,0,1-2.525,8.582c-1.882,2.339-4.417,3.942-7.193,3.708" transform="translate(-227.519 -82.413)" fill="#945848"/>
          <path id="Trazado_874936" data-name="Trazado 874936" d="M516.083,224.01c7.157-7.779,23.65-12.109,32.568-11.093a52.288,52.288,0,0,1,24.173,9.131" transform="translate(-240.839 -89.433)" fill="none" stroke="#000" stroke-linecap="round" stroke-linejoin="round" stroke-width="1"/>
          <path id="Trazado_874937" data-name="Trazado 874937" d="M573.934,225.54c-.282,8.987-.571,18.04-2.411,26.807-.877,4.178-2.182,8.417-4.885,11.536a16.859,16.859,0,0,1-10.024,5.314,36.473,36.473,0,0,1-11.316-.243c-4.814-.7-9.786-1.828-13.615-5.074a22.355,22.355,0,0,1-6.472-10.584,57.028,57.028,0,0,1-2.019-12.672c-.366-5.1.3-9.726.234-15.09,1.679.385,1.769,3.928,1.769,3.928s.38,6.621.494,9.938a35.734,35.734,0,0,0,1.41,9.8,14.2,14.2,0,0,0,5.482,7.721,7.906,7.906,0,0,0,8.7.1c1.24-.875,2.3-2.21,3.76-2.461a4.584,4.584,0,0,1,3.389,1.13,27.933,27.933,0,0,0,2.972,2.262,7.285,7.285,0,0,0,6.414.081,14.466,14.466,0,0,0,5.226-4.3,36.7,36.7,0,0,0,6.587-13.967,114.523,114.523,0,0,0,2.536-15.57,20,20,0,0,0,1.768,1.344" transform="translate(-244.105 -94.235)"/>
          <path id="Trazado_874938" data-name="Trazado 874938" d="M603.129,227.747a115.17,115.17,0,0,1-14.157-13.593,96.512,96.512,0,0,1,14.469,6.454,33.342,33.342,0,0,0-.312,7.139" transform="translate(-274.854 -90.014)"/>
          <path id="Trazado_874939" data-name="Trazado 874939" d="M524.53,222.7a103.418,103.418,0,0,0,23.477-10.068,56.5,56.5,0,0,0-22.1,6.354,3.852,3.852,0,0,0-1.648,1.332,2.149,2.149,0,0,0,.275,2.382" transform="translate(-244.539 -89.376)"/>
          <path id="Trazado_874940" data-name="Trazado 874940" d="M558.587,253.13a13.8,13.8,0,0,1,5.043-.424,6.141,6.141,0,0,1,4.363,2.783c1.05,1.706,1.238,3.945,1.329,6.065q.174,4.077.05,8.163a4.969,4.969,0,0,1-.295,1.839c-.245.557-.77.988-1.28.848-.908-.249-.938-1.769-.809-2.878a34.61,34.61,0,0,0,.142-6.51,6.1,6.1,0,0,0-1.092-3.574,6.3,6.3,0,0,0-3.9-1.822c-1.362-.186-4.292-.945-4.324-2.593a3.693,3.693,0,0,1-3.208,1.744c-2.809.123-4.724.993-5.114,2.885-.3,1.442-.214,3.658-.572,5.4-.3,1.442.169,1.911-.353,3.257-.236.608-.614,2.484-1.144,2.693s-1.445-.38-1.609-1.021a9.285,9.285,0,0,1,.286-2.083q.794-3.927,1.59-7.853c.347-1.714.457-4.462,1.422-5.791s2.676-1.07,4.125-1.307,2.956.712,5.349.181" transform="translate(-254.706 -106.178)"/>
        </g>
      </g>
      <g id="Grupo_1101931" data-name="Grupo 1101931">
        <g id="Grupo_1101930" data-name="Grupo 1101930" clip-path="url(#clip-path-3)">
          <path id="Trazado_874941" data-name="Trazado 874941" d="M515.837,149.457a.991.991,0,1,1,.991.985.988.988,0,0,1-.991-.985" transform="translate(-240.724 -65.439)" fill="#b30e19"/>
          <path id="Trazado_874942" data-name="Trazado 874942" d="M58.746,51.079a.991.991,0,1,1,.991.985.988.988,0,0,1-.991-.985" transform="translate(-27.415 -22.079)" fill="#b30e19"/>
          <path id="Trazado_874943" data-name="Trazado 874943" d="M276.35,162.684a.991.991,0,1,1,.991.985.988.988,0,0,1-.991-.985" transform="translate(-128.963 -71.269)" fill="#b30e19"/>
          <path id="Trazado_874944" data-name="Trazado 874944" d="M422.572,74.684a.991.991,0,1,1,.991.985.988.988,0,0,1-.991-.985" transform="translate(-197.2 -32.483)" fill="#b30e19"/>
          <path id="Trazado_874945" data-name="Trazado 874945" d="M221.684,54.641a.991.991,0,1,1,.991.985.988.988,0,0,1-.991-.985" transform="translate(-103.453 -23.649)" fill="#b30e19"/>
          <path id="Trazado_874946" data-name="Trazado 874946" d="M707.273,115.191a.991.991,0,1,1,.991.985.988.988,0,0,1-.991-.985" transform="translate(-330.061 -50.336)" fill="#b30e19"/>
          <path id="Trazado_874947" data-name="Trazado 874947" d="M55.459,473.1a.991.991,0,1,1,.991.985.988.988,0,0,1-.991-.985" transform="translate(-25.881 -208.083)" fill="#b30e19"/>
          <path id="Trazado_874948" data-name="Trazado 874948" d="M536.756,42.771a.991.991,0,1,1,.991.985.988.988,0,0,1-.991-.985" transform="translate(-250.486 -18.417)" fill="#b30e19"/>
          <path id="Trazado_874949" data-name="Trazado 874949" d="M59.845,151a.991.991,0,1,1,.991.985.988.988,0,0,1-.991-.985" transform="translate(-27.928 -66.118)" fill="#b30e19"/>
          <path id="Trazado_874950" data-name="Trazado 874950" d="M723.71,264.4a.991.991,0,1,1,.991.985.988.988,0,0,1-.991-.985" transform="translate(-337.731 -116.098)" fill="#b30e19"/>
          <path id="Trazado_874951" data-name="Trazado 874951" d="M695.375,43.548a2.412,2.412,0,0,0-2.166,1.962,2.963,2.963,0,0,0,1.036,2.982,2.048,2.048,0,0,0,2.708-.4,1.317,1.317,0,0,0,.2-1.593.851.851,0,0,0-.786-.213,2.6,2.6,0,0,0-1.953,2.263,3.18,3.18,0,0,0,1.182,2.946,2.344,2.344,0,0,0,2.782-.091,1.323,1.323,0,0,0,.529-1.508c-.3-.577-1.048-.39-1.541-.049a3.819,3.819,0,0,0-1.66,2.346,2.188,2.188,0,0,0,1.126,2.5" transform="translate(-323.464 -19.194)" fill="none" stroke="#ffd900" stroke-linecap="round" stroke-linejoin="round" stroke-width="2"/>
          <path id="Trazado_874952" data-name="Trazado 874952" d="M725.134,472.893c-1.427-.223-2.8,1.556-2.476,3.213a2.369,2.369,0,0,0,2.8,1.925.6.6,0,0,0,.183-.957,1.989,1.989,0,0,0-2.445-.434,2.887,2.887,0,0,0-.965,3.377,2.093,2.093,0,0,0,2.842,1.2" transform="translate(-336.951 -208.418)" fill="none" stroke="#ffd900" stroke-linecap="round" stroke-linejoin="round" stroke-width="2"/>
          <path id="Trazado_874953" data-name="Trazado 874953" d="M270.337,75.509c-1.427-.224-2.8,1.556-2.476,3.213a2.37,2.37,0,0,0,2.8,1.925.6.6,0,0,0,.183-.957,1.989,1.989,0,0,0-2.445-.433,2.887,2.887,0,0,0-.964,3.377,2.092,2.092,0,0,0,2.842,1.2" transform="translate(-124.712 -33.272)" fill="none" stroke="#ffd900" stroke-linecap="round" stroke-linejoin="round" stroke-width="2"/>
          <path id="Trazado_874954" data-name="Trazado 874954" d="M99.772,109.6a3.535,3.535,0,0,0-3.266,2.48,5.929,5.929,0,0,0,.4,5.114,2.209,2.209,0,0,0,3.549.47,2.42,2.42,0,0,0,.491-2.5,1.176,1.176,0,0,0-1.518-.493c-1.449.5-2.6,2.395-2.725,4.495s.783,4.243,2.153,5.077a2.985,2.985,0,0,0,4.089-1.277,2.589,2.589,0,0,0,.374-2.192.968.968,0,0,0-1.255-.6,2.733,2.733,0,0,0-1.146,1.156,12.454,12.454,0,0,0-1.751,5.924" transform="translate(-44.852 -48.303)" fill="none" stroke="#ffd900" stroke-linecap="round" stroke-linejoin="round" stroke-width="2"/>
          <path id="Trazado_874955" data-name="Trazado 874955" d="M168.632,97.167a6.34,6.34,0,0,1,2.977,1.813c.73.95.807,2.565-.15,3.258a2.8,2.8,0,0,1-2.754-.112,2.09,2.09,0,0,1-.986-.74.862.862,0,0,1,.169-1.143,1.047,1.047,0,0,1,.756-.046,4.059,4.059,0,0,1,2.618,1.527,3.023,3.023,0,0,1-.617,3.919,2.692,2.692,0,0,1-3.731-.639.915.915,0,0,1-.125-1.026c.229-.3.67-.229,1.015-.109a4.4,4.4,0,0,1,1.882,1.177,2.649,2.649,0,0,1,.679,2.128,1.744,1.744,0,0,1-1.479,1.494" transform="translate(-77.781 -42.826)" fill="none" stroke="#0074d0" stroke-linecap="round" stroke-linejoin="round" stroke-width="2"/>
          <path id="Trazado_874956" data-name="Trazado 874956" d="M626.112,110.968c1.427.224,2.8-1.556,2.476-3.213a2.37,2.37,0,0,0-2.8-1.925.6.6,0,0,0-.183.957,1.989,1.989,0,0,0,2.445.433,2.888,2.888,0,0,0,.965-3.377,2.093,2.093,0,0,0-2.842-1.2" transform="translate(-291.873 -45.147)" fill="none" stroke="#0074d0" stroke-linecap="round" stroke-linejoin="round" stroke-width="2"/>
          <path id="Trazado_874957" data-name="Trazado 874957" d="M369.851,103.142c.872,1.2,3.039.936,3.912-.485a2.554,2.554,0,0,0-.722-3.429c-.328-.193-.772.136-.768.551a2.149,2.149,0,0,0,1.461,2.1,2.658,2.658,0,0,0,2.94-1.71,2.265,2.265,0,0,0-1.234-2.94" transform="translate(-172.597 -42.854)" fill="none" stroke="#0074d0" stroke-linecap="round" stroke-linejoin="round" stroke-width="2"/>
          <path id="Trazado_874958" data-name="Trazado 874958" d="M34.99,391.383a3.723,3.723,0,0,0,3.558-2.2,5.8,5.8,0,0,0,.181-5.087,2.213,2.213,0,0,0-3.505-.739,2.435,2.435,0,0,0-.778,2.43,1.157,1.157,0,0,0,1.466.605c1.509-.379,2.88-2.166,3.245-4.231s-.3-4.255-1.579-5.185-3.07-.531-4.245.945a2.6,2.6,0,0,0-.625,2.137.944.944,0,0,0,1.19.691,2.887,2.887,0,0,0,1.281-1.054,12.685,12.685,0,0,0,2.432-5.72" transform="translate(-15.238 -164.83)" fill="none" stroke="#0074d0" stroke-linecap="round" stroke-linejoin="round" stroke-width="2"/>
          <path id="Trazado_874959" data-name="Trazado 874959" d="M39.105,119.524l-2.043-1.445-2.294.946.679-2.484-1.567-1.995,2.463-.091,1.325-2.179.843,2.428,2.386.648-1.942,1.592Z" transform="translate(-15.811 -49.486)" fill="#fff"/>
          <path id="Trazado_874960" data-name="Trazado 874960" d="M142.192,58.145,140.149,56.7l-2.294.946.679-2.484-1.567-1.995,2.463-.091,1.325-2.179.843,2.428,2.386.648-1.941,1.592Z" transform="translate(-63.918 -22.433)" fill="#fff"/>
          <path id="Trazado_874961" data-name="Trazado 874961" d="M487.584,150.441,485.54,149l-2.293.946.679-2.484-1.567-1.995,2.463-.091,1.325-2.179.843,2.428,2.386.648-1.941,1.592Z" transform="translate(-225.101 -63.112)" fill="#fff"/>
          <path id="Trazado_874962" data-name="Trazado 874962" d="M620.009,71.1l-2.044-1.445-2.293.946.679-2.484-1.567-1.995,2.463-.091,1.325-2.179.843,2.428,2.386.648-1.941,1.592Z" transform="translate(-286.899 -28.145)" fill="#fff"/>
          <path id="Trazado_874963" data-name="Trazado 874963" d="M717.635,425.14l-2.043-1.445-2.294.946.679-2.484-1.567-1.995,2.463-.091,1.325-2.179.843,2.428,2.386.648-1.941,1.592Z" transform="translate(-332.458 -184.185)" fill="#fff"/>
        </g>
      </g>
    </g>
  </g>
</svg>
