<svg xmlns="http://www.w3.org/2000/svg" width="92.437" height="96.587" viewBox="0 0 92.437 96.587">
  <g id="Grupo_1101582" data-name="Grupo 1101582" transform="translate(-10.998)">
    <path id="Trazado_874531" data-name="Trazado 874531" d="M57.217,22a46.247,46.247,0,0,0-45.833,52.21l47.21,25.654L102.57,77.144A46.244,46.244,0,0,0,57.217,22Z" transform="translate(0 -17.847)" fill="#fffbb3"/>
    <path id="Trazado_874532" data-name="Trazado 874532" d="M98.8,153.173l-.38,4.848,5.738,11.145,2.322,15.059,11.313.934,5.855-28.793Z" transform="translate(-70.933 -124.277)" fill="#9e533b"/>
    <path id="Trazado_874533" data-name="Trazado 874533" d="M89.876,178.874l-1.987,25.374,10.047.83c.654-4.463,1.6-11.178,2.12-16.069C100.717,182.794,93.219,179.865,89.876,178.874Z" transform="translate(-62.386 -145.13)" fill="#b66651"/>
    <path id="Trazado_874534" data-name="Trazado 874534" d="M108.515,103.341l5.145,1.324a12.372,12.372,0,0,0,.022-4.81c-.64-3.678-2.461-6.432-4.068-6.153s-2.391,3.488-1.75,7.166A14.613,14.613,0,0,0,108.515,103.341Z" transform="translate(-78.411 -76.01)" fill="#00b7a0"/>
    <path id="Trazado_874535" data-name="Trazado 874535" d="M138.03,119.014v-5.9c.719-1.6.8-2.991.075-3.644-1.213-1.09-4.219.277-6.715,3.053a12.321,12.321,0,0,0-2.55,4.128Z" transform="translate(-95.612 -88.513)" fill="#3ecd8d"/>
    <path id="Trazado_874536" data-name="Trazado 874536" d="M167.731,120.6,173.144,122a12.952,12.952,0,0,0-.07-4.364c-.64-3.678-2.461-6.432-4.068-6.153s-2.391,3.488-1.75,7.166A15,15,0,0,0,167.731,120.6Z" transform="translate(-126.599 -90.433)" fill="#95db76"/>
    <path id="Trazado_874537" data-name="Trazado 874537" d="M194.662,135.436a15.128,15.128,0,0,0,1.192-1.189c2.5-2.776,3.535-5.911,2.322-7s-4.219.277-6.715,3.053a12.893,12.893,0,0,0-2.392,3.7Z" transform="translate(-144.479 -102.937)" fill="#baee63"/>
    <path id="Trazado_874538" data-name="Trazado 874538" d="M113.091,141.1l-1.236-2.438-22.495-5.789a1.758,1.758,0,0,0-2.134,1.261l-.021.083a1.758,1.758,0,0,0,1.261,2.134l22.035,5.671Z" transform="translate(-61.785 -107.765)" fill="#ce7867"/>
    <path id="Trazado_874539" data-name="Trazado 874539" d="M395.782,194.427c-.923,3.787-3.012,6.529-4.667,6.126s-2.247-3.8-1.324-7.586,3.013-6.529,4.667-6.126S396.705,190.641,395.782,194.427Z" transform="translate(-306.982 -151.562)" fill="#00b7a0"/>
    <ellipse id="Elipse_11608" data-name="Elipse 11608" cx="5.613" cy="2.452" rx="5.613" ry="2.452" transform="matrix(0.91, -0.414, 0.414, 0.91, 83.4, 46.595)" fill="#3ecd8d"/>
    <path id="Trazado_874540" data-name="Trazado 874540" d="M186.141,138.752a7.212,7.212,0,0,0-8.931,4.512c-2.081,5.96-6.643,20.681-8.11,29.935l14.13,1.066,6.834-20.2Z" transform="translate(-128.277 -112.317)" fill="#3f57a0"/>
    <path id="Trazado_874541" data-name="Trazado 874541" d="M221.031,165.621l-2.735,9.163a3.862,3.862,0,0,0,6.606,3.649l3.32-3.791-.2-5.649Z" transform="translate(-168.06 -134.377)" fill="#fe3d97"/>
    <path id="Trazado_874542" data-name="Trazado 874542" d="M247.8,57.53c-5.738,0-8.5,2.082-8.5,2.082v4.417a8.059,8.059,0,0,0,1.916,5.215,8.105,8.105,0,0,0,8.234-1.27Z" transform="translate(-185.228 -46.677)" fill="#45304c"/>
    <path id="Trazado_874543" data-name="Trazado 874543" d="M261.876,60.047a2.915,2.915,0,0,0,2.293,4.72h.571l4.052-6.591Z" transform="translate(-203.044 -47.201)" fill="#ffaa7b"/>
    <path id="Trazado_874544" data-name="Trazado 874544" d="M259.861,58.947,255.834,60.8v6.129a2.236,2.236,0,0,1-1.178,1.97,12.719,12.719,0,0,1-4.508,1.458,8.029,8.029,0,0,0,14.176-5.174V60.8Z" transform="translate(-194.034 -47.827)" fill="#ffc7ab"/>
    <path id="Trazado_874545" data-name="Trazado 874545" d="M246.434,0a12.989,12.989,0,0,0-6.811,1.9,2.635,2.635,0,0,0-1.2,1.718l-.287,1.419,9.494,2.29Z" transform="translate(-184.292)" fill="#b66651"/>
    <path id="Trazado_874546" data-name="Trazado 874546" d="M285.454,3.621a2.635,2.635,0,0,0-1.2-1.718A12.988,12.988,0,0,0,277.445,0s-2.441,2.6,0,5.039l4.244,2.29,4.052-2.29Z" transform="translate(-215.303)" fill="#ce7867"/>
    <path id="Trazado_874547" data-name="Trazado 874547" d="M242.454,27.114h-8.3l-.926,4.581L244.5,33.138Z" transform="translate(-180.311 -21.999)" fill="#8c3d2f"/>
    <path id="Trazado_874548" data-name="Trazado 874548" d="M287.255,27.114h-8.3a3.078,3.078,0,0,0,.713,4.581l5.045,1.657,3.463-1.657Z" transform="translate(-216.817 -21.999)" fill="#9e533b"/>
    <path id="Trazado_874549" data-name="Trazado 874549" d="M233.121,51.114H207.756a1.662,1.662,0,0,0-1.657,1.657v.081a1.662,1.662,0,0,0,1.657,1.657h25.365a1.662,1.662,0,0,0,1.657-1.657v-.081A1.662,1.662,0,0,0,233.121,51.114Z" transform="translate(-158.296 -41.472)" fill="#ce7867"/>
    <path id="Trazado_874550" data-name="Trazado 874550" d="M237.731,203.072l-2.707.063a47.657,47.657,0,0,1-8.373,6.274h0v2.43l2.05.881a48.405,48.405,0,0,0,9.309-7.108Z" transform="translate(-174.97 -164.763)" fill="#ffd402"/>
    <path id="Trazado_874551" data-name="Trazado 874551" d="M175.044,236.665a33.9,33.9,0,0,1-10.437,4.207,1.94,1.94,0,0,0,.752,3.807,37.734,37.734,0,0,0,11.735-4.7A2.412,2.412,0,0,0,175.044,236.665Z" transform="translate(-123.364 -192.019)" fill="#fef156"/>
    <path id="Trazado_874552" data-name="Trazado 874552" d="M296.365,199.685l-2.9-.576a2.024,2.024,0,0,0-1.034.065,4.593,4.593,0,0,1-2.474.17l-6.449-1.621a1.352,1.352,0,0,1-.794-.525l-3.971-5.181-5.486-.645-1.644,4.164,7.211,6.573a5.247,5.247,0,0,0,2.829,1.382l6.975,1.013a4.42,4.42,0,0,1,2.4,1.244,2.025,2.025,0,0,0,1.017.533l2.9.576a3.656,3.656,0,0,0,1.423-7.172Z" transform="translate(-211.449 -155.27)" fill="#ffaa7b"/>
    <path id="Trazado_874553" data-name="Trazado 874553" d="M234.147,140.593a4.77,4.77,0,0,0-1.233,7.374c.766.852,5.648,5.282,6.3,5.889a14.245,14.245,0,0,0,7.13-3.519l-6.036-8.359A4.765,4.765,0,0,0,234.147,140.593Z" transform="translate(-179.053 -113.59)" fill="#fd77a6"/>
    <path id="Trazado_874554" data-name="Trazado 874554" d="M57.839,299.478a1.8,1.8,0,0,1-2.341-.229,6.425,6.425,0,0,0-9.355,0,1.8,1.8,0,0,1-2.607,0,6.425,6.425,0,0,0-9.355,0,1.8,1.8,0,0,1-2.607,0,6.425,6.425,0,0,0-9.356,0,1.808,1.808,0,0,1-2.619-.015,6.41,6.41,0,0,0-4.956-2,6.317,6.317,0,0,0-1.6.281A46.258,46.258,0,0,0,71.826,335.9l2.686-23.886Z" transform="translate(-1.659 -241.158)" fill="#00b7a0"/>
    <path id="Trazado_874555" data-name="Trazado 874555" d="M284.965,312.019A46.337,46.337,0,0,1,256.482,335.9a8.912,8.912,0,0,1-2.281-6.262l-3.521-4.087c-9.872-.88-7.387-10.14-7.387-10.14s.5-3.018-1.835-7.782a7.2,7.2,0,0,1,1.038-8.154h0a1.753,1.753,0,0,0,.265-.229,6.425,6.425,0,0,1,9.355,0,1.8,1.8,0,0,0,2.607,0,6.425,6.425,0,0,1,9.355,0,1.8,1.8,0,0,0,2.607,0,6.425,6.425,0,0,1,9.356,0,1.809,1.809,0,0,0,2.619-.015l5.85,3.481Z" transform="translate(-186.314 -241.159)" fill="#3ecd8d"/>
    <g id="Grupo_1101577" data-name="Grupo 1101577" transform="translate(74.069 61.75)">
      <ellipse id="Elipse_11609" data-name="Elipse 11609" cx="2.953" cy="6.759" rx="2.953" ry="6.759" transform="matrix(0.985, -0.172, 0.172, 0.985, 0, 1.016)" fill="#95db76"/>
      <ellipse id="Elipse_11610" data-name="Elipse 11610" cx="6.759" cy="2.953" rx="6.759" ry="2.953" transform="matrix(0.669, -0.744, 0.744, 0.669, 2.999, 11.915)" fill="#baee63"/>
    </g>
    <g id="Grupo_1101578" data-name="Grupo 1101578" transform="translate(50.557 61.763)">
      <ellipse id="Elipse_11611" data-name="Elipse 11611" cx="2.953" cy="6.759" rx="2.953" ry="6.759" transform="matrix(0.985, -0.172, 0.172, 0.985, 0, 1.016)" fill="#95db76"/>
      <ellipse id="Elipse_11612" data-name="Elipse 11612" cx="6.759" cy="2.953" rx="6.759" ry="2.953" transform="matrix(0.669, -0.744, 0.744, 0.669, 2.983, 11.909)" fill="#baee63"/>
    </g>
    <g id="Grupo_1101579" data-name="Grupo 1101579" transform="translate(38.809 76.494)">
      <ellipse id="Elipse_11613" data-name="Elipse 11613" cx="2.953" cy="6.759" rx="2.953" ry="6.759" transform="matrix(0.985, -0.172, 0.172, 0.985, 0, 1.016)" fill="#95db76"/>
      <ellipse id="Elipse_11614" data-name="Elipse 11614" cx="6.759" cy="2.953" rx="6.759" ry="2.953" transform="matrix(0.669, -0.744, 0.744, 0.669, 2.971, 11.916)" fill="#baee63"/>
    </g>
    <g id="Grupo_1101580" data-name="Grupo 1101580" transform="translate(62.321 76.481)">
      <ellipse id="Elipse_11615" data-name="Elipse 11615" cx="2.953" cy="6.759" rx="2.953" ry="6.759" transform="matrix(0.985, -0.172, 0.172, 0.985, 0, 1.016)" fill="#95db76"/>
      <ellipse id="Elipse_11616" data-name="Elipse 11616" cx="6.759" cy="2.953" rx="6.759" ry="2.953" transform="matrix(0.669, -0.744, 0.744, 0.669, 2.987, 11.922)" fill="#baee63"/>
    </g>
    <g id="Grupo_1101581" data-name="Grupo 1101581" transform="translate(27.045 61.775)">
      <ellipse id="Elipse_11617" data-name="Elipse 11617" cx="2.953" cy="6.759" rx="2.953" ry="6.759" transform="matrix(0.985, -0.172, 0.172, 0.985, 0, 1.016)" fill="#95db76"/>
      <ellipse id="Elipse_11618" data-name="Elipse 11618" cx="6.759" cy="2.953" rx="6.759" ry="2.953" transform="matrix(0.669, -0.744, 0.744, 0.669, 2.966, 11.903)" fill="#baee63"/>
    </g>
    <path id="Trazado_874556" data-name="Trazado 874556" d="M444.136,297.236a6.408,6.408,0,0,0-4.956,2s-3.807,10.74,6.308,12.783a45.886,45.886,0,0,0,3.92-11.563A6.45,6.45,0,0,0,444.136,297.236Z" transform="translate(-346.838 -241.158)" fill="#95db76"/>
  </g>
</svg>
