<svg xmlns="http://www.w3.org/2000/svg" width="99" height="98.397" viewBox="0 0 99 98.397">
  <g id="Grupo_1101609" data-name="Grupo 1101609" transform="translate(-200.467 -529)">
    <rect id="Rect치ngulo_402249" data-name="Rect치ngulo 402249" width="99" height="98.397" rx="10" transform="translate(200.467 529)" fill="#ebc54a"/>
    <g id="Grupo_1101608" data-name="Grupo 1101608" transform="translate(195.014 540.511)">
      <path id="Trazado_874629" data-name="Trazado 874629" d="M350.958,226.276q-.223,0-.441.011a10.669,10.669,0,1,0,.441-.011Zm0,16.424a5.645,5.645,0,0,1-.934-.076,5.715,5.715,0,0,1,.492-11.336q.218-.016.441-.016a5.714,5.714,0,0,1,0,11.429Z" transform="translate(-272.793 -192.697)" fill="#fee6cc"/>
      <path id="Trazado_874630" data-name="Trazado 874630" d="M345.244,237.049a5.714,5.714,0,0,0,4.781,5.638,20.112,20.112,0,0,1-1.706,4.743,10.709,10.709,0,0,1,2.2-21.079v5A5.715,5.715,0,0,0,345.244,237.049Z" transform="translate(-272.793 -192.76)" fill="#fcce99"/>
      <path id="Trazado_874631" data-name="Trazado 874631" d="M157.07,207.318V220.54a20.366,20.366,0,1,1-40.731.221V207.318a1.47,1.47,0,0,1,1.47-1.47H155.6A1.47,1.47,0,0,1,157.07,207.318Z" transform="translate(-82.111 -175.301)" fill="#fee6cc"/>
      <g id="Grupo_1101605" data-name="Grupo 1101605" transform="translate(34.228 41.262)">
        <path id="Trazado_874632" data-name="Trazado 874632" d="M132.653,344.621a8.55,8.55,0,0,1-.832,1.288A20.387,20.387,0,0,1,118.409,330.2a6.689,6.689,0,0,1,1.426.721,6.892,6.892,0,0,1,2.472,3,12.879,12.879,0,0,1,1.985-.158c4.615,0,8.348,2.561,9.077,6.227A6.993,6.993,0,0,1,132.653,344.621Z" transform="translate(-118.102 -322.457)" fill="#fcce99"/>
        <path id="Trazado_874633" data-name="Trazado 874633" d="M157.071,278.052v4.2a20.365,20.365,0,0,1-40.731,0v-4.2a20.365,20.365,0,0,0,40.731,0Z" transform="translate(-116.34 -278.052)" fill="#fcce99"/>
        <rect id="Rect치ngulo_402250" data-name="Rect치ngulo 402250" width="32.578" height="5.357" transform="translate(4.076 28.247)" fill="#fcce99"/>
      </g>
      <path id="Trazado_874634" data-name="Trazado 874634" d="M115.963,379.44a8.348,8.348,0,0,1-5.838,3.907c-4.06.807-7.821-.908-8.4-3.833-.005-.025-.009-.049-.013-.074-.521-2.9,2.287-5.88,6.31-6.679,4.06-.807,7.821.908,8.4,3.833A4.283,4.283,0,0,1,115.963,379.44Z" transform="translate(-69.599 -317.275)" fill="#e2780e"/>
      <g id="Grupo_1101606" data-name="Grupo 1101606" transform="translate(32.048 58.211)">
        <path id="Trazado_874635" data-name="Trazado 874635" d="M116.32,418.911a8.348,8.348,0,0,1-5.838,3.907c-4.06.807-7.821-.908-8.4-3.833-.006-.025-.009-.049-.013-.074H116.32Z" transform="translate(-102.005 -414.957)" fill="#a85000"/>
        <path id="Trazado_874636" data-name="Trazado 874636" d="M110.126,400.124c-4.058.807-7.82-.909-8.4-3.832a3.914,3.914,0,0,1-.054-1.176c1.2,2.231,4.488,3.423,8,2.725s6.1-3.059,6.351-5.577a3.914,3.914,0,0,1,.4,1.108C117,396.294,114.185,399.318,110.126,400.124Z" transform="translate(-101.65 -392.263)" fill="#a85000"/>
      </g>
      <path id="Trazado_874637" data-name="Trazado 874637" d="M59.111,355.608a10.608,10.608,0,0,1-.717.952c-2.327,2.743-5.7,3.774-7.932,2.28a4.276,4.276,0,0,1-1.671-2.28,8.323,8.323,0,0,1,1.348-6.948c2.3-3.442,6.172-4.888,8.65-3.231S61.411,352.168,59.111,355.608Z" transform="translate(-24.341 -294.395)" fill="#e2780e"/>
      <g id="Grupo_1101607" data-name="Grupo 1101607" transform="translate(24.449 51.486)">
        <path id="Trazado_874638" data-name="Trazado 874638" d="M60.041,418.912c-2.327,2.743-5.7,3.774-7.932,2.28a4.276,4.276,0,0,1-1.671-2.28Z" transform="translate(-50.438 -408.232)" fill="#a85000"/>
        <path id="Trazado_874639" data-name="Trazado 874639" d="M65.353,356.674c-2.3,3.44-6.172,4.887-8.65,3.231a3.917,3.917,0,0,1-.87-.793c2.423.732,5.594-.753,7.584-3.731s2.15-6.476.547-8.435a3.913,3.913,0,0,1,1.066.5C67.508,349.1,67.653,353.234,65.353,356.674Z" transform="translate(-55.032 -346.946)" fill="#a85000"/>
      </g>
      <path id="Trazado_874640" data-name="Trazado 874640" d="M27.415,436.056v2.661l17.214,3.269h32.7l17.214-3.269v-2.661Z" transform="translate(-6.383 -371.347)" fill="#fee6cc"/>
      <path id="Trazado_874641" data-name="Trazado 874641" d="M88.156,232.5H77.409a1.113,1.113,0,0,0,0,2.226h9.634v.628l-16.206,3.078H38.352l-16.206-3.078v-.628h51.13a1.113,1.113,0,1,0,0-2.226H66.1a21.541,21.541,0,0,0,7.626-8.349,11.7,11.7,0,0,0,4.443.864,11.822,11.822,0,1,0-2.094-23.457v-.637a2.586,2.586,0,0,0-2.583-2.584H68.225a1.113,1.113,0,1,0,0,2.226h5.264a.358.358,0,0,1,.357.358v1.892h-38.5v-1.892a.358.358,0,0,1,.358-.358H64.09a1.113,1.113,0,0,0,0-2.226H35.7a2.587,2.587,0,0,0-2.584,2.584v13.442a21.536,21.536,0,0,0,.579,4.959,7.066,7.066,0,0,0-5.94,1.232,1.113,1.113,0,1,0,1.257,1.837,5.093,5.093,0,0,1,3.765-1.005l-4.054,6.065a1.113,1.113,0,1,0,1.851,1.237l4.055-6.067a4.336,4.336,0,0,1,.662,2.393h0s0,0,0,.006a8.082,8.082,0,0,1-1.446,4.478,8.747,8.747,0,0,1-1.9,2.063,7.014,7.014,0,0,1-1.568.937H26.858c-.04-.024-.08-.048-.12-.075-1.853-1.238-1.97-4.438-.267-7.287A1.113,1.113,0,1,0,24.561,224a10.008,10.008,0,0,0-1.493,5.7,6.561,6.561,0,0,0,.8,2.808H21.033a1.113,1.113,0,0,0-1.113,1.113v2.662a1.113,1.113,0,0,0,.905,1.093l16.367,3.108v3.294a1.113,1.113,0,0,0,1.113,1.113H70.882A1.113,1.113,0,0,0,72,243.775v-3.294l16.368-3.108a1.113,1.113,0,0,0,.905-1.093v-2.662A1.113,1.113,0,0,0,88.156,232.5ZM76.072,209.1a4.6,4.6,0,1,1-.184,8.091,21.805,21.805,0,0,0,.184-2.825V209.1Zm2.094-5.5a9.6,9.6,0,0,1,0,19.192,9.5,9.5,0,0,1-3.529-.673,21.228,21.228,0,0,0,.828-2.652,6.828,6.828,0,1,0,.607-12.771v-2.755s0-.008,0-.011,0-.008,0-.011v-.087A9.6,9.6,0,0,1,78.166,203.6Zm-4.32,1.442v9.324a19.133,19.133,0,0,1-5.638,13.615,19.374,19.374,0,0,1-7.143,4.522H48.125c-.359-.128-.716-.265-1.069-.415a5.558,5.558,0,0,0,.859-4.074V228a5.832,5.832,0,0,0-3.525-4.1,10.23,10.23,0,0,0-6.185-.6q-.3.059-.593.135a19.234,19.234,0,0,1-2.269-9.07v-9.324h38.5Zm-38.15,25.7a10.6,10.6,0,0,0,1.791-4.945,9.274,9.274,0,0,1,1.151-.31c2.832-.562,5.562.29,6.651,1.911l-7.153,1.422A1.113,1.113,0,1,0,38.569,231l7.157-1.423a4.319,4.319,0,0,1-1.2,2.14l-.005.005a6.7,6.7,0,0,1-.917.779H34.243A11.246,11.246,0,0,0,35.7,230.741Zm34.074,11.921H39.418v-2H69.769Z" transform="translate(0 -168.909)"/>
      <path id="Trazado_874642" data-name="Trazado 874642" d="M270.208,22.243a1.113,1.113,0,1,0,1.185,1.884,7.627,7.627,0,0,0,1.21-11.978A7.627,7.627,0,0,0,271.393.171a1.113,1.113,0,0,0-1.185,1.884,5.4,5.4,0,0,1,0,9.152,1.125,1.125,0,0,0,0,1.884,5.4,5.4,0,0,1,0,9.152Z" transform="translate(-212.702 0)"/>
      <path id="Trazado_874643" data-name="Trazado 874643" d="M322.99,85.575a1.113,1.113,0,1,0,1.185,1.884,7.628,7.628,0,0,0,0-12.92,1.113,1.113,0,0,0-1.185,1.884,5.4,5.4,0,0,1,0,9.152Z" transform="translate(-257.652 -63.332)"/>
      <path id="Trazado_874644" data-name="Trazado 874644" d="M213.1,85.574a1.113,1.113,0,1,0,1.185,1.884,7.627,7.627,0,0,0,0-12.92,1.113,1.113,0,1,0-1.185,1.884,5.4,5.4,0,0,1,0,9.152Z" transform="translate(-164.073 -63.331)"/>
    </g>
  </g>
</svg>
