<svg xmlns="http://www.w3.org/2000/svg" width="40" height="40" viewBox="0 0 40 40">
  <g id="Grupo_1102138" data-name="Grupo 1102138" transform="translate(-190.051 -5102)">
    <rect id="Rectángulo_402249" data-name="Rectángulo 402249" width="40" height="40" rx="10" transform="translate(190.051 5102)" fill="#ebc54a"/>
    <path id="Trazado_877883" data-name="Trazado 877883" d="M7.438-2.344H3.328L2.547,0H.055L4.289-11.375H6.461L10.719,0H8.227Zm-3.477-1.9H6.8L5.375-8.5ZM11.75-1.109a1.137,1.137,0,0,1,.363-.875,1.289,1.289,0,0,1,.91-.336,1.3,1.3,0,0,1,.918.336,1.137,1.137,0,0,1,.363.875,1.121,1.121,0,0,1-.359.863,1.305,1.305,0,0,1-.922.332,1.294,1.294,0,0,1-.914-.332A1.121,1.121,0,0,1,11.75-1.109Z" transform="translate(202.194 5127.839)" fill="#12263f"/>
  </g>
</svg>
