<svg xmlns="http://www.w3.org/2000/svg" width="178" height="117.754" viewBox="0 0 178 117.754">
  <g id="_2766758_397568-PCQ7Y2-131" data-name="2766758_397568-PCQ7Y2-131" transform="translate(60.247 0.001)">
    <g id="BACKGROUND_1" transform="translate(-60.247 -0.001)">
      <rect id="Rectángulo_402230" data-name="Rectángulo 402230" width="178" height="117.754" transform="translate(0 0)" fill="#c2e3e0"/>
    </g>
    <g id="OBJECTS" transform="translate(-16.247 7.985)">
      <g id="Grupo_1101603" data-name="Grupo 1101603">
        <g id="Grupo_1101601" data-name="Grupo 1101601" transform="translate(14.243 13.403)">
          <g id="Grupo_1101584" data-name="Grupo 1101584" transform="translate(24.256 14.628)">
            <g id="Grupo_1101583" data-name="Grupo 1101583">
              <path id="Trazado_874557" data-name="Trazado 874557" d="M234.834,153.138a.618.618,0,0,0-.455-.2H223.108a.619.619,0,0,0-.455.2l6.09,7.457Z" transform="translate(-222.489 -152.937)" fill="#8aaaac"/>
              <path id="Trazado_874558" data-name="Trazado 874558" d="M222.122,153.792a.616.616,0,0,0-.164.418v14.078a.617.617,0,0,0,.164.418l6.09-7.457Z" transform="translate(-221.958 -153.591)" fill="#6a8284"/>
              <path id="Trazado_874559" data-name="Trazado 874559" d="M254.77,154.209a.62.62,0,0,0-.164-.418l-6.09,7.457,6.09,7.457a.618.618,0,0,0,.164-.418Z" transform="translate(-242.261 -153.59)" fill="#6a8284"/>
              <path id="Trazado_874560" data-name="Trazado 874560" d="M222.653,192.912a.619.619,0,0,0,.455.2h11.271a.619.619,0,0,0,.455-.2l-6.09-7.457Z" transform="translate(-222.489 -177.797)" fill="#8aaaac"/>
            </g>
            <rect id="Rectángulo_402231" data-name="Rectángulo 402231" width="10.032" height="12.282" transform="translate(1.238 1.517)" fill="#fff"/>
            <rect id="Rectángulo_402232" data-name="Rectángulo 402232" width="7.555" height="9.805" transform="translate(2.477 2.756)" fill="#dee8e8"/>
          </g>
          <g id="Grupo_1101586" data-name="Grupo 1101586" transform="translate(38.885 21.373)">
            <g id="Grupo_1101585" data-name="Grupo 1101585">
              <path id="Trazado_874561" data-name="Trazado 874561" d="M300.718,181.776a.618.618,0,0,0-.455-.2H285.224a.619.619,0,0,0-.455.2l7.974,7.928Z" transform="translate(-284.606 -181.575)" fill="#8aaaac"/>
              <path id="Trazado_874562" data-name="Trazado 874562" d="M284.239,182.43a.616.616,0,0,0-.164.418v15.02a.616.616,0,0,0,.164.418l7.974-7.928Z" transform="translate(-284.075 -182.229)" fill="#6a8284"/>
              <path id="Trazado_874563" data-name="Trazado 874563" d="M326.77,182.848a.62.62,0,0,0-.164-.418l-7.974,7.928,7.974,7.928a.619.619,0,0,0,.164-.418Z" transform="translate(-310.493 -182.229)" fill="#6a8284"/>
              <path id="Trazado_874564" data-name="Trazado 874564" d="M284.77,224.022a.621.621,0,0,0,.455.2h15.039a.619.619,0,0,0,.455-.2l-7.974-7.928Z" transform="translate(-284.606 -207.965)" fill="#8aaaac"/>
            </g>
            <rect id="Rectángulo_402233" data-name="Rectángulo 402233" width="13.8" height="13.225" transform="translate(1.238 1.517)" fill="#fff"/>
            <rect id="Rectángulo_402234" data-name="Rectángulo 402234" width="11.323" height="10.747" transform="translate(2.477 2.756)" fill="#dee8e8"/>
          </g>
          <g id="Grupo_1101588" data-name="Grupo 1101588" transform="translate(0 41.151)">
            <g id="Grupo_1101587" data-name="Grupo 1101587">
              <path id="Trazado_874565" data-name="Trazado 874565" d="M135.605,265.758a.618.618,0,0,0-.455-.2H120.111a.619.619,0,0,0-.455.2l7.974,7.928Z" transform="translate(-119.492 -265.557)" fill="#8aaaac"/>
              <path id="Trazado_874566" data-name="Trazado 874566" d="M119.125,266.412a.616.616,0,0,0-.164.418v15.02a.616.616,0,0,0,.164.418l7.974-7.929Z" transform="translate(-118.961 -266.211)" fill="#6a8284"/>
              <path id="Trazado_874567" data-name="Trazado 874567" d="M161.657,266.83a.62.62,0,0,0-.164-.418l-7.974,7.928,7.974,7.929a.619.619,0,0,0,.164-.418Z" transform="translate(-145.38 -266.211)" fill="#6a8284"/>
              <path id="Trazado_874568" data-name="Trazado 874568" d="M119.656,308a.62.62,0,0,0,.455.2H135.15a.62.62,0,0,0,.455-.2l-7.974-7.929Z" transform="translate(-119.492 -291.946)" fill="#8aaaac"/>
            </g>
            <rect id="Rectángulo_402235" data-name="Rectángulo 402235" width="13.8" height="13.225" transform="translate(1.238 1.517)" fill="#fff"/>
            <rect id="Rectángulo_402236" data-name="Rectángulo 402236" width="11.323" height="10.747" transform="translate(2.477 2.756)" fill="#dee8e8"/>
          </g>
          <g id="Grupo_1101590" data-name="Grupo 1101590" transform="translate(9.628 16.513)">
            <g id="Grupo_1101589" data-name="Grupo 1101589">
              <path id="Trazado_874569" data-name="Trazado 874569" d="M172.718,161.138a.618.618,0,0,0-.455-.2H160.992a.619.619,0,0,0-.455.2l6.09,6.515Z" transform="translate(-160.373 -160.937)" fill="#8aaaac"/>
              <path id="Trazado_874570" data-name="Trazado 874570" d="M160.006,161.792a.616.616,0,0,0-.164.418V174.4a.616.616,0,0,0,.164.418l6.09-6.515Z" transform="translate(-159.842 -161.591)" fill="#6a8284"/>
              <path id="Trazado_874571" data-name="Trazado 874571" d="M192.654,162.209a.62.62,0,0,0-.164-.418l-6.09,6.515,6.09,6.515a.619.619,0,0,0,.164-.418Z" transform="translate(-180.145 -161.59)" fill="#6a8284"/>
              <path id="Trazado_874572" data-name="Trazado 874572" d="M160.537,195.97a.62.62,0,0,0,.455.2h11.271a.62.62,0,0,0,.455-.2l-6.09-6.515Z" transform="translate(-160.373 -182.739)" fill="#8aaaac"/>
            </g>
            <rect id="Rectángulo_402237" data-name="Rectángulo 402237" width="10.032" height="10.398" transform="translate(1.238 1.517)" fill="#fff"/>
            <rect id="Rectángulo_402238" data-name="Rectángulo 402238" width="7.555" height="7.921" transform="translate(2.477 2.756)" fill="#dee8e8"/>
          </g>
          <g id="Grupo_1101592" data-name="Grupo 1101592" transform="translate(40.08 39.751)">
            <g id="Grupo_1101591" data-name="Grupo 1101591">
              <path id="Trazado_874573" data-name="Trazado 874573" d="M302.023,259.814a.618.618,0,0,0-.455-.2H290.3a.619.619,0,0,0-.455.2l6.09,6.515Z" transform="translate(-289.679 -259.613)" fill="#8aaaac"/>
              <path id="Trazado_874574" data-name="Trazado 874574" d="M289.312,260.468a.616.616,0,0,0-.164.418V273.08a.616.616,0,0,0,.164.418l6.09-6.515Z" transform="translate(-289.148 -260.267)" fill="#6a8284"/>
              <path id="Trazado_874575" data-name="Trazado 874575" d="M321.96,260.886a.619.619,0,0,0-.164-.418l-6.09,6.515,6.09,6.515a.619.619,0,0,0,.164-.418Z" transform="translate(-309.451 -260.267)" fill="#6a8284"/>
              <path id="Trazado_874576" data-name="Trazado 874576" d="M289.843,294.646a.619.619,0,0,0,.455.2h11.271a.62.62,0,0,0,.455-.2l-6.09-6.515Z" transform="translate(-289.679 -281.415)" fill="#8aaaac"/>
            </g>
            <rect id="Rectángulo_402239" data-name="Rectángulo 402239" width="10.032" height="10.398" transform="translate(1.238 1.517)" fill="#fff"/>
            <rect id="Rectángulo_402240" data-name="Rectángulo 402240" width="7.555" height="7.921" transform="translate(2.477 2.756)" fill="#dee8e8"/>
          </g>
          <g id="Grupo_1101594" data-name="Grupo 1101594" transform="translate(25.451 46.693)">
            <g id="Grupo_1101593" data-name="Grupo 1101593">
              <path id="Trazado_874577" data-name="Trazado 874577" d="M239.907,289.291a.618.618,0,0,0-.455-.2H228.181a.619.619,0,0,0-.455.2l6.09,6.515Z" transform="translate(-227.563 -289.09)" fill="#8aaaac"/>
              <path id="Trazado_874578" data-name="Trazado 874578" d="M227.2,289.945a.616.616,0,0,0-.164.418v12.194a.616.616,0,0,0,.164.418l6.09-6.515Z" transform="translate(-227.032 -289.744)" fill="#6a8284"/>
              <path id="Trazado_874579" data-name="Trazado 874579" d="M259.843,290.364a.619.619,0,0,0-.164-.418l-6.09,6.515,6.09,6.515a.619.619,0,0,0,.164-.418Z" transform="translate(-247.334 -289.744)" fill="#6a8284"/>
              <path id="Trazado_874580" data-name="Trazado 874580" d="M227.727,324.123a.62.62,0,0,0,.455.2h11.271a.62.62,0,0,0,.455-.2l-6.09-6.515Z" transform="translate(-227.563 -310.892)" fill="#8aaaac"/>
            </g>
            <rect id="Rectángulo_402241" data-name="Rectángulo 402241" width="10.032" height="10.398" transform="translate(1.238 1.517)" fill="#fff"/>
            <rect id="Rectángulo_402242" data-name="Rectángulo 402242" width="7.555" height="7.921" transform="translate(2.477 2.756)" fill="#dee8e8"/>
          </g>
          <g id="Grupo_1101596" data-name="Grupo 1101596" transform="translate(18.397 32.065)">
            <g id="Grupo_1101595" data-name="Grupo 1101595">
              <path id="Trazado_874581" data-name="Trazado 874581" d="M244.467,239.851a.618.618,0,0,0,.2-.455V228.125a.619.619,0,0,0-.2-.455l-8.87,6.09Z" transform="translate(-226.525 -227.506)" fill="#8aaaac"/>
              <path id="Trazado_874582" data-name="Trazado 874582" d="M215.672,227.139a.616.616,0,0,0-.418-.164h-16.9a.617.617,0,0,0-.418.164l8.87,6.09Z" transform="translate(-197.731 -226.975)" fill="#6a8284"/>
              <path id="Trazado_874583" data-name="Trazado 874583" d="M215.253,259.787a.62.62,0,0,0,.418-.164l-8.87-6.09-8.87,6.09a.62.62,0,0,0,.418.164Z" transform="translate(-197.73 -247.278)" fill="#6a8284"/>
              <path id="Trazado_874584" data-name="Trazado 874584" d="M197.278,227.67a.62.62,0,0,0-.2.455V239.4a.62.62,0,0,0,.2.455l8.87-6.09Z" transform="translate(-197.077 -227.506)" fill="#8aaaac"/>
            </g>
            <rect id="Rectángulo_402243" data-name="Rectángulo 402243" width="15.108" height="10.032" transform="translate(1.517 1.238)" fill="#fff"/>
            <rect id="Rectángulo_402244" data-name="Rectángulo 402244" width="12.631" height="7.555" transform="translate(2.756 2.477)" fill="#dee8e8"/>
          </g>
          <g id="Grupo_1101598" data-name="Grupo 1101598" transform="translate(49.212 1.11)">
            <g id="Grupo_1101597" data-name="Grupo 1101597">
              <path id="Trazado_874585" data-name="Trazado 874585" d="M328.621,142.926a.618.618,0,0,0,.455.2h11.271a.618.618,0,0,0,.455-.2l-6.09-8.87Z" transform="translate(-328.457 -124.985)" fill="#8aaaac"/>
              <path id="Trazado_874586" data-name="Trazado 874586" d="M360.573,114.132a.615.615,0,0,0,.164-.418V96.81a.615.615,0,0,0-.164-.418l-6.09,8.87Z" transform="translate(-348.228 -96.191)" fill="#6a8284"/>
              <path id="Trazado_874587" data-name="Trazado 874587" d="M327.924,113.714a.62.62,0,0,0,.164.418l6.09-8.87-6.09-8.87a.62.62,0,0,0-.164.418Z" transform="translate(-327.924 -96.19)" fill="#6a8284"/>
              <path id="Trazado_874588" data-name="Trazado 874588" d="M340.8,95.738a.62.62,0,0,0-.455-.2H329.076a.62.62,0,0,0-.455.2l6.09,8.87Z" transform="translate(-328.457 -95.537)" fill="#8aaaac"/>
            </g>
            <rect id="Rectángulo_402245" data-name="Rectángulo 402245" width="10.033" height="15.109" transform="translate(1.239 1.517)" fill="#fff"/>
            <rect id="Rectángulo_402246" data-name="Rectángulo 402246" width="7.556" height="12.631" transform="translate(2.477 2.756)" fill="#dee8e8"/>
          </g>
          <g id="Grupo_1101600" data-name="Grupo 1101600" transform="translate(28.95)">
            <g id="Grupo_1101599" data-name="Grupo 1101599">
              <path id="Trazado_874589" data-name="Trazado 874589" d="M289.275,103.7a.618.618,0,0,0,.2-.455V91.971a.619.619,0,0,0-.2-.455l-8.87,6.09Z" transform="translate(-271.334 -91.353)" fill="#8aaaac"/>
              <path id="Trazado_874590" data-name="Trazado 874590" d="M260.482,90.986a.616.616,0,0,0-.418-.164h-16.9a.616.616,0,0,0-.418.164l8.87,6.09Z" transform="translate(-242.54 -90.822)" fill="#6a8284"/>
              <path id="Trazado_874591" data-name="Trazado 874591" d="M260.063,123.633a.619.619,0,0,0,.418-.164l-8.87-6.09-8.87,6.09a.62.62,0,0,0,.418.164Z" transform="translate(-242.54 -111.124)" fill="#6a8284"/>
              <path id="Trazado_874592" data-name="Trazado 874592" d="M242.087,91.517a.62.62,0,0,0-.2.455v11.271a.62.62,0,0,0,.2.455l8.87-6.09Z" transform="translate(-241.886 -91.353)" fill="#8aaaac"/>
            </g>
            <rect id="Rectángulo_402247" data-name="Rectángulo 402247" width="15.108" height="10.032" transform="translate(1.517 1.238)" fill="#fff"/>
            <rect id="Rectángulo_402248" data-name="Rectángulo 402248" width="12.631" height="7.555" transform="translate(2.756 2.477)" fill="#dee8e8"/>
          </g>
        </g>
        <g id="Grupo_1101602" data-name="Grupo 1101602" transform="translate(6.853)">
          <path id="Trazado_874593" data-name="Trazado 874593" d="M175.008,369.393c-5.741-1.1-6.918-15.014-6.918-15.014H151s-1.177,13.914-6.918,15.014S134.021,373,133,375.359a29.11,29.11,0,0,0-1.322,3.766h4.038A10.813,10.813,0,0,1,141,375.633c2.982-.741,4.637,2.443,5.094,3.491h3.7c.2-.98,1.05-3.845,4.178-3.845,2.581,0,4.175,3.845,4.175,3.845h2.788s1.594-3.845,4.175-3.845c3.128,0,3.979,2.865,4.178,3.845h3.7c.457-1.048,2.112-4.232,5.094-3.491a10.811,10.811,0,0,1,5.286,3.491h4.038a29.145,29.145,0,0,0-1.322-3.766C185.067,373,180.749,370.492,175.008,369.393Z" transform="translate(-121.294 -278.906)" fill="#407e84"/>
          <path id="Trazado_874594" data-name="Trazado 874594" d="M98.4,205.326a37.133,37.133,0,0,0,13.137,1.21v-4.563s-10.929-.177-12.813-1.531a8.537,8.537,0,0,1-2.686-4.236,17.252,17.252,0,0,1-.729-3.335c-.169-1.791-1.364-2.448-1.808.747-.251,1.806-.715,4.715.138,7.253-1.48.8-4,.416-5.248.389-1.59-.035-.942,1.625,3,2.548a7.425,7.425,0,0,0,4.219.03A7.885,7.885,0,0,0,98.4,205.326Z" transform="translate(-87.584 -154.291)" fill="#407e84"/>
          <path id="Trazado_874595" data-name="Trazado 874595" d="M244.113,35.756c-.107-.748-.373-1.846-.707-1.846s-.6,1.1-.707,1.846c-.147,1.03-1.325,10.333-1.325,10.333h4.062S244.26,36.787,244.113,35.756Z" transform="translate(-205.156 -33.91)" fill="#407e84"/>
          <path id="Trazado_874596" data-name="Trazado 874596" d="M194.831,92.909V88.863a51.166,51.166,0,0,1-5.634-.27,4.818,4.818,0,0,1-2.691-1.113c1.556-.348,3.478-1.042,3.991-2.387.746-1.367.174-3.953-.083-4.528-.3-.667-1.032-.531-1.046.427-.011.71-.127,3-2.242,3.567A13.928,13.928,0,0,1,184.9,85a5.686,5.686,0,0,1-.183-.736c-.281-1.624,0-3.3-.873-3.553-1.084-.318-2.225,3.679-.693,7.886C184.774,93.038,194.831,92.909,194.831,92.909Z" transform="translate(-160.079 -69.261)" fill="#407e84"/>
          <path id="Trazado_874597" data-name="Trazado 874597" d="M96.259,140.845a5.576,5.576,0,0,0,3.494,1,11.726,11.726,0,0,0,.558,1.849c1.392,3.492,8.475,4.079,8.475,4.079v-2.525s-1.4.148-4.534-1.106c-1.758-.7-2.636-2.988-3.07-4.86,1.091-.166,2.88-.6,3.6-1.739,1.1-1.722.7-4.12.314-4.123s-.436.771-.544,1.287a2.483,2.483,0,0,1-1.183,2.012,6.147,6.147,0,0,1-2.513.735c-.065-.522-.083-.854-.083-.854-.212-2.864-1.081-1.644-1.144-1.068a19.948,19.948,0,0,0-.175,4.225,4.469,4.469,0,0,1-1.779-.265c-1.125-.532-1.327-1.986-1.638-2.882s-.864.211-.933.975A3.47,3.47,0,0,0,96.259,140.845Z" transform="translate(-93.306 -109.985)" fill="#407e84"/>
          <path id="Trazado_874598" data-name="Trazado 874598" d="M323.561,259.872c-.466,0-.518.915-.646,1.527a2.948,2.948,0,0,1-1.4,2.388,7.294,7.294,0,0,1-2.977.873,10.013,10.013,0,0,0-.228-2.227c-.2-.662-1.119-.589-1.138.53-.015.83-.353,5.338-3.218,6.005a22.92,22.92,0,0,1-2.685.479c0-2.139-.137-4.87-.887-5.149-1.158-.432-1.217,1.026-1.377,1.82s-.037,4.76-1.685,7.351-16.589,2.133-16.589,2.133v4.906s8.621.078,14.546-1.256a6.99,6.99,0,0,0,5.893-6.628c1.8-.316,5.61-1.218,6.532-3.3a9.657,9.657,0,0,0,.682-2.421c1.143-.125,3.817-.58,4.808-2.134C324.493,262.723,324.018,259.876,323.561,259.872Z" transform="translate(-242.885 -206.656)" fill="#407e84"/>
          <path id="Trazado_874599" data-name="Trazado 874599" d="M366.772,147.064c4.043.666,8.056.235,8.483-.472s-.455-.908-2.225-1.02c-1.713-.109-5.081-.432-5.934-1.639a14.02,14.02,0,0,1-1.43-3.434c2.216-.855,4.321-2.162,5.109-4.142a17.386,17.386,0,0,0,1.039-4.061,4.546,4.546,0,0,0,2.435-1.316,3.9,3.9,0,0,0,.971-3.268c-.059-.854-.53-2.09-.795-1.089s.235,2.738-1.443,3.415c-.393.158-.719.272-.991.355a28.055,28.055,0,0,0-.275-5.376c-.082-.741-1.121-2.244-1.509.688a5.041,5.041,0,0,1-2.087-.256c-1.125-.532-1.327-1.986-1.638-2.882s-.863.211-.933.975A3.469,3.469,0,0,0,366.7,126.8a5.363,5.363,0,0,0,3.295,1c-.322,2.5-1.388,7.856-4.7,9.181-4.357,1.743-6.3,1.537-6.3,1.537v3.509a27.788,27.788,0,0,0,3.54-.587C362.833,143.175,363.782,146.571,366.772,147.064Z" transform="translate(-295.081 -101.432)" fill="#407e84"/>
        </g>
        <path id="Trazado_874600" data-name="Trazado 874600" d="M408.64,240.712c-.427-1.115-1.741-1.609-2.671-2.208a4.264,4.264,0,0,1-1.181-1.182s-1.372,3.088-.6,5.095a3.674,3.674,0,0,0,2.759,2.074,6.686,6.686,0,0,1-.927-3.472,8.946,8.946,0,0,0,1.958,3.073A3.67,3.67,0,0,0,408.64,240.712Z" transform="translate(-322.591 -189.417)" fill="#2fa6b1"/>
        <path id="Trazado_874601" data-name="Trazado 874601" d="M363.346,226.191c-.59,1.038-.138,2.366-.011,3.465a4.261,4.261,0,0,1-.164,1.663s3.257-.9,4.32-2.768a3.673,3.673,0,0,0-.15-3.448,6.686,6.686,0,0,1-2.094,2.921,8.942,8.942,0,0,0,1.131-3.464A3.671,3.671,0,0,0,363.346,226.191Z" transform="translate(-291.323 -179.66)" fill="#2fa6b1"/>
        <path id="Trazado_874602" data-name="Trazado 874602" d="M408.855,291.144c.917-.279,1.879.31,2.717.6a3.422,3.422,0,0,0,1.332.166s-1.281,2.393-2.933,2.9a2.951,2.951,0,0,1-2.676-.727,5.373,5.373,0,0,0,2.659-1.125,7.181,7.181,0,0,1-2.915.275A2.949,2.949,0,0,1,408.855,291.144Z" transform="translate(-324.953 -230.508)" fill="#40b0a2"/>
        <path id="Trazado_874603" data-name="Trazado 874603" d="M383.236,319.661c1.159,1,1.182,2.8,1.5,4.185a5.466,5.466,0,0,0,.911,1.94s-4.324.309-6.411-1.494a4.715,4.715,0,0,1-1.3-4.234c1.04,1.661,3.786,2.633,3.786,2.633a11.476,11.476,0,0,1-2.855-3.7A4.71,4.71,0,0,1,383.236,319.661Z" transform="translate(-302.66 -251.662)" fill="#2fa6b1"/>
        <path id="Trazado_874604" data-name="Trazado 874604" d="M194.708,318.984c-1-1.052-.86-2.758-1.034-4.094a5.186,5.186,0,0,0-.683-1.918s4.117.1,5.924,2a4.477,4.477,0,0,1,.839,4.122c-.83-1.666-3.337-2.837-3.337-2.837a10.9,10.9,0,0,1,2.359,3.763A4.473,4.473,0,0,1,194.708,318.984Z" transform="translate(-161.314 -247.251)" fill="#86c7c9"/>
        <path id="Trazado_874605" data-name="Trazado 874605" d="M97.37,254.222c-.787.548-1.883.283-2.771.262a3.426,3.426,0,0,0-1.318.253s.482-2.671,1.9-3.659a2.951,2.951,0,0,1,2.77-.133,5.374,5.374,0,0,0-2.183,1.89,7.183,7.183,0,0,1,2.688-1.159A2.95,2.95,0,0,1,97.37,254.222Z" transform="translate(-85.086 -199.615)" fill="#40b0a2"/>
        <path id="Trazado_874606" data-name="Trazado 874606" d="M132.534,153.371c.728-.624,1.845-.471,2.731-.539a3.423,3.423,0,0,0,1.286-.383s-.212,2.706-1.522,3.831a2.951,2.951,0,0,1-2.742.41,5.374,5.374,0,0,0,1.983-2.1,7.184,7.184,0,0,1-2.559,1.422A2.949,2.949,0,0,1,132.534,153.371Z" transform="translate(-114.44 -124.532)" fill="#40b0a2"/>
        <path id="Trazado_874607" data-name="Trazado 874607" d="M255.479,38.47c.037-.667.652-1.155,1.045-1.633a2.386,2.386,0,0,0,.427-.832,4.656,4.656,0,0,1,1.193,2.611,2.055,2.055,0,0,1-1.115,1.577,3.742,3.742,0,0,0-.1-2.008,5,5,0,0,1-.517,1.972A2.054,2.054,0,0,1,255.479,38.47Z" transform="translate(-209.084 -35.512)" fill="#40b0a2"/>
        <path id="Trazado_874608" data-name="Trazado 874608" d="M127.785,203.335c.331-.58,1.1-.741,1.665-.994a2.386,2.386,0,0,0,.754-.553,4.656,4.656,0,0,1-.1,2.869,2.055,2.055,0,0,1-1.7.912,3.745,3.745,0,0,0,.808-1.841,5,5,0,0,1-1.344,1.533A2.054,2.054,0,0,1,127.785,203.335Z" transform="translate(-111.303 -162.252)" fill="#40b0a2"/>
        <path id="Trazado_874609" data-name="Trazado 874609" d="M285.889,69.4c.917-.279,1.879.31,2.717.6a3.422,3.422,0,0,0,1.332.166s-1.281,2.393-2.933,2.9a2.951,2.951,0,0,1-2.676-.727,5.374,5.374,0,0,0,2.659-1.125,7.182,7.182,0,0,1-2.915.275A2.949,2.949,0,0,1,285.889,69.4Z" transform="translate(-230.946 -60.988)" fill="#40b0a2"/>
        <path id="Trazado_874610" data-name="Trazado 874610" d="M422.363,111.253c.179-1.18-.721-2.258-1.233-3.238a4.263,4.263,0,0,1-.444-1.61s-2.717,2.009-3.039,4.134a3.673,3.673,0,0,0,1.377,3.165,6.686,6.686,0,0,1,.907-3.478,8.943,8.943,0,0,0,.187,3.639A3.669,3.669,0,0,0,422.363,111.253Z" transform="translate(-333.037 -89.331)" fill="#2fa6b1"/>
        <path id="Trazado_874611" data-name="Trazado 874611" d="M201.014,132.138c-.744-.933-2.146-1.006-3.214-1.3a4.26,4.26,0,0,1-1.483-.769s-.372,3.358.968,5.038a3.673,3.673,0,0,0,3.258,1.14,6.686,6.686,0,0,1-1.935-3.028,8.945,8.945,0,0,0,2.8,2.336A3.671,3.671,0,0,0,201.014,132.138Z" transform="translate(-163.82 -107.427)" fill="#2fa6b1"/>
        <path id="Trazado_874612" data-name="Trazado 874612" d="M113.58,111.253c.179-1.18-.721-2.258-1.233-3.238a4.263,4.263,0,0,1-.444-1.61s-2.717,2.009-3.039,4.134a3.673,3.673,0,0,0,1.377,3.165,6.686,6.686,0,0,1,.907-3.478,8.942,8.942,0,0,0,.187,3.639A3.67,3.67,0,0,0,113.58,111.253Z" transform="translate(-96.975 -89.331)" fill="#86c7c9"/>
        <path id="Trazado_874613" data-name="Trazado 874613" d="M155.856,86.147c-1.039-.587-2.366-.13-3.465,0a4.266,4.266,0,0,1-1.663-.159s.91,3.254,2.781,4.312a3.673,3.673,0,0,0,3.448-.16,6.688,6.688,0,0,1-2.927-2.086,8.94,8.94,0,0,0,3.467,1.121A3.669,3.669,0,0,0,155.856,86.147Z" transform="translate(-129.004 -73.621)" fill="#7cc9ba"/>
        <path id="Trazado_874614" data-name="Trazado 874614" d="M415.934,188.675c.712-1.153,2.283-1.425,3.447-1.9a4.836,4.836,0,0,0,1.568-1.068s.875,3.735-.407,5.811a4.171,4.171,0,0,1-3.517,1.727,7.6,7.6,0,0,0,1.77-3.676,10.154,10.154,0,0,1-2.835,3.013A4.167,4.167,0,0,1,415.934,188.675Z" transform="translate(-331.379 -149.961)" fill="#40b0a2"/>
        <path id="Trazado_874615" data-name="Trazado 874615" d="M285.942,154.349c1.181-.665,2.687-.144,3.934.005a4.838,4.838,0,0,0,1.888-.177s-1.039,3.693-3.165,4.89a4.171,4.171,0,0,1-3.914-.187,7.6,7.6,0,0,0,3.326-2.363,10.155,10.155,0,0,1-3.938,1.268A4.168,4.168,0,0,1,285.942,154.349Z" transform="translate(-230.946 -125.732)" fill="#7cc9ba"/>
        <path id="Trazado_874616" data-name="Trazado 874616" d="M189.184,58.56c.172-1.344,1.49-2.241,2.355-3.151a4.835,4.835,0,0,0,.986-1.62s2.34,3.039,2.03,5.46a4.171,4.171,0,0,1-2.489,3.026,7.6,7.6,0,0,0,.093-4.079,10.149,10.149,0,0,1-1.337,3.915A4.168,4.168,0,0,1,189.184,58.56Z" transform="translate(-158.384 -49.107)" fill="#40b0a2"/>
        <path id="Trazado_874617" data-name="Trazado 874617" d="M261.447,51.107c.712-1.153,2.283-1.425,3.447-1.9a4.836,4.836,0,0,0,1.568-1.068s.875,3.735-.407,5.811a4.171,4.171,0,0,1-3.517,1.727A7.6,7.6,0,0,0,264.307,52a10.15,10.15,0,0,1-2.835,3.012A4.168,4.168,0,0,1,261.447,51.107Z" transform="translate(-213.276 -44.791)" fill="#86c7c9"/>
        <path id="Trazado_874618" data-name="Trazado 874618" d="M79.665,202.491c-.869-1.039-.633-2.616-.714-3.869a4.831,4.831,0,0,0-.52-1.824s3.82.346,5.387,2.218a4.17,4.17,0,0,1,.531,3.882,7.6,7.6,0,0,0-2.931-2.838,10.155,10.155,0,0,1,1.966,3.64A4.168,4.168,0,0,1,79.665,202.491Z" transform="translate(-73.733 -158.437)" fill="#2fa6b1"/>
        <path id="Trazado_874619" data-name="Trazado 874619" d="M349.473,268.336a3.772,3.772,0,0,1-.921,1.155c-.758.619-1.863,1.183-2.129,2.2a3.246,3.246,0,0,0,.918,2.9,7.912,7.912,0,0,0,1.417-2.894,5.913,5.913,0,0,1-.471,3.143,3.248,3.248,0,0,0,2.22-2.095C350.984,270.914,349.473,268.336,349.473,268.336Z" transform="translate(-278.551 -213.127)" fill="#86c7c9"/>
        <path id="Trazado_874620" data-name="Trazado 874620" d="M398.145,98.777a3.773,3.773,0,0,1-.287,1.449c-.389.9-1.112,1.906-.878,2.936a3.247,3.247,0,0,0,2.15,2.158,7.913,7.913,0,0,0-.072-3.222,5.914,5.914,0,0,1,1.025,3.008,3.248,3.248,0,0,0,1.009-2.88C400.671,100.373,398.145,98.777,398.145,98.777Z" transform="translate(-317.227 -83.5)" fill="#86c7c9"/>
        <path id="Trazado_874621" data-name="Trazado 874621" d="M76.832,285.81s2.607-.985,4.391-.412a4.508,4.508,0,0,0-3.561-2.292c-2.637-.029-5.606,2.864-5.606,2.864a5.238,5.238,0,0,1,1.863.855c1.086.815,2.214,2.116,3.679,2.133a4.505,4.505,0,0,0,3.606-2.2A10.972,10.972,0,0,0,76.832,285.81Z" transform="translate(-68.859 -224.418)" fill="#40b0a2"/>
        <path id="Trazado_874622" data-name="Trazado 874622" d="M140.765,202.2a3.773,3.773,0,0,1-.287,1.449c-.389.9-1.112,1.906-.878,2.936a3.248,3.248,0,0,0,2.15,2.158,7.914,7.914,0,0,0-.072-3.222,5.914,5.914,0,0,1,1.025,3.008,3.249,3.249,0,0,0,1.009-2.88C143.292,203.8,140.765,202.2,140.765,202.2Z" transform="translate(-120.462 -162.57)" fill="#86c7c9"/>
        <path id="Trazado_874623" data-name="Trazado 874623" d="M207.332,286.185a3.773,3.773,0,0,1-.287,1.449c-.389.9-1.112,1.906-.878,2.936a3.247,3.247,0,0,0,2.15,2.158,7.914,7.914,0,0,0-.072-3.222,5.914,5.914,0,0,1,1.025,3.008,3.248,3.248,0,0,0,1.009-2.88C209.859,287.78,207.332,286.185,207.332,286.185Z" transform="translate(-171.352 -226.773)" fill="#40b0a2"/>
        <path id="Trazado_874624" data-name="Trazado 874624" d="M384.912,269.842c-.444-.781-1.478-1-2.238-1.341a3.211,3.211,0,0,1-1.013-.746s-.671,2.454.128,3.861a2.766,2.766,0,0,0,2.289,1.231,5.036,5.036,0,0,1-1.083-2.48,6.739,6.739,0,0,0,1.805,2.066A2.765,2.765,0,0,0,384.912,269.842Z" transform="translate(-305.349 -212.683)" fill="#7cc9ba"/>
        <path id="Trazado_874625" data-name="Trazado 874625" d="M90.525,124.7c-.444-.781-1.478-1-2.238-1.341a3.21,3.21,0,0,1-1.013-.746s-.671,2.454.128,3.861a2.766,2.766,0,0,0,2.289,1.231,5.036,5.036,0,0,1-1.083-2.48,6.739,6.739,0,0,0,1.805,2.066A2.765,2.765,0,0,0,90.525,124.7Z" transform="translate(-80.292 -101.72)" fill="#7cc9ba"/>
        <path id="Trazado_874626" data-name="Trazado 874626" d="M161.9,112.819c-.835.331-1.2,1.325-1.639,2.03a3.211,3.211,0,0,1-.88.9s2.336,1.006,3.841.41a2.765,2.765,0,0,0,1.537-2.1,5.037,5.037,0,0,1-2.606.728,6.739,6.739,0,0,0,2.3-1.5A2.765,2.765,0,0,0,161.9,112.819Z" transform="translate(-135.618 -94.12)" fill="#40b0a2"/>
        <path id="Trazado_874627" data-name="Trazado 874627" d="M62.031,234.986c-1.1.313-1.676,1.523-2.324,2.358a4.078,4.078,0,0,1-1.223,1.025s2.824,1.563,4.8,1a3.508,3.508,0,0,0,2.2-2.453,6.391,6.391,0,0,1-3.381.593,8.551,8.551,0,0,0,3.088-1.607A3.507,3.507,0,0,0,62.031,234.986Z" transform="translate(-58.484 -187.551)" fill="#86c7c9"/>
        <path id="Trazado_874628" data-name="Trazado 874628" d="M223.182,61.855c-.444-.781-1.478-1-2.238-1.341a3.21,3.21,0,0,1-1.013-.746s-.671,2.454.128,3.861a2.766,2.766,0,0,0,2.289,1.231,5.036,5.036,0,0,1-1.083-2.48,6.739,6.739,0,0,0,1.805,2.066A2.765,2.765,0,0,0,223.182,61.855Z" transform="translate(-181.708 -53.678)" fill="#7cc9ba"/>
      </g>
    </g>
  </g>
</svg>
