<svg xmlns="http://www.w3.org/2000/svg" width="400" height="434" viewBox="0 0 400 434">
  <g id="_38321960_8618609" data-name="38321960_8618609" transform="translate(-46.707 -24.606)">
    <g id="Background_Complete" transform="translate(46.707 29.235)">
      <path id="Trazado_875047" data-name="Trazado 875047" d="M246.707,187.728,278.384,29.344,257.89,189.44,338.638,48.272,267.978,194.41,389.892,84.277,275.984,202.151l151.146-68.318L281.124,211.9,446.707,192.09,282.9,222.717l163.812,30.628L281.124,233.53,427.131,311.6,275.984,243.283,389.892,361.157,267.978,251.024l70.66,146.138L257.89,255.994l20.494,160.1L246.707,257.706,215.03,416.09l20.495-160.1L154.777,397.162l70.66-146.138L103.523,361.157,217.43,243.283,66.284,311.6,212.29,233.53,46.707,253.345l163.812-30.628L46.707,192.09,212.29,211.9,66.284,133.833,217.43,202.151,103.523,84.277,225.436,194.41,154.777,48.272,235.524,189.44,215.03,29.344Z" transform="translate(-46.707 -29.344)" fill="#ebebeb" opacity="0.4"/>
      <g id="Grupo_1101993" data-name="Grupo 1101993" transform="translate(18.243 30.42)">
        <path id="Trazado_875048" data-name="Trazado 875048" d="M128.737,235.089l6.294-1.164,1.408-6.636,1.407,6.636,6.294,1.167-6.268,1.531-1.433,6.268-1.434-6.268Z" transform="translate(-66.342 -69.636)" fill="#dbdbdb"/>
        <path id="Trazado_875049" data-name="Trazado 875049" d="M392.611,397.139l6.3-1.164,1.407-6.636,1.407,6.636,6.3,1.167-6.268,1.531-1.434,6.268-1.433-6.268Z" transform="translate(-70.137 -78.529)" fill="#dbdbdb"/>
        <path id="Trazado_875050" data-name="Trazado 875050" d="M406.754,91.109l3.519-.651.786-3.708.786,3.708,3.518.653-3.5.856-.8,3.5-.8-3.5Z" transform="translate(-70.463 -61.088)" fill="#dbdbdb"/>
        <path id="Trazado_875051" data-name="Trazado 875051" d="M83.779,365.005l3.518-.651.786-3.709.786,3.709,3.519.652-3.5.857-.8,3.5-.8-3.5Z" transform="translate(-65.805 -77.867)" fill="#dbdbdb"/>
        <path id="Trazado_875052" data-name="Trazado 875052" d="M179.6,347.622l3.519-.651.786-3.708.785,3.708,3.519.653-3.5.856-.8,3.5-.8-3.5Z" transform="translate(-67.131 -77.466)" fill="#dbdbdb"/>
        <path id="Trazado_875053" data-name="Trazado 875053" d="M425.806,275.9l3.518-.651.786-3.708.786,3.708,3.519.653-3.5.856-.8,3.5-.8-3.5Z" transform="translate(-70.902 -71.924)" fill="#dbdbdb"/>
        <path id="Trazado_875054" data-name="Trazado 875054" d="M65.381,109.575l3.519-.65.786-3.709.786,3.709,3.518.652-3.5.857-.8,3.5-.8-3.5Z" transform="translate(-65.381 -61.514)" fill="#dbdbdb"/>
        <path id="Trazado_875055" data-name="Trazado 875055" d="M202.628,370.568a1.021,1.021,0,0,0,0-2.04A1.021,1.021,0,0,0,202.628,370.568Z" transform="translate(-67.488 -78.049)" fill="#dbdbdb"/>
        <path id="Trazado_875056" data-name="Trazado 875056" d="M80.768,187.491a1.021,1.021,0,0,0,0-2.04A1.021,1.021,0,0,0,80.768,187.491Z" transform="translate(-65.713 -67.179)" fill="#dbdbdb"/>
        <path id="Trazado_875057" data-name="Trazado 875057" d="M413.26,387.5a.722.722,0,0,0,0-1.443A.722.722,0,0,0,413.26,387.5Z" transform="translate(-70.597 -78.453)" fill="#dbdbdb"/>
        <path id="Trazado_875058" data-name="Trazado 875058" d="M406.738,118.78a.722.722,0,0,0,0-1.443A.722.722,0,0,0,406.738,118.78Z" transform="translate(-70.446 -61.793)" fill="#dbdbdb"/>
        <path id="Trazado_875059" data-name="Trazado 875059" d="M408.363,249.465a.722.722,0,0,0,0-1.443A.722.722,0,0,0,408.363,249.465Z" transform="translate(-70.484 -70.522)" fill="#dbdbdb"/>
        <path id="Trazado_875060" data-name="Trazado 875060" d="M203.644,61.925a.722.722,0,0,0,0-1.443A.722.722,0,0,0,203.644,61.925Z" transform="translate(-67.51 -60.482)" fill="#dbdbdb"/>
        <path id="Trazado_875061" data-name="Trazado 875061" d="M329.206,263.122a.722.722,0,0,0,0-1.443A.722.722,0,0,0,329.206,263.122Z" transform="translate(-69.453 -71.253)" fill="#dbdbdb"/>
        <path id="Trazado_875062" data-name="Trazado 875062" d="M132.208,203.976a.722.722,0,0,0,0-1.443A.722.722,0,0,0,132.208,203.976Z" transform="translate(-66.906 -68.087)" fill="#dbdbdb"/>
        <path id="Trazado_875063" data-name="Trazado 875063" d="M425.021,322.9a.722.722,0,0,0,0-1.443A.722.722,0,0,0,425.021,322.9Z" transform="translate(-70.868 -74.453)" fill="#dbdbdb"/>
        <path id="Trazado_875064" data-name="Trazado 875064" d="M93.289,114.847a.722.722,0,0,0,0-1.443A.722.722,0,0,0,93.289,114.847Z" transform="translate(-66.009 -61.702)" fill="#dbdbdb"/>
        <path id="Trazado_875065" data-name="Trazado 875065" d="M413.05,322.109c2.517,0,2.52-3.912,0-3.912S410.529,322.109,413.05,322.109Z" transform="translate(-70.564 -74.337)" fill="#dbdbdb"/>
        <path id="Trazado_875066" data-name="Trazado 875066" d="M376.513,230.733c2.517,0,2.52-3.911,0-3.911S373.992,230.733,376.513,230.733Z" transform="translate(-69.722 -69.425)" fill="#dbdbdb"/>
        <path id="Trazado_875067" data-name="Trazado 875067" d="M156.667,156.947c2.517,0,2.52-3.912,0-3.912S154.147,156.947,156.667,156.947Z" transform="translate(-66.76 -65.458)" fill="#dbdbdb"/>
        <path id="Trazado_875068" data-name="Trazado 875068" d="M114,320.107c2.517,0,2.521-3.912,0-3.912S111.479,320.107,114,320.107Z" transform="translate(-66.459 -74.229)" fill="#dbdbdb"/>
      </g>
    </g>
    <g id="Stars" transform="translate(139.867 24.606)">
      <g id="Grupo_1101994" data-name="Grupo 1101994">
        <path id="Trazado_875069" data-name="Trazado 875069" d="M140.638,83.042l6.3-1.164,1.407-6.636,1.407,6.636,6.3,1.166-6.269,1.532-1.433,6.268-1.434-6.268Z" transform="translate(-140.638 -25.774)" fill="#ffc727"/>
        <path id="Trazado_875070" data-name="Trazado 875070" d="M317.355,214.062l6.294-1.164,1.407-6.636,1.407,6.636,6.3,1.167L326.49,215.6l-1.434,6.268-1.433-6.268Z" transform="translate(-144.713 -28.795)" fill="#ffc727"/>
        <path id="Trazado_875071" data-name="Trazado 875071" d="M173.671,190.855l3.519-.651.786-3.709.786,3.709,3.518.653-3.5.856-.8,3.5-.8-3.5Z" transform="translate(-141.4 -28.339)" fill="#ffc727"/>
        <path id="Trazado_875072" data-name="Trazado 875072" d="M178.708,65.58l3.519-.651.786-3.709.786,3.709,3.518.653-3.5.856-.8,3.5-.8-3.5Z" transform="translate(-141.516 -25.45)" fill="#ffc727"/>
        <path id="Trazado_875073" data-name="Trazado 875073" d="M350.549,92.827l3.519-.65.785-3.709.786,3.709,3.519.652-3.5.857-.8,3.5-.8-3.5Z" transform="translate(-145.479 -26.079)" fill="#ffc727"/>
        <path id="Trazado_875074" data-name="Trazado 875074" d="M253.037,28.965l3.519-.651.786-3.708.786,3.708,3.518.653-3.5.856-.8,3.5-.8-3.5Z" transform="translate(-143.23 -24.606)" fill="#ffc727"/>
        <path id="Trazado_875075" data-name="Trazado 875075" d="M163.5,199.607a1.021,1.021,0,0,0,0-2.04A1.021,1.021,0,0,0,163.5,199.607Z" transform="translate(-141.142 -28.595)" fill="#ffc727"/>
        <path id="Trazado_875076" data-name="Trazado 875076" d="M338,204.427a.722.722,0,0,0,0-1.443A.722.722,0,0,0,338,204.427Z" transform="translate(-145.174 -28.72)" fill="#ffc727"/>
        <path id="Trazado_875077" data-name="Trazado 875077" d="M167.01,139.09a.722.722,0,0,0,0-1.443A.722.722,0,0,0,167.01,139.09Z" transform="translate(-141.23 -27.213)" fill="#ffc727"/>
        <path id="Trazado_875078" data-name="Trazado 875078" d="M333.106,66.388a.722.722,0,0,0,0-1.443A.722.722,0,0,0,333.106,66.388Z" transform="translate(-145.061 -25.536)" fill="#ffc727"/>
        <path id="Trazado_875079" data-name="Trazado 875079" d="M159.589,89.911a.722.722,0,0,0,0-1.443A.722.722,0,0,0,159.589,89.911Z" transform="translate(-141.059 -26.079)" fill="#ffc727"/>
        <path id="Trazado_875080" data-name="Trazado 875080" d="M349.764,139.828a.722.722,0,0,0,0-1.443A.722.722,0,0,0,349.764,139.828Z" transform="translate(-145.445 -27.23)" fill="#ffc727"/>
        <path id="Trazado_875081" data-name="Trazado 875081" d="M280.945,34.237a.722.722,0,0,0,0-1.443A.722.722,0,0,0,280.945,34.237Z" transform="translate(-143.858 -24.795)" fill="#ffc727"/>
        <path id="Trazado_875082" data-name="Trazado 875082" d="M337.793,139.032c2.517,0,2.52-3.912,0-3.912S335.273,139.032,337.793,139.032Z" transform="translate(-145.141 -27.155)" fill="#ffc727"/>
        <path id="Trazado_875083" data-name="Trazado 875083" d="M305.123,66.855c2.517,0,2.52-3.912,0-3.912S302.6,66.855,305.123,66.855Z" transform="translate(-144.388 -25.49)" fill="#ffc727"/>
        <path id="Trazado_875084" data-name="Trazado 875084" d="M185.9,167.532c2.517,0,2.521-3.911,0-3.911S183.38,167.532,185.9,167.532Z" transform="translate(-141.638 -27.812)" fill="#ffc727"/>
      </g>
    </g>
    <g id="Light_bulb" transform="translate(151.729 26.635)">
      <g id="Grupo_1102005" data-name="Grupo 1102005">
        <g id="Grupo_1101995" data-name="Grupo 1101995">
          <path id="Trazado_875085" data-name="Trazado 875085" d="M249.163,43.707a75.056,75.056,0,0,1-.314-17.024,75.113,75.113,0,0,1,.314,17.024Z" transform="translate(-154.988 -26.683)" fill="#263238"/>
          <path id="Trazado_875086" data-name="Trazado 875086" d="M209.184,54.867A75.094,75.094,0,0,1,200.4,40.28a75.143,75.143,0,0,1,8.784,14.587Z" transform="translate(-153.878 -26.997)" fill="#263238"/>
          <path id="Trazado_875087" data-name="Trazado 875087" d="M180.133,84.524a75.05,75.05,0,0,1-14.9-8.24,75.1,75.1,0,0,1,14.9,8.24Z" transform="translate(-153.067 -27.827)" fill="#263238"/>
          <path id="Trazado_875088" data-name="Trazado 875088" d="M169.8,124.718a75.057,75.057,0,0,1-17.024.314,75.111,75.111,0,0,1,17.024-.314Z" transform="translate(-152.78 -28.936)" fill="#263238"/>
          <path id="Trazado_875089" data-name="Trazado 875089" d="M180.963,164.513a75.123,75.123,0,0,1-14.587,8.784,75.075,75.075,0,0,1,14.587-8.784Z" transform="translate(-153.094 -29.862)" fill="#263238"/>
          <path id="Trazado_875090" data-name="Trazado 875090" d="M319.515,163.089a75.086,75.086,0,0,1,14.9,8.24,75.133,75.133,0,0,1-14.9-8.24Z" transform="translate(-156.625 -29.829)" fill="#263238"/>
          <path id="Trazado_875091" data-name="Trazado 875091" d="M329.794,123.066a75.113,75.113,0,0,1,17.024-.314,75.055,75.055,0,0,1-17.024.314Z" transform="translate(-156.862 -28.891)" fill="#263238"/>
          <path id="Trazado_875092" data-name="Trazado 875092" d="M318.693,83.087A75.094,75.094,0,0,1,333.28,74.3a75.047,75.047,0,0,1-14.587,8.784Z" transform="translate(-156.606 -27.781)" fill="#263238"/>
          <path id="Trazado_875093" data-name="Trazado 875093" d="M289.185,54.036a75.086,75.086,0,0,1,8.24-14.9,75.031,75.031,0,0,1-8.24,14.9Z" transform="translate(-155.926 -26.97)" fill="#263238"/>
        </g>
        <g id="Grupo_1102004" data-name="Grupo 1102004" transform="translate(25.983 26.438)">
          <g id="Grupo_1102003" data-name="Grupo 1102003">
            <g id="Grupo_1101996" data-name="Grupo 1101996" opacity="0.5">
              <path id="Trazado_875094" data-name="Trazado 875094" d="M317.186,127.35c-3.411,42.739-39.02,55.623-39.02,55.623-2.618,6.5-6.031,23.021-6.031,23.021h-47.53s-3.412-16.524-6.031-23.021c0,0-35.607-12.884-39.02-55.623-2.37-29.7,18.776-73.6,68.557-73.605h.516C298.41,53.756,319.557,97.654,317.186,127.35Z" transform="translate(-179.376 -53.745)" fill="#ffc727"/>
            </g>
            <g id="Grupo_1101997" data-name="Grupo 1101997" transform="translate(5.892 6.499)" opacity="0.7">
              <path id="Trazado_875095" data-name="Trazado 875095" d="M311.451,127.719c-3.12,39.09-35.689,50.875-35.689,50.875-2.394,5.942-5.516,27.555-5.516,27.555H226.774s-3.121-21.612-5.516-27.555c0,0-32.567-11.785-35.689-50.875-2.168-27.161,17.173-67.312,62.7-67.322h.472C294.278,60.407,313.618,100.558,311.451,127.719Z" transform="translate(-185.407 -60.397)" fill="#ffc727"/>
            </g>
            <g id="Grupo_1101998" data-name="Grupo 1101998" transform="translate(43.47 77.119)">
              <line id="Línea_593" data-name="Línea 593" x1="13.972" y1="74.835" transform="translate(0 4.336)" fill="none" stroke="#fff" stroke-miterlimit="10" stroke-width="3"/>
              <line id="Línea_594" data-name="Línea 594" y1="74.839" x2="13.949" transform="translate(37.102 4.328)" fill="none" stroke="#fff" stroke-miterlimit="10" stroke-width="3"/>
              <path id="Trazado_875096" data-name="Trazado 875096" d="M225.1,139.877s2.767,14.654,9.4,14.653,12.854-21.845,4.144-21.843S238.37,161.3,249.431,161.3s17.415-28.619,9.674-28.618-5.294,22.812,5.351,22.81c5.712,0,9.791-14.694,9.791-14.694" transform="translate(-223.9 -132.684)" fill="none" stroke="#fff" stroke-miterlimit="10" stroke-width="1"/>
            </g>
            <g id="Grupo_1102001" data-name="Grupo 1102001" transform="translate(37.483 152.308)">
              <rect id="Rectángulo_402332" data-name="Rectángulo 402332" width="59.542" height="32.769" transform="translate(1.741)" fill="#455a64"/>
              <g id="Grupo_1101999" data-name="Grupo 1101999" transform="translate(8.492 32.768)">
                <path id="Trazado_875097" data-name="Trazado 875097" d="M272.477,243.19c-3.5,6.209-10.216,11.763-23.021,11.763s-19.519-5.554-23.021-11.763Z" transform="translate(-226.436 -243.19)" fill="#455a64"/>
                <path id="Trazado_875098" data-name="Trazado 875098" d="M272.477,243.19a22.086,22.086,0,0,1-3.858,5.039l-40.993-3.145a21.333,21.333,0,0,1-1.19-1.894h46.041Z" transform="translate(-226.436 -243.19)" fill="#37474f"/>
              </g>
              <g id="Grupo_1102000" data-name="Grupo 1102000" transform="translate(0 3.392)">
                <path id="Trazado_875099" data-name="Trazado 875099" d="M280.769,215.979,217.744,221.8v-2.859l63.025-5.826Z" transform="translate(-217.744 -213.12)" fill="#37474f"/>
                <path id="Trazado_875100" data-name="Trazado 875100" d="M280.769,224.834l-63.025,5.826V227.8l63.025-5.826Z" transform="translate(-217.744 -213.324)" fill="#37474f"/>
                <path id="Trazado_875101" data-name="Trazado 875101" d="M280.769,233.688l-63.025,5.827v-2.859l63.025-5.827Z" transform="translate(-217.744 -213.528)" fill="#37474f"/>
              </g>
            </g>
            <g id="Grupo_1102002" data-name="Grupo 1102002" transform="translate(14.219 17.311)" opacity="0.5">
              <path id="Trazado_875102" data-name="Trazado 875102" d="M194.892,117.774c2.182.365,5.009-10.9,17.124-23.94,5.382-5.793,25.8-13.04,24.327-19.726s-19.684.189-28.846,10.8C192.753,101.992,192.883,117.438,194.892,117.774Z" transform="translate(-193.931 -71.464)" fill="#fff"/>
              <path id="Trazado_875103" data-name="Trazado 875103" d="M304.8,121.122c4.015,0,4.022-6.241,0-6.241S300.774,121.122,304.8,121.122Z" transform="translate(-196.418 -72.466)" fill="#fff"/>
              <path id="Trazado_875104" data-name="Trazado 875104" d="M284.747,168.3c2.2,1.673,12.851-8.157,17.655-19.89,3.987-9.736,4.674-22.049,1.992-22.763s-4.42,16.178-7.645,22.4C292.681,155.9,282.4,166.514,284.747,168.3Z" transform="translate(-196.018 -72.713)" fill="#fff"/>
            </g>
          </g>
        </g>
      </g>
    </g>
    <g id="Table" transform="translate(73.288 457.706)">
      <g id="Grupo_1102006" data-name="Grupo 1102006">
        <path id="Trazado_875105" data-name="Trazado 875105" d="M420.754,479.089c-111.1.6-235.737.6-346.839,0,111.1-.6,235.737-.6,346.839,0Z" transform="translate(-73.915 -478.64)" fill="#263238"/>
      </g>
    </g>
    <g id="Hand" transform="translate(148.894 176.66)">
      <g id="Grupo_1102017" data-name="Grupo 1102017">
        <g id="Grupo_1102015" data-name="Grupo 1102015">
          <g id="Grupo_1102011" data-name="Grupo 1102011" transform="translate(5.713 80.491)">
            <g id="Grupo_1102008" data-name="Grupo 1102008">
              <g id="Grupo_1102007" data-name="Grupo 1102007">
                <path id="Trazado_875106" data-name="Trazado 875106" d="M232.681,353.043s-54.231-17.87-58.349-23.079-18.1-48.014-18.586-52.508,7.812-7.164,16.813,2.154c9.893,10.241,17.093,33.634,21.167,34.809,1.538.444,26.972,4.515,29.436,5.558S232.681,353.043,232.681,353.043Z" transform="translate(-155.726 -273.351)" fill="#d3766a"/>
              </g>
            </g>
            <g id="Grupo_1102010" data-name="Grupo 1102010" opacity="0.1">
              <g id="Grupo_1102009" data-name="Grupo 1102009">
                <path id="Trazado_875107" data-name="Trazado 875107" d="M232.681,353.043s-54.231-17.87-58.349-23.079-18.1-48.014-18.586-52.508,7.812-7.164,16.813,2.154c9.893,10.241,17.093,33.634,21.167,34.809,1.538.444,26.972,4.515,29.436,5.558S232.681,353.043,232.681,353.043Z" transform="translate(-155.726 -273.351)"/>
              </g>
            </g>
          </g>
          <g id="Grupo_1102013" data-name="Grupo 1102013" transform="translate(0 66.573)">
            <g id="Grupo_1102012" data-name="Grupo 1102012">
              <path id="Trazado_875108" data-name="Trazado 875108" d="M241.229,373.653s-73.4-49.841-76.971-55.438-14.343-51.518-14.38-56.039,11.187-5.012,19.208,5.163c8.816,11.183,15.849,32.981,19.785,34.56,1.486.6,22.626,10,24.972,11.283S241.229,373.653,241.229,373.653Z" transform="translate(-149.878 -259.103)" fill="#d3766a"/>
            </g>
          </g>
          <g id="Grupo_1102014" data-name="Grupo 1102014" transform="translate(16.447)">
            <path id="Trazado_875109" data-name="Trazado 875109" d="M196.087,331.828c-8.593-10.108-28.35-63.272-29.346-69.837s25.74-57.4,36.834-69.624c5.094-5.615,15.925,6.12,14.363,25.61-1.7,21.21-15,41.645-12.954,45.307,1.436,2.575,19.428,44,21.052,46.129.978,1.281,23.357,55.74,15.581,62.671C241.617,372.081,198.971,335.222,196.087,331.828Z" transform="translate(-166.713 -190.959)" fill="#d3766a"/>
          </g>
          <path id="Trazado_875110" data-name="Trazado 875110" d="M264.777,278.735c15.263-.465,16.622-21.49,14.471-36.694-3.995-28.246,14.433-41.807,23.23-38.2,11.331,4.651-2.865,38.2,13.5,58.954,34.158,43.322,27.123,81.6,27.123,81.6C331.8,341.043,287.458,290.324,264.777,278.735Z" transform="translate(-152.528 -191.243)" fill="#d3766a"/>
          <path id="Trazado_875111" data-name="Trazado 875111" d="M226.121,361.93C217,347.456,217.08,319.823,204.9,301.088c-6.173-9.494-30.358-54.626-37.017-67.6-4.6-8.968-14.255-26.06-9.944-28.169,6.966-3.408,21.841-.941,30.5,8.178,10.8,11.38,24.661,36.837,32.986,42.582,65.226,45.007,92.65,26.539,104.228,30.053l14.961,58.274-3.386,128.34H195.947Z" transform="translate(-150.039 -191.257)" fill="#d3766a"/>
          <path id="Trazado_875112" data-name="Trazado 875112" d="M225.216,370.088c-1.851,31.754,69.013,33.978,116.315-22.362l-3.386,128.34H196.87Z" transform="translate(-150.962 -194.574)" opacity="0.1"/>
          <path id="Trazado_875113" data-name="Trazado 875113" d="M165.549,229.215c6.971,11.375,13.6,22.992,20.174,34.579,5.26,7.893,11.929,14.739,18.44,21.652q7.929,8.244,16.148,16.227c-2.9-2.481-5.734-5.046-8.55-7.627-9.738-9.164-19.669-18.361-27.359-29.4-6.752-11.573-13.223-23.259-18.852-35.428Z" transform="translate(-150.239 -191.841)" fill="#263238"/>
          <path id="Trazado_875114" data-name="Trazado 875114" d="M167.026,264.989c6.292,13.687,11.42,27.917,16.46,42.1a5.251,5.251,0,0,0,.424.988c3.009,5.24,7.457,9.706,11.425,14.268,2.048,2.312,4.17,4.557,6.258,6.841a145.679,145.679,0,0,1-16.363-16.5,20.132,20.132,0,0,1-3.222-5.073c-4.844-13.13-10.418-29.271-14.983-42.631Z" transform="translate(-150.273 -192.666)" fill="#263238"/>
          <path id="Trazado_875115" data-name="Trazado 875115" d="M188.19,212.737c4.26,2.917,7.567,7.018,10.569,11.162,2.937,4.211,10.789,15.52,12.769,20.269-6.169-8.126-16.659-23.7-23.338-31.431Z" transform="translate(-150.761 -191.461)" fill="#263238"/>
        </g>
        <g id="Grupo_1102016" data-name="Grupo 1102016" transform="translate(35.235 233.247)">
          <path id="Trazado_875116" data-name="Trazado 875116" d="M205.554,429.712l136.7,2.362-1.972,45.883h-148.5Z" transform="translate(-186.079 -429.712)" fill="#ebebeb"/>
          <path id="Trazado_875117" data-name="Trazado 875117" d="M192.165,445.848l153.532,2.88.639,29.6H185.945Z" transform="translate(-185.945 -430.084)" fill="#ffc727"/>
        </g>
      </g>
    </g>
    <g id="Box" transform="translate(122.038 368.043)">
      <g id="Grupo_1102022" data-name="Grupo 1102022">
        <rect id="Rectángulo_402333" data-name="Rectángulo 402333" width="219.836" height="90.108" transform="translate(23.422)" fill="#ffc727"/>
        <rect id="Rectángulo_402334" data-name="Rectángulo 402334" width="219.836" height="90.108" transform="translate(23.422)" opacity="0.1"/>
        <rect id="Rectángulo_402335" data-name="Rectángulo 402335" width="109.915" height="90.112" transform="translate(133.337 0.001)" opacity="0.2"/>
        <g id="Grupo_1102018" data-name="Grupo 1102018" transform="translate(138.273 6.208)">
          <path id="Trazado_875118" data-name="Trazado 875118" d="M362.871,470.912q-12.931-9.612-25.629-19.285l-25.256-19.381-24.932-19.466q-12.406-9.748-24.555-19.564,12.935,9.61,25.632,19.284l25.254,19.381,24.931,19.466Q350.718,461.1,362.871,470.912Z" transform="translate(-262.496 -393.215)" fill="#ffc727"/>
          <path id="Trazado_875119" data-name="Trazado 875119" d="M362.871,393.215q-12.163,9.812-24.557,19.563l-24.931,19.466-25.254,19.382Q275.439,461.3,262.5,470.911q12.157-9.814,24.555-19.564l24.932-19.466L337.24,412.5Q349.93,402.824,362.871,393.215Z" transform="translate(-262.496 -393.215)" fill="#ffc727"/>
        </g>
        <g id="Grupo_1102020" data-name="Grupo 1102020" transform="translate(29.751 75.321)">
          <g id="Grupo_1102019" data-name="Grupo 1102019">
            <rect id="Rectángulo_402336" data-name="Rectángulo 402336" width="0.631" height="8.907" transform="translate(12.756 8.907) rotate(180)" fill="#fff"/>
            <rect id="Rectángulo_402337" data-name="Rectángulo 402337" width="0.631" height="8.907" transform="translate(11.24 8.907) rotate(180)" fill="#fff"/>
            <rect id="Rectángulo_402338" data-name="Rectángulo 402338" width="0.631" height="8.907" transform="translate(9.725 8.907) rotate(180)" fill="#fff"/>
            <rect id="Rectángulo_402339" data-name="Rectángulo 402339" width="0.632" height="8.907" transform="translate(8.209 8.907) rotate(180)" fill="#fff"/>
            <rect id="Rectángulo_402340" data-name="Rectángulo 402340" width="0.631" height="8.907" transform="translate(6.694 8.907) rotate(180)" fill="#fff"/>
            <rect id="Rectángulo_402341" data-name="Rectángulo 402341" width="0.632" height="8.907" transform="translate(5.178 8.907) rotate(180)" fill="#fff"/>
            <rect id="Rectángulo_402342" data-name="Rectángulo 402342" width="0.631" height="8.907" transform="translate(3.662 8.907) rotate(180)" fill="#fff"/>
            <rect id="Rectángulo_402343" data-name="Rectángulo 402343" width="0.631" height="8.907" transform="translate(2.147 8.907) rotate(180)" fill="#fff"/>
            <rect id="Rectángulo_402344" data-name="Rectángulo 402344" width="0.631" height="8.907" transform="translate(0.631 8.907) rotate(180)" fill="#fff"/>
          </g>
          <path id="Trazado_875120" data-name="Trazado 875120" d="M170.757,472.188l-2.431.676h5.7l-2.431-.684v-3.274c1.74-.228,2.431-1.944,2.431-4.945h-5.7c0,2.992.692,4.718,2.431,4.945Z" transform="translate(-151.802 -463.959)" fill="#fff"/>
          <path id="Trazado_875121" data-name="Trazado 875121" d="M175.526,468.5h1.489v4.36h3.813V468.5h1.5l-3.4-4.543Z" transform="translate(-151.968 -463.959)" fill="#fff"/>
        </g>
        <path id="Trazado_875122" data-name="Trazado 875122" d="M144.934,478.833V475.4l109.915-7.854v11.285Z" transform="translate(-121.512 -388.721)" opacity="0.1"/>
        <path id="Trazado_875123" data-name="Trazado 875123" d="M230.874,411.511H120.959l23.422-24.651H254.3Z" transform="translate(-120.959 -386.86)" fill="#ffc727"/>
        <g id="Grupo_1102021" data-name="Grupo 1102021" transform="translate(133.337)">
          <path id="Trazado_875124" data-name="Trazado 875124" d="M280.865,411.511H390.78L367.359,386.86H257.444Z" transform="translate(-257.444 -386.86)" fill="#ffc727"/>
          <path id="Trazado_875125" data-name="Trazado 875125" d="M280.865,411.511H390.78L367.359,386.86H257.444Z" transform="translate(-257.444 -386.86)" opacity="0.1"/>
        </g>
      </g>
    </g>
  </g>
</svg>
