<svg xmlns="http://www.w3.org/2000/svg" width="295" height="90.642" viewBox="0 0 295 90.642">
  <g id="Grupo_1101897" data-name="Grupo 1101897" transform="translate(-1125.051 -788)">
    <path id="Rectángulo_402251" data-name="Rectángulo 402251" d="M20,0H295a0,0,0,0,1,0,0V74a0,0,0,0,1,0,0H20A20,20,0,0,1,0,54V20A20,20,0,0,1,20,0Z" transform="translate(1125.051 788)" fill="#d7e3e5"/>
    <g id="Grupo_1101877" data-name="Grupo 1101877" transform="translate(1159.337 802.707)">
      <path id="Trazado_874729" data-name="Trazado 874729" d="M268.682,248.96a3.518,3.518,0,0,0,2.538-1.07l5.978-6.129a3.544,3.544,0,0,0-5.075-4.949l-3.507,3.6-.614-.6a3.544,3.544,0,1,0-4.942,5.082l3.152,3.065A3.526,3.526,0,0,0,268.682,248.96Zm-4.054-7.486a1.261,1.261,0,0,1,1.78-.025l1.432,1.393a1.143,1.143,0,0,0,1.615-.021l4.3-4.412a1.259,1.259,0,0,1,1.8,1.757l-5.978,6.129a1.265,1.265,0,0,1-1.779.024l-3.152-3.065A1.26,1.26,0,0,1,264.628,241.474Z" transform="translate(-222.146 -200.963)" fill="#36737d"/>
      <path id="Trazado_874730" data-name="Trazado 874730" d="M221.032,202.644a1.143,1.143,0,0,0-1.825,1.377,15.064,15.064,0,0,0,1.368,1.572,14.867,14.867,0,1,0-3.652-5.984,1.143,1.143,0,0,0,2.178-.695,12.6,12.6,0,1,1,3.091,5.063,12.8,12.8,0,0,1-1.16-1.333Z" transform="translate(-183.331 -153.898)" fill="#36737d"/>
      <path id="Trazado_874731" data-name="Trazado 874731" d="M76.289,61.589l-7.211-7.031a1.164,1.164,0,0,0-1.617,0l-.044.043L64.643,51.9a19.255,19.255,0,0,0,3.2-9.427,1.143,1.143,0,0,0-2.281-.14A17.174,17.174,0,0,1,60.37,53.52,18.006,18.006,0,0,1,47.782,58.6h-.108A18,18,0,0,1,35.159,53.52a17.079,17.079,0,0,1,0-24.585,18.171,18.171,0,0,1,25.212,0,17.142,17.142,0,0,1,4.941,9.209,1.142,1.142,0,0,0,1.327.9,1.117,1.117,0,0,0,.923-1.294,19.344,19.344,0,0,0-5.574-10.392A20.02,20.02,0,0,0,57.2,23.908V14.925a1.114,1.114,0,0,0-.335-.788L42.707.326A1.173,1.173,0,0,0,41.9,0H3.428A3.391,3.391,0,0,0,0,3.344v9.368a1.129,1.129,0,0,0,1.143,1.115,1.129,1.129,0,0,0,1.143-1.115V3.344A1.13,1.13,0,0,1,3.428,2.229H40.756V12.7a3.391,3.391,0,0,0,3.429,3.344H54.919V22.9a20.649,20.649,0,0,0-6.936-1.272.255.255,0,0,0-.034,0H22.431a1.115,1.115,0,1,0,0,2.229h16a20.03,20.03,0,0,0-4.559,3.192H22.431a1.115,1.115,0,1,0,0,2.229h9.386a19.183,19.183,0,0,0-3.751,7.969H22.431a1.115,1.115,0,1,0,0,2.229h5.3q-.079.871-.08,1.757,0,.726.054,1.444H22.431a1.115,1.115,0,1,0,0,2.229H28a19.173,19.173,0,0,0,3.817,8.286H22.431a1.115,1.115,0,1,0,0,2.229H33.878A20.028,20.028,0,0,0,38.43,58.6h-16a1.115,1.115,0,1,0,0,2.229H47.765a20.664,20.664,0,0,0,7.154-1.275V72.592a1.13,1.13,0,0,1-1.143,1.115H3.428a1.13,1.13,0,0,1-1.143-1.115V17.17a1.129,1.129,0,0,0-1.143-1.115A1.129,1.129,0,0,0,0,17.17V72.592a3.391,3.391,0,0,0,3.429,3.343H53.776A3.391,3.391,0,0,0,57.2,72.591V58.547q.765-.4,1.5-.861l2.774,2.705a1.105,1.105,0,0,0-.044,1.619l7.211,7.031a5.529,5.529,0,0,0,7.643,0,5.2,5.2,0,0,0,0-7.453Zm-32.1-47.779A1.13,1.13,0,0,1,43.042,12.7V3.805L53.3,13.811ZM60.569,56.352q.732-.59,1.417-1.256t1.288-1.382L65.8,56.177,63.1,58.815Zm14.1,11.114a3.19,3.19,0,0,1-4.41,0l-6.4-6.243,4.41-4.3,6.4,6.243A3,3,0,0,1,74.672,67.466Z" transform="translate(0.001 0)" fill="#36737d"/>
      <path id="Trazado_874732" data-name="Trazado 874732" d="M53.95,148.422h5a2.559,2.559,0,0,0,2.557-2.556v-5a2.559,2.559,0,0,0-2.557-2.556h-5a2.559,2.559,0,0,0-2.557,2.556v5A2.559,2.559,0,0,0,53.95,148.422Zm-.271-7.556a.271.271,0,0,1,.271-.271h5a.271.271,0,0,1,.271.271v5a.271.271,0,0,1-.271.271h-5a.271.271,0,0,1-.271-.271Z" transform="translate(-43.577 -117.875)" fill="#36737d"/>
      <path id="Trazado_874733" data-name="Trazado 874733" d="M51.393,251.234a2.559,2.559,0,0,0,2.557,2.556h5a2.559,2.559,0,0,0,2.557-2.556v-5a2.559,2.559,0,0,0-2.557-2.556h-5a2.559,2.559,0,0,0-2.557,2.556Zm2.286-5a.271.271,0,0,1,.271-.271h5a.271.271,0,0,1,.271.271v5a.271.271,0,0,1-.271.271h-5a.271.271,0,0,1-.271-.271Z" transform="translate(-43.577 -207.675)" fill="#36737d"/>
      <path id="Trazado_874734" data-name="Trazado 874734" d="M51.393,358.741A2.559,2.559,0,0,0,53.95,361.3h5a2.559,2.559,0,0,0,2.557-2.556v-5a2.559,2.559,0,0,0-2.557-2.556h-5a2.559,2.559,0,0,0-2.557,2.556Zm2.286-5a.271.271,0,0,1,.271-.271h5a.271.271,0,0,1,.271.271v5a.271.271,0,0,1-.271.271h-5a.271.271,0,0,1-.271-.271Z" transform="translate(-43.577 -299.298)" fill="#36737d"/>
    </g>
    <g id="Grupo_1101896" data-name="Grupo 1101896" transform="translate(1325.461 806.443)">
      <g id="Grupo_1101895" data-name="Grupo 1101895" transform="translate(0 0)">
        <g id="Grupo_1101879" data-name="Grupo 1101879" transform="translate(48.269 11.557)">
          <g id="Grupo_1101878" data-name="Grupo 1101878">
            <path id="Trazado_874735" data-name="Trazado 874735" d="M371.065,94.419a1.41,1.41,0,0,1-1.41-1.41V83.366a1.41,1.41,0,0,1,2.82,0v9.642A1.41,1.41,0,0,1,371.065,94.419Z" transform="translate(-369.655 -81.956)" fill="#36737d"/>
          </g>
        </g>
        <g id="Grupo_1101881" data-name="Grupo 1101881" transform="translate(48.263 7.019)">
          <g id="Grupo_1101880" data-name="Grupo 1101880">
            <ellipse id="Elipse_11627" data-name="Elipse 11627" cx="1.41" cy="1.41" rx="1.41" ry="1.41" fill="#36737d"/>
          </g>
        </g>
        <g id="Grupo_1101884" data-name="Grupo 1101884">
          <path id="Trazado_874736" data-name="Trazado 874736" d="M91.837,14.814A14.8,14.8,0,0,0,68.03,3.052H32.484a5.138,5.138,0,0,0-5.132,5.132v51.3a5.138,5.138,0,0,0,5.132,5.132h4.474v2.454A5.138,5.138,0,0,0,42.09,72.2H78.96a5.138,5.138,0,0,0,5.132-5.132V47.508a1.41,1.41,0,1,0-2.82,0V67.067a2.314,2.314,0,0,1-2.312,2.312H42.09a2.314,2.314,0,0,1-2.312-2.312V64.613H69.354a5.138,5.138,0,0,0,5.132-5.132V29.411a14.866,14.866,0,0,0,6.786-.4v5.75a1.41,1.41,0,0,0,2.82,0V27.832a14.828,14.828,0,0,0,7.745-13.017ZM71.665,59.481a2.314,2.314,0,0,1-2.312,2.312H32.484a2.314,2.314,0,0,1-2.312-2.312V8.184a2.314,2.314,0,0,1,2.312-2.312H65.223a14.737,14.737,0,0,0-3,8.316H38.214A1.41,1.41,0,0,0,36.8,15.6v5.956a1.41,1.41,0,0,0,1.41,1.41h25.41a1.4,1.4,0,0,0,.853-.287,14.9,14.9,0,0,0,7.188,5.948ZM62.214,17.009v3.135H39.624V17.009Zm14.811,9.8A11.994,11.994,0,1,1,89.017,14.814,12.006,12.006,0,0,1,77.025,26.808Z" transform="translate(-27.352)" fill="#36737d"/>
          <g id="Grupo_1101883" data-name="Grupo 1101883" transform="translate(53.922 39.701)">
            <g id="Grupo_1101882" data-name="Grupo 1101882">
              <path id="Trazado_874737" data-name="Trazado 874737" d="M411.149,284.358a1.41,1.41,0,1,1,1.374-1.09A1.424,1.424,0,0,1,411.149,284.358Z" transform="translate(-409.742 -281.541)" fill="#36737d"/>
            </g>
          </g>
        </g>
        <g id="Grupo_1101894" data-name="Grupo 1101894" transform="translate(9.451 27.869)">
          <g id="Grupo_1101893" data-name="Grupo 1101893">
            <g id="Grupo_1101886" data-name="Grupo 1101886">
              <g id="Grupo_1101885" data-name="Grupo 1101885">
                <path id="Trazado_874738" data-name="Trazado 874738" d="M121.2,200.453H95.787a1.41,1.41,0,1,1,0-2.82H121.2a1.41,1.41,0,1,1,0,2.82Z" transform="translate(-94.377 -197.633)" fill="#36737d"/>
              </g>
            </g>
            <g id="Grupo_1101888" data-name="Grupo 1101888" transform="translate(0 6.688)">
              <g id="Grupo_1101887" data-name="Grupo 1101887">
                <path id="Trazado_874739" data-name="Trazado 874739" d="M121.2,247.883H95.787a1.41,1.41,0,1,1,0-2.82H121.2a1.41,1.41,0,0,1,0,2.82Z" transform="translate(-94.377 -245.063)" fill="#36737d"/>
              </g>
            </g>
            <g id="Grupo_1101890" data-name="Grupo 1101890" transform="translate(0 13.377)">
              <g id="Grupo_1101889" data-name="Grupo 1101889">
                <path id="Trazado_874740" data-name="Trazado 874740" d="M121.2,295.313H95.787a1.41,1.41,0,1,1,0-2.82H121.2a1.41,1.41,0,1,1,0,2.82Z" transform="translate(-94.377 -292.493)" fill="#36737d"/>
              </g>
            </g>
            <g id="Grupo_1101892" data-name="Grupo 1101892" transform="translate(0 20.065)">
              <g id="Grupo_1101891" data-name="Grupo 1101891">
                <path id="Trazado_874741" data-name="Trazado 874741" d="M121.2,342.743H95.787a1.41,1.41,0,1,1,0-2.82H121.2a1.41,1.41,0,1,1,0,2.82Z" transform="translate(-94.377 -339.923)" fill="#36737d"/>
              </g>
            </g>
          </g>
        </g>
      </g>
    </g>
    <g id="Layer_2" data-name="Layer 2" transform="translate(1257.905 802.707)">
      <path id="Trazado_874742" data-name="Trazado 874742" d="M23.543,45.835A22.293,22.293,0,1,1,45.835,23.543,22.293,22.293,0,0,1,23.543,45.835Zm0-41.475A19.182,19.182,0,1,0,42.725,23.543,19.182,19.182,0,0,0,23.543,4.361Z" transform="translate(-1.25 -1.25)" fill="#36737d"/>
      <path id="Trazado_874743" data-name="Trazado 874743" d="M15.953,19.361H11.805a1.555,1.555,0,1,1,0-3.111h4.147a1.555,1.555,0,1,1,0,3.111Z" transform="translate(8.413 14.856)" fill="#36737d"/>
      <path id="Trazado_874744" data-name="Trazado 874744" d="M13.351,26.877A1.576,1.576,0,0,1,11.8,25.321V12.278a1.555,1.555,0,0,1,.518-3.028h1.037a1.576,1.576,0,0,1,1.555,1.555V25.321A1.576,1.576,0,0,1,13.351,26.877Z" transform="translate(8.941 7.34)" fill="#36737d"/>
      <ellipse id="Elipse_11628" data-name="Elipse 11628" cx="2.074" cy="2.074" rx="2.074" ry="2.074" transform="translate(20.219 9.85)" fill="#36737d"/>
    </g>
  </g>
</svg>
