<svg xmlns="http://www.w3.org/2000/svg" width="51" height="51" viewBox="0 0 51 51">
  <g id="Grupo_1101610" data-name="Grupo 1101610" transform="translate(-180.73 -5772)">
    <path id="Trazado_872996" data-name="Trazado 872996" d="M25.5,0A25.5,25.5,0,1,1,0,25.5,25.5,25.5,0,0,1,25.5,0Z" transform="translate(180.73 5772)" fill="#fcd4b2"/>
    <path id="Trazado_874646" data-name="Trazado 874646" d="M31.529,43.073a.548.548,0,0,1,.548-.548H42.6a.548.548,0,1,1,0,1.1H32.078A.549.549,0,0,1,31.529,43.073Zm.548,4.283H42.6a.548.548,0,1,0,0-1.1H32.078a.548.548,0,0,0,0,1.1Zm0,3.736H42.6a.548.548,0,1,0,0-1.1H32.078a.548.548,0,0,0,0,1.1Zm0,3.736H39.8a.548.548,0,1,0,0-1.1H32.078a.548.548,0,0,0,0,1.1Zm0,3.735h6.1a.548.548,0,0,0,0-1.1h-6.1a.548.548,0,1,0,0,1.1Zm0,3.736h5.208a.548.548,0,1,0,0-1.1H32.078a.548.548,0,1,0,0,1.1Zm22.8-14.075-5.131,5.131V66.465a2.127,2.127,0,0,1-2.124,2.124H30.921A2.127,2.127,0,0,1,28.8,66.465v-.5h-.5a2.126,2.126,0,0,1-2.124-2.123V60.595H24.934a1.444,1.444,0,1,1,0-2.889h1.235V56.1H24.934a1.444,1.444,0,0,1,0-2.889h1.235v-1.6H24.934a1.444,1.444,0,0,1,0-2.889h1.235v-1.6H24.934a1.444,1.444,0,1,1,0-2.889h1.235V40.985a2.127,2.127,0,0,1,2.124-2.125H45a2.127,2.127,0,0,1,2.124,2.125v.47l.537.033a2.161,2.161,0,0,1,2.091,2.13L49.7,47.2l.916-.916h0l1.164-1.164a1.51,1.51,0,0,1,2.132,0l.97.97a1.508,1.508,0,0,1,0,2.131ZM52.556,49,51,47.448,41.912,56.54l1.551,1.551,2.724-2.724h0l2.627-2.627h0ZM41.15,58.853l1.231-.293-.939-.939Zm5.974-16.3v7.224l1.464-1.464.066-4.71a1.069,1.069,0,0,0-1.061-1.021Zm-22.19,3.468H28.5a.348.348,0,1,0,0-.7H24.934a.348.348,0,1,0,0,.7Zm0,4.492H28.5a.348.348,0,0,0,0-.7H24.934a.348.348,0,1,0,0,.7Zm0,4.492H28.5a.348.348,0,1,0,0-.7H24.934a.348.348,0,1,0,0,.7Zm0,4.492H28.5a.353.353,0,0,0,.348-.348A.349.349,0,0,0,28.5,58.8H24.934a.349.349,0,0,0-.348.348.353.353,0,0,0,.348.348Zm3.359,5.367H45a1.028,1.028,0,0,0,1.027-1.027V57.077l-2.177,2.177a.547.547,0,0,1-.261.146l-3.052.726a.534.534,0,0,1-.127.015.549.549,0,0,1-.533-.675l.726-3.052a.547.547,0,0,1,.146-.261l5.278-5.278V40.985A1.03,1.03,0,0,0,45,39.956H28.293a1.03,1.03,0,0,0-1.027,1.03v3.243H28.5a1.444,1.444,0,0,1,0,2.889H27.266v1.6H28.5a1.444,1.444,0,0,1,0,2.889H27.266v1.6H28.5a1.444,1.444,0,0,1,0,2.889H27.266v1.6H28.5a1.444,1.444,0,0,1,0,2.889H27.266v3.243A1.029,1.029,0,0,0,28.293,64.865ZM48.655,54.45,47.124,55.98v7.857A2.126,2.126,0,0,1,45,65.961H29.893v.5a1.028,1.028,0,0,0,1.027,1.027H47.628a1.028,1.028,0,0,0,1.027-1.027Zm5.452-7.583-.97-.97a.417.417,0,0,0-.581,0l-.777.777,1.551,1.551.777-.777A.417.417,0,0,0,54.107,46.866Z" transform="translate(167.24 5744.139)" fill="#20454b"/>
  </g>
</svg>
