<svg xmlns="http://www.w3.org/2000/svg" width="118" height="118" viewBox="0 0 118 118">
  <g id="Grupo_1102796" data-name="Grupo 1102796" transform="translate(-320.936 -1346.754)">
    <g id="Grupo_1102156" data-name="Grupo 1102156" transform="translate(52.154 -3076.238)">
      <path id="Trazado_874186" data-name="Trazado 874186" d="M45,0A45,45,0,1,1,0,45,45,45,0,0,1,45,0Z" transform="translate(282.781 4437)" fill="#f8953e"/>
      <g id="Grupo_1102711" data-name="Grupo 1102711" transform="translate(303.683 4457.902)">
        <path id="Trazado_875730" data-name="Trazado 875730" d="M44.953,33.778a2.235,2.235,0,0,0,2.235-2.235V3.235A2.235,2.235,0,0,0,44.953,1H3.235A2.235,2.235,0,0,0,1,3.235V31.543a2.235,2.235,0,0,0,2.235,2.235H16.346a12.721,12.721,0,0,0,6.091,5.069l-2.376,2.38H17.389V38.993a2.235,2.235,0,0,0-2.235-2.235H6.215A2.235,2.235,0,0,0,3.98,38.993v5.96a2.235,2.235,0,0,0,2.235,2.235h8.94a2.235,2.235,0,0,0,2.235-2.235V42.718h2.98A.745.745,0,0,0,20.9,42.5l3.145-3.145A12.451,12.451,0,0,0,33.77,37.8l1.937,1.937-.218.218a.745.745,0,0,0,0,1.053l5.034,5.034a3.905,3.905,0,0,0,5.523-5.523l-5.034-5.034a.745.745,0,0,0-1.053,0l-.221.218-1.926-1.926ZM15.9,44.953a.745.745,0,0,1-.745.745H6.215a.745.745,0,0,1-.745-.745v-5.96a.745.745,0,0,1,.745-.745h8.94a.745.745,0,0,1,.745.745ZM3.235,32.288a.745.745,0,0,1-.745-.745V3.235a.745.745,0,0,1,.745-.745H44.953a.745.745,0,0,1,.745.745V31.543a.745.745,0,0,1-.745.745H38.6a12.617,12.617,0,0,0-6.369-16.77l3.781-3.781v1.926H37.5V9.94a.745.745,0,0,0-.745-.745H33.033v1.49H34.96l-4.26,4.26a12.6,12.6,0,0,0-3.2-.514L23.981,8.8a.745.745,0,0,0-.632-.35h-2.98V6.215A2.235,2.235,0,0,0,18.134,3.98H9.195A2.235,2.235,0,0,0,6.96,6.215v5.96a2.235,2.235,0,0,0,2.235,2.235h8.94a2.235,2.235,0,0,0,2.235-2.235V9.94h2.567l2.835,4.537A12.643,12.643,0,0,0,17.5,18.81l-1.043-1.172a.745.745,0,0,0-.551-.25h0a.745.745,0,0,0-.549.241L7.156,26.57l1.1,1.007,7.637-8.332.677.763a12.5,12.5,0,0,0-1.95,9.3H5.47V9.195H3.98V30.053a.745.745,0,0,0,.745.745H14.97a12.441,12.441,0,0,0,.576,1.49ZM18.879,6.215v5.96a.745.745,0,0,1-.745.745H9.195a.745.745,0,0,1-.745-.745V6.215a.745.745,0,0,1,.745-.745h8.94A.745.745,0,0,1,18.879,6.215ZM15.9,27.074A11.174,11.174,0,1,1,27.074,38.248,11.174,11.174,0,0,1,15.9,27.074Zm29.091,14.5a2.416,2.416,0,1,1-3.416,3.416l-4.507-4.507,3.416-3.416Zm-8.232-2.889-1.753-1.753a12.731,12.731,0,0,0,1.926-1.926l1.753,1.753Z" transform="translate(0)" fill="#fff"/>
        <path id="Trazado_875731" data-name="Trazado 875731" d="M32.684,23a9.684,9.684,0,1,0,9.684,9.684A9.684,9.684,0,0,0,32.684,23Zm-.325,1.506L27.5,29.364l-1.386-1.558a8.177,8.177,0,0,1,6.244-3.3Zm.325,16.373a8.2,8.2,0,0,1-7.29-4.47h8.78v-1.49H24.807a8.068,8.068,0,0,1,.5-5.78l1.6,1.806a.745.745,0,0,0,.536.25h.022A.745.745,0,0,0,28,30.976l6.322-6.322a8.195,8.195,0,0,1-1.634,16.224Z" transform="translate(-5.611 -5.611)" fill="#fff"/>
        <path id="Trazado_875732" data-name="Trazado 875732" d="M13,9h7.45v1.49H13Z" transform="translate(-3.06 -2.04)" fill="#fff"/>
        <path id="Trazado_875733" data-name="Trazado 875733" d="M13,13h7.45v1.49H13Z" transform="translate(-3.06 -3.06)" fill="#fff"/>
        <path id="Trazado_875734" data-name="Trazado 875734" d="M9,53h7.45v1.49H9Z" transform="translate(-2.04 -13.262)" fill="#fff"/>
        <path id="Trazado_875735" data-name="Trazado 875735" d="M9,57h7.45v1.49H9Z" transform="translate(-2.04 -14.282)" fill="#fff"/>
      </g>
    </g>
    <g id="Trazado_876292" data-name="Trazado 876292" transform="translate(324.936 1350.754)" fill="none" stroke-linecap="round">
      <path d="M55,0A55,55,0,1,1,0,55,55,55,0,0,1,55,0Z" stroke="none"/>
      <path d="M 55 0 C 24.62434387207031 0 0 24.62434387207031 0 55 C 0 85.37567138671875 24.62434387207031 110 55 110 C 85.37567138671875 110 110 85.37567138671875 110 55 C 110 24.62434387207031 85.37567138671875 0 55 0 M 55 -4 C 62.96318054199219 -4 70.6903076171875 -2.439491271972656 77.96669006347656 0.6381607055664062 C 81.46354675292969 2.117202758789062 84.83596801757812 3.947639465332031 87.99025726318359 6.078651428222656 C 91.11354827880859 8.188705444335938 94.05043792724609 10.61181640625 96.71930694580078 13.28070831298828 C 99.38818359375 15.9495849609375 101.8113098144531 18.88645172119141 103.9213638305664 22.00974273681641 C 106.052360534668 25.16405487060547 107.8827972412109 28.53645324707031 109.3618545532227 32.03330993652344 C 112.4394912719727 39.30970764160156 114 47.03681945800781 114 55 C 114 62.96318054199219 112.4394912719727 70.6903076171875 109.3618545532227 77.96669006347656 C 107.8827972412109 81.46354675292969 106.052360534668 84.83596801757812 103.9213638305664 87.99025726318359 C 101.8113098144531 91.11354827880859 99.38818359375 94.05043792724609 96.71930694580078 96.71930694580078 C 94.05043792724609 99.38818359375 91.11354827880859 101.8113098144531 87.99025726318359 103.9213638305664 C 84.83596801757812 106.052360534668 81.46354675292969 107.8827972412109 77.96669006347656 109.3618545532227 C 70.6903076171875 112.4394912719727 62.96318054199219 114 55 114 C 47.03681945800781 114 39.30970764160156 112.4394912719727 32.03330993652344 109.3618545532227 C 28.53645324707031 107.8827972412109 25.16405487060547 106.052360534668 22.00974273681641 103.9213638305664 C 18.88645172119141 101.8113098144531 15.9495849609375 99.38818359375 13.28070831298828 96.71930694580078 C 10.61181640625 94.05043792724609 8.188705444335938 91.11354827880859 6.078651428222656 87.99025726318359 C 3.947639465332031 84.83596801757812 2.117202758789062 81.46354675292969 0.6381607055664062 77.96669006347656 C -2.439491271972656 70.6903076171875 -4 62.96318054199219 -4 55 C -4 47.03681945800781 -2.439491271972656 39.30970764160156 0.6381607055664062 32.03330993652344 C 2.117202758789062 28.53645324707031 3.947639465332031 25.16405487060547 6.078636169433594 22.00974273681641 C 8.188705444335938 18.88645172119141 10.61181640625 15.9495849609375 13.28070831298828 13.28070831298828 C 15.9495849609375 10.61181640625 18.88645172119141 8.188705444335938 22.00974273681641 6.078636169433594 C 25.16405487060547 3.947639465332031 28.53645324707031 2.117202758789062 32.03330993652344 0.6381607055664062 C 39.30970764160156 -2.439491271972656 47.03681945800781 -4 55 -4 Z" stroke="none" fill="#f8953e"/>
    </g>
  </g>
</svg>
