<svg xmlns="http://www.w3.org/2000/svg" width="118" height="118" viewBox="0 0 118 118">
  <g id="Grupo_1102797" data-name="Grupo 1102797" transform="translate(-740.936 -1346.758)">
    <g id="Grupo_1102157" data-name="Grupo 1102157" transform="translate(472.219 -3076.238)">
      <path id="Trazado_874186" data-name="Trazado 874186" d="M45,0A45,45,0,1,1,0,45,45,45,0,0,1,45,0Z" transform="translate(282.717 4437)" fill="#f8953e"/>
      <g id="Grupo_1102712" data-name="Grupo 1102712" transform="translate(300.716 4455)">
        <path id="Trazado_875736" data-name="Trazado 875736" d="M195.083,72.637a15.61,15.61,0,1,0-15.61-15.61A15.627,15.627,0,0,0,195.083,72.637Zm0-29.611a14,14,0,1,1-14,14A14.017,14.017,0,0,1,195.083,43.026Z" transform="translate(-160.225 -36.975)" fill="#fff"/>
        <path id="Trazado_875737" data-name="Trazado 875737" d="M242.717,112.293h16.218a.8.8,0,0,0,.7-1.206l-1.454-2.519a.8.8,0,0,0-1.393.8l.758,1.313H244.11l6.716-11.633,4.045,7.006a.8.8,0,1,0,1.393-.8l-4.741-8.212a.8.8,0,0,0-1.393,0l-8.109,14.046a.8.8,0,0,0,.7,1.206Z" transform="translate(-215.969 -86.275)" fill="#fff"/>
        <path id="Trazado_875738" data-name="Trazado 875738" d="M319.138,152.666a.8.8,0,1,0-1.609,0v2.21a.8.8,0,0,0,1.609,0Z" transform="translate(-283.475 -135.576)" fill="#fff"/>
        <circle id="Elipse_11632" data-name="Elipse 11632" cx="0.804" cy="0.804" r="0.804" transform="translate(34.052 21.392)" fill="#fff"/>
        <path id="Trazado_875739" data-name="Trazado 875739" d="M38.14,100.935l4.3,1.114a2.285,2.285,0,1,0,1.146-4.424l-4.3-1.113a2.285,2.285,0,1,0-1.146,4.424Zm-.082-2.381a.676.676,0,0,1,.824-.485l4.3,1.114a.676.676,0,0,1-.339,1.309l-4.3-1.114a.677.677,0,0,1-.485-.824Z" transform="translate(-32.52 -86.095)" fill="#fff"/>
        <path id="Trazado_875740" data-name="Trazado 875740" d="M30.552,184.846l4.433-.271h0a2.285,2.285,0,0,0-.279-4.561l-4.433.271a2.285,2.285,0,1,0,.279,4.561Zm-.646-2.729a.672.672,0,0,1,.465-.227l4.434-.271a.676.676,0,0,1,.083,1.35l-4.434.271A.677.677,0,0,1,29.906,182.118Z" transform="translate(-25.11 -160.705)" fill="#fff"/>
        <path id="Trazado_875741" data-name="Trazado 875741" d="M72.013,21.357l3.744,2.389a2.285,2.285,0,1,0,2.458-3.852L74.471,17.5a2.285,2.285,0,0,0-2.458,3.852Zm.659-2.29a.677.677,0,0,1,.934-.206L77.35,21.25a.676.676,0,1,1-.728,1.14L72.878,20A.676.676,0,0,1,72.672,19.067Z" transform="translate(-63.346 -15.307)" fill="#fff"/>
        <path id="Trazado_875742" data-name="Trazado 875742" d="M49.036,5.873a20.092,20.092,0,0,0-26.706-1.5.8.8,0,1,0,1,1.257A18.457,18.457,0,0,1,53.3,20.271,18.446,18.446,0,0,1,24.777,35.5a2.065,2.065,0,0,0-2.58.264l-4.09,4.09-3.05-3.05,4.09-4.09a2.065,2.065,0,0,0,.264-2.58A18.494,18.494,0,0,1,20.735,8.161.8.8,0,0,0,19.5,7.126a20.1,20.1,0,0,0-1.439,23.887.443.443,0,0,1-.055.561l-4.09,4.09-.4-.4a.918.918,0,0,0-1.3,0l-1.46,1.46a.936.936,0,0,0-1.215.094L7.209,39.16a.936.936,0,0,0-.094,1.215L.269,47.222A.911.911,0,0,0,0,47.869V54.1a.8.8,0,0,0,.8.8H7.04a.911.911,0,0,0,.648-.268l6.846-6.846a.936.936,0,0,0,1.215-.094l2.341-2.341a.936.936,0,0,0,.094-1.215l1.46-1.46a.916.916,0,0,0,0-1.3l-.4-.4,4.09-4.09a.443.443,0,0,1,.561-.055A20.052,20.052,0,0,0,49.036,5.873ZM12.873,36.892l5.144,5.144L17.054,43,11.91,37.855Zm2.214,9.195-.955-.955a.8.8,0,0,0-1.138,1.137l.395.395L6.754,53.3H1.61V48.156L8.245,41.52l2.093,2.093a.8.8,0,1,0,1.138-1.137L8.822,39.822l1.39-1.39L16.477,44.7Z" fill="#fff"/>
      </g>
    </g>
    <g id="Trazado_876301" data-name="Trazado 876301" transform="translate(744.936 1350.758)" fill="none" stroke-linecap="round">
      <path d="M55,0A55,55,0,1,1,0,55,55,55,0,0,1,55,0Z" stroke="none"/>
      <path d="M 55 0 C 24.62434387207031 0 0 24.62434387207031 0 55 C 0 85.37567138671875 24.62434387207031 110 55 110 C 85.37567138671875 110 110 85.37567138671875 110 55 C 110 24.62434387207031 85.37567138671875 0 55 0 M 55 -4 C 62.96318054199219 -4 70.6903076171875 -2.439491271972656 77.96669006347656 0.6381607055664062 C 81.46354675292969 2.117202758789062 84.83596801757812 3.947639465332031 87.99025726318359 6.078651428222656 C 91.11354827880859 8.188705444335938 94.05043792724609 10.61181640625 96.71930694580078 13.28070831298828 C 99.38818359375 15.9495849609375 101.8113098144531 18.88645172119141 103.9213638305664 22.00974273681641 C 106.052360534668 25.16405487060547 107.8827972412109 28.53645324707031 109.3618545532227 32.03330993652344 C 112.4394912719727 39.30970764160156 114 47.03681945800781 114 55 C 114 62.96318054199219 112.4394912719727 70.6903076171875 109.3618545532227 77.96669006347656 C 107.8827972412109 81.46354675292969 106.052360534668 84.83596801757812 103.9213638305664 87.99025726318359 C 101.8113098144531 91.11354827880859 99.38818359375 94.05043792724609 96.71930694580078 96.71930694580078 C 94.05043792724609 99.38818359375 91.11354827880859 101.8113098144531 87.99025726318359 103.9213638305664 C 84.83596801757812 106.052360534668 81.46354675292969 107.8827972412109 77.96669006347656 109.3618545532227 C 70.6903076171875 112.4394912719727 62.96318054199219 114 55 114 C 47.03681945800781 114 39.30970764160156 112.4394912719727 32.03330993652344 109.3618545532227 C 28.53645324707031 107.8827972412109 25.16405487060547 106.052360534668 22.00974273681641 103.9213638305664 C 18.88645172119141 101.8113098144531 15.9495849609375 99.38818359375 13.28070831298828 96.71930694580078 C 10.61181640625 94.05043792724609 8.188705444335938 91.11354827880859 6.078651428222656 87.99025726318359 C 3.947639465332031 84.83596801757812 2.117202758789062 81.46354675292969 0.6381607055664062 77.96669006347656 C -2.439491271972656 70.6903076171875 -4 62.96318054199219 -4 55 C -4 47.03681945800781 -2.439491271972656 39.30970764160156 0.6381607055664062 32.03330993652344 C 2.117202758789062 28.53645324707031 3.947639465332031 25.16405487060547 6.078636169433594 22.00974273681641 C 8.188705444335938 18.88645172119141 10.61181640625 15.9495849609375 13.28070831298828 13.28070831298828 C 15.9495849609375 10.61181640625 18.88645172119141 8.188705444335938 22.00974273681641 6.078636169433594 C 25.16405487060547 3.947639465332031 28.53645324707031 2.117202758789062 32.03330993652344 0.6381607055664062 C 39.30970764160156 -2.439491271972656 47.03681945800781 -4 55 -4 Z" stroke="none" fill="#f8953e"/>
    </g>
  </g>
</svg>
