<svg xmlns="http://www.w3.org/2000/svg" width="70" height="70" viewBox="0 0 70 70">
  <g id="Grupo_1101940" data-name="Grupo 1101940" transform="translate(-450.051 -1619)">
    <circle id="Elipse_11629" data-name="Elipse 11629" cx="35" cy="35" r="35" transform="translate(450.051 1619)" fill="#afc7cb"/>
    <g id="Grupo_1101966" data-name="Grupo 1101966" transform="translate(466.106 1614.623)">
      <path id="Trazado_875005" data-name="Trazado 875005" d="M184.269,342.8h4.714v1.225h-4.714Z" transform="translate(-169.225 -296.381)" fill="#36737d"/>
      <path id="Trazado_875006" data-name="Trazado 875006" d="M347,274.429h1.252v1.225H347Z" transform="translate(-318.672 -233.589)" fill="#36737d"/>
      <path id="Trazado_875007" data-name="Trazado 875007" d="M39.243,42.083l-.35,1.173c1.466.438,1.766.9,1.766,1s-.3.563-1.766,1c-.107.032-.218.062-.331.092,0,0,0-.005,0-.008a12.122,12.122,0,0,0-.664-3.949l.039-.011c1.752-.523,2.64-1.255,2.64-2.174s-.888-1.651-2.64-2.174l-.35,1.173c1.466.438,1.766.9,1.766,1s-.3.563-1.766,1l-.146.042a13.646,13.646,0,0,0-4.857-5.62l2.286-4.937H30.26a2.377,2.377,0,0,0-.783-.923l-3.367-2.753,2.74.234.04,0a2.388,2.388,0,0,0-.015-4.771l-9.419-.9-.613-.5-6.749.728.131,1.218,6.24-.673,4.006,3.276,6.2,5.07h-4.5l-5.8-3.527-7.151,2.5L8.613,27.536,8.125,28.66l8.238,3.521a1.845,1.845,0,0,1,.985,2.383l-.382.939L10.591,33.1l-.254.152c-4.911,2.936-8.186-.538-8.322-.686l-.182-.2H.082v1.225H1.309a7.892,7.892,0,0,0,2.545,1.577,7.854,7.854,0,0,0,6.853-.713l2.987,1.128A13.683,13.683,0,0,0,11.1,38.447L7.333,39.582,2.444,43.84H.164v1.225H2.9l5.036-4.385,7.614-2.291.4,1.458a1.839,1.839,0,0,1-1.183,2.224l-1.983.671H11.26v1.225l14.44.01a1.225,1.225,0,1,1,0,2.449H20.983v1.225h7.166a1.225,1.225,0,0,1,0,2.449h-13.1v1.225H25.851a1.224,1.224,0,0,1-.153,2.439l-10.653.01V55H22.27a1.225,1.225,0,0,1,1.224,1.27,1.258,1.258,0,0,1-1.268,1.179H6.253L2.62,56.086H0v1.225H2.4L6.032,58.67l17.737.01a15.962,15.962,0,0,0,7.874-2.044,14.6,14.6,0,0,0,3.076-2.324h4.243V53.087H35.813a13.165,13.165,0,0,0,1.2-1.793L35.94,50.7a12.1,12.1,0,0,1-1.74,2.387H29.833v1.225h3.054a13.612,13.612,0,0,1-1.849,1.259,14.674,14.674,0,0,1-6.657,1.87,2.374,2.374,0,0,0,.336-1.132,2.433,2.433,0,0,0-.329-1.32l1.31,0a2.453,2.453,0,0,0,2.129-3.664h.32a2.449,2.449,0,1,0,0-4.9h-.329a2.449,2.449,0,0,0-2.12-3.674l-9.636-.006a3.067,3.067,0,0,0,1.069-3.22l-.729-2.67-3.287.989a12.9,12.9,0,0,1,1.912-1.762l2.623.99.832-2.045a3.074,3.074,0,0,0-1.642-3.972l-.32-.136H32.952l-1.54,3.327H20.636v1.225H31.625a12.52,12.52,0,0,1,4.592,5.061,21.592,21.592,0,0,1-3.774.311H30.807v1.225h1.636a22.424,22.424,0,0,0,4.259-.382,10.9,10.9,0,0,1,.636,3.659q0,.135,0,.269a21.9,21.9,0,0,1-3.585.279v1.225a23.579,23.579,0,0,0,3.481-.248,10.966,10.966,0,0,1-.775,2.78l1.127.48a12.162,12.162,0,0,0,.912-3.5c.261-.06.512-.126.749-.2,2.182-.651,2.64-1.542,2.64-2.174,0-1.146-1.436-1.815-2.64-2.174ZM28.777,22.7l.039,0a1.163,1.163,0,0,1,.053,2.322l-4.437-.378-3.272-2.675ZM13.633,29.692h0l-.741-.314,5.335-1.867,3.586,2.18Z" fill="#36737d"/>
      <path id="Trazado_875008" data-name="Trazado 875008" d="M11.905,31.853l-.131-1.218-7.364.795H1v1.225H4.475Z" transform="translate(-0.921 -9.699)" fill="#36737d"/>
      <path id="Trazado_875009" data-name="Trazado 875009" d="M233.543,244.429H240.7v1.225h-7.152Z" transform="translate(-214.476 -206.038)" fill="#36737d"/>
    </g>
  </g>
</svg>
