<svg xmlns="http://www.w3.org/2000/svg" width="70" height="70" viewBox="0 0 70 70">
  <g id="Grupo_1101941" data-name="Grupo 1101941" transform="translate(-450.051 -1619)">
    <circle id="Elipse_11629" data-name="Elipse 11629" cx="35" cy="35" r="35" transform="translate(450.051 1619)" fill="#afc7cb"/>
    <g id="Grupo_1101943" data-name="Grupo 1101943" transform="translate(439.485 1630.542)">
      <path id="Trazado_874976" data-name="Trazado 874976" d="M24.757,60.107a.757.757,0,0,0-.757.757v3.027a.757.757,0,0,0,.757.757h1.65a10.328,10.328,0,0,0,1.167,2.923l-1.838,1.838a.757.757,0,0,0,0,1.07l2.27,2.27a.757.757,0,0,0,1.07,0l1.838-1.838a10.328,10.328,0,0,0,2.923,1.167v2.407a.757.757,0,0,0,.757.757h2.653a12.1,12.1,0,0,0,18.525,6.985l7.485,7.484a2.27,2.27,0,1,0,3.21-3.21l-7.485-7.485A12.086,12.086,0,0,0,56.97,63.134h1.082a.757.757,0,0,0,.757-.757V59.489c.149-.4,2.27-6.029,2.27-6.192a5.306,5.306,0,1,0-10.594,0c0,.091,2.27,6.191,2.27,6.191v1.226a12.06,12.06,0,0,0-3.783-.606H45.808a10.328,10.328,0,0,0-1.167-2.923l1.838-1.838a.757.757,0,0,0,0-1.07l-2.27-2.27a.757.757,0,0,0-1.07,0L41.3,53.843a10.328,10.328,0,0,0-2.923-1.167V50.27a.757.757,0,0,0-.757-.757H34.594a.757.757,0,0,0-.757.757v2.407a10.328,10.328,0,0,0-2.923,1.167l-1.838-1.838a.757.757,0,0,0-1.07,0l-2.27,2.27a.757.757,0,0,0,0,1.07l1.838,1.838a10.328,10.328,0,0,0-1.167,2.923ZM65.4,87.57a.757.757,0,1,1-1.07,1.07l-7.351-7.351a12.217,12.217,0,0,0,1.07-1.07ZM52,53.163c.045-2.422,1.317-3.65,3.782-3.65s3.741,1.231,3.782,3.658c-.213.584-1.247,3.332-2.035,5.422H54.035Zm2.269,6.944h3.027v1.513H54.827q-.275-.153-.559-.292Zm5.3,12.107a10.594,10.594,0,1,1-10.6-10.594h.007A10.606,10.606,0,0,1,59.565,72.214ZM36.107,66.161a3.783,3.783,0,1,1,3.783-3.783A3.783,3.783,0,0,1,36.107,66.161Zm-8.334-5.172a8.8,8.8,0,0,1,1.387-3.475.757.757,0,0,0-.085-.968L27.34,54.81l1.2-1.2,1.735,1.735a.757.757,0,0,0,.968.085,8.8,8.8,0,0,1,3.475-1.387.757.757,0,0,0,.632-.746v-2.27h1.513V53.3a.757.757,0,0,0,.632.746,8.8,8.8,0,0,1,3.475,1.387.757.757,0,0,0,.968-.085l1.735-1.735,1.2,1.2-1.735,1.735a.757.757,0,0,0-.085.968,8.8,8.8,0,0,1,1.387,3.473,12.117,12.117,0,0,0-3.054,1.8c.01-.135.017-.27.017-.407a5.3,5.3,0,1,0-3.527,4.992,12.037,12.037,0,0,0-1.013,4.846,12.179,12.179,0,0,0,.094,1.511l-1.608,0v-2.27a.757.757,0,0,0-.632-.746,8.8,8.8,0,0,1-3.475-1.387.757.757,0,0,0-.968.085L28.54,71.144l-1.2-1.2,1.735-1.735a.757.757,0,0,0,.085-.968,8.8,8.8,0,0,1-1.387-3.475.757.757,0,0,0-.746-.632H25.513V61.621h1.513a.757.757,0,0,0,.746-.632Z" transform="translate(0 -43.46)" fill="#36737d"/>
      <path id="Trazado_874977" data-name="Trazado 874977" d="M272.079,40.417a.757.757,0,0,0,.338,1.015l1.513.757a.757.757,0,1,0,.677-1.354l-1.513-.757A.757.757,0,0,0,272.079,40.417Z" transform="translate(-224.541 -36.215)" fill="#36737d"/>
      <path id="Trazado_874978" data-name="Trazado 874978" d="M352,.757V2.27a.757.757,0,1,0,1.513,0V.757a.757.757,0,1,0-1.513,0Z" transform="translate(-296.975)" fill="#36737d"/>
      <path id="Trazado_874979" data-name="Trazado 874979" d="M304.417,8.079a.757.757,0,0,0-.338,1.015l.757,1.513a.757.757,0,1,0,1.354-.677l-.757-1.513A.757.757,0,0,0,304.417,8.079Z" transform="translate(-253.514 -7.242)" fill="#36737d"/>
      <path id="Trazado_874980" data-name="Trazado 874980" d="M392.835,8.417l-.757,1.513a.757.757,0,1,0,1.354.677l.757-1.513a.757.757,0,1,0-1.354-.677Z" transform="translate(-333.19 -7.242)" fill="#36737d"/>
      <path id="Trazado_874981" data-name="Trazado 874981" d="M417.93,40.078l-1.513.757a.757.757,0,1,0,.677,1.354l1.513-.757a.757.757,0,1,0-.677-1.354Z" transform="translate(-354.92 -36.215)" fill="#36737d"/>
      <path id="Trazado_874982" data-name="Trazado 874982" d="M192,217.08a9.08,9.08,0,1,0,9.08-9.08A9.08,9.08,0,0,0,192,217.08Zm16.647,0a7.567,7.567,0,1,1-7.567-7.567A7.567,7.567,0,0,1,208.647,217.08Z" transform="translate(-152.109 -188.326)" fill="#36737d"/>
      <path id="Trazado_874983" data-name="Trazado 874983" d="M225.513,296.757a.757.757,0,0,0-1.513,0,6.06,6.06,0,0,0,6.054,6.054.757.757,0,1,0,0-1.513A4.545,4.545,0,0,1,225.513,296.757Z" transform="translate(-181.083 -268.002)" fill="#36737d"/>
    </g>
  </g>
</svg>
