<svg xmlns="http://www.w3.org/2000/svg" width="295" height="92.675" viewBox="0 0 295 92.675">
  <g id="Grupo_1102804" data-name="Grupo 1102804" transform="translate(-1125 -2978)">
    <path id="Rectángulo_402251" data-name="Rectángulo 402251" d="M20,0H295a0,0,0,0,1,0,0V74a0,0,0,0,1,0,0H20A20,20,0,0,1,0,54V20A20,20,0,0,1,20,0Z" transform="translate(1125 2978)" fill="#d7e3e5"/>
    <path id="Trazado_876303" data-name="Trazado 876303" d="M69.559,44.69H35.8v-.407c0-.026,0-.052,0-.078h0a18.683,18.683,0,0,1,5.071-12.451,12,12,0,0,0,13.108-9.97,1.308,1.308,0,0,0-1.087-1.515A12.029,12.029,0,0,0,39.1,29.8a21.34,21.34,0,0,0-4.556,7.224c-.955-2.658-4.406-7.283-4.409-7.3a15.31,15.31,0,0,0-17.62-12.54,1.313,1.313,0,0,0-1.077,1.513A15.3,15.3,0,0,0,26.484,31.451a15.425,15.425,0,0,0,1.544-.081,18.649,18.649,0,0,1,5.145,12.913v.407H1.358A1.343,1.343,0,0,0,0,45.916a1.313,1.313,0,0,0,1.31,1.4H33.172a6.911,6.911,0,0,1-.427,2.392c-.439,1.19-1.135,3.053-1.694,4.437a5.357,5.357,0,0,1-2.582,2.8,10.522,10.522,0,0,1-10.588-.358,1.313,1.313,0,0,0-1.848.484,1.341,1.341,0,0,0,.493,1.765,12.844,12.844,0,0,0,6.837,2.007,13.105,13.105,0,0,0,2.978-.35,17.727,17.727,0,0,1-4.929,2.887,20.323,20.323,0,0,0-8.35,6.014c-2.256.262-10.136,1.6-11.381,7.508a1.313,1.313,0,1,0,2.57.541C4.66,75.5,6.327,73.989,9.2,72.961a17.727,17.727,0,0,1,1.775-.526,20.324,20.324,0,0,0-2.027,5.2l-.773,3.247a1.313,1.313,0,1,0,2.555.608l.773-3.247a17.7,17.7,0,0,1,8.18-11.119,12.553,12.553,0,0,0,2.629,9.9,1.313,1.313,0,0,0,1.9.209A1.34,1.34,0,0,0,24.4,75.43c-3.4-4.549-2.1-8.566-1.557-9.8a20.274,20.274,0,0,0,9.484-8.069l-.463,2.872A5.748,5.748,0,0,0,33.6,65.616a3.042,3.042,0,0,1-.2,4.668l-3.716,2.842a1.342,1.342,0,0,0-.341,1.78,1.313,1.313,0,0,0,1.9.332l2.234-1.708a6.4,6.4,0,0,1-1.222,5.342,1.351,1.351,0,0,0,.083,1.852,1.313,1.313,0,0,0,1.891-.12,9.385,9.385,0,0,0,1.5-8.9,5.666,5.666,0,0,0-.352-8.018,3.028,3.028,0,0,1-.94-2.719l.807-5,1.795,6.122a6.443,6.443,0,0,0,2.055,3.139c.683.832,4.651,5.941,2.374,9.669a1.348,1.348,0,0,0,.255,1.752,1.313,1.313,0,0,0,1.947-.319c1.51-2.416,1.493-5.457-.048-8.795-.126-.272-.256-.534-.39-.787a6.452,6.452,0,0,0,1.838-.256,3.871,3.871,0,0,1,4.7,2.372,16.681,16.681,0,0,0,4.614,6.724,7.553,7.553,0,0,0-.214,1.208,9.257,9.257,0,0,0,1.091,5.148,1.312,1.312,0,0,0,1.839.519,1.347,1.347,0,0,0,.469-1.773,6.683,6.683,0,0,1-.807-3.35,16.546,16.546,0,0,0,3.911,1.739l.965.286a1.311,1.311,0,0,0,1.65-.955,1.344,1.344,0,0,0-.949-1.576l-.92-.272a14.109,14.109,0,0,1-8.655-7.362c.124.028.25.055.379.08a10.337,10.337,0,0,0,1.938.187,9.391,9.391,0,0,0,6.289-2.427,1.313,1.313,0,0,0-1.729-1.976c-4.1,3.59-8.727.658-8.935.522l-.008,0a6.506,6.506,0,0,0-6.354-1.611,3.865,3.865,0,0,1-4.778-2.62l-.133-.453a6.316,6.316,0,0,0,4.507-.108A1.34,1.34,0,0,0,44.7,59.1a1.313,1.313,0,0,0-1.741-.763,3.691,3.691,0,0,1-4.966-2.366l-1.857-6.311a8.321,8.321,0,0,1-.338-2.348H69.6a1.313,1.313,0,0,0,1.31-1.4A1.344,1.344,0,0,0,69.559,44.69ZM45.445,24.473a9.329,9.329,0,0,1,5.6-1.744,9.429,9.429,0,0,1-9.084,6.465A9.339,9.339,0,0,1,45.445,24.473Zm-26.274,2a12.572,12.572,0,0,1-4.842-6.859A12.689,12.689,0,0,1,27.238,28.8,12.572,12.572,0,0,1,19.171,26.474Z" transform="translate(1152.083 2988.032)" fill="#36737d"/>
    <g id="Page-1" transform="translate(1242.614 2998)">
      <g id="_048---Error-Searching" data-name="048---Error-Searching" transform="translate(0 0)">
        <path id="Shape" d="M30.278,5A25.278,25.278,0,1,0,55.556,30.278,25.278,25.278,0,0,0,30.278,5Zm0,48.148A22.871,22.871,0,1,1,53.148,30.278,22.871,22.871,0,0,1,30.278,53.148Z" transform="translate(-0.081 -0.081)" fill="#36737d"/>
        <path id="Shape-2" data-name="Shape" d="M17.1,13.764a1.2,1.2,0,0,0-1.7-.046A20.278,20.278,0,0,0,9,28.569a1.2,1.2,0,0,0,2.407,0,17.9,17.9,0,0,1,5.642-13.1,1.2,1.2,0,0,0,.047-1.706Z" transform="translate(0.733 1.627)" fill="#36737d"/>
        <path id="Shape-3" data-name="Shape" d="M62.2,55.392a4.735,4.735,0,0,0-3.043-1.331l-4.388-4.388a30.145,30.145,0,1,0-5.1,5.1l4.341,4.342A4.775,4.775,0,0,0,55.392,62.2l9.63,9.63a4.815,4.815,0,1,0,6.808-6.808ZM31.11,58.8A27.685,27.685,0,1,1,58.8,31.11,27.685,27.685,0,0,1,31.11,58.8Zm24.281-3.4a4.789,4.789,0,0,0-.722.963l-3.156-3.149q.879-.813,1.692-1.692l3.161,3.161a4.506,4.506,0,0,0-.975.717ZM70.127,70.127a2.464,2.464,0,0,1-3.4,0l-9.63-9.63a2.407,2.407,0,0,1,3.4-3.4l9.63,9.63a2.407,2.407,0,0,1,0,3.4Z" transform="translate(-0.914 -0.914)" fill="#36737d"/>
        <path id="Shape-4" data-name="Shape" d="M45.087,35.214,32.863,13.379a4.574,4.574,0,0,0-8.022,0L12.618,35.214A4.768,4.768,0,0,0,12.665,40a4.563,4.563,0,0,0,3.964,2.3H41.076A4.563,4.563,0,0,0,45.04,40a4.768,4.768,0,0,0,.047-4.786Zm-2.123,3.568a2.151,2.151,0,0,1-1.887,1.106H16.629a2.151,2.151,0,0,1-1.887-1.106,2.383,2.383,0,0,1-.024-2.392L26.942,14.554a2.167,2.167,0,0,1,3.822,0L42.988,36.39a2.383,2.383,0,0,1-.024,2.392Z" transform="translate(1.344 1.142)" fill="#36737d"/>
        <path id="Shape-5" data-name="Shape" d="M26.2,17A1.2,1.2,0,0,0,25,18.2V29.037a1.2,1.2,0,0,0,2.407,0V18.2A1.2,1.2,0,0,0,26.2,17Z" transform="translate(3.993 2.363)" fill="#36737d"/>
        <ellipse id="Oval" cx="1.204" cy="1.204" rx="1.204" ry="1.204" transform="translate(28.993 35.011)" fill="#36737d"/>
      </g>
    </g>
    <g id="Grupo_1102803" data-name="Grupo 1102803" transform="translate(1329.614 2991)">
      <g id="Grupo_1102800" data-name="Grupo 1102800" transform="translate(19.706 40.644)">
        <g id="Grupo_1102799" data-name="Grupo 1102799">
          <path id="Trazado_876304" data-name="Trazado 876304" d="M184.139,269.474a3.288,3.288,0,0,0-5.187-2.389l-8.393,5.993-.7-6.486a3.888,3.888,0,0,0-7.717-.115l-1.194,8.665-5.441-7.312a3.477,3.477,0,0,0-3.131-1.377,3.462,3.462,0,0,0-2.493,5.415l9.047,13.063c-.115,6.683-3.366,14.958-3.4,15.043a1.162,1.162,0,0,0,1.08,1.59h17.6a1.162,1.162,0,0,0,1.027-1.7,38.7,38.7,0,0,1-3.8-17.409l11.595-10.222A3.256,3.256,0,0,0,184.139,269.474Zm-2.637,1.011-11.966,10.549a1.162,1.162,0,0,0-.392.812,40.55,40.55,0,0,0,3.247,17.394H158.279c1.015-2.9,2.98-9.216,2.98-14.668a1.161,1.161,0,0,0-.207-.661L151.8,270.546a1.139,1.139,0,0,1,.82-1.782,1.146,1.146,0,0,1,1.03.453l7.137,9.59a1.162,1.162,0,0,0,2.083-.535l1.581-11.478a1.565,1.565,0,0,1,3.106.046l.91,8.462a1.161,1.161,0,0,0,1.83.821l10.011-7.148a.965.965,0,0,1,1.2,1.509Z" transform="translate(-149.266 -263.12)" fill="#36737d"/>
        </g>
      </g>
      <g id="Grupo_1102802" data-name="Grupo 1102802" transform="translate(0)">
        <g id="Grupo_1102801" data-name="Grupo 1102801">
          <path id="Trazado_876305" data-name="Trazado 876305" d="M94.079,33.614A12.708,12.708,0,0,0,91.593,26.1a7.218,7.218,0,0,0,1.133-3.9,7.672,7.672,0,0,0-7.806-7.513h-.1A12.678,12.678,0,0,0,72.641,5.943,13.154,13.154,0,0,0,69.2,6.4a12.7,12.7,0,0,0-22.72,1.357,14.912,14.912,0,0,0-3.407-.393A14.336,14.336,0,0,0,29.219,17.5a7.575,7.575,0,0,0-6.6,7.416,7.388,7.388,0,0,0,2.1,5.121,10.567,10.567,0,0,0-3.028,7.382,10.876,10.876,0,0,0,8.551,10.507A14.121,14.121,0,0,0,43.2,59.394a1.162,1.162,0,1,0,.185-2.316A11.75,11.75,0,0,1,32.436,46.829a1.162,1.162,0,0,0-.971-1.025,8.61,8.61,0,0,1-7.449-8.382,8.326,8.326,0,0,1,3.181-6.5,1.161,1.161,0,0,0-.055-1.854,5.056,5.056,0,0,1-2.2-4.15,5.3,5.3,0,0,1,5.246-5.176,1.162,1.162,0,0,0,1.091-.916A11.946,11.946,0,0,1,43.073,9.685a12.578,12.578,0,0,1,3.807.588,1.162,1.162,0,0,0,1.47-.793A10.331,10.331,0,0,1,67.535,8.269,1.161,1.161,0,0,0,68.99,8.9a10.8,10.8,0,0,1,3.651-.63A10.28,10.28,0,0,1,82.8,16.159a1.162,1.162,0,0,0,1.3.908,5.857,5.857,0,0,1,.82-.058A5.348,5.348,0,0,1,90.4,22.2a4.964,4.964,0,0,1-1.162,3.191,1.162,1.162,0,0,0,.011,1.492,10.276,10.276,0,0,1,2.5,6.732,10.8,10.8,0,0,1-8.543,10.4,1.161,1.161,0,0,0-.844,1.471,7.883,7.883,0,0,1-1.262,7.226,11.308,11.308,0,0,1-8.679,4.411c-.334,0-.671-.016-1-.046a1.162,1.162,0,0,0-.216,2.313c.4.038.812.057,1.217.057a13.548,13.548,0,0,0,10.547-5.354,10.224,10.224,0,0,0,1.9-8.134A13.054,13.054,0,0,0,94.079,33.614Z" transform="translate(-21.693)" fill="#36737d"/>
        </g>
      </g>
    </g>
  </g>
</svg>
