<svg xmlns="http://www.w3.org/2000/svg" width="70" height="70" viewBox="0 0 70 70">
  <g id="Grupo_1101942" data-name="Grupo 1101942" transform="translate(-450.051 -1619)">
    <circle id="Elipse_11629" data-name="Elipse 11629" cx="35" cy="35" r="35" transform="translate(450.051 1619)" fill="#afc7cb"/>
    <g id="Grupo_1101945" data-name="Grupo 1101945" transform="translate(463.665 1622.735)">
      <g id="Grupo_1101944" data-name="Grupo 1101944" transform="translate(0 10.78)">
        <path id="Trazado_874984" data-name="Trazado 874984" d="M40.794,12.2H36.941v-.792a.627.627,0,0,0-1.254,0V12.2H31.965v-.792a.627.627,0,1,0-1.254,0V12.2H26.989v-.792a.627.627,0,1,0-1.254,0V12.2H22.013v-.792a.627.627,0,1,0-1.254,0V12.2H17.037v-.792a.627.627,0,0,0-1.254,0V12.2H12.061v-.792a.627.627,0,0,0-1.254,0V12.2H7.085v-.792a.627.627,0,0,0-1.254,0V12.2H1.977A1.98,1.98,0,0,0,0,14.176v.6a.627.627,0,1,0,1.254,0v-.6a.724.724,0,0,1,.723-.723H5.831v.792a.627.627,0,1,0,1.254,0v-.792h3.722v.792a.627.627,0,1,0,1.254,0v-.792h3.722v.792a.627.627,0,1,0,1.254,0v-.792h3.722v.792a.627.627,0,1,0,1.254,0v-.792h3.722v.792a.627.627,0,1,0,1.254,0v-.792h3.722v.792a.627.627,0,1,0,1.254,0v-.792h3.722v.792a.627.627,0,1,0,1.254,0v-.792h3.853a.724.724,0,0,1,.723.723v5.09H1.254V17.639a.627.627,0,1,0-1.254,0V49.773A1.98,1.98,0,0,0,1.977,51.75H40.794a1.98,1.98,0,0,0,1.977-1.977v-35.6A1.98,1.98,0,0,0,40.794,12.2ZM26.09,20.52h6.9v8.263h-6.9ZM17.935,40.688v-1.7h6.9v1.7Zm6.9,1.254v1.774h-6.9V41.942ZM9.78,37.729v-1.7H24.836v1.7ZM4.722,28.783v-1.7H16.681v1.7ZM9.78,33h6.9V34.77H9.78Zm8.155,1.774V33h6.9V34.77ZM9.78,31.742v-1.7H38.049v1.7Zm8.155-5.29V20.52h6.9v8.263h-6.9ZM9.78,20.52h6.9v5.3H9.78ZM8.526,32.369V50.5H1.977a.724.724,0,0,1-.723-.723V20.52H8.526v5.3H4.291a.824.824,0,0,0-.823.823v2.567a.824.824,0,0,0,.823.823H8.526ZM16.681,50.5H9.78V38.983h6.9Zm8.155,0h-6.9V47.929h6.9Zm8.155-3.821H30.738a.627.627,0,1,0,0,1.254h2.254V50.5h-6.9V47.929h1.73a.627.627,0,1,0,0-1.254H17.935v-1.7H32.991Zm0-2.959h-6.9V33h6.9Zm8.526,6.057a.724.724,0,0,1-.723.723H34.246V33h4.235a.824.824,0,0,0,.823-.823V29.607a.824.824,0,0,0-.823-.823H34.246V20.52h7.272V49.773Z" transform="translate(0 -10.78)" fill="#36737d"/>
        <path id="Trazado_874985" data-name="Trazado 874985" d="M42.139,159.362H44.1a.627.627,0,1,0,0-1.254H42.139a.627.627,0,0,0,0,1.254Z" transform="translate(-38.044 -145.801)" fill="#36737d"/>
        <path id="Trazado_874986" data-name="Trazado 874986" d="M141.722,158.109h-1.961a.627.627,0,0,0,0,1.254h1.961a.627.627,0,1,0,0-1.254Z" transform="translate(-127.511 -145.801)" fill="#36737d"/>
        <path id="Trazado_874987" data-name="Trazado 874987" d="M239.344,158.109h-1.961a.627.627,0,1,0,0,1.254h1.961a.627.627,0,0,0,0-1.254Z" transform="translate(-216.978 -145.801)" fill="#36737d"/>
        <path id="Trazado_874988" data-name="Trazado 874988" d="M336.965,158.109H335a.627.627,0,1,0,0,1.254h1.961a.627.627,0,0,0,0-1.254Z" transform="translate(-306.444 -145.801)" fill="#36737d"/>
        <path id="Trazado_874989" data-name="Trazado 874989" d="M432.627,159.362h1.961a.627.627,0,0,0,0-1.254h-1.961a.627.627,0,1,0,0,1.254Z" transform="translate(-395.912 -145.801)" fill="#36737d"/>
      </g>
    </g>
  </g>
</svg>
