<svg xmlns="http://www.w3.org/2000/svg" width="70" height="70" viewBox="0 0 70 70">
  <g id="Grupo_1101946" data-name="Grupo 1101946" transform="translate(-450.051 -1619)">
    <circle id="Elipse_11629" data-name="Elipse 11629" cx="35" cy="35" r="35" transform="translate(450.051 1619)" fill="#afc7cb"/>
    <path id="Trazado_874990" data-name="Trazado 874990" d="M40.542,17.719a1.805,1.805,0,0,0,1.3-.544c1.218-1.241,3.261-3.726,3.261-6.432a4.537,4.537,0,0,0-7.857-3.114,4.632,4.632,0,0,0-1.262,3.306c.093,2.632,2.075,5.033,3.249,6.231a1.828,1.828,0,0,0,1.312.553Zm-2.22-9.074a3.059,3.059,0,0,1,5.293,2.1c0,2.178-1.776,4.313-2.835,5.391a.348.348,0,0,1-.491-.008c-1.023-1.043-2.748-3.112-2.822-5.243A3.137,3.137,0,0,1,38.322,8.645Zm4.656,2.121a2.439,2.439,0,1,0-2.439,2.439,2.439,2.439,0,0,0,2.439-2.439Zm-3.394,0a.954.954,0,1,1,.954.954.954.954,0,0,1-.954-.954Zm5.656,26.6a.743.743,0,0,0-.715-.542H43.2V33.172a.743.743,0,0,0-1-.7l-2.154.8a7.171,7.171,0,0,0-2-2.7h2.924A2.228,2.228,0,0,0,43.2,28.345V21.971a2.228,2.228,0,0,0-2.228-2.228H32.416a3.752,3.752,0,0,0,2.1-1.987,4.623,4.623,0,0,0,.212-3.531,1.752,1.752,0,0,0-1.129-1.18,1.856,1.856,0,0,0-.959-.013,12.312,12.312,0,0,0,.173-3.72,7.886,7.886,0,0,0-1.244-3.439c-1.442-2.059-3.3-2.905-6.622-3.015-2.9-.1-5.056.545-6.4,1.9A4.73,4.73,0,0,0,17.2,7.585c-1.084,1-1.213,2.822-.411,5.432a1.8,1.8,0,0,0-.817.03,1.754,1.754,0,0,0-1.121,1.177,4.626,4.626,0,0,0,.212,3.532,3.752,3.752,0,0,0,2.1,1.988H8.565a2.228,2.228,0,0,0-2.228,2.228v6.374a2.228,2.228,0,0,0,2.228,2.228h2.91a7.176,7.176,0,0,0-1.966,2.7l-2.13-.8a.743.743,0,0,0-1,.7v3.651H5.01a.743.743,0,0,0-.715.542,10.531,10.531,0,0,0,0,5.692.743.743,0,0,0,.715.542H6.375v1.8a.743.743,0,0,0,.743.743H42.455A.743.743,0,0,0,43.2,45.4V43.6h1.327a.743.743,0,0,0,.715-.542,10.531,10.531,0,0,0,0-5.692Zm-6.586-3.573-2.559.953.1-3.639a5.683,5.683,0,0,1,2.459,2.686ZM25,32.462a.743.743,0,0,0-.436,0l-6.6,2.026.138-5.237.465-.17a8.579,8.579,0,0,0,12.357.066l.52.183.136,5.154ZM19.38,23.625c.1.105.2.2.3.3v1.931a1.772,1.772,0,0,1-1.16,1.659l-.5.185a1.091,1.091,0,0,0-1.214-.582l-1.931.419a1.965,1.965,0,0,0-1.508,1.548h-.52V21.229h5.015a7.359,7.359,0,0,0,1.527,2.4ZM21.467,8.8c.722-.328,2.335.21,3,.52a.743.743,0,0,0,.631,0c.668-.313,2.283-.851,3-.52,1.126.514,2.014.919,1.782,3.892a.743.743,0,0,0,.078.394l.78,1.532v3.89A5.9,5.9,0,0,1,29.117,22.6a9.159,9.159,0,0,1-3.38,2.459,3.458,3.458,0,0,1-1.9,0,9.169,9.169,0,0,1-3.38-2.459,5.9,5.9,0,0,1-1.628-4.093V14.62l.778-1.531a.743.743,0,0,0,.078-.394c-.23-2.976.659-3.378,1.784-3.892ZM34.689,27.541l-1.931-.418a1.1,1.1,0,0,0-1.249.653l-.526-.187a1.639,1.639,0,0,1-1.091-1.544V23.928c.1-.1.2-.2.3-.3a7.356,7.356,0,0,0,1.53-2.4h5v7.859H36.2a1.966,1.966,0,0,0-1.515-1.547Zm-5.156.906a7.129,7.129,0,0,1-9.567-.064,3.267,3.267,0,0,0,1.2-2.525v-.619a7.811,7.811,0,0,0,2.2,1.227,4.942,4.942,0,0,0,2.843,0,7.81,7.81,0,0,0,2.2-1.227v.8a3.126,3.126,0,0,0,1.127,2.4ZM14.965,35.32,14.8,29.472a.481.481,0,0,1,.379-.483l1.455-.316-.165,6.272-1.376.423Zm18.119-.377-.165-6.267,1.455.315a.483.483,0,0,1,.379.483L34.6,35.3l-.159.059Zm8.628-12.972v6.374a.743.743,0,0,1-.743.743h-.33V21.229h.33A.743.743,0,0,1,41.713,21.971Zm-2.557-.743v7.859h-.947V21.229Zm-5.992-6.763c.05.016.116.117.166.26a3.169,3.169,0,0,1-.149,2.389,2.487,2.487,0,0,1-.948,1.079V14.837c.515-.337.832-.4.93-.372ZM18.337,8.571a.743.743,0,0,0,.324-.645A3.172,3.172,0,0,1,19.6,5.808c1.03-1.04,2.869-1.542,5.3-1.466,2.861.094,4.288.718,5.454,2.382a6.412,6.412,0,0,1,.98,2.709,13.954,13.954,0,0,1,.046,1.713,3.866,3.866,0,0,0-2.657-3.7c-1.278-.584-3.17.074-3.936.391-.767-.316-2.659-.976-3.936-.391-1.575.719-2.863,1.606-2.666,5.068C17.57,10.484,17.606,9.07,18.337,8.571Zm-1.943,8.54a3.17,3.17,0,0,1-.149-2.389c.05-.142.116-.244.166-.26.094-.028.411.03.933.371v3.357a2.488,2.488,0,0,1-.951-1.077ZM7.822,28.345V21.971a.743.743,0,0,1,.743-.743h.352v7.859H8.565A.743.743,0,0,1,7.822,28.345Zm2.58.743V21.229h.95v7.859Zm2.96,1.979.1,3.691L10.9,33.8a5.69,5.69,0,0,1,2.462-2.73ZM5.591,38.308H7.145a1.9,1.9,0,1,1,0,3.806H5.591a9.049,9.049,0,0,1,0-3.806Zm9.483,2.115a.743.743,0,0,0-.743.743v3.49H7.86V43.519a3.385,3.385,0,0,0,0-6.617V34.243l6.953,2.607a.751.751,0,0,0,.479.015l8.752-2.688V44.658H15.816v-3.49a.743.743,0,0,0-.743-.746Zm10.456,4.233V34.177l8.19,2.516v3.088a.743.743,0,0,0,1.485,0V36.657l6.509-2.418v2.652a3.388,3.388,0,0,0,0,6.639v1.128Zm18.416-2.545H42.39a1.9,1.9,0,1,1,0-3.806h1.554a9.049,9.049,0,0,1,0,3.808ZM15.816,38.8a.743.743,0,1,1-.743-.743A.743.743,0,0,1,15.816,38.8ZM35.2,42.145a.743.743,0,1,1-.743-.743.743.743,0,0,1,.743.743Z" transform="translate(460.283 1629.503)" fill="#36737d"/>
  </g>
</svg>
